%TF.GenerationSoftware,KiCad,Pcbnew,10.0.1*%
%TF.CreationDate,2026-06-30T14:04:32-04:00*%
%TF.ProjectId,DosingPCB,446f7369-6e67-4504-9342-2e6b69636164,rev?*%
%TF.SameCoordinates,Original*%
%TF.FileFunction,Soldermask,Bot*%
%TF.FilePolarity,Negative*%
%FSLAX46Y46*%
G04 Gerber Fmt 4.6, Leading zero omitted, Abs format (unit mm)*
G04 Created by KiCad (PCBNEW 10.0.1) date 2026-06-30 14:04:32*
%MOMM*%
%LPD*%
G01*
G04 APERTURE LIST*
G04 Aperture macros list*
%AMRoundRect*
0 Rectangle with rounded corners*
0 $1 Rounding radius*
0 $2 $3 $4 $5 $6 $7 $8 $9 X,Y pos of 4 corners*
0 Add a 4 corners polygon primitive as box body*
4,1,4,$2,$3,$4,$5,$6,$7,$8,$9,$2,$3,0*
0 Add four circle primitives for the rounded corners*
1,1,$1+$1,$2,$3*
1,1,$1+$1,$4,$5*
1,1,$1+$1,$6,$7*
1,1,$1+$1,$8,$9*
0 Add four rect primitives between the rounded corners*
20,1,$1+$1,$2,$3,$4,$5,0*
20,1,$1+$1,$4,$5,$6,$7,0*
20,1,$1+$1,$6,$7,$8,$9,0*
20,1,$1+$1,$8,$9,$2,$3,0*%
G04 Aperture macros list end*
%ADD10C,0.900000*%
%ADD11R,1.700000X1.700000*%
%ADD12C,1.700000*%
%ADD13RoundRect,0.250000X-0.625000X0.350000X-0.625000X-0.350000X0.625000X-0.350000X0.625000X0.350000X0*%
%ADD14O,1.750000X1.200000*%
%ADD15C,2.200000*%
%ADD16C,0.650000*%
%ADD17O,2.100000X1.000000*%
%ADD18O,1.800000X1.000000*%
%ADD19RoundRect,0.250000X0.620000X0.845000X-0.620000X0.845000X-0.620000X-0.845000X0.620000X-0.845000X0*%
%ADD20O,1.740000X2.190000*%
%ADD21C,0.500000*%
%ADD22C,0.400000*%
G04 APERTURE END LIST*
D10*
%TO.C,SW2*%
X113730000Y-45240000D03*
X110730000Y-45240000D03*
%TD*%
D11*
%TO.C,J3*%
X139080000Y-88765000D03*
D12*
X136540000Y-88765000D03*
X134000000Y-88765000D03*
%TD*%
D13*
%TO.C,J8*%
X48940000Y-94020000D03*
D14*
X48940000Y-96020000D03*
%TD*%
D15*
%TO.C,H5*%
X76460000Y-48180000D03*
%TD*%
D10*
%TO.C,SW5*%
X105670000Y-96245000D03*
X108670000Y-96245000D03*
%TD*%
D16*
%TO.C,J5*%
X156060000Y-94670000D03*
X156060000Y-88890000D03*
D17*
X155560000Y-96100000D03*
D18*
X159740000Y-96100000D03*
D17*
X155560000Y-87460000D03*
D18*
X159740000Y-87460000D03*
%TD*%
D15*
%TO.C,H6*%
X76410000Y-93320000D03*
%TD*%
%TO.C,H4*%
X150710000Y-70750000D03*
%TD*%
D19*
%TO.C,J9*%
X127010000Y-95885000D03*
D20*
X124470000Y-95885000D03*
X121930000Y-95885000D03*
%TD*%
D21*
%TO.C,REF\u002A\u002A*%
X163440000Y-71040000D03*
X163440000Y-70190000D03*
X163440000Y-69340000D03*
X163440000Y-68490000D03*
X163440000Y-67640000D03*
X163440000Y-66790000D03*
X163440000Y-65940000D03*
X163440000Y-65090000D03*
X163440000Y-64240000D03*
X163440000Y-63390000D03*
X163440000Y-62540000D03*
%TD*%
D15*
%TO.C,H7*%
X176035000Y-62090000D03*
%TD*%
D13*
%TO.C,J7*%
X48940000Y-84670000D03*
D14*
X48940000Y-86670000D03*
%TD*%
D11*
%TO.C,J1*%
X119980000Y-44520000D03*
D12*
X122520000Y-44520000D03*
X125060000Y-44520000D03*
X127600000Y-44520000D03*
X130140000Y-44520000D03*
X132680000Y-44520000D03*
%TD*%
D21*
%TO.C,REF\u002A\u002A*%
X166790000Y-80360000D03*
X166790000Y-79510000D03*
X166790000Y-78660000D03*
X166790000Y-77810000D03*
X166790000Y-76960000D03*
X166790000Y-76110000D03*
X166790000Y-75260000D03*
X166790000Y-74410000D03*
X166790000Y-73560000D03*
X166790000Y-72710000D03*
X166790000Y-71860000D03*
%TD*%
D11*
%TO.C,J2*%
X126010000Y-64380000D03*
D12*
X126010000Y-66920000D03*
%TD*%
D22*
%TO.C,U2*%
X104900000Y-70490000D03*
X104900000Y-71690000D03*
X106100000Y-70490000D03*
X106100000Y-71690000D03*
%TD*%
D15*
%TO.C,H8*%
X176055000Y-79600000D03*
%TD*%
D21*
%TO.C,REF\u002A\u002A*%
X163440000Y-80390000D03*
X163440000Y-79540000D03*
X163440000Y-78690000D03*
X163440000Y-77840000D03*
X163440000Y-76990000D03*
X163440000Y-76140000D03*
X163440000Y-75290000D03*
X163440000Y-74440000D03*
X163440000Y-73590000D03*
X163440000Y-72740000D03*
X163440000Y-71890000D03*
%TD*%
%TO.C,REF\u002A\u002A*%
X166800000Y-71010000D03*
X166800000Y-70160000D03*
X166800000Y-69310000D03*
X166800000Y-68460000D03*
X166800000Y-67610000D03*
X166800000Y-66760000D03*
X166800000Y-65910000D03*
X166800000Y-65060000D03*
X166800000Y-64210000D03*
X166800000Y-63360000D03*
X166800000Y-62510000D03*
%TD*%
D11*
%TO.C,J4*%
X116090000Y-78810000D03*
D12*
X118630000Y-78810000D03*
X121170000Y-78810000D03*
X123710000Y-78810000D03*
X126250000Y-78810000D03*
X128790000Y-78810000D03*
X131330000Y-78810000D03*
X133870000Y-78810000D03*
%TD*%
M02*
