%TF.GenerationSoftware,KiCad,Pcbnew,10.0.1*%
%TF.CreationDate,2026-06-30T14:04:32-04:00*%
%TF.ProjectId,DosingPCB,446f7369-6e67-4504-9342-2e6b69636164,rev?*%
%TF.SameCoordinates,Original*%
%TF.FileFunction,Legend,Top*%
%TF.FilePolarity,Positive*%
%FSLAX46Y46*%
G04 Gerber Fmt 4.6, Leading zero omitted, Abs format (unit mm)*
G04 Created by KiCad (PCBNEW 10.0.1) date 2026-06-30 14:04:32*
%MOMM*%
%LPD*%
G01*
G04 APERTURE LIST*
%ADD10C,0.500000*%
%ADD11C,0.150000*%
%ADD12C,0.120000*%
%ADD13C,0.127000*%
%ADD14C,0.200000*%
%ADD15C,0.000000*%
G04 APERTURE END LIST*
D10*
X115911466Y-51813692D02*
X115911466Y-48813692D01*
X115911466Y-48813692D02*
X116911466Y-50956549D01*
X116911466Y-50956549D02*
X117911466Y-48813692D01*
X117911466Y-48813692D02*
X117911466Y-51813692D01*
X119340037Y-51813692D02*
X119340037Y-48813692D01*
X120340037Y-48813692D02*
X122054323Y-48813692D01*
X121197180Y-51813692D02*
X121197180Y-48813692D01*
X123054322Y-50242263D02*
X124054322Y-50242263D01*
X124482894Y-51813692D02*
X123054322Y-51813692D01*
X123054322Y-51813692D02*
X123054322Y-48813692D01*
X123054322Y-48813692D02*
X124482894Y-48813692D01*
X116482895Y-53643524D02*
X117054323Y-53643524D01*
X117054323Y-53643524D02*
X117340038Y-53786381D01*
X117340038Y-53786381D02*
X117625752Y-54072095D01*
X117625752Y-54072095D02*
X117768609Y-54643524D01*
X117768609Y-54643524D02*
X117768609Y-55643524D01*
X117768609Y-55643524D02*
X117625752Y-56214952D01*
X117625752Y-56214952D02*
X117340038Y-56500667D01*
X117340038Y-56500667D02*
X117054323Y-56643524D01*
X117054323Y-56643524D02*
X116482895Y-56643524D01*
X116482895Y-56643524D02*
X116197181Y-56500667D01*
X116197181Y-56500667D02*
X115911466Y-56214952D01*
X115911466Y-56214952D02*
X115768609Y-55643524D01*
X115768609Y-55643524D02*
X115768609Y-54643524D01*
X115768609Y-54643524D02*
X115911466Y-54072095D01*
X115911466Y-54072095D02*
X116197181Y-53786381D01*
X116197181Y-53786381D02*
X116482895Y-53643524D01*
X119054323Y-53643524D02*
X119054323Y-56072095D01*
X119054323Y-56072095D02*
X119197180Y-56357809D01*
X119197180Y-56357809D02*
X119340038Y-56500667D01*
X119340038Y-56500667D02*
X119625752Y-56643524D01*
X119625752Y-56643524D02*
X120197180Y-56643524D01*
X120197180Y-56643524D02*
X120482895Y-56500667D01*
X120482895Y-56500667D02*
X120625752Y-56357809D01*
X120625752Y-56357809D02*
X120768609Y-56072095D01*
X120768609Y-56072095D02*
X120768609Y-53643524D01*
X121768609Y-53643524D02*
X123482895Y-53643524D01*
X122625752Y-56643524D02*
X122625752Y-53643524D01*
D11*
X110896667Y-49177200D02*
X111039524Y-49224819D01*
X111039524Y-49224819D02*
X111277619Y-49224819D01*
X111277619Y-49224819D02*
X111372857Y-49177200D01*
X111372857Y-49177200D02*
X111420476Y-49129580D01*
X111420476Y-49129580D02*
X111468095Y-49034342D01*
X111468095Y-49034342D02*
X111468095Y-48939104D01*
X111468095Y-48939104D02*
X111420476Y-48843866D01*
X111420476Y-48843866D02*
X111372857Y-48796247D01*
X111372857Y-48796247D02*
X111277619Y-48748628D01*
X111277619Y-48748628D02*
X111087143Y-48701009D01*
X111087143Y-48701009D02*
X110991905Y-48653390D01*
X110991905Y-48653390D02*
X110944286Y-48605771D01*
X110944286Y-48605771D02*
X110896667Y-48510533D01*
X110896667Y-48510533D02*
X110896667Y-48415295D01*
X110896667Y-48415295D02*
X110944286Y-48320057D01*
X110944286Y-48320057D02*
X110991905Y-48272438D01*
X110991905Y-48272438D02*
X111087143Y-48224819D01*
X111087143Y-48224819D02*
X111325238Y-48224819D01*
X111325238Y-48224819D02*
X111468095Y-48272438D01*
X111801429Y-48224819D02*
X112039524Y-49224819D01*
X112039524Y-49224819D02*
X112230000Y-48510533D01*
X112230000Y-48510533D02*
X112420476Y-49224819D01*
X112420476Y-49224819D02*
X112658572Y-48224819D01*
X112991905Y-48320057D02*
X113039524Y-48272438D01*
X113039524Y-48272438D02*
X113134762Y-48224819D01*
X113134762Y-48224819D02*
X113372857Y-48224819D01*
X113372857Y-48224819D02*
X113468095Y-48272438D01*
X113468095Y-48272438D02*
X113515714Y-48320057D01*
X113515714Y-48320057D02*
X113563333Y-48415295D01*
X113563333Y-48415295D02*
X113563333Y-48510533D01*
X113563333Y-48510533D02*
X113515714Y-48653390D01*
X113515714Y-48653390D02*
X112944286Y-49224819D01*
X112944286Y-49224819D02*
X113563333Y-49224819D01*
X67311667Y-49762200D02*
X67454524Y-49809819D01*
X67454524Y-49809819D02*
X67692619Y-49809819D01*
X67692619Y-49809819D02*
X67787857Y-49762200D01*
X67787857Y-49762200D02*
X67835476Y-49714580D01*
X67835476Y-49714580D02*
X67883095Y-49619342D01*
X67883095Y-49619342D02*
X67883095Y-49524104D01*
X67883095Y-49524104D02*
X67835476Y-49428866D01*
X67835476Y-49428866D02*
X67787857Y-49381247D01*
X67787857Y-49381247D02*
X67692619Y-49333628D01*
X67692619Y-49333628D02*
X67502143Y-49286009D01*
X67502143Y-49286009D02*
X67406905Y-49238390D01*
X67406905Y-49238390D02*
X67359286Y-49190771D01*
X67359286Y-49190771D02*
X67311667Y-49095533D01*
X67311667Y-49095533D02*
X67311667Y-49000295D01*
X67311667Y-49000295D02*
X67359286Y-48905057D01*
X67359286Y-48905057D02*
X67406905Y-48857438D01*
X67406905Y-48857438D02*
X67502143Y-48809819D01*
X67502143Y-48809819D02*
X67740238Y-48809819D01*
X67740238Y-48809819D02*
X67883095Y-48857438D01*
X68216429Y-48809819D02*
X68454524Y-49809819D01*
X68454524Y-49809819D02*
X68645000Y-49095533D01*
X68645000Y-49095533D02*
X68835476Y-49809819D01*
X68835476Y-49809819D02*
X69073572Y-48809819D01*
X69359286Y-48809819D02*
X69978333Y-48809819D01*
X69978333Y-48809819D02*
X69645000Y-49190771D01*
X69645000Y-49190771D02*
X69787857Y-49190771D01*
X69787857Y-49190771D02*
X69883095Y-49238390D01*
X69883095Y-49238390D02*
X69930714Y-49286009D01*
X69930714Y-49286009D02*
X69978333Y-49381247D01*
X69978333Y-49381247D02*
X69978333Y-49619342D01*
X69978333Y-49619342D02*
X69930714Y-49714580D01*
X69930714Y-49714580D02*
X69883095Y-49762200D01*
X69883095Y-49762200D02*
X69787857Y-49809819D01*
X69787857Y-49809819D02*
X69502143Y-49809819D01*
X69502143Y-49809819D02*
X69406905Y-49762200D01*
X69406905Y-49762200D02*
X69359286Y-49714580D01*
X142928095Y-53644819D02*
X142928095Y-54454342D01*
X142928095Y-54454342D02*
X142975714Y-54549580D01*
X142975714Y-54549580D02*
X143023333Y-54597200D01*
X143023333Y-54597200D02*
X143118571Y-54644819D01*
X143118571Y-54644819D02*
X143309047Y-54644819D01*
X143309047Y-54644819D02*
X143404285Y-54597200D01*
X143404285Y-54597200D02*
X143451904Y-54549580D01*
X143451904Y-54549580D02*
X143499523Y-54454342D01*
X143499523Y-54454342D02*
X143499523Y-53644819D01*
X144451904Y-53644819D02*
X143975714Y-53644819D01*
X143975714Y-53644819D02*
X143928095Y-54121009D01*
X143928095Y-54121009D02*
X143975714Y-54073390D01*
X143975714Y-54073390D02*
X144070952Y-54025771D01*
X144070952Y-54025771D02*
X144309047Y-54025771D01*
X144309047Y-54025771D02*
X144404285Y-54073390D01*
X144404285Y-54073390D02*
X144451904Y-54121009D01*
X144451904Y-54121009D02*
X144499523Y-54216247D01*
X144499523Y-54216247D02*
X144499523Y-54454342D01*
X144499523Y-54454342D02*
X144451904Y-54549580D01*
X144451904Y-54549580D02*
X144404285Y-54597200D01*
X144404285Y-54597200D02*
X144309047Y-54644819D01*
X144309047Y-54644819D02*
X144070952Y-54644819D01*
X144070952Y-54644819D02*
X143975714Y-54597200D01*
X143975714Y-54597200D02*
X143928095Y-54549580D01*
X52569580Y-83757857D02*
X52617200Y-83805476D01*
X52617200Y-83805476D02*
X52664819Y-83948333D01*
X52664819Y-83948333D02*
X52664819Y-84043571D01*
X52664819Y-84043571D02*
X52617200Y-84186428D01*
X52617200Y-84186428D02*
X52521961Y-84281666D01*
X52521961Y-84281666D02*
X52426723Y-84329285D01*
X52426723Y-84329285D02*
X52236247Y-84376904D01*
X52236247Y-84376904D02*
X52093390Y-84376904D01*
X52093390Y-84376904D02*
X51902914Y-84329285D01*
X51902914Y-84329285D02*
X51807676Y-84281666D01*
X51807676Y-84281666D02*
X51712438Y-84186428D01*
X51712438Y-84186428D02*
X51664819Y-84043571D01*
X51664819Y-84043571D02*
X51664819Y-83948333D01*
X51664819Y-83948333D02*
X51712438Y-83805476D01*
X51712438Y-83805476D02*
X51760057Y-83757857D01*
X52664819Y-82805476D02*
X52664819Y-83376904D01*
X52664819Y-83091190D02*
X51664819Y-83091190D01*
X51664819Y-83091190D02*
X51807676Y-83186428D01*
X51807676Y-83186428D02*
X51902914Y-83281666D01*
X51902914Y-83281666D02*
X51950533Y-83376904D01*
X51760057Y-82424523D02*
X51712438Y-82376904D01*
X51712438Y-82376904D02*
X51664819Y-82281666D01*
X51664819Y-82281666D02*
X51664819Y-82043571D01*
X51664819Y-82043571D02*
X51712438Y-81948333D01*
X51712438Y-81948333D02*
X51760057Y-81900714D01*
X51760057Y-81900714D02*
X51855295Y-81853095D01*
X51855295Y-81853095D02*
X51950533Y-81853095D01*
X51950533Y-81853095D02*
X52093390Y-81900714D01*
X52093390Y-81900714D02*
X52664819Y-82472142D01*
X52664819Y-82472142D02*
X52664819Y-81853095D01*
X140804819Y-93483333D02*
X141519104Y-93483333D01*
X141519104Y-93483333D02*
X141661961Y-93530952D01*
X141661961Y-93530952D02*
X141757200Y-93626190D01*
X141757200Y-93626190D02*
X141804819Y-93769047D01*
X141804819Y-93769047D02*
X141804819Y-93864285D01*
X140804819Y-93102380D02*
X140804819Y-92483333D01*
X140804819Y-92483333D02*
X141185771Y-92816666D01*
X141185771Y-92816666D02*
X141185771Y-92673809D01*
X141185771Y-92673809D02*
X141233390Y-92578571D01*
X141233390Y-92578571D02*
X141281009Y-92530952D01*
X141281009Y-92530952D02*
X141376247Y-92483333D01*
X141376247Y-92483333D02*
X141614342Y-92483333D01*
X141614342Y-92483333D02*
X141709580Y-92530952D01*
X141709580Y-92530952D02*
X141757200Y-92578571D01*
X141757200Y-92578571D02*
X141804819Y-92673809D01*
X141804819Y-92673809D02*
X141804819Y-92959523D01*
X141804819Y-92959523D02*
X141757200Y-93054761D01*
X141757200Y-93054761D02*
X141709580Y-93102380D01*
X65229819Y-67366666D02*
X64753628Y-67699999D01*
X65229819Y-67938094D02*
X64229819Y-67938094D01*
X64229819Y-67938094D02*
X64229819Y-67557142D01*
X64229819Y-67557142D02*
X64277438Y-67461904D01*
X64277438Y-67461904D02*
X64325057Y-67414285D01*
X64325057Y-67414285D02*
X64420295Y-67366666D01*
X64420295Y-67366666D02*
X64563152Y-67366666D01*
X64563152Y-67366666D02*
X64658390Y-67414285D01*
X64658390Y-67414285D02*
X64706009Y-67461904D01*
X64706009Y-67461904D02*
X64753628Y-67557142D01*
X64753628Y-67557142D02*
X64753628Y-67938094D01*
X65229819Y-66890475D02*
X65229819Y-66699999D01*
X65229819Y-66699999D02*
X65182200Y-66604761D01*
X65182200Y-66604761D02*
X65134580Y-66557142D01*
X65134580Y-66557142D02*
X64991723Y-66461904D01*
X64991723Y-66461904D02*
X64801247Y-66414285D01*
X64801247Y-66414285D02*
X64420295Y-66414285D01*
X64420295Y-66414285D02*
X64325057Y-66461904D01*
X64325057Y-66461904D02*
X64277438Y-66509523D01*
X64277438Y-66509523D02*
X64229819Y-66604761D01*
X64229819Y-66604761D02*
X64229819Y-66795237D01*
X64229819Y-66795237D02*
X64277438Y-66890475D01*
X64277438Y-66890475D02*
X64325057Y-66938094D01*
X64325057Y-66938094D02*
X64420295Y-66985713D01*
X64420295Y-66985713D02*
X64658390Y-66985713D01*
X64658390Y-66985713D02*
X64753628Y-66938094D01*
X64753628Y-66938094D02*
X64801247Y-66890475D01*
X64801247Y-66890475D02*
X64848866Y-66795237D01*
X64848866Y-66795237D02*
X64848866Y-66604761D01*
X64848866Y-66604761D02*
X64801247Y-66509523D01*
X64801247Y-66509523D02*
X64753628Y-66461904D01*
X64753628Y-66461904D02*
X64658390Y-66414285D01*
X68034819Y-81532857D02*
X67558628Y-81866190D01*
X68034819Y-82104285D02*
X67034819Y-82104285D01*
X67034819Y-82104285D02*
X67034819Y-81723333D01*
X67034819Y-81723333D02*
X67082438Y-81628095D01*
X67082438Y-81628095D02*
X67130057Y-81580476D01*
X67130057Y-81580476D02*
X67225295Y-81532857D01*
X67225295Y-81532857D02*
X67368152Y-81532857D01*
X67368152Y-81532857D02*
X67463390Y-81580476D01*
X67463390Y-81580476D02*
X67511009Y-81628095D01*
X67511009Y-81628095D02*
X67558628Y-81723333D01*
X67558628Y-81723333D02*
X67558628Y-82104285D01*
X68034819Y-80580476D02*
X68034819Y-81151904D01*
X68034819Y-80866190D02*
X67034819Y-80866190D01*
X67034819Y-80866190D02*
X67177676Y-80961428D01*
X67177676Y-80961428D02*
X67272914Y-81056666D01*
X67272914Y-81056666D02*
X67320533Y-81151904D01*
X67368152Y-79723333D02*
X68034819Y-79723333D01*
X66987200Y-79961428D02*
X67701485Y-80199523D01*
X67701485Y-80199523D02*
X67701485Y-79580476D01*
X74754819Y-86865357D02*
X74278628Y-87198690D01*
X74754819Y-87436785D02*
X73754819Y-87436785D01*
X73754819Y-87436785D02*
X73754819Y-87055833D01*
X73754819Y-87055833D02*
X73802438Y-86960595D01*
X73802438Y-86960595D02*
X73850057Y-86912976D01*
X73850057Y-86912976D02*
X73945295Y-86865357D01*
X73945295Y-86865357D02*
X74088152Y-86865357D01*
X74088152Y-86865357D02*
X74183390Y-86912976D01*
X74183390Y-86912976D02*
X74231009Y-86960595D01*
X74231009Y-86960595D02*
X74278628Y-87055833D01*
X74278628Y-87055833D02*
X74278628Y-87436785D01*
X74754819Y-85912976D02*
X74754819Y-86484404D01*
X74754819Y-86198690D02*
X73754819Y-86198690D01*
X73754819Y-86198690D02*
X73897676Y-86293928D01*
X73897676Y-86293928D02*
X73992914Y-86389166D01*
X73992914Y-86389166D02*
X74040533Y-86484404D01*
X73850057Y-85532023D02*
X73802438Y-85484404D01*
X73802438Y-85484404D02*
X73754819Y-85389166D01*
X73754819Y-85389166D02*
X73754819Y-85151071D01*
X73754819Y-85151071D02*
X73802438Y-85055833D01*
X73802438Y-85055833D02*
X73850057Y-85008214D01*
X73850057Y-85008214D02*
X73945295Y-84960595D01*
X73945295Y-84960595D02*
X74040533Y-84960595D01*
X74040533Y-84960595D02*
X74183390Y-85008214D01*
X74183390Y-85008214D02*
X74754819Y-85579642D01*
X74754819Y-85579642D02*
X74754819Y-84960595D01*
X53389580Y-77176666D02*
X53437200Y-77224285D01*
X53437200Y-77224285D02*
X53484819Y-77367142D01*
X53484819Y-77367142D02*
X53484819Y-77462380D01*
X53484819Y-77462380D02*
X53437200Y-77605237D01*
X53437200Y-77605237D02*
X53341961Y-77700475D01*
X53341961Y-77700475D02*
X53246723Y-77748094D01*
X53246723Y-77748094D02*
X53056247Y-77795713D01*
X53056247Y-77795713D02*
X52913390Y-77795713D01*
X52913390Y-77795713D02*
X52722914Y-77748094D01*
X52722914Y-77748094D02*
X52627676Y-77700475D01*
X52627676Y-77700475D02*
X52532438Y-77605237D01*
X52532438Y-77605237D02*
X52484819Y-77462380D01*
X52484819Y-77462380D02*
X52484819Y-77367142D01*
X52484819Y-77367142D02*
X52532438Y-77224285D01*
X52532438Y-77224285D02*
X52580057Y-77176666D01*
X52580057Y-76795713D02*
X52532438Y-76748094D01*
X52532438Y-76748094D02*
X52484819Y-76652856D01*
X52484819Y-76652856D02*
X52484819Y-76414761D01*
X52484819Y-76414761D02*
X52532438Y-76319523D01*
X52532438Y-76319523D02*
X52580057Y-76271904D01*
X52580057Y-76271904D02*
X52675295Y-76224285D01*
X52675295Y-76224285D02*
X52770533Y-76224285D01*
X52770533Y-76224285D02*
X52913390Y-76271904D01*
X52913390Y-76271904D02*
X53484819Y-76843332D01*
X53484819Y-76843332D02*
X53484819Y-76224285D01*
X50944819Y-95353333D02*
X51659104Y-95353333D01*
X51659104Y-95353333D02*
X51801961Y-95400952D01*
X51801961Y-95400952D02*
X51897200Y-95496190D01*
X51897200Y-95496190D02*
X51944819Y-95639047D01*
X51944819Y-95639047D02*
X51944819Y-95734285D01*
X51373390Y-94734285D02*
X51325771Y-94829523D01*
X51325771Y-94829523D02*
X51278152Y-94877142D01*
X51278152Y-94877142D02*
X51182914Y-94924761D01*
X51182914Y-94924761D02*
X51135295Y-94924761D01*
X51135295Y-94924761D02*
X51040057Y-94877142D01*
X51040057Y-94877142D02*
X50992438Y-94829523D01*
X50992438Y-94829523D02*
X50944819Y-94734285D01*
X50944819Y-94734285D02*
X50944819Y-94543809D01*
X50944819Y-94543809D02*
X50992438Y-94448571D01*
X50992438Y-94448571D02*
X51040057Y-94400952D01*
X51040057Y-94400952D02*
X51135295Y-94353333D01*
X51135295Y-94353333D02*
X51182914Y-94353333D01*
X51182914Y-94353333D02*
X51278152Y-94400952D01*
X51278152Y-94400952D02*
X51325771Y-94448571D01*
X51325771Y-94448571D02*
X51373390Y-94543809D01*
X51373390Y-94543809D02*
X51373390Y-94734285D01*
X51373390Y-94734285D02*
X51421009Y-94829523D01*
X51421009Y-94829523D02*
X51468628Y-94877142D01*
X51468628Y-94877142D02*
X51563866Y-94924761D01*
X51563866Y-94924761D02*
X51754342Y-94924761D01*
X51754342Y-94924761D02*
X51849580Y-94877142D01*
X51849580Y-94877142D02*
X51897200Y-94829523D01*
X51897200Y-94829523D02*
X51944819Y-94734285D01*
X51944819Y-94734285D02*
X51944819Y-94543809D01*
X51944819Y-94543809D02*
X51897200Y-94448571D01*
X51897200Y-94448571D02*
X51849580Y-94400952D01*
X51849580Y-94400952D02*
X51754342Y-94353333D01*
X51754342Y-94353333D02*
X51563866Y-94353333D01*
X51563866Y-94353333D02*
X51468628Y-94400952D01*
X51468628Y-94400952D02*
X51421009Y-94448571D01*
X51421009Y-94448571D02*
X51373390Y-94543809D01*
X162939819Y-51143333D02*
X163654104Y-51143333D01*
X163654104Y-51143333D02*
X163796961Y-51190952D01*
X163796961Y-51190952D02*
X163892200Y-51286190D01*
X163892200Y-51286190D02*
X163939819Y-51429047D01*
X163939819Y-51429047D02*
X163939819Y-51524285D01*
X162939819Y-50238571D02*
X162939819Y-50429047D01*
X162939819Y-50429047D02*
X162987438Y-50524285D01*
X162987438Y-50524285D02*
X163035057Y-50571904D01*
X163035057Y-50571904D02*
X163177914Y-50667142D01*
X163177914Y-50667142D02*
X163368390Y-50714761D01*
X163368390Y-50714761D02*
X163749342Y-50714761D01*
X163749342Y-50714761D02*
X163844580Y-50667142D01*
X163844580Y-50667142D02*
X163892200Y-50619523D01*
X163892200Y-50619523D02*
X163939819Y-50524285D01*
X163939819Y-50524285D02*
X163939819Y-50333809D01*
X163939819Y-50333809D02*
X163892200Y-50238571D01*
X163892200Y-50238571D02*
X163844580Y-50190952D01*
X163844580Y-50190952D02*
X163749342Y-50143333D01*
X163749342Y-50143333D02*
X163511247Y-50143333D01*
X163511247Y-50143333D02*
X163416009Y-50190952D01*
X163416009Y-50190952D02*
X163368390Y-50238571D01*
X163368390Y-50238571D02*
X163320771Y-50333809D01*
X163320771Y-50333809D02*
X163320771Y-50524285D01*
X163320771Y-50524285D02*
X163368390Y-50619523D01*
X163368390Y-50619523D02*
X163416009Y-50667142D01*
X163416009Y-50667142D02*
X163511247Y-50714761D01*
X58797142Y-98049580D02*
X58749523Y-98097200D01*
X58749523Y-98097200D02*
X58606666Y-98144819D01*
X58606666Y-98144819D02*
X58511428Y-98144819D01*
X58511428Y-98144819D02*
X58368571Y-98097200D01*
X58368571Y-98097200D02*
X58273333Y-98001961D01*
X58273333Y-98001961D02*
X58225714Y-97906723D01*
X58225714Y-97906723D02*
X58178095Y-97716247D01*
X58178095Y-97716247D02*
X58178095Y-97573390D01*
X58178095Y-97573390D02*
X58225714Y-97382914D01*
X58225714Y-97382914D02*
X58273333Y-97287676D01*
X58273333Y-97287676D02*
X58368571Y-97192438D01*
X58368571Y-97192438D02*
X58511428Y-97144819D01*
X58511428Y-97144819D02*
X58606666Y-97144819D01*
X58606666Y-97144819D02*
X58749523Y-97192438D01*
X58749523Y-97192438D02*
X58797142Y-97240057D01*
X59749523Y-98144819D02*
X59178095Y-98144819D01*
X59463809Y-98144819D02*
X59463809Y-97144819D01*
X59463809Y-97144819D02*
X59368571Y-97287676D01*
X59368571Y-97287676D02*
X59273333Y-97382914D01*
X59273333Y-97382914D02*
X59178095Y-97430533D01*
X60368571Y-97144819D02*
X60463809Y-97144819D01*
X60463809Y-97144819D02*
X60559047Y-97192438D01*
X60559047Y-97192438D02*
X60606666Y-97240057D01*
X60606666Y-97240057D02*
X60654285Y-97335295D01*
X60654285Y-97335295D02*
X60701904Y-97525771D01*
X60701904Y-97525771D02*
X60701904Y-97763866D01*
X60701904Y-97763866D02*
X60654285Y-97954342D01*
X60654285Y-97954342D02*
X60606666Y-98049580D01*
X60606666Y-98049580D02*
X60559047Y-98097200D01*
X60559047Y-98097200D02*
X60463809Y-98144819D01*
X60463809Y-98144819D02*
X60368571Y-98144819D01*
X60368571Y-98144819D02*
X60273333Y-98097200D01*
X60273333Y-98097200D02*
X60225714Y-98049580D01*
X60225714Y-98049580D02*
X60178095Y-97954342D01*
X60178095Y-97954342D02*
X60130476Y-97763866D01*
X60130476Y-97763866D02*
X60130476Y-97525771D01*
X60130476Y-97525771D02*
X60178095Y-97335295D01*
X60178095Y-97335295D02*
X60225714Y-97240057D01*
X60225714Y-97240057D02*
X60273333Y-97192438D01*
X60273333Y-97192438D02*
X60368571Y-97144819D01*
X115047142Y-93289819D02*
X114713809Y-92813628D01*
X114475714Y-93289819D02*
X114475714Y-92289819D01*
X114475714Y-92289819D02*
X114856666Y-92289819D01*
X114856666Y-92289819D02*
X114951904Y-92337438D01*
X114951904Y-92337438D02*
X114999523Y-92385057D01*
X114999523Y-92385057D02*
X115047142Y-92480295D01*
X115047142Y-92480295D02*
X115047142Y-92623152D01*
X115047142Y-92623152D02*
X114999523Y-92718390D01*
X114999523Y-92718390D02*
X114951904Y-92766009D01*
X114951904Y-92766009D02*
X114856666Y-92813628D01*
X114856666Y-92813628D02*
X114475714Y-92813628D01*
X115428095Y-92385057D02*
X115475714Y-92337438D01*
X115475714Y-92337438D02*
X115570952Y-92289819D01*
X115570952Y-92289819D02*
X115809047Y-92289819D01*
X115809047Y-92289819D02*
X115904285Y-92337438D01*
X115904285Y-92337438D02*
X115951904Y-92385057D01*
X115951904Y-92385057D02*
X115999523Y-92480295D01*
X115999523Y-92480295D02*
X115999523Y-92575533D01*
X115999523Y-92575533D02*
X115951904Y-92718390D01*
X115951904Y-92718390D02*
X115380476Y-93289819D01*
X115380476Y-93289819D02*
X115999523Y-93289819D01*
X116332857Y-92289819D02*
X116951904Y-92289819D01*
X116951904Y-92289819D02*
X116618571Y-92670771D01*
X116618571Y-92670771D02*
X116761428Y-92670771D01*
X116761428Y-92670771D02*
X116856666Y-92718390D01*
X116856666Y-92718390D02*
X116904285Y-92766009D01*
X116904285Y-92766009D02*
X116951904Y-92861247D01*
X116951904Y-92861247D02*
X116951904Y-93099342D01*
X116951904Y-93099342D02*
X116904285Y-93194580D01*
X116904285Y-93194580D02*
X116856666Y-93242200D01*
X116856666Y-93242200D02*
X116761428Y-93289819D01*
X116761428Y-93289819D02*
X116475714Y-93289819D01*
X116475714Y-93289819D02*
X116380476Y-93242200D01*
X116380476Y-93242200D02*
X116332857Y-93194580D01*
X89485833Y-55464819D02*
X89152500Y-54988628D01*
X88914405Y-55464819D02*
X88914405Y-54464819D01*
X88914405Y-54464819D02*
X89295357Y-54464819D01*
X89295357Y-54464819D02*
X89390595Y-54512438D01*
X89390595Y-54512438D02*
X89438214Y-54560057D01*
X89438214Y-54560057D02*
X89485833Y-54655295D01*
X89485833Y-54655295D02*
X89485833Y-54798152D01*
X89485833Y-54798152D02*
X89438214Y-54893390D01*
X89438214Y-54893390D02*
X89390595Y-54941009D01*
X89390595Y-54941009D02*
X89295357Y-54988628D01*
X89295357Y-54988628D02*
X88914405Y-54988628D01*
X89866786Y-54560057D02*
X89914405Y-54512438D01*
X89914405Y-54512438D02*
X90009643Y-54464819D01*
X90009643Y-54464819D02*
X90247738Y-54464819D01*
X90247738Y-54464819D02*
X90342976Y-54512438D01*
X90342976Y-54512438D02*
X90390595Y-54560057D01*
X90390595Y-54560057D02*
X90438214Y-54655295D01*
X90438214Y-54655295D02*
X90438214Y-54750533D01*
X90438214Y-54750533D02*
X90390595Y-54893390D01*
X90390595Y-54893390D02*
X89819167Y-55464819D01*
X89819167Y-55464819D02*
X90438214Y-55464819D01*
X62984819Y-81720357D02*
X62508628Y-82053690D01*
X62984819Y-82291785D02*
X61984819Y-82291785D01*
X61984819Y-82291785D02*
X61984819Y-81910833D01*
X61984819Y-81910833D02*
X62032438Y-81815595D01*
X62032438Y-81815595D02*
X62080057Y-81767976D01*
X62080057Y-81767976D02*
X62175295Y-81720357D01*
X62175295Y-81720357D02*
X62318152Y-81720357D01*
X62318152Y-81720357D02*
X62413390Y-81767976D01*
X62413390Y-81767976D02*
X62461009Y-81815595D01*
X62461009Y-81815595D02*
X62508628Y-81910833D01*
X62508628Y-81910833D02*
X62508628Y-82291785D01*
X62984819Y-80767976D02*
X62984819Y-81339404D01*
X62984819Y-81053690D02*
X61984819Y-81053690D01*
X61984819Y-81053690D02*
X62127676Y-81148928D01*
X62127676Y-81148928D02*
X62222914Y-81244166D01*
X62222914Y-81244166D02*
X62270533Y-81339404D01*
X61984819Y-79863214D02*
X61984819Y-80339404D01*
X61984819Y-80339404D02*
X62461009Y-80387023D01*
X62461009Y-80387023D02*
X62413390Y-80339404D01*
X62413390Y-80339404D02*
X62365771Y-80244166D01*
X62365771Y-80244166D02*
X62365771Y-80006071D01*
X62365771Y-80006071D02*
X62413390Y-79910833D01*
X62413390Y-79910833D02*
X62461009Y-79863214D01*
X62461009Y-79863214D02*
X62556247Y-79815595D01*
X62556247Y-79815595D02*
X62794342Y-79815595D01*
X62794342Y-79815595D02*
X62889580Y-79863214D01*
X62889580Y-79863214D02*
X62937200Y-79910833D01*
X62937200Y-79910833D02*
X62984819Y-80006071D01*
X62984819Y-80006071D02*
X62984819Y-80244166D01*
X62984819Y-80244166D02*
X62937200Y-80339404D01*
X62937200Y-80339404D02*
X62889580Y-80387023D01*
X75698095Y-45484819D02*
X75698095Y-44484819D01*
X75698095Y-44961009D02*
X76269523Y-44961009D01*
X76269523Y-45484819D02*
X76269523Y-44484819D01*
X77221904Y-44484819D02*
X76745714Y-44484819D01*
X76745714Y-44484819D02*
X76698095Y-44961009D01*
X76698095Y-44961009D02*
X76745714Y-44913390D01*
X76745714Y-44913390D02*
X76840952Y-44865771D01*
X76840952Y-44865771D02*
X77079047Y-44865771D01*
X77079047Y-44865771D02*
X77174285Y-44913390D01*
X77174285Y-44913390D02*
X77221904Y-44961009D01*
X77221904Y-44961009D02*
X77269523Y-45056247D01*
X77269523Y-45056247D02*
X77269523Y-45294342D01*
X77269523Y-45294342D02*
X77221904Y-45389580D01*
X77221904Y-45389580D02*
X77174285Y-45437200D01*
X77174285Y-45437200D02*
X77079047Y-45484819D01*
X77079047Y-45484819D02*
X76840952Y-45484819D01*
X76840952Y-45484819D02*
X76745714Y-45437200D01*
X76745714Y-45437200D02*
X76698095Y-45389580D01*
X123584819Y-89730594D02*
X122584819Y-89730594D01*
X122584819Y-89730594D02*
X122584819Y-89492499D01*
X122584819Y-89492499D02*
X122632438Y-89349642D01*
X122632438Y-89349642D02*
X122727676Y-89254404D01*
X122727676Y-89254404D02*
X122822914Y-89206785D01*
X122822914Y-89206785D02*
X123013390Y-89159166D01*
X123013390Y-89159166D02*
X123156247Y-89159166D01*
X123156247Y-89159166D02*
X123346723Y-89206785D01*
X123346723Y-89206785D02*
X123441961Y-89254404D01*
X123441961Y-89254404D02*
X123537200Y-89349642D01*
X123537200Y-89349642D02*
X123584819Y-89492499D01*
X123584819Y-89492499D02*
X123584819Y-89730594D01*
X122680057Y-88778213D02*
X122632438Y-88730594D01*
X122632438Y-88730594D02*
X122584819Y-88635356D01*
X122584819Y-88635356D02*
X122584819Y-88397261D01*
X122584819Y-88397261D02*
X122632438Y-88302023D01*
X122632438Y-88302023D02*
X122680057Y-88254404D01*
X122680057Y-88254404D02*
X122775295Y-88206785D01*
X122775295Y-88206785D02*
X122870533Y-88206785D01*
X122870533Y-88206785D02*
X123013390Y-88254404D01*
X123013390Y-88254404D02*
X123584819Y-88825832D01*
X123584819Y-88825832D02*
X123584819Y-88206785D01*
X155284819Y-71499523D02*
X155999104Y-71499523D01*
X155999104Y-71499523D02*
X156141961Y-71547142D01*
X156141961Y-71547142D02*
X156237200Y-71642380D01*
X156237200Y-71642380D02*
X156284819Y-71785237D01*
X156284819Y-71785237D02*
X156284819Y-71880475D01*
X156284819Y-70499523D02*
X156284819Y-71070951D01*
X156284819Y-70785237D02*
X155284819Y-70785237D01*
X155284819Y-70785237D02*
X155427676Y-70880475D01*
X155427676Y-70880475D02*
X155522914Y-70975713D01*
X155522914Y-70975713D02*
X155570533Y-71070951D01*
X156284819Y-69547142D02*
X156284819Y-70118570D01*
X156284819Y-69832856D02*
X155284819Y-69832856D01*
X155284819Y-69832856D02*
X155427676Y-69928094D01*
X155427676Y-69928094D02*
X155522914Y-70023332D01*
X155522914Y-70023332D02*
X155570533Y-70118570D01*
X60973333Y-46999580D02*
X60925714Y-47047200D01*
X60925714Y-47047200D02*
X60782857Y-47094819D01*
X60782857Y-47094819D02*
X60687619Y-47094819D01*
X60687619Y-47094819D02*
X60544762Y-47047200D01*
X60544762Y-47047200D02*
X60449524Y-46951961D01*
X60449524Y-46951961D02*
X60401905Y-46856723D01*
X60401905Y-46856723D02*
X60354286Y-46666247D01*
X60354286Y-46666247D02*
X60354286Y-46523390D01*
X60354286Y-46523390D02*
X60401905Y-46332914D01*
X60401905Y-46332914D02*
X60449524Y-46237676D01*
X60449524Y-46237676D02*
X60544762Y-46142438D01*
X60544762Y-46142438D02*
X60687619Y-46094819D01*
X60687619Y-46094819D02*
X60782857Y-46094819D01*
X60782857Y-46094819D02*
X60925714Y-46142438D01*
X60925714Y-46142438D02*
X60973333Y-46190057D01*
X61449524Y-47094819D02*
X61640000Y-47094819D01*
X61640000Y-47094819D02*
X61735238Y-47047200D01*
X61735238Y-47047200D02*
X61782857Y-46999580D01*
X61782857Y-46999580D02*
X61878095Y-46856723D01*
X61878095Y-46856723D02*
X61925714Y-46666247D01*
X61925714Y-46666247D02*
X61925714Y-46285295D01*
X61925714Y-46285295D02*
X61878095Y-46190057D01*
X61878095Y-46190057D02*
X61830476Y-46142438D01*
X61830476Y-46142438D02*
X61735238Y-46094819D01*
X61735238Y-46094819D02*
X61544762Y-46094819D01*
X61544762Y-46094819D02*
X61449524Y-46142438D01*
X61449524Y-46142438D02*
X61401905Y-46190057D01*
X61401905Y-46190057D02*
X61354286Y-46285295D01*
X61354286Y-46285295D02*
X61354286Y-46523390D01*
X61354286Y-46523390D02*
X61401905Y-46618628D01*
X61401905Y-46618628D02*
X61449524Y-46666247D01*
X61449524Y-46666247D02*
X61544762Y-46713866D01*
X61544762Y-46713866D02*
X61735238Y-46713866D01*
X61735238Y-46713866D02*
X61830476Y-46666247D01*
X61830476Y-46666247D02*
X61878095Y-46618628D01*
X61878095Y-46618628D02*
X61925714Y-46523390D01*
X105786667Y-93102200D02*
X105929524Y-93149819D01*
X105929524Y-93149819D02*
X106167619Y-93149819D01*
X106167619Y-93149819D02*
X106262857Y-93102200D01*
X106262857Y-93102200D02*
X106310476Y-93054580D01*
X106310476Y-93054580D02*
X106358095Y-92959342D01*
X106358095Y-92959342D02*
X106358095Y-92864104D01*
X106358095Y-92864104D02*
X106310476Y-92768866D01*
X106310476Y-92768866D02*
X106262857Y-92721247D01*
X106262857Y-92721247D02*
X106167619Y-92673628D01*
X106167619Y-92673628D02*
X105977143Y-92626009D01*
X105977143Y-92626009D02*
X105881905Y-92578390D01*
X105881905Y-92578390D02*
X105834286Y-92530771D01*
X105834286Y-92530771D02*
X105786667Y-92435533D01*
X105786667Y-92435533D02*
X105786667Y-92340295D01*
X105786667Y-92340295D02*
X105834286Y-92245057D01*
X105834286Y-92245057D02*
X105881905Y-92197438D01*
X105881905Y-92197438D02*
X105977143Y-92149819D01*
X105977143Y-92149819D02*
X106215238Y-92149819D01*
X106215238Y-92149819D02*
X106358095Y-92197438D01*
X106691429Y-92149819D02*
X106929524Y-93149819D01*
X106929524Y-93149819D02*
X107120000Y-92435533D01*
X107120000Y-92435533D02*
X107310476Y-93149819D01*
X107310476Y-93149819D02*
X107548572Y-92149819D01*
X108405714Y-92149819D02*
X107929524Y-92149819D01*
X107929524Y-92149819D02*
X107881905Y-92626009D01*
X107881905Y-92626009D02*
X107929524Y-92578390D01*
X107929524Y-92578390D02*
X108024762Y-92530771D01*
X108024762Y-92530771D02*
X108262857Y-92530771D01*
X108262857Y-92530771D02*
X108358095Y-92578390D01*
X108358095Y-92578390D02*
X108405714Y-92626009D01*
X108405714Y-92626009D02*
X108453333Y-92721247D01*
X108453333Y-92721247D02*
X108453333Y-92959342D01*
X108453333Y-92959342D02*
X108405714Y-93054580D01*
X108405714Y-93054580D02*
X108358095Y-93102200D01*
X108358095Y-93102200D02*
X108262857Y-93149819D01*
X108262857Y-93149819D02*
X108024762Y-93149819D01*
X108024762Y-93149819D02*
X107929524Y-93102200D01*
X107929524Y-93102200D02*
X107881905Y-93054580D01*
X152619819Y-92113333D02*
X153334104Y-92113333D01*
X153334104Y-92113333D02*
X153476961Y-92160952D01*
X153476961Y-92160952D02*
X153572200Y-92256190D01*
X153572200Y-92256190D02*
X153619819Y-92399047D01*
X153619819Y-92399047D02*
X153619819Y-92494285D01*
X152619819Y-91160952D02*
X152619819Y-91637142D01*
X152619819Y-91637142D02*
X153096009Y-91684761D01*
X153096009Y-91684761D02*
X153048390Y-91637142D01*
X153048390Y-91637142D02*
X153000771Y-91541904D01*
X153000771Y-91541904D02*
X153000771Y-91303809D01*
X153000771Y-91303809D02*
X153048390Y-91208571D01*
X153048390Y-91208571D02*
X153096009Y-91160952D01*
X153096009Y-91160952D02*
X153191247Y-91113333D01*
X153191247Y-91113333D02*
X153429342Y-91113333D01*
X153429342Y-91113333D02*
X153524580Y-91160952D01*
X153524580Y-91160952D02*
X153572200Y-91208571D01*
X153572200Y-91208571D02*
X153619819Y-91303809D01*
X153619819Y-91303809D02*
X153619819Y-91541904D01*
X153619819Y-91541904D02*
X153572200Y-91637142D01*
X153572200Y-91637142D02*
X153524580Y-91684761D01*
X75598095Y-97104819D02*
X75598095Y-96104819D01*
X75598095Y-96581009D02*
X76169523Y-96581009D01*
X76169523Y-97104819D02*
X76169523Y-96104819D01*
X77074285Y-96104819D02*
X76883809Y-96104819D01*
X76883809Y-96104819D02*
X76788571Y-96152438D01*
X76788571Y-96152438D02*
X76740952Y-96200057D01*
X76740952Y-96200057D02*
X76645714Y-96342914D01*
X76645714Y-96342914D02*
X76598095Y-96533390D01*
X76598095Y-96533390D02*
X76598095Y-96914342D01*
X76598095Y-96914342D02*
X76645714Y-97009580D01*
X76645714Y-97009580D02*
X76693333Y-97057200D01*
X76693333Y-97057200D02*
X76788571Y-97104819D01*
X76788571Y-97104819D02*
X76979047Y-97104819D01*
X76979047Y-97104819D02*
X77074285Y-97057200D01*
X77074285Y-97057200D02*
X77121904Y-97009580D01*
X77121904Y-97009580D02*
X77169523Y-96914342D01*
X77169523Y-96914342D02*
X77169523Y-96676247D01*
X77169523Y-96676247D02*
X77121904Y-96581009D01*
X77121904Y-96581009D02*
X77074285Y-96533390D01*
X77074285Y-96533390D02*
X76979047Y-96485771D01*
X76979047Y-96485771D02*
X76788571Y-96485771D01*
X76788571Y-96485771D02*
X76693333Y-96533390D01*
X76693333Y-96533390D02*
X76645714Y-96581009D01*
X76645714Y-96581009D02*
X76598095Y-96676247D01*
X149948095Y-68054819D02*
X149948095Y-67054819D01*
X149948095Y-67531009D02*
X150519523Y-67531009D01*
X150519523Y-68054819D02*
X150519523Y-67054819D01*
X151424285Y-67388152D02*
X151424285Y-68054819D01*
X151186190Y-67007200D02*
X150948095Y-67721485D01*
X150948095Y-67721485D02*
X151567142Y-67721485D01*
X104874819Y-90639404D02*
X105684342Y-90639404D01*
X105684342Y-90639404D02*
X105779580Y-90591785D01*
X105779580Y-90591785D02*
X105827200Y-90544166D01*
X105827200Y-90544166D02*
X105874819Y-90448928D01*
X105874819Y-90448928D02*
X105874819Y-90258452D01*
X105874819Y-90258452D02*
X105827200Y-90163214D01*
X105827200Y-90163214D02*
X105779580Y-90115595D01*
X105779580Y-90115595D02*
X105684342Y-90067976D01*
X105684342Y-90067976D02*
X104874819Y-90067976D01*
X105874819Y-89544166D02*
X105874819Y-89353690D01*
X105874819Y-89353690D02*
X105827200Y-89258452D01*
X105827200Y-89258452D02*
X105779580Y-89210833D01*
X105779580Y-89210833D02*
X105636723Y-89115595D01*
X105636723Y-89115595D02*
X105446247Y-89067976D01*
X105446247Y-89067976D02*
X105065295Y-89067976D01*
X105065295Y-89067976D02*
X104970057Y-89115595D01*
X104970057Y-89115595D02*
X104922438Y-89163214D01*
X104922438Y-89163214D02*
X104874819Y-89258452D01*
X104874819Y-89258452D02*
X104874819Y-89448928D01*
X104874819Y-89448928D02*
X104922438Y-89544166D01*
X104922438Y-89544166D02*
X104970057Y-89591785D01*
X104970057Y-89591785D02*
X105065295Y-89639404D01*
X105065295Y-89639404D02*
X105303390Y-89639404D01*
X105303390Y-89639404D02*
X105398628Y-89591785D01*
X105398628Y-89591785D02*
X105446247Y-89544166D01*
X105446247Y-89544166D02*
X105493866Y-89448928D01*
X105493866Y-89448928D02*
X105493866Y-89258452D01*
X105493866Y-89258452D02*
X105446247Y-89163214D01*
X105446247Y-89163214D02*
X105398628Y-89115595D01*
X105398628Y-89115595D02*
X105303390Y-89067976D01*
X116164819Y-87177857D02*
X115688628Y-87511190D01*
X116164819Y-87749285D02*
X115164819Y-87749285D01*
X115164819Y-87749285D02*
X115164819Y-87368333D01*
X115164819Y-87368333D02*
X115212438Y-87273095D01*
X115212438Y-87273095D02*
X115260057Y-87225476D01*
X115260057Y-87225476D02*
X115355295Y-87177857D01*
X115355295Y-87177857D02*
X115498152Y-87177857D01*
X115498152Y-87177857D02*
X115593390Y-87225476D01*
X115593390Y-87225476D02*
X115641009Y-87273095D01*
X115641009Y-87273095D02*
X115688628Y-87368333D01*
X115688628Y-87368333D02*
X115688628Y-87749285D01*
X115260057Y-86796904D02*
X115212438Y-86749285D01*
X115212438Y-86749285D02*
X115164819Y-86654047D01*
X115164819Y-86654047D02*
X115164819Y-86415952D01*
X115164819Y-86415952D02*
X115212438Y-86320714D01*
X115212438Y-86320714D02*
X115260057Y-86273095D01*
X115260057Y-86273095D02*
X115355295Y-86225476D01*
X115355295Y-86225476D02*
X115450533Y-86225476D01*
X115450533Y-86225476D02*
X115593390Y-86273095D01*
X115593390Y-86273095D02*
X116164819Y-86844523D01*
X116164819Y-86844523D02*
X116164819Y-86225476D01*
X115164819Y-85320714D02*
X115164819Y-85796904D01*
X115164819Y-85796904D02*
X115641009Y-85844523D01*
X115641009Y-85844523D02*
X115593390Y-85796904D01*
X115593390Y-85796904D02*
X115545771Y-85701666D01*
X115545771Y-85701666D02*
X115545771Y-85463571D01*
X115545771Y-85463571D02*
X115593390Y-85368333D01*
X115593390Y-85368333D02*
X115641009Y-85320714D01*
X115641009Y-85320714D02*
X115736247Y-85273095D01*
X115736247Y-85273095D02*
X115974342Y-85273095D01*
X115974342Y-85273095D02*
X116069580Y-85320714D01*
X116069580Y-85320714D02*
X116117200Y-85368333D01*
X116117200Y-85368333D02*
X116164819Y-85463571D01*
X116164819Y-85463571D02*
X116164819Y-85701666D01*
X116164819Y-85701666D02*
X116117200Y-85796904D01*
X116117200Y-85796904D02*
X116069580Y-85844523D01*
X112448333Y-73929580D02*
X112400714Y-73977200D01*
X112400714Y-73977200D02*
X112257857Y-74024819D01*
X112257857Y-74024819D02*
X112162619Y-74024819D01*
X112162619Y-74024819D02*
X112019762Y-73977200D01*
X112019762Y-73977200D02*
X111924524Y-73881961D01*
X111924524Y-73881961D02*
X111876905Y-73786723D01*
X111876905Y-73786723D02*
X111829286Y-73596247D01*
X111829286Y-73596247D02*
X111829286Y-73453390D01*
X111829286Y-73453390D02*
X111876905Y-73262914D01*
X111876905Y-73262914D02*
X111924524Y-73167676D01*
X111924524Y-73167676D02*
X112019762Y-73072438D01*
X112019762Y-73072438D02*
X112162619Y-73024819D01*
X112162619Y-73024819D02*
X112257857Y-73024819D01*
X112257857Y-73024819D02*
X112400714Y-73072438D01*
X112400714Y-73072438D02*
X112448333Y-73120057D01*
X113353095Y-73024819D02*
X112876905Y-73024819D01*
X112876905Y-73024819D02*
X112829286Y-73501009D01*
X112829286Y-73501009D02*
X112876905Y-73453390D01*
X112876905Y-73453390D02*
X112972143Y-73405771D01*
X112972143Y-73405771D02*
X113210238Y-73405771D01*
X113210238Y-73405771D02*
X113305476Y-73453390D01*
X113305476Y-73453390D02*
X113353095Y-73501009D01*
X113353095Y-73501009D02*
X113400714Y-73596247D01*
X113400714Y-73596247D02*
X113400714Y-73834342D01*
X113400714Y-73834342D02*
X113353095Y-73929580D01*
X113353095Y-73929580D02*
X113305476Y-73977200D01*
X113305476Y-73977200D02*
X113210238Y-74024819D01*
X113210238Y-74024819D02*
X112972143Y-74024819D01*
X112972143Y-74024819D02*
X112876905Y-73977200D01*
X112876905Y-73977200D02*
X112829286Y-73929580D01*
X129386666Y-95924819D02*
X129386666Y-96639104D01*
X129386666Y-96639104D02*
X129339047Y-96781961D01*
X129339047Y-96781961D02*
X129243809Y-96877200D01*
X129243809Y-96877200D02*
X129100952Y-96924819D01*
X129100952Y-96924819D02*
X129005714Y-96924819D01*
X129910476Y-96924819D02*
X130100952Y-96924819D01*
X130100952Y-96924819D02*
X130196190Y-96877200D01*
X130196190Y-96877200D02*
X130243809Y-96829580D01*
X130243809Y-96829580D02*
X130339047Y-96686723D01*
X130339047Y-96686723D02*
X130386666Y-96496247D01*
X130386666Y-96496247D02*
X130386666Y-96115295D01*
X130386666Y-96115295D02*
X130339047Y-96020057D01*
X130339047Y-96020057D02*
X130291428Y-95972438D01*
X130291428Y-95972438D02*
X130196190Y-95924819D01*
X130196190Y-95924819D02*
X130005714Y-95924819D01*
X130005714Y-95924819D02*
X129910476Y-95972438D01*
X129910476Y-95972438D02*
X129862857Y-96020057D01*
X129862857Y-96020057D02*
X129815238Y-96115295D01*
X129815238Y-96115295D02*
X129815238Y-96353390D01*
X129815238Y-96353390D02*
X129862857Y-96448628D01*
X129862857Y-96448628D02*
X129910476Y-96496247D01*
X129910476Y-96496247D02*
X130005714Y-96543866D01*
X130005714Y-96543866D02*
X130196190Y-96543866D01*
X130196190Y-96543866D02*
X130291428Y-96496247D01*
X130291428Y-96496247D02*
X130339047Y-96448628D01*
X130339047Y-96448628D02*
X130386666Y-96353390D01*
X70254819Y-67942857D02*
X69778628Y-68276190D01*
X70254819Y-68514285D02*
X69254819Y-68514285D01*
X69254819Y-68514285D02*
X69254819Y-68133333D01*
X69254819Y-68133333D02*
X69302438Y-68038095D01*
X69302438Y-68038095D02*
X69350057Y-67990476D01*
X69350057Y-67990476D02*
X69445295Y-67942857D01*
X69445295Y-67942857D02*
X69588152Y-67942857D01*
X69588152Y-67942857D02*
X69683390Y-67990476D01*
X69683390Y-67990476D02*
X69731009Y-68038095D01*
X69731009Y-68038095D02*
X69778628Y-68133333D01*
X69778628Y-68133333D02*
X69778628Y-68514285D01*
X70254819Y-66990476D02*
X70254819Y-67561904D01*
X70254819Y-67276190D02*
X69254819Y-67276190D01*
X69254819Y-67276190D02*
X69397676Y-67371428D01*
X69397676Y-67371428D02*
X69492914Y-67466666D01*
X69492914Y-67466666D02*
X69540533Y-67561904D01*
X69254819Y-66371428D02*
X69254819Y-66276190D01*
X69254819Y-66276190D02*
X69302438Y-66180952D01*
X69302438Y-66180952D02*
X69350057Y-66133333D01*
X69350057Y-66133333D02*
X69445295Y-66085714D01*
X69445295Y-66085714D02*
X69635771Y-66038095D01*
X69635771Y-66038095D02*
X69873866Y-66038095D01*
X69873866Y-66038095D02*
X70064342Y-66085714D01*
X70064342Y-66085714D02*
X70159580Y-66133333D01*
X70159580Y-66133333D02*
X70207200Y-66180952D01*
X70207200Y-66180952D02*
X70254819Y-66276190D01*
X70254819Y-66276190D02*
X70254819Y-66371428D01*
X70254819Y-66371428D02*
X70207200Y-66466666D01*
X70207200Y-66466666D02*
X70159580Y-66514285D01*
X70159580Y-66514285D02*
X70064342Y-66561904D01*
X70064342Y-66561904D02*
X69873866Y-66609523D01*
X69873866Y-66609523D02*
X69635771Y-66609523D01*
X69635771Y-66609523D02*
X69445295Y-66561904D01*
X69445295Y-66561904D02*
X69350057Y-66514285D01*
X69350057Y-66514285D02*
X69302438Y-66466666D01*
X69302438Y-66466666D02*
X69254819Y-66371428D01*
X82907142Y-44229580D02*
X82859523Y-44277200D01*
X82859523Y-44277200D02*
X82716666Y-44324819D01*
X82716666Y-44324819D02*
X82621428Y-44324819D01*
X82621428Y-44324819D02*
X82478571Y-44277200D01*
X82478571Y-44277200D02*
X82383333Y-44181961D01*
X82383333Y-44181961D02*
X82335714Y-44086723D01*
X82335714Y-44086723D02*
X82288095Y-43896247D01*
X82288095Y-43896247D02*
X82288095Y-43753390D01*
X82288095Y-43753390D02*
X82335714Y-43562914D01*
X82335714Y-43562914D02*
X82383333Y-43467676D01*
X82383333Y-43467676D02*
X82478571Y-43372438D01*
X82478571Y-43372438D02*
X82621428Y-43324819D01*
X82621428Y-43324819D02*
X82716666Y-43324819D01*
X82716666Y-43324819D02*
X82859523Y-43372438D01*
X82859523Y-43372438D02*
X82907142Y-43420057D01*
X83288095Y-43420057D02*
X83335714Y-43372438D01*
X83335714Y-43372438D02*
X83430952Y-43324819D01*
X83430952Y-43324819D02*
X83669047Y-43324819D01*
X83669047Y-43324819D02*
X83764285Y-43372438D01*
X83764285Y-43372438D02*
X83811904Y-43420057D01*
X83811904Y-43420057D02*
X83859523Y-43515295D01*
X83859523Y-43515295D02*
X83859523Y-43610533D01*
X83859523Y-43610533D02*
X83811904Y-43753390D01*
X83811904Y-43753390D02*
X83240476Y-44324819D01*
X83240476Y-44324819D02*
X83859523Y-44324819D01*
X84764285Y-43324819D02*
X84288095Y-43324819D01*
X84288095Y-43324819D02*
X84240476Y-43801009D01*
X84240476Y-43801009D02*
X84288095Y-43753390D01*
X84288095Y-43753390D02*
X84383333Y-43705771D01*
X84383333Y-43705771D02*
X84621428Y-43705771D01*
X84621428Y-43705771D02*
X84716666Y-43753390D01*
X84716666Y-43753390D02*
X84764285Y-43801009D01*
X84764285Y-43801009D02*
X84811904Y-43896247D01*
X84811904Y-43896247D02*
X84811904Y-44134342D01*
X84811904Y-44134342D02*
X84764285Y-44229580D01*
X84764285Y-44229580D02*
X84716666Y-44277200D01*
X84716666Y-44277200D02*
X84621428Y-44324819D01*
X84621428Y-44324819D02*
X84383333Y-44324819D01*
X84383333Y-44324819D02*
X84288095Y-44277200D01*
X84288095Y-44277200D02*
X84240476Y-44229580D01*
X99927142Y-61749580D02*
X99879523Y-61797200D01*
X99879523Y-61797200D02*
X99736666Y-61844819D01*
X99736666Y-61844819D02*
X99641428Y-61844819D01*
X99641428Y-61844819D02*
X99498571Y-61797200D01*
X99498571Y-61797200D02*
X99403333Y-61701961D01*
X99403333Y-61701961D02*
X99355714Y-61606723D01*
X99355714Y-61606723D02*
X99308095Y-61416247D01*
X99308095Y-61416247D02*
X99308095Y-61273390D01*
X99308095Y-61273390D02*
X99355714Y-61082914D01*
X99355714Y-61082914D02*
X99403333Y-60987676D01*
X99403333Y-60987676D02*
X99498571Y-60892438D01*
X99498571Y-60892438D02*
X99641428Y-60844819D01*
X99641428Y-60844819D02*
X99736666Y-60844819D01*
X99736666Y-60844819D02*
X99879523Y-60892438D01*
X99879523Y-60892438D02*
X99927142Y-60940057D01*
X100879523Y-61844819D02*
X100308095Y-61844819D01*
X100593809Y-61844819D02*
X100593809Y-60844819D01*
X100593809Y-60844819D02*
X100498571Y-60987676D01*
X100498571Y-60987676D02*
X100403333Y-61082914D01*
X100403333Y-61082914D02*
X100308095Y-61130533D01*
X101736666Y-60844819D02*
X101546190Y-60844819D01*
X101546190Y-60844819D02*
X101450952Y-60892438D01*
X101450952Y-60892438D02*
X101403333Y-60940057D01*
X101403333Y-60940057D02*
X101308095Y-61082914D01*
X101308095Y-61082914D02*
X101260476Y-61273390D01*
X101260476Y-61273390D02*
X101260476Y-61654342D01*
X101260476Y-61654342D02*
X101308095Y-61749580D01*
X101308095Y-61749580D02*
X101355714Y-61797200D01*
X101355714Y-61797200D02*
X101450952Y-61844819D01*
X101450952Y-61844819D02*
X101641428Y-61844819D01*
X101641428Y-61844819D02*
X101736666Y-61797200D01*
X101736666Y-61797200D02*
X101784285Y-61749580D01*
X101784285Y-61749580D02*
X101831904Y-61654342D01*
X101831904Y-61654342D02*
X101831904Y-61416247D01*
X101831904Y-61416247D02*
X101784285Y-61321009D01*
X101784285Y-61321009D02*
X101736666Y-61273390D01*
X101736666Y-61273390D02*
X101641428Y-61225771D01*
X101641428Y-61225771D02*
X101450952Y-61225771D01*
X101450952Y-61225771D02*
X101355714Y-61273390D01*
X101355714Y-61273390D02*
X101308095Y-61321009D01*
X101308095Y-61321009D02*
X101260476Y-61416247D01*
X137114819Y-56448094D02*
X136114819Y-56448094D01*
X136114819Y-56448094D02*
X136114819Y-56209999D01*
X136114819Y-56209999D02*
X136162438Y-56067142D01*
X136162438Y-56067142D02*
X136257676Y-55971904D01*
X136257676Y-55971904D02*
X136352914Y-55924285D01*
X136352914Y-55924285D02*
X136543390Y-55876666D01*
X136543390Y-55876666D02*
X136686247Y-55876666D01*
X136686247Y-55876666D02*
X136876723Y-55924285D01*
X136876723Y-55924285D02*
X136971961Y-55971904D01*
X136971961Y-55971904D02*
X137067200Y-56067142D01*
X137067200Y-56067142D02*
X137114819Y-56209999D01*
X137114819Y-56209999D02*
X137114819Y-56448094D01*
X136448152Y-55019523D02*
X137114819Y-55019523D01*
X136067200Y-55257618D02*
X136781485Y-55495713D01*
X136781485Y-55495713D02*
X136781485Y-54876666D01*
X98979580Y-96287857D02*
X99027200Y-96335476D01*
X99027200Y-96335476D02*
X99074819Y-96478333D01*
X99074819Y-96478333D02*
X99074819Y-96573571D01*
X99074819Y-96573571D02*
X99027200Y-96716428D01*
X99027200Y-96716428D02*
X98931961Y-96811666D01*
X98931961Y-96811666D02*
X98836723Y-96859285D01*
X98836723Y-96859285D02*
X98646247Y-96906904D01*
X98646247Y-96906904D02*
X98503390Y-96906904D01*
X98503390Y-96906904D02*
X98312914Y-96859285D01*
X98312914Y-96859285D02*
X98217676Y-96811666D01*
X98217676Y-96811666D02*
X98122438Y-96716428D01*
X98122438Y-96716428D02*
X98074819Y-96573571D01*
X98074819Y-96573571D02*
X98074819Y-96478333D01*
X98074819Y-96478333D02*
X98122438Y-96335476D01*
X98122438Y-96335476D02*
X98170057Y-96287857D01*
X99074819Y-95335476D02*
X99074819Y-95906904D01*
X99074819Y-95621190D02*
X98074819Y-95621190D01*
X98074819Y-95621190D02*
X98217676Y-95716428D01*
X98217676Y-95716428D02*
X98312914Y-95811666D01*
X98312914Y-95811666D02*
X98360533Y-95906904D01*
X98074819Y-95002142D02*
X98074819Y-94383095D01*
X98074819Y-94383095D02*
X98455771Y-94716428D01*
X98455771Y-94716428D02*
X98455771Y-94573571D01*
X98455771Y-94573571D02*
X98503390Y-94478333D01*
X98503390Y-94478333D02*
X98551009Y-94430714D01*
X98551009Y-94430714D02*
X98646247Y-94383095D01*
X98646247Y-94383095D02*
X98884342Y-94383095D01*
X98884342Y-94383095D02*
X98979580Y-94430714D01*
X98979580Y-94430714D02*
X99027200Y-94478333D01*
X99027200Y-94478333D02*
X99074819Y-94573571D01*
X99074819Y-94573571D02*
X99074819Y-94859285D01*
X99074819Y-94859285D02*
X99027200Y-94954523D01*
X99027200Y-94954523D02*
X98979580Y-95002142D01*
X58039819Y-90705594D02*
X57039819Y-90705594D01*
X57039819Y-90705594D02*
X57039819Y-90467499D01*
X57039819Y-90467499D02*
X57087438Y-90324642D01*
X57087438Y-90324642D02*
X57182676Y-90229404D01*
X57182676Y-90229404D02*
X57277914Y-90181785D01*
X57277914Y-90181785D02*
X57468390Y-90134166D01*
X57468390Y-90134166D02*
X57611247Y-90134166D01*
X57611247Y-90134166D02*
X57801723Y-90181785D01*
X57801723Y-90181785D02*
X57896961Y-90229404D01*
X57896961Y-90229404D02*
X57992200Y-90324642D01*
X57992200Y-90324642D02*
X58039819Y-90467499D01*
X58039819Y-90467499D02*
X58039819Y-90705594D01*
X57039819Y-89277023D02*
X57039819Y-89467499D01*
X57039819Y-89467499D02*
X57087438Y-89562737D01*
X57087438Y-89562737D02*
X57135057Y-89610356D01*
X57135057Y-89610356D02*
X57277914Y-89705594D01*
X57277914Y-89705594D02*
X57468390Y-89753213D01*
X57468390Y-89753213D02*
X57849342Y-89753213D01*
X57849342Y-89753213D02*
X57944580Y-89705594D01*
X57944580Y-89705594D02*
X57992200Y-89657975D01*
X57992200Y-89657975D02*
X58039819Y-89562737D01*
X58039819Y-89562737D02*
X58039819Y-89372261D01*
X58039819Y-89372261D02*
X57992200Y-89277023D01*
X57992200Y-89277023D02*
X57944580Y-89229404D01*
X57944580Y-89229404D02*
X57849342Y-89181785D01*
X57849342Y-89181785D02*
X57611247Y-89181785D01*
X57611247Y-89181785D02*
X57516009Y-89229404D01*
X57516009Y-89229404D02*
X57468390Y-89277023D01*
X57468390Y-89277023D02*
X57420771Y-89372261D01*
X57420771Y-89372261D02*
X57420771Y-89562737D01*
X57420771Y-89562737D02*
X57468390Y-89657975D01*
X57468390Y-89657975D02*
X57516009Y-89705594D01*
X57516009Y-89705594D02*
X57611247Y-89753213D01*
X103634642Y-87509819D02*
X103301309Y-87033628D01*
X103063214Y-87509819D02*
X103063214Y-86509819D01*
X103063214Y-86509819D02*
X103444166Y-86509819D01*
X103444166Y-86509819D02*
X103539404Y-86557438D01*
X103539404Y-86557438D02*
X103587023Y-86605057D01*
X103587023Y-86605057D02*
X103634642Y-86700295D01*
X103634642Y-86700295D02*
X103634642Y-86843152D01*
X103634642Y-86843152D02*
X103587023Y-86938390D01*
X103587023Y-86938390D02*
X103539404Y-86986009D01*
X103539404Y-86986009D02*
X103444166Y-87033628D01*
X103444166Y-87033628D02*
X103063214Y-87033628D01*
X104587023Y-87509819D02*
X104015595Y-87509819D01*
X104301309Y-87509819D02*
X104301309Y-86509819D01*
X104301309Y-86509819D02*
X104206071Y-86652676D01*
X104206071Y-86652676D02*
X104110833Y-86747914D01*
X104110833Y-86747914D02*
X104015595Y-86795533D01*
X105158452Y-86938390D02*
X105063214Y-86890771D01*
X105063214Y-86890771D02*
X105015595Y-86843152D01*
X105015595Y-86843152D02*
X104967976Y-86747914D01*
X104967976Y-86747914D02*
X104967976Y-86700295D01*
X104967976Y-86700295D02*
X105015595Y-86605057D01*
X105015595Y-86605057D02*
X105063214Y-86557438D01*
X105063214Y-86557438D02*
X105158452Y-86509819D01*
X105158452Y-86509819D02*
X105348928Y-86509819D01*
X105348928Y-86509819D02*
X105444166Y-86557438D01*
X105444166Y-86557438D02*
X105491785Y-86605057D01*
X105491785Y-86605057D02*
X105539404Y-86700295D01*
X105539404Y-86700295D02*
X105539404Y-86747914D01*
X105539404Y-86747914D02*
X105491785Y-86843152D01*
X105491785Y-86843152D02*
X105444166Y-86890771D01*
X105444166Y-86890771D02*
X105348928Y-86938390D01*
X105348928Y-86938390D02*
X105158452Y-86938390D01*
X105158452Y-86938390D02*
X105063214Y-86986009D01*
X105063214Y-86986009D02*
X105015595Y-87033628D01*
X105015595Y-87033628D02*
X104967976Y-87128866D01*
X104967976Y-87128866D02*
X104967976Y-87319342D01*
X104967976Y-87319342D02*
X105015595Y-87414580D01*
X105015595Y-87414580D02*
X105063214Y-87462200D01*
X105063214Y-87462200D02*
X105158452Y-87509819D01*
X105158452Y-87509819D02*
X105348928Y-87509819D01*
X105348928Y-87509819D02*
X105444166Y-87462200D01*
X105444166Y-87462200D02*
X105491785Y-87414580D01*
X105491785Y-87414580D02*
X105539404Y-87319342D01*
X105539404Y-87319342D02*
X105539404Y-87128866D01*
X105539404Y-87128866D02*
X105491785Y-87033628D01*
X105491785Y-87033628D02*
X105444166Y-86986009D01*
X105444166Y-86986009D02*
X105348928Y-86938390D01*
X70848095Y-90914819D02*
X70848095Y-91724342D01*
X70848095Y-91724342D02*
X70895714Y-91819580D01*
X70895714Y-91819580D02*
X70943333Y-91867200D01*
X70943333Y-91867200D02*
X71038571Y-91914819D01*
X71038571Y-91914819D02*
X71229047Y-91914819D01*
X71229047Y-91914819D02*
X71324285Y-91867200D01*
X71324285Y-91867200D02*
X71371904Y-91819580D01*
X71371904Y-91819580D02*
X71419523Y-91724342D01*
X71419523Y-91724342D02*
X71419523Y-90914819D01*
X71800476Y-90914819D02*
X72467142Y-90914819D01*
X72467142Y-90914819D02*
X72038571Y-91914819D01*
X64244642Y-87624819D02*
X63911309Y-87148628D01*
X63673214Y-87624819D02*
X63673214Y-86624819D01*
X63673214Y-86624819D02*
X64054166Y-86624819D01*
X64054166Y-86624819D02*
X64149404Y-86672438D01*
X64149404Y-86672438D02*
X64197023Y-86720057D01*
X64197023Y-86720057D02*
X64244642Y-86815295D01*
X64244642Y-86815295D02*
X64244642Y-86958152D01*
X64244642Y-86958152D02*
X64197023Y-87053390D01*
X64197023Y-87053390D02*
X64149404Y-87101009D01*
X64149404Y-87101009D02*
X64054166Y-87148628D01*
X64054166Y-87148628D02*
X63673214Y-87148628D01*
X65197023Y-87624819D02*
X64625595Y-87624819D01*
X64911309Y-87624819D02*
X64911309Y-86624819D01*
X64911309Y-86624819D02*
X64816071Y-86767676D01*
X64816071Y-86767676D02*
X64720833Y-86862914D01*
X64720833Y-86862914D02*
X64625595Y-86910533D01*
X66054166Y-86624819D02*
X65863690Y-86624819D01*
X65863690Y-86624819D02*
X65768452Y-86672438D01*
X65768452Y-86672438D02*
X65720833Y-86720057D01*
X65720833Y-86720057D02*
X65625595Y-86862914D01*
X65625595Y-86862914D02*
X65577976Y-87053390D01*
X65577976Y-87053390D02*
X65577976Y-87434342D01*
X65577976Y-87434342D02*
X65625595Y-87529580D01*
X65625595Y-87529580D02*
X65673214Y-87577200D01*
X65673214Y-87577200D02*
X65768452Y-87624819D01*
X65768452Y-87624819D02*
X65958928Y-87624819D01*
X65958928Y-87624819D02*
X66054166Y-87577200D01*
X66054166Y-87577200D02*
X66101785Y-87529580D01*
X66101785Y-87529580D02*
X66149404Y-87434342D01*
X66149404Y-87434342D02*
X66149404Y-87196247D01*
X66149404Y-87196247D02*
X66101785Y-87101009D01*
X66101785Y-87101009D02*
X66054166Y-87053390D01*
X66054166Y-87053390D02*
X65958928Y-87005771D01*
X65958928Y-87005771D02*
X65768452Y-87005771D01*
X65768452Y-87005771D02*
X65673214Y-87053390D01*
X65673214Y-87053390D02*
X65625595Y-87101009D01*
X65625595Y-87101009D02*
X65577976Y-87196247D01*
X150423333Y-98274819D02*
X150090000Y-97798628D01*
X149851905Y-98274819D02*
X149851905Y-97274819D01*
X149851905Y-97274819D02*
X150232857Y-97274819D01*
X150232857Y-97274819D02*
X150328095Y-97322438D01*
X150328095Y-97322438D02*
X150375714Y-97370057D01*
X150375714Y-97370057D02*
X150423333Y-97465295D01*
X150423333Y-97465295D02*
X150423333Y-97608152D01*
X150423333Y-97608152D02*
X150375714Y-97703390D01*
X150375714Y-97703390D02*
X150328095Y-97751009D01*
X150328095Y-97751009D02*
X150232857Y-97798628D01*
X150232857Y-97798628D02*
X149851905Y-97798628D01*
X151280476Y-97274819D02*
X151090000Y-97274819D01*
X151090000Y-97274819D02*
X150994762Y-97322438D01*
X150994762Y-97322438D02*
X150947143Y-97370057D01*
X150947143Y-97370057D02*
X150851905Y-97512914D01*
X150851905Y-97512914D02*
X150804286Y-97703390D01*
X150804286Y-97703390D02*
X150804286Y-98084342D01*
X150804286Y-98084342D02*
X150851905Y-98179580D01*
X150851905Y-98179580D02*
X150899524Y-98227200D01*
X150899524Y-98227200D02*
X150994762Y-98274819D01*
X150994762Y-98274819D02*
X151185238Y-98274819D01*
X151185238Y-98274819D02*
X151280476Y-98227200D01*
X151280476Y-98227200D02*
X151328095Y-98179580D01*
X151328095Y-98179580D02*
X151375714Y-98084342D01*
X151375714Y-98084342D02*
X151375714Y-97846247D01*
X151375714Y-97846247D02*
X151328095Y-97751009D01*
X151328095Y-97751009D02*
X151280476Y-97703390D01*
X151280476Y-97703390D02*
X151185238Y-97655771D01*
X151185238Y-97655771D02*
X150994762Y-97655771D01*
X150994762Y-97655771D02*
X150899524Y-97703390D01*
X150899524Y-97703390D02*
X150851905Y-97751009D01*
X150851905Y-97751009D02*
X150804286Y-97846247D01*
X68439580Y-96812857D02*
X68487200Y-96860476D01*
X68487200Y-96860476D02*
X68534819Y-97003333D01*
X68534819Y-97003333D02*
X68534819Y-97098571D01*
X68534819Y-97098571D02*
X68487200Y-97241428D01*
X68487200Y-97241428D02*
X68391961Y-97336666D01*
X68391961Y-97336666D02*
X68296723Y-97384285D01*
X68296723Y-97384285D02*
X68106247Y-97431904D01*
X68106247Y-97431904D02*
X67963390Y-97431904D01*
X67963390Y-97431904D02*
X67772914Y-97384285D01*
X67772914Y-97384285D02*
X67677676Y-97336666D01*
X67677676Y-97336666D02*
X67582438Y-97241428D01*
X67582438Y-97241428D02*
X67534819Y-97098571D01*
X67534819Y-97098571D02*
X67534819Y-97003333D01*
X67534819Y-97003333D02*
X67582438Y-96860476D01*
X67582438Y-96860476D02*
X67630057Y-96812857D01*
X68534819Y-95860476D02*
X68534819Y-96431904D01*
X68534819Y-96146190D02*
X67534819Y-96146190D01*
X67534819Y-96146190D02*
X67677676Y-96241428D01*
X67677676Y-96241428D02*
X67772914Y-96336666D01*
X67772914Y-96336666D02*
X67820533Y-96431904D01*
X68534819Y-94908095D02*
X68534819Y-95479523D01*
X68534819Y-95193809D02*
X67534819Y-95193809D01*
X67534819Y-95193809D02*
X67677676Y-95289047D01*
X67677676Y-95289047D02*
X67772914Y-95384285D01*
X67772914Y-95384285D02*
X67820533Y-95479523D01*
X52901905Y-95774819D02*
X52901905Y-94774819D01*
X52901905Y-94774819D02*
X53140000Y-94774819D01*
X53140000Y-94774819D02*
X53282857Y-94822438D01*
X53282857Y-94822438D02*
X53378095Y-94917676D01*
X53378095Y-94917676D02*
X53425714Y-95012914D01*
X53425714Y-95012914D02*
X53473333Y-95203390D01*
X53473333Y-95203390D02*
X53473333Y-95346247D01*
X53473333Y-95346247D02*
X53425714Y-95536723D01*
X53425714Y-95536723D02*
X53378095Y-95631961D01*
X53378095Y-95631961D02*
X53282857Y-95727200D01*
X53282857Y-95727200D02*
X53140000Y-95774819D01*
X53140000Y-95774819D02*
X52901905Y-95774819D01*
X53806667Y-94774819D02*
X54473333Y-94774819D01*
X54473333Y-94774819D02*
X54044762Y-95774819D01*
X150423333Y-89534819D02*
X150090000Y-89058628D01*
X149851905Y-89534819D02*
X149851905Y-88534819D01*
X149851905Y-88534819D02*
X150232857Y-88534819D01*
X150232857Y-88534819D02*
X150328095Y-88582438D01*
X150328095Y-88582438D02*
X150375714Y-88630057D01*
X150375714Y-88630057D02*
X150423333Y-88725295D01*
X150423333Y-88725295D02*
X150423333Y-88868152D01*
X150423333Y-88868152D02*
X150375714Y-88963390D01*
X150375714Y-88963390D02*
X150328095Y-89011009D01*
X150328095Y-89011009D02*
X150232857Y-89058628D01*
X150232857Y-89058628D02*
X149851905Y-89058628D01*
X150756667Y-88534819D02*
X151423333Y-88534819D01*
X151423333Y-88534819D02*
X150994762Y-89534819D01*
X177839819Y-71149404D02*
X178649342Y-71149404D01*
X178649342Y-71149404D02*
X178744580Y-71101785D01*
X178744580Y-71101785D02*
X178792200Y-71054166D01*
X178792200Y-71054166D02*
X178839819Y-70958928D01*
X178839819Y-70958928D02*
X178839819Y-70768452D01*
X178839819Y-70768452D02*
X178792200Y-70673214D01*
X178792200Y-70673214D02*
X178744580Y-70625595D01*
X178744580Y-70625595D02*
X178649342Y-70577976D01*
X178649342Y-70577976D02*
X177839819Y-70577976D01*
X177839819Y-70197023D02*
X177839819Y-69577976D01*
X177839819Y-69577976D02*
X178220771Y-69911309D01*
X178220771Y-69911309D02*
X178220771Y-69768452D01*
X178220771Y-69768452D02*
X178268390Y-69673214D01*
X178268390Y-69673214D02*
X178316009Y-69625595D01*
X178316009Y-69625595D02*
X178411247Y-69577976D01*
X178411247Y-69577976D02*
X178649342Y-69577976D01*
X178649342Y-69577976D02*
X178744580Y-69625595D01*
X178744580Y-69625595D02*
X178792200Y-69673214D01*
X178792200Y-69673214D02*
X178839819Y-69768452D01*
X178839819Y-69768452D02*
X178839819Y-70054166D01*
X178839819Y-70054166D02*
X178792200Y-70149404D01*
X178792200Y-70149404D02*
X178744580Y-70197023D01*
X96623333Y-75019580D02*
X96575714Y-75067200D01*
X96575714Y-75067200D02*
X96432857Y-75114819D01*
X96432857Y-75114819D02*
X96337619Y-75114819D01*
X96337619Y-75114819D02*
X96194762Y-75067200D01*
X96194762Y-75067200D02*
X96099524Y-74971961D01*
X96099524Y-74971961D02*
X96051905Y-74876723D01*
X96051905Y-74876723D02*
X96004286Y-74686247D01*
X96004286Y-74686247D02*
X96004286Y-74543390D01*
X96004286Y-74543390D02*
X96051905Y-74352914D01*
X96051905Y-74352914D02*
X96099524Y-74257676D01*
X96099524Y-74257676D02*
X96194762Y-74162438D01*
X96194762Y-74162438D02*
X96337619Y-74114819D01*
X96337619Y-74114819D02*
X96432857Y-74114819D01*
X96432857Y-74114819D02*
X96575714Y-74162438D01*
X96575714Y-74162438D02*
X96623333Y-74210057D01*
X97480476Y-74114819D02*
X97290000Y-74114819D01*
X97290000Y-74114819D02*
X97194762Y-74162438D01*
X97194762Y-74162438D02*
X97147143Y-74210057D01*
X97147143Y-74210057D02*
X97051905Y-74352914D01*
X97051905Y-74352914D02*
X97004286Y-74543390D01*
X97004286Y-74543390D02*
X97004286Y-74924342D01*
X97004286Y-74924342D02*
X97051905Y-75019580D01*
X97051905Y-75019580D02*
X97099524Y-75067200D01*
X97099524Y-75067200D02*
X97194762Y-75114819D01*
X97194762Y-75114819D02*
X97385238Y-75114819D01*
X97385238Y-75114819D02*
X97480476Y-75067200D01*
X97480476Y-75067200D02*
X97528095Y-75019580D01*
X97528095Y-75019580D02*
X97575714Y-74924342D01*
X97575714Y-74924342D02*
X97575714Y-74686247D01*
X97575714Y-74686247D02*
X97528095Y-74591009D01*
X97528095Y-74591009D02*
X97480476Y-74543390D01*
X97480476Y-74543390D02*
X97385238Y-74495771D01*
X97385238Y-74495771D02*
X97194762Y-74495771D01*
X97194762Y-74495771D02*
X97099524Y-74543390D01*
X97099524Y-74543390D02*
X97051905Y-74591009D01*
X97051905Y-74591009D02*
X97004286Y-74686247D01*
X175273095Y-59394819D02*
X175273095Y-58394819D01*
X175273095Y-58871009D02*
X175844523Y-58871009D01*
X175844523Y-59394819D02*
X175844523Y-58394819D01*
X176225476Y-58394819D02*
X176892142Y-58394819D01*
X176892142Y-58394819D02*
X176463571Y-59394819D01*
X94889580Y-96687857D02*
X94937200Y-96735476D01*
X94937200Y-96735476D02*
X94984819Y-96878333D01*
X94984819Y-96878333D02*
X94984819Y-96973571D01*
X94984819Y-96973571D02*
X94937200Y-97116428D01*
X94937200Y-97116428D02*
X94841961Y-97211666D01*
X94841961Y-97211666D02*
X94746723Y-97259285D01*
X94746723Y-97259285D02*
X94556247Y-97306904D01*
X94556247Y-97306904D02*
X94413390Y-97306904D01*
X94413390Y-97306904D02*
X94222914Y-97259285D01*
X94222914Y-97259285D02*
X94127676Y-97211666D01*
X94127676Y-97211666D02*
X94032438Y-97116428D01*
X94032438Y-97116428D02*
X93984819Y-96973571D01*
X93984819Y-96973571D02*
X93984819Y-96878333D01*
X93984819Y-96878333D02*
X94032438Y-96735476D01*
X94032438Y-96735476D02*
X94080057Y-96687857D01*
X94984819Y-95735476D02*
X94984819Y-96306904D01*
X94984819Y-96021190D02*
X93984819Y-96021190D01*
X93984819Y-96021190D02*
X94127676Y-96116428D01*
X94127676Y-96116428D02*
X94222914Y-96211666D01*
X94222914Y-96211666D02*
X94270533Y-96306904D01*
X93984819Y-94830714D02*
X93984819Y-95306904D01*
X93984819Y-95306904D02*
X94461009Y-95354523D01*
X94461009Y-95354523D02*
X94413390Y-95306904D01*
X94413390Y-95306904D02*
X94365771Y-95211666D01*
X94365771Y-95211666D02*
X94365771Y-94973571D01*
X94365771Y-94973571D02*
X94413390Y-94878333D01*
X94413390Y-94878333D02*
X94461009Y-94830714D01*
X94461009Y-94830714D02*
X94556247Y-94783095D01*
X94556247Y-94783095D02*
X94794342Y-94783095D01*
X94794342Y-94783095D02*
X94889580Y-94830714D01*
X94889580Y-94830714D02*
X94937200Y-94878333D01*
X94937200Y-94878333D02*
X94984819Y-94973571D01*
X94984819Y-94973571D02*
X94984819Y-95211666D01*
X94984819Y-95211666D02*
X94937200Y-95306904D01*
X94937200Y-95306904D02*
X94889580Y-95354523D01*
X50944819Y-86003333D02*
X51659104Y-86003333D01*
X51659104Y-86003333D02*
X51801961Y-86050952D01*
X51801961Y-86050952D02*
X51897200Y-86146190D01*
X51897200Y-86146190D02*
X51944819Y-86289047D01*
X51944819Y-86289047D02*
X51944819Y-86384285D01*
X50944819Y-85622380D02*
X50944819Y-84955714D01*
X50944819Y-84955714D02*
X51944819Y-85384285D01*
X117054819Y-44853333D02*
X117769104Y-44853333D01*
X117769104Y-44853333D02*
X117911961Y-44900952D01*
X117911961Y-44900952D02*
X118007200Y-44996190D01*
X118007200Y-44996190D02*
X118054819Y-45139047D01*
X118054819Y-45139047D02*
X118054819Y-45234285D01*
X118054819Y-43853333D02*
X118054819Y-44424761D01*
X118054819Y-44139047D02*
X117054819Y-44139047D01*
X117054819Y-44139047D02*
X117197676Y-44234285D01*
X117197676Y-44234285D02*
X117292914Y-44329523D01*
X117292914Y-44329523D02*
X117340533Y-44424761D01*
X71538095Y-63989819D02*
X71538095Y-64799342D01*
X71538095Y-64799342D02*
X71585714Y-64894580D01*
X71585714Y-64894580D02*
X71633333Y-64942200D01*
X71633333Y-64942200D02*
X71728571Y-64989819D01*
X71728571Y-64989819D02*
X71919047Y-64989819D01*
X71919047Y-64989819D02*
X72014285Y-64942200D01*
X72014285Y-64942200D02*
X72061904Y-64894580D01*
X72061904Y-64894580D02*
X72109523Y-64799342D01*
X72109523Y-64799342D02*
X72109523Y-63989819D01*
X73014285Y-63989819D02*
X72823809Y-63989819D01*
X72823809Y-63989819D02*
X72728571Y-64037438D01*
X72728571Y-64037438D02*
X72680952Y-64085057D01*
X72680952Y-64085057D02*
X72585714Y-64227914D01*
X72585714Y-64227914D02*
X72538095Y-64418390D01*
X72538095Y-64418390D02*
X72538095Y-64799342D01*
X72538095Y-64799342D02*
X72585714Y-64894580D01*
X72585714Y-64894580D02*
X72633333Y-64942200D01*
X72633333Y-64942200D02*
X72728571Y-64989819D01*
X72728571Y-64989819D02*
X72919047Y-64989819D01*
X72919047Y-64989819D02*
X73014285Y-64942200D01*
X73014285Y-64942200D02*
X73061904Y-64894580D01*
X73061904Y-64894580D02*
X73109523Y-64799342D01*
X73109523Y-64799342D02*
X73109523Y-64561247D01*
X73109523Y-64561247D02*
X73061904Y-64466009D01*
X73061904Y-64466009D02*
X73014285Y-64418390D01*
X73014285Y-64418390D02*
X72919047Y-64370771D01*
X72919047Y-64370771D02*
X72728571Y-64370771D01*
X72728571Y-64370771D02*
X72633333Y-64418390D01*
X72633333Y-64418390D02*
X72585714Y-64466009D01*
X72585714Y-64466009D02*
X72538095Y-64561247D01*
X66384819Y-90527857D02*
X65908628Y-90861190D01*
X66384819Y-91099285D02*
X65384819Y-91099285D01*
X65384819Y-91099285D02*
X65384819Y-90718333D01*
X65384819Y-90718333D02*
X65432438Y-90623095D01*
X65432438Y-90623095D02*
X65480057Y-90575476D01*
X65480057Y-90575476D02*
X65575295Y-90527857D01*
X65575295Y-90527857D02*
X65718152Y-90527857D01*
X65718152Y-90527857D02*
X65813390Y-90575476D01*
X65813390Y-90575476D02*
X65861009Y-90623095D01*
X65861009Y-90623095D02*
X65908628Y-90718333D01*
X65908628Y-90718333D02*
X65908628Y-91099285D01*
X66384819Y-89575476D02*
X66384819Y-90146904D01*
X66384819Y-89861190D02*
X65384819Y-89861190D01*
X65384819Y-89861190D02*
X65527676Y-89956428D01*
X65527676Y-89956428D02*
X65622914Y-90051666D01*
X65622914Y-90051666D02*
X65670533Y-90146904D01*
X65384819Y-89242142D02*
X65384819Y-88623095D01*
X65384819Y-88623095D02*
X65765771Y-88956428D01*
X65765771Y-88956428D02*
X65765771Y-88813571D01*
X65765771Y-88813571D02*
X65813390Y-88718333D01*
X65813390Y-88718333D02*
X65861009Y-88670714D01*
X65861009Y-88670714D02*
X65956247Y-88623095D01*
X65956247Y-88623095D02*
X66194342Y-88623095D01*
X66194342Y-88623095D02*
X66289580Y-88670714D01*
X66289580Y-88670714D02*
X66337200Y-88718333D01*
X66337200Y-88718333D02*
X66384819Y-88813571D01*
X66384819Y-88813571D02*
X66384819Y-89099285D01*
X66384819Y-89099285D02*
X66337200Y-89194523D01*
X66337200Y-89194523D02*
X66289580Y-89242142D01*
X125676666Y-61454819D02*
X125676666Y-62169104D01*
X125676666Y-62169104D02*
X125629047Y-62311961D01*
X125629047Y-62311961D02*
X125533809Y-62407200D01*
X125533809Y-62407200D02*
X125390952Y-62454819D01*
X125390952Y-62454819D02*
X125295714Y-62454819D01*
X126105238Y-61550057D02*
X126152857Y-61502438D01*
X126152857Y-61502438D02*
X126248095Y-61454819D01*
X126248095Y-61454819D02*
X126486190Y-61454819D01*
X126486190Y-61454819D02*
X126581428Y-61502438D01*
X126581428Y-61502438D02*
X126629047Y-61550057D01*
X126629047Y-61550057D02*
X126676666Y-61645295D01*
X126676666Y-61645295D02*
X126676666Y-61740533D01*
X126676666Y-61740533D02*
X126629047Y-61883390D01*
X126629047Y-61883390D02*
X126057619Y-62454819D01*
X126057619Y-62454819D02*
X126676666Y-62454819D01*
X104738095Y-66714819D02*
X104738095Y-67524342D01*
X104738095Y-67524342D02*
X104785714Y-67619580D01*
X104785714Y-67619580D02*
X104833333Y-67667200D01*
X104833333Y-67667200D02*
X104928571Y-67714819D01*
X104928571Y-67714819D02*
X105119047Y-67714819D01*
X105119047Y-67714819D02*
X105214285Y-67667200D01*
X105214285Y-67667200D02*
X105261904Y-67619580D01*
X105261904Y-67619580D02*
X105309523Y-67524342D01*
X105309523Y-67524342D02*
X105309523Y-66714819D01*
X105738095Y-66810057D02*
X105785714Y-66762438D01*
X105785714Y-66762438D02*
X105880952Y-66714819D01*
X105880952Y-66714819D02*
X106119047Y-66714819D01*
X106119047Y-66714819D02*
X106214285Y-66762438D01*
X106214285Y-66762438D02*
X106261904Y-66810057D01*
X106261904Y-66810057D02*
X106309523Y-66905295D01*
X106309523Y-66905295D02*
X106309523Y-67000533D01*
X106309523Y-67000533D02*
X106261904Y-67143390D01*
X106261904Y-67143390D02*
X105690476Y-67714819D01*
X105690476Y-67714819D02*
X106309523Y-67714819D01*
X83079580Y-67266666D02*
X83127200Y-67314285D01*
X83127200Y-67314285D02*
X83174819Y-67457142D01*
X83174819Y-67457142D02*
X83174819Y-67552380D01*
X83174819Y-67552380D02*
X83127200Y-67695237D01*
X83127200Y-67695237D02*
X83031961Y-67790475D01*
X83031961Y-67790475D02*
X82936723Y-67838094D01*
X82936723Y-67838094D02*
X82746247Y-67885713D01*
X82746247Y-67885713D02*
X82603390Y-67885713D01*
X82603390Y-67885713D02*
X82412914Y-67838094D01*
X82412914Y-67838094D02*
X82317676Y-67790475D01*
X82317676Y-67790475D02*
X82222438Y-67695237D01*
X82222438Y-67695237D02*
X82174819Y-67552380D01*
X82174819Y-67552380D02*
X82174819Y-67457142D01*
X82174819Y-67457142D02*
X82222438Y-67314285D01*
X82222438Y-67314285D02*
X82270057Y-67266666D01*
X82603390Y-66695237D02*
X82555771Y-66790475D01*
X82555771Y-66790475D02*
X82508152Y-66838094D01*
X82508152Y-66838094D02*
X82412914Y-66885713D01*
X82412914Y-66885713D02*
X82365295Y-66885713D01*
X82365295Y-66885713D02*
X82270057Y-66838094D01*
X82270057Y-66838094D02*
X82222438Y-66790475D01*
X82222438Y-66790475D02*
X82174819Y-66695237D01*
X82174819Y-66695237D02*
X82174819Y-66504761D01*
X82174819Y-66504761D02*
X82222438Y-66409523D01*
X82222438Y-66409523D02*
X82270057Y-66361904D01*
X82270057Y-66361904D02*
X82365295Y-66314285D01*
X82365295Y-66314285D02*
X82412914Y-66314285D01*
X82412914Y-66314285D02*
X82508152Y-66361904D01*
X82508152Y-66361904D02*
X82555771Y-66409523D01*
X82555771Y-66409523D02*
X82603390Y-66504761D01*
X82603390Y-66504761D02*
X82603390Y-66695237D01*
X82603390Y-66695237D02*
X82651009Y-66790475D01*
X82651009Y-66790475D02*
X82698628Y-66838094D01*
X82698628Y-66838094D02*
X82793866Y-66885713D01*
X82793866Y-66885713D02*
X82984342Y-66885713D01*
X82984342Y-66885713D02*
X83079580Y-66838094D01*
X83079580Y-66838094D02*
X83127200Y-66790475D01*
X83127200Y-66790475D02*
X83174819Y-66695237D01*
X83174819Y-66695237D02*
X83174819Y-66504761D01*
X83174819Y-66504761D02*
X83127200Y-66409523D01*
X83127200Y-66409523D02*
X83079580Y-66361904D01*
X83079580Y-66361904D02*
X82984342Y-66314285D01*
X82984342Y-66314285D02*
X82793866Y-66314285D01*
X82793866Y-66314285D02*
X82698628Y-66361904D01*
X82698628Y-66361904D02*
X82651009Y-66409523D01*
X82651009Y-66409523D02*
X82603390Y-66504761D01*
X111657142Y-86654819D02*
X111323809Y-86178628D01*
X111085714Y-86654819D02*
X111085714Y-85654819D01*
X111085714Y-85654819D02*
X111466666Y-85654819D01*
X111466666Y-85654819D02*
X111561904Y-85702438D01*
X111561904Y-85702438D02*
X111609523Y-85750057D01*
X111609523Y-85750057D02*
X111657142Y-85845295D01*
X111657142Y-85845295D02*
X111657142Y-85988152D01*
X111657142Y-85988152D02*
X111609523Y-86083390D01*
X111609523Y-86083390D02*
X111561904Y-86131009D01*
X111561904Y-86131009D02*
X111466666Y-86178628D01*
X111466666Y-86178628D02*
X111085714Y-86178628D01*
X112038095Y-85750057D02*
X112085714Y-85702438D01*
X112085714Y-85702438D02*
X112180952Y-85654819D01*
X112180952Y-85654819D02*
X112419047Y-85654819D01*
X112419047Y-85654819D02*
X112514285Y-85702438D01*
X112514285Y-85702438D02*
X112561904Y-85750057D01*
X112561904Y-85750057D02*
X112609523Y-85845295D01*
X112609523Y-85845295D02*
X112609523Y-85940533D01*
X112609523Y-85940533D02*
X112561904Y-86083390D01*
X112561904Y-86083390D02*
X111990476Y-86654819D01*
X111990476Y-86654819D02*
X112609523Y-86654819D01*
X113466666Y-85988152D02*
X113466666Y-86654819D01*
X113228571Y-85607200D02*
X112990476Y-86321485D01*
X112990476Y-86321485D02*
X113609523Y-86321485D01*
X148574405Y-80054819D02*
X148574405Y-79054819D01*
X148574405Y-79054819D02*
X148812500Y-79054819D01*
X148812500Y-79054819D02*
X148955357Y-79102438D01*
X148955357Y-79102438D02*
X149050595Y-79197676D01*
X149050595Y-79197676D02*
X149098214Y-79292914D01*
X149098214Y-79292914D02*
X149145833Y-79483390D01*
X149145833Y-79483390D02*
X149145833Y-79626247D01*
X149145833Y-79626247D02*
X149098214Y-79816723D01*
X149098214Y-79816723D02*
X149050595Y-79911961D01*
X149050595Y-79911961D02*
X148955357Y-80007200D01*
X148955357Y-80007200D02*
X148812500Y-80054819D01*
X148812500Y-80054819D02*
X148574405Y-80054819D01*
X149479167Y-79054819D02*
X150098214Y-79054819D01*
X150098214Y-79054819D02*
X149764881Y-79435771D01*
X149764881Y-79435771D02*
X149907738Y-79435771D01*
X149907738Y-79435771D02*
X150002976Y-79483390D01*
X150002976Y-79483390D02*
X150050595Y-79531009D01*
X150050595Y-79531009D02*
X150098214Y-79626247D01*
X150098214Y-79626247D02*
X150098214Y-79864342D01*
X150098214Y-79864342D02*
X150050595Y-79959580D01*
X150050595Y-79959580D02*
X150002976Y-80007200D01*
X150002976Y-80007200D02*
X149907738Y-80054819D01*
X149907738Y-80054819D02*
X149622024Y-80054819D01*
X149622024Y-80054819D02*
X149526786Y-80007200D01*
X149526786Y-80007200D02*
X149479167Y-79959580D01*
X149524819Y-92511904D02*
X150334342Y-92511904D01*
X150334342Y-92511904D02*
X150429580Y-92464285D01*
X150429580Y-92464285D02*
X150477200Y-92416666D01*
X150477200Y-92416666D02*
X150524819Y-92321428D01*
X150524819Y-92321428D02*
X150524819Y-92130952D01*
X150524819Y-92130952D02*
X150477200Y-92035714D01*
X150477200Y-92035714D02*
X150429580Y-91988095D01*
X150429580Y-91988095D02*
X150334342Y-91940476D01*
X150334342Y-91940476D02*
X149524819Y-91940476D01*
X149858152Y-91035714D02*
X150524819Y-91035714D01*
X149477200Y-91273809D02*
X150191485Y-91511904D01*
X150191485Y-91511904D02*
X150191485Y-90892857D01*
X111657142Y-53814819D02*
X111323809Y-53338628D01*
X111085714Y-53814819D02*
X111085714Y-52814819D01*
X111085714Y-52814819D02*
X111466666Y-52814819D01*
X111466666Y-52814819D02*
X111561904Y-52862438D01*
X111561904Y-52862438D02*
X111609523Y-52910057D01*
X111609523Y-52910057D02*
X111657142Y-53005295D01*
X111657142Y-53005295D02*
X111657142Y-53148152D01*
X111657142Y-53148152D02*
X111609523Y-53243390D01*
X111609523Y-53243390D02*
X111561904Y-53291009D01*
X111561904Y-53291009D02*
X111466666Y-53338628D01*
X111466666Y-53338628D02*
X111085714Y-53338628D01*
X112038095Y-52910057D02*
X112085714Y-52862438D01*
X112085714Y-52862438D02*
X112180952Y-52814819D01*
X112180952Y-52814819D02*
X112419047Y-52814819D01*
X112419047Y-52814819D02*
X112514285Y-52862438D01*
X112514285Y-52862438D02*
X112561904Y-52910057D01*
X112561904Y-52910057D02*
X112609523Y-53005295D01*
X112609523Y-53005295D02*
X112609523Y-53100533D01*
X112609523Y-53100533D02*
X112561904Y-53243390D01*
X112561904Y-53243390D02*
X111990476Y-53814819D01*
X111990476Y-53814819D02*
X112609523Y-53814819D01*
X113466666Y-52814819D02*
X113276190Y-52814819D01*
X113276190Y-52814819D02*
X113180952Y-52862438D01*
X113180952Y-52862438D02*
X113133333Y-52910057D01*
X113133333Y-52910057D02*
X113038095Y-53052914D01*
X113038095Y-53052914D02*
X112990476Y-53243390D01*
X112990476Y-53243390D02*
X112990476Y-53624342D01*
X112990476Y-53624342D02*
X113038095Y-53719580D01*
X113038095Y-53719580D02*
X113085714Y-53767200D01*
X113085714Y-53767200D02*
X113180952Y-53814819D01*
X113180952Y-53814819D02*
X113371428Y-53814819D01*
X113371428Y-53814819D02*
X113466666Y-53767200D01*
X113466666Y-53767200D02*
X113514285Y-53719580D01*
X113514285Y-53719580D02*
X113561904Y-53624342D01*
X113561904Y-53624342D02*
X113561904Y-53386247D01*
X113561904Y-53386247D02*
X113514285Y-53291009D01*
X113514285Y-53291009D02*
X113466666Y-53243390D01*
X113466666Y-53243390D02*
X113371428Y-53195771D01*
X113371428Y-53195771D02*
X113180952Y-53195771D01*
X113180952Y-53195771D02*
X113085714Y-53243390D01*
X113085714Y-53243390D02*
X113038095Y-53291009D01*
X113038095Y-53291009D02*
X112990476Y-53386247D01*
X136994819Y-50004166D02*
X136518628Y-50337499D01*
X136994819Y-50575594D02*
X135994819Y-50575594D01*
X135994819Y-50575594D02*
X135994819Y-50194642D01*
X135994819Y-50194642D02*
X136042438Y-50099404D01*
X136042438Y-50099404D02*
X136090057Y-50051785D01*
X136090057Y-50051785D02*
X136185295Y-50004166D01*
X136185295Y-50004166D02*
X136328152Y-50004166D01*
X136328152Y-50004166D02*
X136423390Y-50051785D01*
X136423390Y-50051785D02*
X136471009Y-50099404D01*
X136471009Y-50099404D02*
X136518628Y-50194642D01*
X136518628Y-50194642D02*
X136518628Y-50575594D01*
X136423390Y-49432737D02*
X136375771Y-49527975D01*
X136375771Y-49527975D02*
X136328152Y-49575594D01*
X136328152Y-49575594D02*
X136232914Y-49623213D01*
X136232914Y-49623213D02*
X136185295Y-49623213D01*
X136185295Y-49623213D02*
X136090057Y-49575594D01*
X136090057Y-49575594D02*
X136042438Y-49527975D01*
X136042438Y-49527975D02*
X135994819Y-49432737D01*
X135994819Y-49432737D02*
X135994819Y-49242261D01*
X135994819Y-49242261D02*
X136042438Y-49147023D01*
X136042438Y-49147023D02*
X136090057Y-49099404D01*
X136090057Y-49099404D02*
X136185295Y-49051785D01*
X136185295Y-49051785D02*
X136232914Y-49051785D01*
X136232914Y-49051785D02*
X136328152Y-49099404D01*
X136328152Y-49099404D02*
X136375771Y-49147023D01*
X136375771Y-49147023D02*
X136423390Y-49242261D01*
X136423390Y-49242261D02*
X136423390Y-49432737D01*
X136423390Y-49432737D02*
X136471009Y-49527975D01*
X136471009Y-49527975D02*
X136518628Y-49575594D01*
X136518628Y-49575594D02*
X136613866Y-49623213D01*
X136613866Y-49623213D02*
X136804342Y-49623213D01*
X136804342Y-49623213D02*
X136899580Y-49575594D01*
X136899580Y-49575594D02*
X136947200Y-49527975D01*
X136947200Y-49527975D02*
X136994819Y-49432737D01*
X136994819Y-49432737D02*
X136994819Y-49242261D01*
X136994819Y-49242261D02*
X136947200Y-49147023D01*
X136947200Y-49147023D02*
X136899580Y-49099404D01*
X136899580Y-49099404D02*
X136804342Y-49051785D01*
X136804342Y-49051785D02*
X136613866Y-49051785D01*
X136613866Y-49051785D02*
X136518628Y-49099404D01*
X136518628Y-49099404D02*
X136471009Y-49147023D01*
X136471009Y-49147023D02*
X136423390Y-49242261D01*
X74729819Y-82595594D02*
X73729819Y-82595594D01*
X73729819Y-82595594D02*
X73729819Y-82357499D01*
X73729819Y-82357499D02*
X73777438Y-82214642D01*
X73777438Y-82214642D02*
X73872676Y-82119404D01*
X73872676Y-82119404D02*
X73967914Y-82071785D01*
X73967914Y-82071785D02*
X74158390Y-82024166D01*
X74158390Y-82024166D02*
X74301247Y-82024166D01*
X74301247Y-82024166D02*
X74491723Y-82071785D01*
X74491723Y-82071785D02*
X74586961Y-82119404D01*
X74586961Y-82119404D02*
X74682200Y-82214642D01*
X74682200Y-82214642D02*
X74729819Y-82357499D01*
X74729819Y-82357499D02*
X74729819Y-82595594D01*
X73729819Y-81119404D02*
X73729819Y-81595594D01*
X73729819Y-81595594D02*
X74206009Y-81643213D01*
X74206009Y-81643213D02*
X74158390Y-81595594D01*
X74158390Y-81595594D02*
X74110771Y-81500356D01*
X74110771Y-81500356D02*
X74110771Y-81262261D01*
X74110771Y-81262261D02*
X74158390Y-81167023D01*
X74158390Y-81167023D02*
X74206009Y-81119404D01*
X74206009Y-81119404D02*
X74301247Y-81071785D01*
X74301247Y-81071785D02*
X74539342Y-81071785D01*
X74539342Y-81071785D02*
X74634580Y-81119404D01*
X74634580Y-81119404D02*
X74682200Y-81167023D01*
X74682200Y-81167023D02*
X74729819Y-81262261D01*
X74729819Y-81262261D02*
X74729819Y-81500356D01*
X74729819Y-81500356D02*
X74682200Y-81595594D01*
X74682200Y-81595594D02*
X74634580Y-81643213D01*
X89058095Y-90934819D02*
X89058095Y-91744342D01*
X89058095Y-91744342D02*
X89105714Y-91839580D01*
X89105714Y-91839580D02*
X89153333Y-91887200D01*
X89153333Y-91887200D02*
X89248571Y-91934819D01*
X89248571Y-91934819D02*
X89439047Y-91934819D01*
X89439047Y-91934819D02*
X89534285Y-91887200D01*
X89534285Y-91887200D02*
X89581904Y-91839580D01*
X89581904Y-91839580D02*
X89629523Y-91744342D01*
X89629523Y-91744342D02*
X89629523Y-90934819D01*
X90248571Y-91363390D02*
X90153333Y-91315771D01*
X90153333Y-91315771D02*
X90105714Y-91268152D01*
X90105714Y-91268152D02*
X90058095Y-91172914D01*
X90058095Y-91172914D02*
X90058095Y-91125295D01*
X90058095Y-91125295D02*
X90105714Y-91030057D01*
X90105714Y-91030057D02*
X90153333Y-90982438D01*
X90153333Y-90982438D02*
X90248571Y-90934819D01*
X90248571Y-90934819D02*
X90439047Y-90934819D01*
X90439047Y-90934819D02*
X90534285Y-90982438D01*
X90534285Y-90982438D02*
X90581904Y-91030057D01*
X90581904Y-91030057D02*
X90629523Y-91125295D01*
X90629523Y-91125295D02*
X90629523Y-91172914D01*
X90629523Y-91172914D02*
X90581904Y-91268152D01*
X90581904Y-91268152D02*
X90534285Y-91315771D01*
X90534285Y-91315771D02*
X90439047Y-91363390D01*
X90439047Y-91363390D02*
X90248571Y-91363390D01*
X90248571Y-91363390D02*
X90153333Y-91411009D01*
X90153333Y-91411009D02*
X90105714Y-91458628D01*
X90105714Y-91458628D02*
X90058095Y-91553866D01*
X90058095Y-91553866D02*
X90058095Y-91744342D01*
X90058095Y-91744342D02*
X90105714Y-91839580D01*
X90105714Y-91839580D02*
X90153333Y-91887200D01*
X90153333Y-91887200D02*
X90248571Y-91934819D01*
X90248571Y-91934819D02*
X90439047Y-91934819D01*
X90439047Y-91934819D02*
X90534285Y-91887200D01*
X90534285Y-91887200D02*
X90581904Y-91839580D01*
X90581904Y-91839580D02*
X90629523Y-91744342D01*
X90629523Y-91744342D02*
X90629523Y-91553866D01*
X90629523Y-91553866D02*
X90581904Y-91458628D01*
X90581904Y-91458628D02*
X90534285Y-91411009D01*
X90534285Y-91411009D02*
X90439047Y-91363390D01*
X114957142Y-98394580D02*
X114909523Y-98442200D01*
X114909523Y-98442200D02*
X114766666Y-98489819D01*
X114766666Y-98489819D02*
X114671428Y-98489819D01*
X114671428Y-98489819D02*
X114528571Y-98442200D01*
X114528571Y-98442200D02*
X114433333Y-98346961D01*
X114433333Y-98346961D02*
X114385714Y-98251723D01*
X114385714Y-98251723D02*
X114338095Y-98061247D01*
X114338095Y-98061247D02*
X114338095Y-97918390D01*
X114338095Y-97918390D02*
X114385714Y-97727914D01*
X114385714Y-97727914D02*
X114433333Y-97632676D01*
X114433333Y-97632676D02*
X114528571Y-97537438D01*
X114528571Y-97537438D02*
X114671428Y-97489819D01*
X114671428Y-97489819D02*
X114766666Y-97489819D01*
X114766666Y-97489819D02*
X114909523Y-97537438D01*
X114909523Y-97537438D02*
X114957142Y-97585057D01*
X115909523Y-98489819D02*
X115338095Y-98489819D01*
X115623809Y-98489819D02*
X115623809Y-97489819D01*
X115623809Y-97489819D02*
X115528571Y-97632676D01*
X115528571Y-97632676D02*
X115433333Y-97727914D01*
X115433333Y-97727914D02*
X115338095Y-97775533D01*
X116766666Y-97823152D02*
X116766666Y-98489819D01*
X116528571Y-97442200D02*
X116290476Y-98156485D01*
X116290476Y-98156485D02*
X116909523Y-98156485D01*
X62464765Y-68015714D02*
X62512384Y-67872857D01*
X62512384Y-67872857D02*
X62560003Y-67825238D01*
X62560003Y-67825238D02*
X62655241Y-67777619D01*
X62655241Y-67777619D02*
X62798098Y-67777619D01*
X62798098Y-67777619D02*
X62893336Y-67825238D01*
X62893336Y-67825238D02*
X62940956Y-67872857D01*
X62940956Y-67872857D02*
X62988575Y-67968095D01*
X62988575Y-67968095D02*
X62988575Y-68349047D01*
X62988575Y-68349047D02*
X61988575Y-68349047D01*
X61988575Y-68349047D02*
X61988575Y-68015714D01*
X61988575Y-68015714D02*
X62036194Y-67920476D01*
X62036194Y-67920476D02*
X62083813Y-67872857D01*
X62083813Y-67872857D02*
X62179051Y-67825238D01*
X62179051Y-67825238D02*
X62274289Y-67825238D01*
X62274289Y-67825238D02*
X62369527Y-67872857D01*
X62369527Y-67872857D02*
X62417146Y-67920476D01*
X62417146Y-67920476D02*
X62464765Y-68015714D01*
X62464765Y-68015714D02*
X62464765Y-68349047D01*
X61988575Y-67491904D02*
X61988575Y-66920476D01*
X62988575Y-67206190D02*
X61988575Y-67206190D01*
X62988575Y-66063333D02*
X62988575Y-66634761D01*
X62988575Y-66349047D02*
X61988575Y-66349047D01*
X61988575Y-66349047D02*
X62131432Y-66444285D01*
X62131432Y-66444285D02*
X62226670Y-66539523D01*
X62226670Y-66539523D02*
X62274289Y-66634761D01*
X180095833Y-71634819D02*
X179762500Y-71158628D01*
X179524405Y-71634819D02*
X179524405Y-70634819D01*
X179524405Y-70634819D02*
X179905357Y-70634819D01*
X179905357Y-70634819D02*
X180000595Y-70682438D01*
X180000595Y-70682438D02*
X180048214Y-70730057D01*
X180048214Y-70730057D02*
X180095833Y-70825295D01*
X180095833Y-70825295D02*
X180095833Y-70968152D01*
X180095833Y-70968152D02*
X180048214Y-71063390D01*
X180048214Y-71063390D02*
X180000595Y-71111009D01*
X180000595Y-71111009D02*
X179905357Y-71158628D01*
X179905357Y-71158628D02*
X179524405Y-71158628D01*
X180952976Y-70968152D02*
X180952976Y-71634819D01*
X180714881Y-70587200D02*
X180476786Y-71301485D01*
X180476786Y-71301485D02*
X181095833Y-71301485D01*
X125803333Y-83274819D02*
X125470000Y-82798628D01*
X125231905Y-83274819D02*
X125231905Y-82274819D01*
X125231905Y-82274819D02*
X125612857Y-82274819D01*
X125612857Y-82274819D02*
X125708095Y-82322438D01*
X125708095Y-82322438D02*
X125755714Y-82370057D01*
X125755714Y-82370057D02*
X125803333Y-82465295D01*
X125803333Y-82465295D02*
X125803333Y-82608152D01*
X125803333Y-82608152D02*
X125755714Y-82703390D01*
X125755714Y-82703390D02*
X125708095Y-82751009D01*
X125708095Y-82751009D02*
X125612857Y-82798628D01*
X125612857Y-82798628D02*
X125231905Y-82798628D01*
X126136667Y-82274819D02*
X126755714Y-82274819D01*
X126755714Y-82274819D02*
X126422381Y-82655771D01*
X126422381Y-82655771D02*
X126565238Y-82655771D01*
X126565238Y-82655771D02*
X126660476Y-82703390D01*
X126660476Y-82703390D02*
X126708095Y-82751009D01*
X126708095Y-82751009D02*
X126755714Y-82846247D01*
X126755714Y-82846247D02*
X126755714Y-83084342D01*
X126755714Y-83084342D02*
X126708095Y-83179580D01*
X126708095Y-83179580D02*
X126660476Y-83227200D01*
X126660476Y-83227200D02*
X126565238Y-83274819D01*
X126565238Y-83274819D02*
X126279524Y-83274819D01*
X126279524Y-83274819D02*
X126184286Y-83227200D01*
X126184286Y-83227200D02*
X126136667Y-83179580D01*
X175118095Y-83344819D02*
X175118095Y-82344819D01*
X175118095Y-82821009D02*
X175689523Y-82821009D01*
X175689523Y-83344819D02*
X175689523Y-82344819D01*
X176308571Y-82773390D02*
X176213333Y-82725771D01*
X176213333Y-82725771D02*
X176165714Y-82678152D01*
X176165714Y-82678152D02*
X176118095Y-82582914D01*
X176118095Y-82582914D02*
X176118095Y-82535295D01*
X176118095Y-82535295D02*
X176165714Y-82440057D01*
X176165714Y-82440057D02*
X176213333Y-82392438D01*
X176213333Y-82392438D02*
X176308571Y-82344819D01*
X176308571Y-82344819D02*
X176499047Y-82344819D01*
X176499047Y-82344819D02*
X176594285Y-82392438D01*
X176594285Y-82392438D02*
X176641904Y-82440057D01*
X176641904Y-82440057D02*
X176689523Y-82535295D01*
X176689523Y-82535295D02*
X176689523Y-82582914D01*
X176689523Y-82582914D02*
X176641904Y-82678152D01*
X176641904Y-82678152D02*
X176594285Y-82725771D01*
X176594285Y-82725771D02*
X176499047Y-82773390D01*
X176499047Y-82773390D02*
X176308571Y-82773390D01*
X176308571Y-82773390D02*
X176213333Y-82821009D01*
X176213333Y-82821009D02*
X176165714Y-82868628D01*
X176165714Y-82868628D02*
X176118095Y-82963866D01*
X176118095Y-82963866D02*
X176118095Y-83154342D01*
X176118095Y-83154342D02*
X176165714Y-83249580D01*
X176165714Y-83249580D02*
X176213333Y-83297200D01*
X176213333Y-83297200D02*
X176308571Y-83344819D01*
X176308571Y-83344819D02*
X176499047Y-83344819D01*
X176499047Y-83344819D02*
X176594285Y-83297200D01*
X176594285Y-83297200D02*
X176641904Y-83249580D01*
X176641904Y-83249580D02*
X176689523Y-83154342D01*
X176689523Y-83154342D02*
X176689523Y-82963866D01*
X176689523Y-82963866D02*
X176641904Y-82868628D01*
X176641904Y-82868628D02*
X176594285Y-82821009D01*
X176594285Y-82821009D02*
X176499047Y-82773390D01*
X48987200Y-78113332D02*
X49034819Y-77970475D01*
X49034819Y-77970475D02*
X49034819Y-77732380D01*
X49034819Y-77732380D02*
X48987200Y-77637142D01*
X48987200Y-77637142D02*
X48939580Y-77589523D01*
X48939580Y-77589523D02*
X48844342Y-77541904D01*
X48844342Y-77541904D02*
X48749104Y-77541904D01*
X48749104Y-77541904D02*
X48653866Y-77589523D01*
X48653866Y-77589523D02*
X48606247Y-77637142D01*
X48606247Y-77637142D02*
X48558628Y-77732380D01*
X48558628Y-77732380D02*
X48511009Y-77922856D01*
X48511009Y-77922856D02*
X48463390Y-78018094D01*
X48463390Y-78018094D02*
X48415771Y-78065713D01*
X48415771Y-78065713D02*
X48320533Y-78113332D01*
X48320533Y-78113332D02*
X48225295Y-78113332D01*
X48225295Y-78113332D02*
X48130057Y-78065713D01*
X48130057Y-78065713D02*
X48082438Y-78018094D01*
X48082438Y-78018094D02*
X48034819Y-77922856D01*
X48034819Y-77922856D02*
X48034819Y-77684761D01*
X48034819Y-77684761D02*
X48082438Y-77541904D01*
X48034819Y-77208570D02*
X49034819Y-76970475D01*
X49034819Y-76970475D02*
X48320533Y-76779999D01*
X48320533Y-76779999D02*
X49034819Y-76589523D01*
X49034819Y-76589523D02*
X48034819Y-76351428D01*
X49034819Y-75446666D02*
X49034819Y-76018094D01*
X49034819Y-75732380D02*
X48034819Y-75732380D01*
X48034819Y-75732380D02*
X48177676Y-75827618D01*
X48177676Y-75827618D02*
X48272914Y-75922856D01*
X48272914Y-75922856D02*
X48320533Y-76018094D01*
X95463333Y-53159580D02*
X95415714Y-53207200D01*
X95415714Y-53207200D02*
X95272857Y-53254819D01*
X95272857Y-53254819D02*
X95177619Y-53254819D01*
X95177619Y-53254819D02*
X95034762Y-53207200D01*
X95034762Y-53207200D02*
X94939524Y-53111961D01*
X94939524Y-53111961D02*
X94891905Y-53016723D01*
X94891905Y-53016723D02*
X94844286Y-52826247D01*
X94844286Y-52826247D02*
X94844286Y-52683390D01*
X94844286Y-52683390D02*
X94891905Y-52492914D01*
X94891905Y-52492914D02*
X94939524Y-52397676D01*
X94939524Y-52397676D02*
X95034762Y-52302438D01*
X95034762Y-52302438D02*
X95177619Y-52254819D01*
X95177619Y-52254819D02*
X95272857Y-52254819D01*
X95272857Y-52254819D02*
X95415714Y-52302438D01*
X95415714Y-52302438D02*
X95463333Y-52350057D01*
X96415714Y-53254819D02*
X95844286Y-53254819D01*
X96130000Y-53254819D02*
X96130000Y-52254819D01*
X96130000Y-52254819D02*
X96034762Y-52397676D01*
X96034762Y-52397676D02*
X95939524Y-52492914D01*
X95939524Y-52492914D02*
X95844286Y-52540533D01*
X103564819Y-89466666D02*
X103564819Y-89942856D01*
X103564819Y-89942856D02*
X102564819Y-89942856D01*
X103564819Y-88609523D02*
X103564819Y-89180951D01*
X103564819Y-88895237D02*
X102564819Y-88895237D01*
X102564819Y-88895237D02*
X102707676Y-88990475D01*
X102707676Y-88990475D02*
X102802914Y-89085713D01*
X102802914Y-89085713D02*
X102850533Y-89180951D01*
X70867142Y-84574819D02*
X70533809Y-84098628D01*
X70295714Y-84574819D02*
X70295714Y-83574819D01*
X70295714Y-83574819D02*
X70676666Y-83574819D01*
X70676666Y-83574819D02*
X70771904Y-83622438D01*
X70771904Y-83622438D02*
X70819523Y-83670057D01*
X70819523Y-83670057D02*
X70867142Y-83765295D01*
X70867142Y-83765295D02*
X70867142Y-83908152D01*
X70867142Y-83908152D02*
X70819523Y-84003390D01*
X70819523Y-84003390D02*
X70771904Y-84051009D01*
X70771904Y-84051009D02*
X70676666Y-84098628D01*
X70676666Y-84098628D02*
X70295714Y-84098628D01*
X71819523Y-84574819D02*
X71248095Y-84574819D01*
X71533809Y-84574819D02*
X71533809Y-83574819D01*
X71533809Y-83574819D02*
X71438571Y-83717676D01*
X71438571Y-83717676D02*
X71343333Y-83812914D01*
X71343333Y-83812914D02*
X71248095Y-83860533D01*
X72152857Y-83574819D02*
X72819523Y-83574819D01*
X72819523Y-83574819D02*
X72390952Y-84574819D01*
X85944580Y-68621666D02*
X85992200Y-68669285D01*
X85992200Y-68669285D02*
X86039819Y-68812142D01*
X86039819Y-68812142D02*
X86039819Y-68907380D01*
X86039819Y-68907380D02*
X85992200Y-69050237D01*
X85992200Y-69050237D02*
X85896961Y-69145475D01*
X85896961Y-69145475D02*
X85801723Y-69193094D01*
X85801723Y-69193094D02*
X85611247Y-69240713D01*
X85611247Y-69240713D02*
X85468390Y-69240713D01*
X85468390Y-69240713D02*
X85277914Y-69193094D01*
X85277914Y-69193094D02*
X85182676Y-69145475D01*
X85182676Y-69145475D02*
X85087438Y-69050237D01*
X85087438Y-69050237D02*
X85039819Y-68907380D01*
X85039819Y-68907380D02*
X85039819Y-68812142D01*
X85039819Y-68812142D02*
X85087438Y-68669285D01*
X85087438Y-68669285D02*
X85135057Y-68621666D01*
X85039819Y-68288332D02*
X85039819Y-67669285D01*
X85039819Y-67669285D02*
X85420771Y-68002618D01*
X85420771Y-68002618D02*
X85420771Y-67859761D01*
X85420771Y-67859761D02*
X85468390Y-67764523D01*
X85468390Y-67764523D02*
X85516009Y-67716904D01*
X85516009Y-67716904D02*
X85611247Y-67669285D01*
X85611247Y-67669285D02*
X85849342Y-67669285D01*
X85849342Y-67669285D02*
X85944580Y-67716904D01*
X85944580Y-67716904D02*
X85992200Y-67764523D01*
X85992200Y-67764523D02*
X86039819Y-67859761D01*
X86039819Y-67859761D02*
X86039819Y-68145475D01*
X86039819Y-68145475D02*
X85992200Y-68240713D01*
X85992200Y-68240713D02*
X85944580Y-68288332D01*
X74934819Y-67942857D02*
X74458628Y-68276190D01*
X74934819Y-68514285D02*
X73934819Y-68514285D01*
X73934819Y-68514285D02*
X73934819Y-68133333D01*
X73934819Y-68133333D02*
X73982438Y-68038095D01*
X73982438Y-68038095D02*
X74030057Y-67990476D01*
X74030057Y-67990476D02*
X74125295Y-67942857D01*
X74125295Y-67942857D02*
X74268152Y-67942857D01*
X74268152Y-67942857D02*
X74363390Y-67990476D01*
X74363390Y-67990476D02*
X74411009Y-68038095D01*
X74411009Y-68038095D02*
X74458628Y-68133333D01*
X74458628Y-68133333D02*
X74458628Y-68514285D01*
X74934819Y-66990476D02*
X74934819Y-67561904D01*
X74934819Y-67276190D02*
X73934819Y-67276190D01*
X73934819Y-67276190D02*
X74077676Y-67371428D01*
X74077676Y-67371428D02*
X74172914Y-67466666D01*
X74172914Y-67466666D02*
X74220533Y-67561904D01*
X74934819Y-66038095D02*
X74934819Y-66609523D01*
X74934819Y-66323809D02*
X73934819Y-66323809D01*
X73934819Y-66323809D02*
X74077676Y-66419047D01*
X74077676Y-66419047D02*
X74172914Y-66514285D01*
X74172914Y-66514285D02*
X74220533Y-66609523D01*
X99199580Y-49402857D02*
X99247200Y-49450476D01*
X99247200Y-49450476D02*
X99294819Y-49593333D01*
X99294819Y-49593333D02*
X99294819Y-49688571D01*
X99294819Y-49688571D02*
X99247200Y-49831428D01*
X99247200Y-49831428D02*
X99151961Y-49926666D01*
X99151961Y-49926666D02*
X99056723Y-49974285D01*
X99056723Y-49974285D02*
X98866247Y-50021904D01*
X98866247Y-50021904D02*
X98723390Y-50021904D01*
X98723390Y-50021904D02*
X98532914Y-49974285D01*
X98532914Y-49974285D02*
X98437676Y-49926666D01*
X98437676Y-49926666D02*
X98342438Y-49831428D01*
X98342438Y-49831428D02*
X98294819Y-49688571D01*
X98294819Y-49688571D02*
X98294819Y-49593333D01*
X98294819Y-49593333D02*
X98342438Y-49450476D01*
X98342438Y-49450476D02*
X98390057Y-49402857D01*
X98390057Y-49021904D02*
X98342438Y-48974285D01*
X98342438Y-48974285D02*
X98294819Y-48879047D01*
X98294819Y-48879047D02*
X98294819Y-48640952D01*
X98294819Y-48640952D02*
X98342438Y-48545714D01*
X98342438Y-48545714D02*
X98390057Y-48498095D01*
X98390057Y-48498095D02*
X98485295Y-48450476D01*
X98485295Y-48450476D02*
X98580533Y-48450476D01*
X98580533Y-48450476D02*
X98723390Y-48498095D01*
X98723390Y-48498095D02*
X99294819Y-49069523D01*
X99294819Y-49069523D02*
X99294819Y-48450476D01*
X98294819Y-47593333D02*
X98294819Y-47783809D01*
X98294819Y-47783809D02*
X98342438Y-47879047D01*
X98342438Y-47879047D02*
X98390057Y-47926666D01*
X98390057Y-47926666D02*
X98532914Y-48021904D01*
X98532914Y-48021904D02*
X98723390Y-48069523D01*
X98723390Y-48069523D02*
X99104342Y-48069523D01*
X99104342Y-48069523D02*
X99199580Y-48021904D01*
X99199580Y-48021904D02*
X99247200Y-47974285D01*
X99247200Y-47974285D02*
X99294819Y-47879047D01*
X99294819Y-47879047D02*
X99294819Y-47688571D01*
X99294819Y-47688571D02*
X99247200Y-47593333D01*
X99247200Y-47593333D02*
X99199580Y-47545714D01*
X99199580Y-47545714D02*
X99104342Y-47498095D01*
X99104342Y-47498095D02*
X98866247Y-47498095D01*
X98866247Y-47498095D02*
X98771009Y-47545714D01*
X98771009Y-47545714D02*
X98723390Y-47593333D01*
X98723390Y-47593333D02*
X98675771Y-47688571D01*
X98675771Y-47688571D02*
X98675771Y-47879047D01*
X98675771Y-47879047D02*
X98723390Y-47974285D01*
X98723390Y-47974285D02*
X98771009Y-48021904D01*
X98771009Y-48021904D02*
X98866247Y-48069523D01*
X113164819Y-79143333D02*
X113879104Y-79143333D01*
X113879104Y-79143333D02*
X114021961Y-79190952D01*
X114021961Y-79190952D02*
X114117200Y-79286190D01*
X114117200Y-79286190D02*
X114164819Y-79429047D01*
X114164819Y-79429047D02*
X114164819Y-79524285D01*
X113498152Y-78238571D02*
X114164819Y-78238571D01*
X113117200Y-78476666D02*
X113831485Y-78714761D01*
X113831485Y-78714761D02*
X113831485Y-78095714D01*
X88219819Y-88865357D02*
X87743628Y-89198690D01*
X88219819Y-89436785D02*
X87219819Y-89436785D01*
X87219819Y-89436785D02*
X87219819Y-89055833D01*
X87219819Y-89055833D02*
X87267438Y-88960595D01*
X87267438Y-88960595D02*
X87315057Y-88912976D01*
X87315057Y-88912976D02*
X87410295Y-88865357D01*
X87410295Y-88865357D02*
X87553152Y-88865357D01*
X87553152Y-88865357D02*
X87648390Y-88912976D01*
X87648390Y-88912976D02*
X87696009Y-88960595D01*
X87696009Y-88960595D02*
X87743628Y-89055833D01*
X87743628Y-89055833D02*
X87743628Y-89436785D01*
X87315057Y-88484404D02*
X87267438Y-88436785D01*
X87267438Y-88436785D02*
X87219819Y-88341547D01*
X87219819Y-88341547D02*
X87219819Y-88103452D01*
X87219819Y-88103452D02*
X87267438Y-88008214D01*
X87267438Y-88008214D02*
X87315057Y-87960595D01*
X87315057Y-87960595D02*
X87410295Y-87912976D01*
X87410295Y-87912976D02*
X87505533Y-87912976D01*
X87505533Y-87912976D02*
X87648390Y-87960595D01*
X87648390Y-87960595D02*
X88219819Y-88532023D01*
X88219819Y-88532023D02*
X88219819Y-87912976D01*
X88219819Y-86960595D02*
X88219819Y-87532023D01*
X88219819Y-87246309D02*
X87219819Y-87246309D01*
X87219819Y-87246309D02*
X87362676Y-87341547D01*
X87362676Y-87341547D02*
X87457914Y-87436785D01*
X87457914Y-87436785D02*
X87505533Y-87532023D01*
X112392142Y-63709580D02*
X112344523Y-63757200D01*
X112344523Y-63757200D02*
X112201666Y-63804819D01*
X112201666Y-63804819D02*
X112106428Y-63804819D01*
X112106428Y-63804819D02*
X111963571Y-63757200D01*
X111963571Y-63757200D02*
X111868333Y-63661961D01*
X111868333Y-63661961D02*
X111820714Y-63566723D01*
X111820714Y-63566723D02*
X111773095Y-63376247D01*
X111773095Y-63376247D02*
X111773095Y-63233390D01*
X111773095Y-63233390D02*
X111820714Y-63042914D01*
X111820714Y-63042914D02*
X111868333Y-62947676D01*
X111868333Y-62947676D02*
X111963571Y-62852438D01*
X111963571Y-62852438D02*
X112106428Y-62804819D01*
X112106428Y-62804819D02*
X112201666Y-62804819D01*
X112201666Y-62804819D02*
X112344523Y-62852438D01*
X112344523Y-62852438D02*
X112392142Y-62900057D01*
X113344523Y-63804819D02*
X112773095Y-63804819D01*
X113058809Y-63804819D02*
X113058809Y-62804819D01*
X113058809Y-62804819D02*
X112963571Y-62947676D01*
X112963571Y-62947676D02*
X112868333Y-63042914D01*
X112868333Y-63042914D02*
X112773095Y-63090533D01*
X113677857Y-62804819D02*
X114344523Y-62804819D01*
X114344523Y-62804819D02*
X113915952Y-63804819D01*
X107941905Y-84434819D02*
X107941905Y-83434819D01*
X107941905Y-83434819D02*
X108180000Y-83434819D01*
X108180000Y-83434819D02*
X108322857Y-83482438D01*
X108322857Y-83482438D02*
X108418095Y-83577676D01*
X108418095Y-83577676D02*
X108465714Y-83672914D01*
X108465714Y-83672914D02*
X108513333Y-83863390D01*
X108513333Y-83863390D02*
X108513333Y-84006247D01*
X108513333Y-84006247D02*
X108465714Y-84196723D01*
X108465714Y-84196723D02*
X108418095Y-84291961D01*
X108418095Y-84291961D02*
X108322857Y-84387200D01*
X108322857Y-84387200D02*
X108180000Y-84434819D01*
X108180000Y-84434819D02*
X107941905Y-84434819D01*
X109084762Y-83863390D02*
X108989524Y-83815771D01*
X108989524Y-83815771D02*
X108941905Y-83768152D01*
X108941905Y-83768152D02*
X108894286Y-83672914D01*
X108894286Y-83672914D02*
X108894286Y-83625295D01*
X108894286Y-83625295D02*
X108941905Y-83530057D01*
X108941905Y-83530057D02*
X108989524Y-83482438D01*
X108989524Y-83482438D02*
X109084762Y-83434819D01*
X109084762Y-83434819D02*
X109275238Y-83434819D01*
X109275238Y-83434819D02*
X109370476Y-83482438D01*
X109370476Y-83482438D02*
X109418095Y-83530057D01*
X109418095Y-83530057D02*
X109465714Y-83625295D01*
X109465714Y-83625295D02*
X109465714Y-83672914D01*
X109465714Y-83672914D02*
X109418095Y-83768152D01*
X109418095Y-83768152D02*
X109370476Y-83815771D01*
X109370476Y-83815771D02*
X109275238Y-83863390D01*
X109275238Y-83863390D02*
X109084762Y-83863390D01*
X109084762Y-83863390D02*
X108989524Y-83911009D01*
X108989524Y-83911009D02*
X108941905Y-83958628D01*
X108941905Y-83958628D02*
X108894286Y-84053866D01*
X108894286Y-84053866D02*
X108894286Y-84244342D01*
X108894286Y-84244342D02*
X108941905Y-84339580D01*
X108941905Y-84339580D02*
X108989524Y-84387200D01*
X108989524Y-84387200D02*
X109084762Y-84434819D01*
X109084762Y-84434819D02*
X109275238Y-84434819D01*
X109275238Y-84434819D02*
X109370476Y-84387200D01*
X109370476Y-84387200D02*
X109418095Y-84339580D01*
X109418095Y-84339580D02*
X109465714Y-84244342D01*
X109465714Y-84244342D02*
X109465714Y-84053866D01*
X109465714Y-84053866D02*
X109418095Y-83958628D01*
X109418095Y-83958628D02*
X109370476Y-83911009D01*
X109370476Y-83911009D02*
X109275238Y-83863390D01*
X83729405Y-58927319D02*
X83729405Y-57927319D01*
X83729405Y-57927319D02*
X83967500Y-57927319D01*
X83967500Y-57927319D02*
X84110357Y-57974938D01*
X84110357Y-57974938D02*
X84205595Y-58070176D01*
X84205595Y-58070176D02*
X84253214Y-58165414D01*
X84253214Y-58165414D02*
X84300833Y-58355890D01*
X84300833Y-58355890D02*
X84300833Y-58498747D01*
X84300833Y-58498747D02*
X84253214Y-58689223D01*
X84253214Y-58689223D02*
X84205595Y-58784461D01*
X84205595Y-58784461D02*
X84110357Y-58879700D01*
X84110357Y-58879700D02*
X83967500Y-58927319D01*
X83967500Y-58927319D02*
X83729405Y-58927319D01*
X85253214Y-58927319D02*
X84681786Y-58927319D01*
X84967500Y-58927319D02*
X84967500Y-57927319D01*
X84967500Y-57927319D02*
X84872262Y-58070176D01*
X84872262Y-58070176D02*
X84777024Y-58165414D01*
X84777024Y-58165414D02*
X84681786Y-58213033D01*
X83007142Y-88694819D02*
X82673809Y-88218628D01*
X82435714Y-88694819D02*
X82435714Y-87694819D01*
X82435714Y-87694819D02*
X82816666Y-87694819D01*
X82816666Y-87694819D02*
X82911904Y-87742438D01*
X82911904Y-87742438D02*
X82959523Y-87790057D01*
X82959523Y-87790057D02*
X83007142Y-87885295D01*
X83007142Y-87885295D02*
X83007142Y-88028152D01*
X83007142Y-88028152D02*
X82959523Y-88123390D01*
X82959523Y-88123390D02*
X82911904Y-88171009D01*
X82911904Y-88171009D02*
X82816666Y-88218628D01*
X82816666Y-88218628D02*
X82435714Y-88218628D01*
X83959523Y-88694819D02*
X83388095Y-88694819D01*
X83673809Y-88694819D02*
X83673809Y-87694819D01*
X83673809Y-87694819D02*
X83578571Y-87837676D01*
X83578571Y-87837676D02*
X83483333Y-87932914D01*
X83483333Y-87932914D02*
X83388095Y-87980533D01*
X84435714Y-88694819D02*
X84626190Y-88694819D01*
X84626190Y-88694819D02*
X84721428Y-88647200D01*
X84721428Y-88647200D02*
X84769047Y-88599580D01*
X84769047Y-88599580D02*
X84864285Y-88456723D01*
X84864285Y-88456723D02*
X84911904Y-88266247D01*
X84911904Y-88266247D02*
X84911904Y-87885295D01*
X84911904Y-87885295D02*
X84864285Y-87790057D01*
X84864285Y-87790057D02*
X84816666Y-87742438D01*
X84816666Y-87742438D02*
X84721428Y-87694819D01*
X84721428Y-87694819D02*
X84530952Y-87694819D01*
X84530952Y-87694819D02*
X84435714Y-87742438D01*
X84435714Y-87742438D02*
X84388095Y-87790057D01*
X84388095Y-87790057D02*
X84340476Y-87885295D01*
X84340476Y-87885295D02*
X84340476Y-88123390D01*
X84340476Y-88123390D02*
X84388095Y-88218628D01*
X84388095Y-88218628D02*
X84435714Y-88266247D01*
X84435714Y-88266247D02*
X84530952Y-88313866D01*
X84530952Y-88313866D02*
X84721428Y-88313866D01*
X84721428Y-88313866D02*
X84816666Y-88266247D01*
X84816666Y-88266247D02*
X84864285Y-88218628D01*
X84864285Y-88218628D02*
X84911904Y-88123390D01*
X129260057Y-88852738D02*
X129212438Y-88947976D01*
X129212438Y-88947976D02*
X129117200Y-89043214D01*
X129117200Y-89043214D02*
X128974342Y-89186071D01*
X128974342Y-89186071D02*
X128926723Y-89281309D01*
X128926723Y-89281309D02*
X128926723Y-89376547D01*
X129164819Y-89328928D02*
X129117200Y-89424166D01*
X129117200Y-89424166D02*
X129021961Y-89519404D01*
X129021961Y-89519404D02*
X128831485Y-89567023D01*
X128831485Y-89567023D02*
X128498152Y-89567023D01*
X128498152Y-89567023D02*
X128307676Y-89519404D01*
X128307676Y-89519404D02*
X128212438Y-89424166D01*
X128212438Y-89424166D02*
X128164819Y-89328928D01*
X128164819Y-89328928D02*
X128164819Y-89138452D01*
X128164819Y-89138452D02*
X128212438Y-89043214D01*
X128212438Y-89043214D02*
X128307676Y-88947976D01*
X128307676Y-88947976D02*
X128498152Y-88900357D01*
X128498152Y-88900357D02*
X128831485Y-88900357D01*
X128831485Y-88900357D02*
X129021961Y-88947976D01*
X129021961Y-88947976D02*
X129117200Y-89043214D01*
X129117200Y-89043214D02*
X129164819Y-89138452D01*
X129164819Y-89138452D02*
X129164819Y-89328928D01*
X129164819Y-87947976D02*
X129164819Y-88519404D01*
X129164819Y-88233690D02*
X128164819Y-88233690D01*
X128164819Y-88233690D02*
X128307676Y-88328928D01*
X128307676Y-88328928D02*
X128402914Y-88424166D01*
X128402914Y-88424166D02*
X128450533Y-88519404D01*
X93464819Y-88952857D02*
X92988628Y-89286190D01*
X93464819Y-89524285D02*
X92464819Y-89524285D01*
X92464819Y-89524285D02*
X92464819Y-89143333D01*
X92464819Y-89143333D02*
X92512438Y-89048095D01*
X92512438Y-89048095D02*
X92560057Y-89000476D01*
X92560057Y-89000476D02*
X92655295Y-88952857D01*
X92655295Y-88952857D02*
X92798152Y-88952857D01*
X92798152Y-88952857D02*
X92893390Y-89000476D01*
X92893390Y-89000476D02*
X92941009Y-89048095D01*
X92941009Y-89048095D02*
X92988628Y-89143333D01*
X92988628Y-89143333D02*
X92988628Y-89524285D01*
X92560057Y-88571904D02*
X92512438Y-88524285D01*
X92512438Y-88524285D02*
X92464819Y-88429047D01*
X92464819Y-88429047D02*
X92464819Y-88190952D01*
X92464819Y-88190952D02*
X92512438Y-88095714D01*
X92512438Y-88095714D02*
X92560057Y-88048095D01*
X92560057Y-88048095D02*
X92655295Y-88000476D01*
X92655295Y-88000476D02*
X92750533Y-88000476D01*
X92750533Y-88000476D02*
X92893390Y-88048095D01*
X92893390Y-88048095D02*
X93464819Y-88619523D01*
X93464819Y-88619523D02*
X93464819Y-88000476D01*
X92560057Y-87619523D02*
X92512438Y-87571904D01*
X92512438Y-87571904D02*
X92464819Y-87476666D01*
X92464819Y-87476666D02*
X92464819Y-87238571D01*
X92464819Y-87238571D02*
X92512438Y-87143333D01*
X92512438Y-87143333D02*
X92560057Y-87095714D01*
X92560057Y-87095714D02*
X92655295Y-87048095D01*
X92655295Y-87048095D02*
X92750533Y-87048095D01*
X92750533Y-87048095D02*
X92893390Y-87095714D01*
X92893390Y-87095714D02*
X93464819Y-87667142D01*
X93464819Y-87667142D02*
X93464819Y-87048095D01*
X80787142Y-94979819D02*
X80453809Y-94503628D01*
X80215714Y-94979819D02*
X80215714Y-93979819D01*
X80215714Y-93979819D02*
X80596666Y-93979819D01*
X80596666Y-93979819D02*
X80691904Y-94027438D01*
X80691904Y-94027438D02*
X80739523Y-94075057D01*
X80739523Y-94075057D02*
X80787142Y-94170295D01*
X80787142Y-94170295D02*
X80787142Y-94313152D01*
X80787142Y-94313152D02*
X80739523Y-94408390D01*
X80739523Y-94408390D02*
X80691904Y-94456009D01*
X80691904Y-94456009D02*
X80596666Y-94503628D01*
X80596666Y-94503628D02*
X80215714Y-94503628D01*
X81168095Y-94075057D02*
X81215714Y-94027438D01*
X81215714Y-94027438D02*
X81310952Y-93979819D01*
X81310952Y-93979819D02*
X81549047Y-93979819D01*
X81549047Y-93979819D02*
X81644285Y-94027438D01*
X81644285Y-94027438D02*
X81691904Y-94075057D01*
X81691904Y-94075057D02*
X81739523Y-94170295D01*
X81739523Y-94170295D02*
X81739523Y-94265533D01*
X81739523Y-94265533D02*
X81691904Y-94408390D01*
X81691904Y-94408390D02*
X81120476Y-94979819D01*
X81120476Y-94979819D02*
X81739523Y-94979819D01*
X82358571Y-93979819D02*
X82453809Y-93979819D01*
X82453809Y-93979819D02*
X82549047Y-94027438D01*
X82549047Y-94027438D02*
X82596666Y-94075057D01*
X82596666Y-94075057D02*
X82644285Y-94170295D01*
X82644285Y-94170295D02*
X82691904Y-94360771D01*
X82691904Y-94360771D02*
X82691904Y-94598866D01*
X82691904Y-94598866D02*
X82644285Y-94789342D01*
X82644285Y-94789342D02*
X82596666Y-94884580D01*
X82596666Y-94884580D02*
X82549047Y-94932200D01*
X82549047Y-94932200D02*
X82453809Y-94979819D01*
X82453809Y-94979819D02*
X82358571Y-94979819D01*
X82358571Y-94979819D02*
X82263333Y-94932200D01*
X82263333Y-94932200D02*
X82215714Y-94884580D01*
X82215714Y-94884580D02*
X82168095Y-94789342D01*
X82168095Y-94789342D02*
X82120476Y-94598866D01*
X82120476Y-94598866D02*
X82120476Y-94360771D01*
X82120476Y-94360771D02*
X82168095Y-94170295D01*
X82168095Y-94170295D02*
X82215714Y-94075057D01*
X82215714Y-94075057D02*
X82263333Y-94027438D01*
X82263333Y-94027438D02*
X82358571Y-93979819D01*
X145903333Y-59349580D02*
X145855714Y-59397200D01*
X145855714Y-59397200D02*
X145712857Y-59444819D01*
X145712857Y-59444819D02*
X145617619Y-59444819D01*
X145617619Y-59444819D02*
X145474762Y-59397200D01*
X145474762Y-59397200D02*
X145379524Y-59301961D01*
X145379524Y-59301961D02*
X145331905Y-59206723D01*
X145331905Y-59206723D02*
X145284286Y-59016247D01*
X145284286Y-59016247D02*
X145284286Y-58873390D01*
X145284286Y-58873390D02*
X145331905Y-58682914D01*
X145331905Y-58682914D02*
X145379524Y-58587676D01*
X145379524Y-58587676D02*
X145474762Y-58492438D01*
X145474762Y-58492438D02*
X145617619Y-58444819D01*
X145617619Y-58444819D02*
X145712857Y-58444819D01*
X145712857Y-58444819D02*
X145855714Y-58492438D01*
X145855714Y-58492438D02*
X145903333Y-58540057D01*
X146236667Y-58444819D02*
X146903333Y-58444819D01*
X146903333Y-58444819D02*
X146474762Y-59444819D01*
X82658333Y-49009580D02*
X82610714Y-49057200D01*
X82610714Y-49057200D02*
X82467857Y-49104819D01*
X82467857Y-49104819D02*
X82372619Y-49104819D01*
X82372619Y-49104819D02*
X82229762Y-49057200D01*
X82229762Y-49057200D02*
X82134524Y-48961961D01*
X82134524Y-48961961D02*
X82086905Y-48866723D01*
X82086905Y-48866723D02*
X82039286Y-48676247D01*
X82039286Y-48676247D02*
X82039286Y-48533390D01*
X82039286Y-48533390D02*
X82086905Y-48342914D01*
X82086905Y-48342914D02*
X82134524Y-48247676D01*
X82134524Y-48247676D02*
X82229762Y-48152438D01*
X82229762Y-48152438D02*
X82372619Y-48104819D01*
X82372619Y-48104819D02*
X82467857Y-48104819D01*
X82467857Y-48104819D02*
X82610714Y-48152438D01*
X82610714Y-48152438D02*
X82658333Y-48200057D01*
X83515476Y-48438152D02*
X83515476Y-49104819D01*
X83277381Y-48057200D02*
X83039286Y-48771485D01*
X83039286Y-48771485D02*
X83658333Y-48771485D01*
X89688095Y-51954819D02*
X89688095Y-52764342D01*
X89688095Y-52764342D02*
X89735714Y-52859580D01*
X89735714Y-52859580D02*
X89783333Y-52907200D01*
X89783333Y-52907200D02*
X89878571Y-52954819D01*
X89878571Y-52954819D02*
X90069047Y-52954819D01*
X90069047Y-52954819D02*
X90164285Y-52907200D01*
X90164285Y-52907200D02*
X90211904Y-52859580D01*
X90211904Y-52859580D02*
X90259523Y-52764342D01*
X90259523Y-52764342D02*
X90259523Y-51954819D01*
X91259523Y-52954819D02*
X90688095Y-52954819D01*
X90973809Y-52954819D02*
X90973809Y-51954819D01*
X90973809Y-51954819D02*
X90878571Y-52097676D01*
X90878571Y-52097676D02*
X90783333Y-52192914D01*
X90783333Y-52192914D02*
X90688095Y-52240533D01*
%TO.C,SW2*%
D12*
X108780000Y-44850000D02*
X108780000Y-45640000D01*
X110830000Y-46690000D02*
X110630000Y-46690000D01*
X112330000Y-42550000D02*
X112330000Y-43840000D01*
X112330000Y-42550000D02*
X112530000Y-42340000D01*
X113430000Y-42340000D02*
X112530000Y-42340000D01*
X113630000Y-42550000D02*
X113430000Y-42340000D01*
X113630000Y-43840000D02*
X113630000Y-42550000D01*
X113830000Y-46690000D02*
X112130000Y-46690000D01*
X115080000Y-43840000D02*
X109380000Y-43840000D01*
X115680000Y-45640000D02*
X115680000Y-44850000D01*
%TO.C,SW3*%
X67050000Y-44910000D02*
X71190000Y-44910000D01*
X67050000Y-45210000D02*
X67050000Y-44910000D01*
X67050000Y-48050000D02*
X67050000Y-47750000D01*
X71190000Y-44910000D02*
X71190000Y-45210000D01*
X71190000Y-47750000D02*
X71190000Y-48050000D01*
X71190000Y-48050000D02*
X67050000Y-48050000D01*
%TO.C,U5*%
D13*
X145775000Y-43195000D02*
X141875000Y-43195000D01*
X145775000Y-53325000D02*
X141875000Y-53325000D01*
D14*
X148070000Y-53205000D02*
G75*
G02*
X147870000Y-53205000I-100000J0D01*
G01*
X147870000Y-53205000D02*
G75*
G02*
X148070000Y-53205000I100000J0D01*
G01*
%TO.C,C12*%
D12*
X53150000Y-83826252D02*
X53150000Y-82403748D01*
X54970000Y-83826252D02*
X54970000Y-82403748D01*
%TO.C,J3*%
X133570000Y-89842358D02*
X133570000Y-90155000D01*
X133570000Y-98915000D02*
X133570000Y-92915000D01*
X134430000Y-89842358D02*
X134430000Y-90155000D01*
X134430000Y-92915000D02*
X134430000Y-98915000D01*
X134430000Y-98915000D02*
X133570000Y-98915000D01*
X135270000Y-90155000D02*
X135270000Y-92915000D01*
X136110000Y-89842358D02*
X136110000Y-90155000D01*
X136110000Y-98915000D02*
X136110000Y-92915000D01*
X136970000Y-89842358D02*
X136970000Y-90155000D01*
X136970000Y-92915000D02*
X136970000Y-98915000D01*
X136970000Y-98915000D02*
X136110000Y-98915000D01*
X137810000Y-90155000D02*
X137810000Y-92915000D01*
X138650000Y-89925000D02*
X138650000Y-90155000D01*
X139080000Y-87495000D02*
X140350000Y-87495000D01*
X139510000Y-89925000D02*
X139510000Y-90155000D01*
X140350000Y-87495000D02*
X140350000Y-88765000D01*
X138650000Y-92915000D02*
X139510000Y-92915000D01*
X139510000Y-98915000D01*
X138650000Y-98915000D01*
X138650000Y-92915000D01*
G36*
X138650000Y-92915000D02*
G01*
X139510000Y-92915000D01*
X139510000Y-98915000D01*
X138650000Y-98915000D01*
X138650000Y-92915000D01*
G37*
X132620000Y-90155000D02*
X140460000Y-90155000D01*
X140460000Y-92915000D01*
X132620000Y-92915000D01*
X132620000Y-90155000D01*
%TO.C,R9*%
X65815000Y-67527064D02*
X65815000Y-67072936D01*
X67285000Y-67527064D02*
X67285000Y-67072936D01*
%TO.C,R14*%
X68495000Y-81117064D02*
X68495000Y-80662936D01*
X69965000Y-81117064D02*
X69965000Y-80662936D01*
%TO.C,R12*%
X75265000Y-86082936D02*
X75265000Y-86537064D01*
X76735000Y-86082936D02*
X76735000Y-86537064D01*
%TO.C,C2*%
X51090000Y-76869420D02*
X51090000Y-77150580D01*
X52110000Y-76869420D02*
X52110000Y-77150580D01*
%TO.C,J8*%
X42580000Y-91960000D02*
X42580000Y-98080000D01*
X42580000Y-94520000D02*
X46940000Y-94520000D01*
X42580000Y-98080000D02*
X50400000Y-98080000D01*
X44840000Y-93220000D02*
X42580000Y-93220000D01*
X44840000Y-93720000D02*
X42580000Y-93720000D01*
X46940000Y-94520000D02*
X46940000Y-95520000D01*
X46940000Y-95520000D02*
X42580000Y-95520000D01*
X48800000Y-91960000D02*
X48800000Y-92880000D01*
X48800000Y-92880000D02*
X50400000Y-92880000D01*
X48800000Y-93160000D02*
X48800000Y-92880000D01*
X48800000Y-93160000D02*
X50015000Y-93160000D01*
X48800000Y-97160000D02*
X48800000Y-96880000D01*
X48800000Y-98080000D02*
X48800000Y-97160000D01*
X50400000Y-91960000D02*
X42580000Y-91960000D01*
X50400000Y-92880000D02*
X50400000Y-91960000D01*
X50400000Y-97160000D02*
X48800000Y-97160000D01*
X50400000Y-98080000D02*
X50400000Y-97160000D01*
X44840000Y-92720000D02*
X46440000Y-92720000D01*
X46440000Y-93720000D01*
X44840000Y-93720000D01*
X44840000Y-92720000D01*
X44840000Y-96320000D02*
X46440000Y-96320000D01*
X46440000Y-97320000D01*
X44840000Y-97320000D01*
X44840000Y-96320000D01*
%TO.C,J6*%
X150485000Y-44740000D02*
X150485000Y-47420000D01*
X150485000Y-49720000D02*
X150485000Y-53390000D01*
X150485000Y-55690000D02*
X150485000Y-56920000D01*
X150485000Y-56920000D02*
X160305000Y-56920000D01*
X151205000Y-44740000D02*
X150485000Y-44740000D01*
X154905000Y-44740000D02*
X152605000Y-44740000D01*
X160755000Y-44740000D02*
X156305000Y-44740000D01*
X162125000Y-46220000D02*
X162125000Y-47080000D01*
%TO.C,C10*%
X59701252Y-95275000D02*
X59178748Y-95275000D01*
X59701252Y-96745000D02*
X59178748Y-96745000D01*
%TO.C,R23*%
X115917064Y-90450000D02*
X115462936Y-90450000D01*
X115917064Y-91920000D02*
X115462936Y-91920000D01*
%TO.C,R2*%
X89425436Y-55925000D02*
X89879564Y-55925000D01*
X89425436Y-57395000D02*
X89879564Y-57395000D01*
%TO.C,R15*%
X63445000Y-81304564D02*
X63445000Y-80850436D01*
X64915000Y-81304564D02*
X64915000Y-80850436D01*
%TO.C,D2*%
X121230000Y-89692500D02*
X121230000Y-87732500D01*
X122430000Y-87732500D02*
X121230000Y-87732500D01*
X122430000Y-89692500D02*
X122430000Y-87732500D01*
%TO.C,J11*%
X158025000Y-67580000D02*
X158025000Y-68630000D01*
X158025000Y-72750000D02*
X157035000Y-72750000D01*
X158025000Y-73800000D02*
X158025000Y-72750000D01*
X160525000Y-67580000D02*
X158025000Y-67580000D01*
X160525000Y-73800000D02*
X158025000Y-73800000D01*
X162495000Y-72630000D02*
X162495000Y-68750000D01*
%TO.C,C9*%
X61280580Y-44700000D02*
X60999420Y-44700000D01*
X61280580Y-45720000D02*
X60999420Y-45720000D01*
%TO.C,SW5*%
X103720000Y-95845000D02*
X103720000Y-96635000D01*
X104320000Y-97645000D02*
X110020000Y-97645000D01*
X105570000Y-94795000D02*
X107270000Y-94795000D01*
X105770000Y-97645000D02*
X105770000Y-98935000D01*
X105770000Y-98935000D02*
X105970000Y-99145000D01*
X105970000Y-99145000D02*
X106870000Y-99145000D01*
X107070000Y-98935000D02*
X106870000Y-99145000D01*
X107070000Y-98935000D02*
X107070000Y-97645000D01*
X108570000Y-94795000D02*
X108770000Y-94795000D01*
X110620000Y-96635000D02*
X110620000Y-95845000D01*
%TO.C,J5*%
X158565000Y-87110000D02*
X156865000Y-87110000D01*
X158565000Y-96450000D02*
X156865000Y-96450000D01*
%TO.C,U9*%
X106310000Y-90877500D02*
X106310000Y-88877500D01*
X108530000Y-88877500D02*
X108530000Y-90877500D01*
X106580000Y-91557500D02*
X106300000Y-91277500D01*
X106580000Y-91277500D01*
X106580000Y-91557500D01*
G36*
X106580000Y-91557500D02*
G01*
X106300000Y-91277500D01*
X106580000Y-91277500D01*
X106580000Y-91557500D01*
G37*
%TO.C,R25*%
X116625000Y-86762064D02*
X116625000Y-86307936D01*
X118095000Y-86762064D02*
X118095000Y-86307936D01*
%TO.C,C5*%
X112474420Y-74490000D02*
X112755580Y-74490000D01*
X112474420Y-75510000D02*
X112755580Y-75510000D01*
%TO.C,J9*%
X121130000Y-98315000D02*
X121130000Y-98915000D01*
X121930000Y-93895000D02*
X121930000Y-92895000D01*
X122180000Y-92895000D02*
X122180000Y-93895000D01*
X122180000Y-94425000D02*
X121930000Y-93895000D01*
X122730000Y-98315000D02*
X121130000Y-98315000D01*
X122730000Y-98915000D02*
X122730000Y-98315000D01*
X123670000Y-98315000D02*
X123670000Y-98915000D01*
X125270000Y-98315000D02*
X123670000Y-98315000D01*
X125270000Y-98915000D02*
X125270000Y-98315000D01*
X126210000Y-98315000D02*
X126210000Y-98915000D01*
X126760000Y-92895000D02*
X126760000Y-93895000D01*
X126760000Y-94425000D02*
X122180000Y-94425000D01*
X127010000Y-92895000D02*
X127010000Y-93895000D01*
X127010000Y-93895000D02*
X121930000Y-93895000D01*
X127010000Y-93895000D02*
X126760000Y-94425000D01*
X127810000Y-98315000D02*
X126210000Y-98315000D01*
X127810000Y-98915000D02*
X127810000Y-98315000D01*
X128680000Y-97885000D02*
X128680000Y-93885000D01*
X120550000Y-92895000D02*
X128390000Y-92895000D01*
X128390000Y-98915000D01*
X120550000Y-98915000D01*
X120550000Y-92895000D01*
%TO.C,R10*%
X70715000Y-67527064D02*
X70715000Y-67072936D01*
X72185000Y-67527064D02*
X72185000Y-67072936D01*
%TO.C,C25*%
X83409420Y-44790000D02*
X83690580Y-44790000D01*
X83409420Y-45810000D02*
X83690580Y-45810000D01*
%TO.C,C16*%
X100308748Y-62335000D02*
X100831252Y-62335000D01*
X100308748Y-63805000D02*
X100831252Y-63805000D01*
%TO.C,D4*%
X137415000Y-51835000D02*
X137415000Y-54120000D01*
X138885000Y-51835000D02*
X137415000Y-51835000D01*
X138885000Y-54120000D02*
X138885000Y-51835000D01*
%TO.C,C13*%
X99560000Y-96356252D02*
X99560000Y-94933748D01*
X101380000Y-96356252D02*
X101380000Y-94933748D01*
%TO.C,D6*%
X58475000Y-89167500D02*
X58475000Y-91452500D01*
X58475000Y-91452500D02*
X59945000Y-91452500D01*
X59945000Y-91452500D02*
X59945000Y-89167500D01*
%TO.C,R18*%
X104504564Y-84670000D02*
X104050436Y-84670000D01*
X104504564Y-86140000D02*
X104050436Y-86140000D01*
%TO.C,U7*%
D14*
X73710000Y-90210000D02*
G75*
G02*
X73510000Y-90210000I-100000J0D01*
G01*
X73510000Y-90210000D02*
G75*
G02*
X73710000Y-90210000I100000J0D01*
G01*
%TO.C,R16*%
D12*
X65114564Y-84785000D02*
X64660436Y-84785000D01*
X65114564Y-86255000D02*
X64660436Y-86255000D01*
%TO.C,R6*%
X150817064Y-95435000D02*
X150362936Y-95435000D01*
X150817064Y-96905000D02*
X150362936Y-96905000D01*
%TO.C,C11*%
X69020000Y-96881252D02*
X69020000Y-95458748D01*
X70840000Y-96881252D02*
X70840000Y-95458748D01*
%TO.C,D7*%
X52940000Y-93420000D02*
X54900000Y-93420000D01*
X52940000Y-94620000D02*
X54900000Y-94620000D01*
X54900000Y-94620000D02*
X54900000Y-93420000D01*
%TO.C,R7*%
X150817064Y-86695000D02*
X150362936Y-86695000D01*
X150817064Y-88165000D02*
X150362936Y-88165000D01*
%TO.C,U3*%
X175077500Y-69347500D02*
X175077500Y-71347500D01*
X177297500Y-69347500D02*
X177297500Y-71347500D01*
X177287500Y-68997500D02*
X177007500Y-68997500D01*
X177007500Y-68717500D01*
X177287500Y-68997500D01*
G36*
X177287500Y-68997500D02*
G01*
X177007500Y-68997500D01*
X177007500Y-68717500D01*
X177287500Y-68997500D01*
G37*
%TO.C,C6*%
X96930580Y-72720000D02*
X96649420Y-72720000D01*
X96930580Y-73740000D02*
X96649420Y-73740000D01*
%TO.C,C15*%
X95450000Y-96185580D02*
X95450000Y-95904420D01*
X96470000Y-96185580D02*
X96470000Y-95904420D01*
%TO.C,J7*%
X42580000Y-82610000D02*
X42580000Y-88730000D01*
X42580000Y-85170000D02*
X46940000Y-85170000D01*
X42580000Y-88730000D02*
X50400000Y-88730000D01*
X44840000Y-83870000D02*
X42580000Y-83870000D01*
X44840000Y-84370000D02*
X42580000Y-84370000D01*
X46940000Y-85170000D02*
X46940000Y-86170000D01*
X46940000Y-86170000D02*
X42580000Y-86170000D01*
X48800000Y-82610000D02*
X48800000Y-83530000D01*
X48800000Y-83530000D02*
X50400000Y-83530000D01*
X48800000Y-83810000D02*
X48800000Y-83530000D01*
X48800000Y-83810000D02*
X50015000Y-83810000D01*
X48800000Y-87810000D02*
X48800000Y-87530000D01*
X48800000Y-88730000D02*
X48800000Y-87810000D01*
X50400000Y-82610000D02*
X42580000Y-82610000D01*
X50400000Y-83530000D02*
X50400000Y-82610000D01*
X50400000Y-87810000D02*
X48800000Y-87810000D01*
X50400000Y-88730000D02*
X50400000Y-87810000D01*
X44840000Y-83370000D02*
X46440000Y-83370000D01*
X46440000Y-84370000D01*
X44840000Y-84370000D01*
X44840000Y-83370000D01*
X44840000Y-86970000D02*
X46440000Y-86970000D01*
X46440000Y-87970000D01*
X44840000Y-87970000D01*
X44840000Y-86970000D01*
%TO.C,J1*%
X118600000Y-45900000D02*
X118600000Y-44520000D01*
X119980000Y-45900000D02*
X118600000Y-45900000D01*
X121250000Y-43140000D02*
X134060000Y-43140000D01*
X121250000Y-45900000D02*
X121250000Y-43140000D01*
X121250000Y-45900000D02*
X134060000Y-45900000D01*
X134060000Y-45900000D02*
X134060000Y-43140000D01*
%TO.C,U6*%
X68440000Y-53175000D02*
X76160000Y-53175000D01*
X68440000Y-53430000D02*
X68440000Y-53175000D01*
X68440000Y-63695000D02*
X68440000Y-63440000D01*
X76160000Y-53175000D02*
X76160000Y-53430000D01*
X76160000Y-63440000D02*
X76160000Y-63695000D01*
X76160000Y-63695000D02*
X68440000Y-63695000D01*
X77290000Y-63915000D02*
X76610000Y-63915000D01*
X76950000Y-63445000D01*
X77290000Y-63915000D01*
G36*
X77290000Y-63915000D02*
G01*
X76610000Y-63915000D01*
X76950000Y-63445000D01*
X77290000Y-63915000D01*
G37*
%TO.C,R13*%
X63345000Y-90074564D02*
X63345000Y-89620436D01*
X64815000Y-90074564D02*
X64815000Y-89620436D01*
%TO.C,J2*%
X124630000Y-63000000D02*
X126010000Y-63000000D01*
X124630000Y-64380000D02*
X124630000Y-63000000D01*
X124630000Y-65650000D02*
X124630000Y-68300000D01*
X124630000Y-65650000D02*
X127390000Y-65650000D01*
X124630000Y-68300000D02*
X127390000Y-68300000D01*
X127390000Y-65650000D02*
X127390000Y-68300000D01*
%TO.C,U2*%
X102890000Y-68480000D02*
X103365000Y-68480000D01*
X102890000Y-68955000D02*
X102890000Y-68480000D01*
X102890000Y-73700000D02*
X102890000Y-73225000D01*
X103365000Y-73700000D02*
X102890000Y-73700000D01*
X107635000Y-68480000D02*
X108110000Y-68480000D01*
X108110000Y-68480000D02*
X108110000Y-68955000D01*
X108110000Y-73225000D02*
X108110000Y-73700000D01*
X108110000Y-73700000D02*
X107635000Y-73700000D01*
X102360000Y-69340000D02*
X102030000Y-69580000D01*
X102030000Y-69100000D01*
X102360000Y-69340000D01*
G36*
X102360000Y-69340000D02*
G01*
X102030000Y-69580000D01*
X102030000Y-69100000D01*
X102360000Y-69340000D01*
G37*
%TO.C,C8*%
X80780000Y-66959420D02*
X80780000Y-67240580D01*
X81800000Y-66959420D02*
X81800000Y-67240580D01*
%TO.C,R24*%
X112072936Y-87115000D02*
X112527064Y-87115000D01*
X112072936Y-88585000D02*
X112527064Y-88585000D01*
%TO.C,D3*%
X147147500Y-80780000D02*
X147147500Y-82780000D01*
X147147500Y-80780000D02*
X151157500Y-80780000D01*
X147147500Y-82780000D02*
X151157500Y-82780000D01*
%TO.C,U4*%
X146147500Y-92410000D02*
X146147500Y-91190000D01*
X148917500Y-91614432D02*
X148917500Y-92410000D01*
X149112500Y-91460000D02*
X148922500Y-91320000D01*
X149112500Y-91180000D01*
X149112500Y-91460000D01*
G36*
X149112500Y-91460000D02*
G01*
X148922500Y-91320000D01*
X149112500Y-91180000D01*
X149112500Y-91460000D01*
G37*
%TO.C,R26*%
X112527064Y-50975000D02*
X112072936Y-50975000D01*
X112527064Y-52445000D02*
X112072936Y-52445000D01*
%TO.C,R8*%
X137455000Y-50064564D02*
X137455000Y-49610436D01*
X138925000Y-50064564D02*
X138925000Y-49610436D01*
%TO.C,D5*%
X75265000Y-81070000D02*
X75265000Y-83355000D01*
X75265000Y-83355000D02*
X76735000Y-83355000D01*
X76735000Y-83355000D02*
X76735000Y-81070000D01*
%TO.C,U8*%
X87510000Y-92195000D02*
X92130000Y-92195000D01*
X92130000Y-97665000D02*
X87510000Y-97665000D01*
X85960000Y-92650000D02*
X85630000Y-92890000D01*
X85630000Y-92410000D01*
X85960000Y-92650000D01*
G36*
X85960000Y-92650000D02*
G01*
X85630000Y-92890000D01*
X85630000Y-92410000D01*
X85960000Y-92650000D01*
G37*
%TO.C,C14*%
X116311252Y-95275000D02*
X114888748Y-95275000D01*
X116311252Y-97095000D02*
X114888748Y-97095000D01*
%TO.C,BT1*%
X43333756Y-47530000D02*
X43333756Y-54230000D01*
X43333756Y-68630000D02*
X43333756Y-61930000D01*
X50083756Y-42530000D02*
X50083756Y-47330000D01*
X50083756Y-68830000D02*
X50083756Y-73630000D01*
X50083756Y-73630000D02*
X55583756Y-73630000D01*
X55583756Y-42530000D02*
X50083756Y-42530000D01*
X55583756Y-47330000D02*
X55583756Y-42530000D01*
X55583756Y-73630000D02*
X55583756Y-68830000D01*
X58883756Y-68880000D02*
X63683756Y-62030000D01*
X63683756Y-54130000D02*
X58883756Y-47330000D01*
X63683756Y-62030000D02*
X63683756Y-54130000D01*
X43332292Y-61926385D02*
G75*
G02*
X43333756Y-54230000I9501464J3846385D01*
G01*
%TO.C,R4*%
X180035436Y-72095000D02*
X180489564Y-72095000D01*
X180035436Y-73565000D02*
X180489564Y-73565000D01*
%TO.C,R3*%
X125912936Y-83685000D02*
X126367064Y-83685000D01*
X125912936Y-85155000D02*
X126367064Y-85155000D01*
%TO.C,SW1*%
X44290000Y-74720000D02*
X44590000Y-74720000D01*
X44290000Y-78860000D02*
X44290000Y-74720000D01*
X44590000Y-78860000D02*
X44290000Y-78860000D01*
X47130000Y-74720000D02*
X47430000Y-74720000D01*
X47430000Y-74720000D02*
X47430000Y-78860000D01*
X47430000Y-78860000D02*
X47130000Y-78860000D01*
%TO.C,C1*%
X94918748Y-53740000D02*
X96341252Y-53740000D01*
X94918748Y-55560000D02*
X96341252Y-55560000D01*
%TO.C,L1*%
X99360000Y-88927936D02*
X99360000Y-90132064D01*
X102080000Y-88927936D02*
X102080000Y-90132064D01*
%TO.C,R17*%
X71282936Y-85035000D02*
X71737064Y-85035000D01*
X71282936Y-86505000D02*
X71737064Y-86505000D01*
%TO.C,C3*%
X86530000Y-68716252D02*
X86530000Y-68193748D01*
X88000000Y-68716252D02*
X88000000Y-68193748D01*
%TO.C,R11*%
X75395000Y-67527064D02*
X75395000Y-67072936D01*
X76865000Y-67527064D02*
X76865000Y-67072936D01*
%TO.C,C26*%
X96900000Y-48619420D02*
X96900000Y-48900580D01*
X97920000Y-48619420D02*
X97920000Y-48900580D01*
%TO.C,J4*%
X114710000Y-80190000D02*
X114710000Y-78810000D01*
X116090000Y-80190000D02*
X114710000Y-80190000D01*
X117360000Y-77430000D02*
X135250000Y-77430000D01*
X117360000Y-80190000D02*
X117360000Y-77430000D01*
X117360000Y-80190000D02*
X135250000Y-80190000D01*
X135250000Y-80190000D02*
X135250000Y-77430000D01*
%TO.C,J10*%
X167740000Y-68480000D02*
X167740000Y-72360000D01*
X169710000Y-67310000D02*
X172210000Y-67310000D01*
X169710000Y-73530000D02*
X172210000Y-73530000D01*
X172210000Y-67310000D02*
X172210000Y-68360000D01*
X172210000Y-68360000D02*
X173200000Y-68360000D01*
X172210000Y-73530000D02*
X172210000Y-72480000D01*
%TO.C,R21*%
X88805000Y-88474564D02*
X88805000Y-88020436D01*
X90275000Y-88474564D02*
X90275000Y-88020436D01*
%TO.C,C17*%
X112894420Y-64270000D02*
X113175580Y-64270000D01*
X112894420Y-65290000D02*
X113175580Y-65290000D01*
%TO.C,D8*%
X107195000Y-84675000D02*
X107195000Y-86145000D01*
X107195000Y-86145000D02*
X109480000Y-86145000D01*
X109480000Y-84675000D02*
X107195000Y-84675000D01*
%TO.C,D1*%
X83680000Y-57395000D02*
X85965000Y-57395000D01*
X85965000Y-55925000D02*
X83680000Y-55925000D01*
X85965000Y-57395000D02*
X85965000Y-55925000D01*
%TO.C,R19*%
X83422936Y-89155000D02*
X83877064Y-89155000D01*
X83422936Y-90625000D02*
X83877064Y-90625000D01*
%TO.C,R5*%
X180035436Y-66895000D02*
X180489564Y-66895000D01*
X180035436Y-68365000D02*
X180489564Y-68365000D01*
%TO.C,Q1*%
X124550000Y-87997500D02*
X124600000Y-87997500D01*
X124550000Y-89517500D02*
X124550000Y-87997500D01*
X125550000Y-89517500D02*
X124550000Y-89517500D01*
X125720000Y-87997500D02*
X126500000Y-87997500D01*
X127620000Y-87997500D02*
X127670000Y-87997500D01*
X127670000Y-87997500D02*
X127670000Y-89517500D01*
X127670000Y-89517500D02*
X126670000Y-89517500D01*
X126490000Y-87457500D02*
X126160000Y-87697500D01*
X126160000Y-87217500D01*
X126490000Y-87457500D01*
G36*
X126490000Y-87457500D02*
G01*
X126160000Y-87697500D01*
X126160000Y-87217500D01*
X126490000Y-87457500D01*
G37*
%TO.C,R22*%
X93925000Y-88537064D02*
X93925000Y-88082936D01*
X95395000Y-88537064D02*
X95395000Y-88082936D01*
%TO.C,R20*%
X81160436Y-95525000D02*
X81614564Y-95525000D01*
X81160436Y-96995000D02*
X81614564Y-96995000D01*
%TO.C,C7*%
X146210580Y-57050000D02*
X145929420Y-57050000D01*
X146210580Y-58070000D02*
X145929420Y-58070000D01*
%TO.C,C4*%
X82113748Y-49590000D02*
X83536252Y-49590000D01*
X82113748Y-51410000D02*
X83536252Y-51410000D01*
D15*
%TO.C,REF\u002A\u002A*%
G36*
X130136638Y-50995948D02*
G01*
X130149560Y-51214598D01*
X130158937Y-51541989D01*
X130163678Y-51947828D01*
X130164039Y-52101666D01*
X130164039Y-53287000D01*
X129063372Y-53287000D01*
X127962706Y-53287000D01*
X127962706Y-52704553D01*
X127962706Y-52122106D01*
X129020598Y-51519220D01*
X129400082Y-51304559D01*
X129725344Y-51123609D01*
X129969085Y-50991321D01*
X130104012Y-50922645D01*
X130121265Y-50916333D01*
X130136638Y-50995948D01*
G37*
G36*
X130164039Y-55065000D02*
G01*
X130159776Y-55490770D01*
X130148067Y-55848399D01*
X130130535Y-56107670D01*
X130108801Y-56238366D01*
X130100539Y-56248143D01*
X130007986Y-56207213D01*
X129797325Y-56096310D01*
X129496724Y-55930772D01*
X129134348Y-55725936D01*
X128999872Y-55648798D01*
X127962706Y-55051643D01*
X127962706Y-54465654D01*
X127962706Y-53879666D01*
X129063372Y-53879666D01*
X130164039Y-53879666D01*
X130164039Y-55065000D01*
G37*
G36*
X131006007Y-50980595D02*
G01*
X131219535Y-51098798D01*
X131522695Y-51269012D01*
X131886814Y-51475200D01*
X132011451Y-51546117D01*
X133042706Y-52133568D01*
X133042706Y-52710284D01*
X133042706Y-53287000D01*
X131942039Y-53287000D01*
X130841372Y-53287000D01*
X130841372Y-52094611D01*
X130845984Y-51670182D01*
X130858656Y-51316424D01*
X130877645Y-51062593D01*
X130901206Y-50937945D01*
X130910784Y-50930444D01*
X131006007Y-50980595D01*
G37*
G36*
X131920872Y-53898303D02*
G01*
X133000372Y-53922000D01*
X133025156Y-54482474D01*
X133049940Y-55042949D01*
X132178489Y-55532548D01*
X131816025Y-55736914D01*
X131492325Y-55920747D01*
X131245063Y-56062571D01*
X131119518Y-56136239D01*
X130962564Y-56222234D01*
X130886684Y-56250333D01*
X130870415Y-56170713D01*
X130856736Y-55952026D01*
X130846801Y-55624534D01*
X130841764Y-55218497D01*
X130841372Y-55062470D01*
X130841372Y-53874607D01*
X131920872Y-53898303D01*
G37*
G36*
X135080496Y-50845558D02*
G01*
X135427039Y-51448049D01*
X135746118Y-52008221D01*
X136027802Y-52508215D01*
X136262157Y-52930174D01*
X136439251Y-53256242D01*
X136549151Y-53468561D01*
X136582174Y-53545327D01*
X136547016Y-53650342D01*
X136435504Y-53883665D01*
X136257137Y-54227647D01*
X136021418Y-54664643D01*
X135737847Y-55177004D01*
X135415927Y-55747086D01*
X135108105Y-56283102D01*
X133608234Y-58875000D01*
X130496042Y-58875000D01*
X127383850Y-58875000D01*
X127217079Y-58599833D01*
X127104860Y-58411050D01*
X126934566Y-58120288D01*
X126732409Y-57772438D01*
X126586738Y-57520333D01*
X126396015Y-57189823D01*
X126142827Y-56751663D01*
X125849639Y-56244696D01*
X125538915Y-55707767D01*
X125233119Y-55179719D01*
X125223632Y-55163344D01*
X124922137Y-54639544D01*
X124698586Y-54240786D01*
X124543679Y-53946984D01*
X124512889Y-53879666D01*
X125835310Y-53879666D01*
X126560341Y-53879666D01*
X127285372Y-53879666D01*
X127285372Y-54634590D01*
X127285372Y-55389513D01*
X128724706Y-56220364D01*
X130164039Y-57051216D01*
X130164039Y-57629552D01*
X130164039Y-58207888D01*
X130481539Y-58181610D01*
X130799039Y-58155333D01*
X130823924Y-57590421D01*
X130848809Y-57025510D01*
X132236988Y-56235755D01*
X133625167Y-55446000D01*
X133651436Y-54684000D01*
X133677706Y-53922000D01*
X134354743Y-53896896D01*
X134680515Y-53877054D01*
X134939654Y-53846852D01*
X135086496Y-53812022D01*
X135100263Y-53803309D01*
X135132753Y-53678220D01*
X135113373Y-53514202D01*
X135076929Y-53405054D01*
X135010223Y-53337771D01*
X134876186Y-53300169D01*
X134637751Y-53280061D01*
X134367852Y-53269122D01*
X133677706Y-53244666D01*
X133635372Y-52485593D01*
X133593039Y-51726520D01*
X132217206Y-50931967D01*
X130841372Y-50137414D01*
X130841372Y-49597153D01*
X130836380Y-49302091D01*
X130811279Y-49133682D01*
X130750883Y-49049317D01*
X130640005Y-49006386D01*
X130629895Y-49003815D01*
X130400910Y-48970827D01*
X130259964Y-49028268D01*
X130187629Y-49200308D01*
X130164481Y-49511120D01*
X130164039Y-49583480D01*
X130164039Y-50118609D01*
X128724706Y-50948777D01*
X127285372Y-51778946D01*
X127285372Y-52529549D01*
X127285372Y-53280151D01*
X126586872Y-53304742D01*
X125888372Y-53329333D01*
X125861841Y-53604500D01*
X125835310Y-53879666D01*
X124512889Y-53879666D01*
X124448116Y-53738051D01*
X124402598Y-53593900D01*
X124397826Y-53494445D01*
X124420086Y-53427677D01*
X124484461Y-53312498D01*
X124623192Y-53069446D01*
X124825592Y-52717074D01*
X125080973Y-52273937D01*
X125378646Y-51758589D01*
X125707923Y-51189583D01*
X125952148Y-50768166D01*
X127388220Y-48291666D01*
X130496419Y-48291666D01*
X133604619Y-48291666D01*
X135080496Y-50845558D01*
G37*
%TO.C,U1*%
D12*
X88540000Y-44590000D02*
X88540000Y-45850000D01*
X88540000Y-51410000D02*
X88540000Y-50150000D01*
X92300000Y-44590000D02*
X88540000Y-44590000D01*
X92300000Y-51410000D02*
X88540000Y-51410000D01*
X93820000Y-51640000D02*
X93340000Y-51640000D01*
X93580000Y-51310000D01*
X93820000Y-51640000D01*
G36*
X93820000Y-51640000D02*
G01*
X93340000Y-51640000D01*
X93580000Y-51310000D01*
X93820000Y-51640000D01*
G37*
%TD*%
M02*
