%TF.GenerationSoftware,KiCad,Pcbnew,10.0.1*%
%TF.CreationDate,2026-06-30T14:04:32-04:00*%
%TF.ProjectId,DosingPCB,446f7369-6e67-4504-9342-2e6b69636164,rev?*%
%TF.SameCoordinates,Original*%
%TF.FileFunction,Copper,L1,Top*%
%TF.FilePolarity,Positive*%
%FSLAX46Y46*%
G04 Gerber Fmt 4.6, Leading zero omitted, Abs format (unit mm)*
G04 Created by KiCad (PCBNEW 10.0.1) date 2026-06-30 14:04:32*
%MOMM*%
%LPD*%
G01*
G04 APERTURE LIST*
G04 Aperture macros list*
%AMRoundRect*
0 Rectangle with rounded corners*
0 $1 Rounding radius*
0 $2 $3 $4 $5 $6 $7 $8 $9 X,Y pos of 4 corners*
0 Add a 4 corners polygon primitive as box body*
4,1,4,$2,$3,$4,$5,$6,$7,$8,$9,$2,$3,0*
0 Add four circle primitives for the rounded corners*
1,1,$1+$1,$2,$3*
1,1,$1+$1,$4,$5*
1,1,$1+$1,$6,$7*
1,1,$1+$1,$8,$9*
0 Add four rect primitives between the rounded corners*
20,1,$1+$1,$2,$3,$4,$5,0*
20,1,$1+$1,$4,$5,$6,$7,0*
20,1,$1+$1,$6,$7,$8,$9,0*
20,1,$1+$1,$8,$9,$2,$3,0*%
%AMFreePoly0*
4,1,153,0.406581,0.754743,0.408810,0.754000,0.410000,0.754000,0.411581,0.753743,0.413810,0.753000,0.415000,0.753000,0.416581,0.752743,0.419581,0.751743,0.420236,0.751472,0.421920,0.750630,0.424581,0.749743,0.426536,0.748536,0.427964,0.747108,0.429236,0.746472,0.430536,0.745536,0.431964,0.744108,0.433236,0.743472,0.434536,0.742536,0.442536,0.734536,0.443472,0.733236,
0.444108,0.731964,0.445536,0.730536,0.446472,0.729236,0.447108,0.727964,0.448536,0.726536,0.449743,0.724581,0.450630,0.721920,0.451472,0.720236,0.451743,0.719581,0.452743,0.716581,0.453000,0.715000,0.453000,0.713810,0.453743,0.711581,0.454000,0.710000,0.454000,0.708810,0.454743,0.706581,0.455000,0.705000,0.455000,-0.705000,0.454743,-0.706581,0.454000,-0.708810,
0.454000,-0.710000,0.453743,-0.711581,0.453000,-0.713810,0.453000,-0.715000,0.452743,-0.716581,0.451743,-0.719581,0.451472,-0.720236,0.450630,-0.721920,0.449743,-0.724581,0.448536,-0.726536,0.447108,-0.727964,0.446472,-0.729236,0.445536,-0.730536,0.444108,-0.731964,0.443472,-0.733236,0.442536,-0.734536,0.434536,-0.742536,0.433236,-0.743472,0.431964,-0.744108,0.430536,-0.745536,
0.429236,-0.746472,0.427964,-0.747108,0.426536,-0.748536,0.424581,-0.749743,0.421920,-0.750630,0.420236,-0.751472,0.419581,-0.751743,0.416581,-0.752743,0.415000,-0.753000,0.413810,-0.753000,0.411581,-0.753743,0.410000,-0.754000,0.408810,-0.754000,0.406581,-0.754743,0.405000,-0.755000,-0.405000,-0.755000,-0.406581,-0.754743,-0.408810,-0.754000,-0.410000,-0.754000,-0.411581,-0.753743,
-0.413810,-0.753000,-0.415000,-0.753000,-0.416581,-0.752743,-0.419581,-0.751743,-0.420236,-0.751472,-0.421920,-0.750630,-0.424581,-0.749743,-0.426536,-0.748536,-0.427964,-0.747108,-0.429236,-0.746472,-0.430536,-0.745536,-0.431964,-0.744108,-0.433236,-0.743472,-0.434536,-0.742536,-0.442536,-0.734536,-0.443472,-0.733236,-0.444108,-0.731964,-0.445536,-0.730536,-0.446472,-0.729236,-0.447108,-0.727964,
-0.448536,-0.726536,-0.449743,-0.724581,-0.450630,-0.721920,-0.451472,-0.720236,-0.451743,-0.719581,-0.452743,-0.716581,-0.453000,-0.715000,-0.453000,-0.713810,-0.453743,-0.711581,-0.454000,-0.710000,-0.454000,-0.708810,-0.454743,-0.706581,-0.455000,-0.705000,-0.455000,0.705000,-0.454743,0.706581,-0.454000,0.708810,-0.454000,0.710000,-0.453743,0.711581,-0.453000,0.713810,-0.453000,0.715000,
-0.452743,0.716581,-0.451743,0.719581,-0.451472,0.720236,-0.450630,0.721920,-0.449743,0.724581,-0.448536,0.726536,-0.447108,0.727964,-0.446472,0.729236,-0.445536,0.730536,-0.444108,0.731964,-0.443472,0.733236,-0.442536,0.734536,-0.434536,0.742536,-0.433236,0.743472,-0.431964,0.744108,-0.430536,0.745536,-0.429236,0.746472,-0.427964,0.747108,-0.426536,0.748536,-0.424581,0.749743,
-0.421920,0.750630,-0.420236,0.751472,-0.419581,0.751743,-0.416581,0.752743,-0.415000,0.753000,-0.413810,0.753000,-0.411581,0.753743,-0.410000,0.754000,-0.408810,0.754000,-0.406581,0.754743,-0.405000,0.755000,0.405000,0.755000,0.406581,0.754743,0.406581,0.754743,$1*%
G04 Aperture macros list end*
%TA.AperFunction,SMDPad,CuDef*%
%ADD10R,1.000000X0.800000*%
%TD*%
%TA.AperFunction,SMDPad,CuDef*%
%ADD11R,0.700000X1.500000*%
%TD*%
%TA.AperFunction,SMDPad,CuDef*%
%ADD12RoundRect,0.200000X0.200000X0.800000X-0.200000X0.800000X-0.200000X-0.800000X0.200000X-0.800000X0*%
%TD*%
%TA.AperFunction,SMDPad,CuDef*%
%ADD13RoundRect,0.075000X0.910000X0.225000X-0.910000X0.225000X-0.910000X-0.225000X0.910000X-0.225000X0*%
%TD*%
%TA.AperFunction,SMDPad,CuDef*%
%ADD14RoundRect,0.250000X0.650000X-0.325000X0.650000X0.325000X-0.650000X0.325000X-0.650000X-0.325000X0*%
%TD*%
%TA.AperFunction,ComponentPad*%
%ADD15R,1.700000X1.700000*%
%TD*%
%TA.AperFunction,ComponentPad*%
%ADD16C,1.700000*%
%TD*%
%TA.AperFunction,SMDPad,CuDef*%
%ADD17RoundRect,0.250000X0.450000X-0.262500X0.450000X0.262500X-0.450000X0.262500X-0.450000X-0.262500X0*%
%TD*%
%TA.AperFunction,SMDPad,CuDef*%
%ADD18RoundRect,0.250000X-0.450000X0.262500X-0.450000X-0.262500X0.450000X-0.262500X0.450000X0.262500X0*%
%TD*%
%TA.AperFunction,SMDPad,CuDef*%
%ADD19RoundRect,0.225000X-0.250000X0.225000X-0.250000X-0.225000X0.250000X-0.225000X0.250000X0.225000X0*%
%TD*%
%TA.AperFunction,ComponentPad*%
%ADD20RoundRect,0.250000X-0.625000X0.350000X-0.625000X-0.350000X0.625000X-0.350000X0.625000X0.350000X0*%
%TD*%
%TA.AperFunction,ComponentPad*%
%ADD21O,1.750000X1.200000*%
%TD*%
%TA.AperFunction,SMDPad,CuDef*%
%ADD22R,1.100000X0.850000*%
%TD*%
%TA.AperFunction,SMDPad,CuDef*%
%ADD23R,1.100000X0.750000*%
%TD*%
%TA.AperFunction,SMDPad,CuDef*%
%ADD24R,1.000000X1.200000*%
%TD*%
%TA.AperFunction,SMDPad,CuDef*%
%ADD25R,1.350000X1.550000*%
%TD*%
%TA.AperFunction,SMDPad,CuDef*%
%ADD26R,1.350000X1.900000*%
%TD*%
%TA.AperFunction,SMDPad,CuDef*%
%ADD27R,1.800000X1.170000*%
%TD*%
%TA.AperFunction,SMDPad,CuDef*%
%ADD28RoundRect,0.250000X0.250000X0.475000X-0.250000X0.475000X-0.250000X-0.475000X0.250000X-0.475000X0*%
%TD*%
%TA.AperFunction,SMDPad,CuDef*%
%ADD29RoundRect,0.250000X0.262500X0.450000X-0.262500X0.450000X-0.262500X-0.450000X0.262500X-0.450000X0*%
%TD*%
%TA.AperFunction,SMDPad,CuDef*%
%ADD30RoundRect,0.250000X-0.262500X-0.450000X0.262500X-0.450000X0.262500X0.450000X-0.262500X0.450000X0*%
%TD*%
%TA.AperFunction,SMDPad,CuDef*%
%ADD31RoundRect,0.150000X0.200000X-0.150000X0.200000X0.150000X-0.200000X0.150000X-0.200000X-0.150000X0*%
%TD*%
%TA.AperFunction,SMDPad,CuDef*%
%ADD32RoundRect,0.150000X0.625000X-0.150000X0.625000X0.150000X-0.625000X0.150000X-0.625000X-0.150000X0*%
%TD*%
%TA.AperFunction,SMDPad,CuDef*%
%ADD33RoundRect,0.250000X0.650000X-0.350000X0.650000X0.350000X-0.650000X0.350000X-0.650000X-0.350000X0*%
%TD*%
%TA.AperFunction,SMDPad,CuDef*%
%ADD34RoundRect,0.225000X0.225000X0.250000X-0.225000X0.250000X-0.225000X-0.250000X0.225000X-0.250000X0*%
%TD*%
%TA.AperFunction,SMDPad,CuDef*%
%ADD35RoundRect,0.150000X0.425000X-0.150000X0.425000X0.150000X-0.425000X0.150000X-0.425000X-0.150000X0*%
%TD*%
%TA.AperFunction,SMDPad,CuDef*%
%ADD36RoundRect,0.075000X0.500000X-0.075000X0.500000X0.075000X-0.500000X0.075000X-0.500000X-0.075000X0*%
%TD*%
%TA.AperFunction,ComponentPad*%
%ADD37O,2.100000X1.000000*%
%TD*%
%TA.AperFunction,ComponentPad*%
%ADD38O,1.800000X1.000000*%
%TD*%
%TA.AperFunction,SMDPad,CuDef*%
%ADD39RoundRect,0.087500X0.087500X-0.487500X0.087500X0.487500X-0.087500X0.487500X-0.087500X-0.487500X0*%
%TD*%
%TA.AperFunction,SMDPad,CuDef*%
%ADD40RoundRect,0.050000X0.050000X-0.675000X0.050000X0.675000X-0.050000X0.675000X-0.050000X-0.675000X0*%
%TD*%
%TA.AperFunction,SMDPad,CuDef*%
%ADD41RoundRect,0.062500X0.062500X-0.162500X0.062500X0.162500X-0.062500X0.162500X-0.062500X-0.162500X0*%
%TD*%
%TA.AperFunction,SMDPad,CuDef*%
%ADD42RoundRect,0.225000X-0.225000X-0.250000X0.225000X-0.250000X0.225000X0.250000X-0.225000X0.250000X0*%
%TD*%
%TA.AperFunction,ComponentPad*%
%ADD43RoundRect,0.250000X0.620000X0.845000X-0.620000X0.845000X-0.620000X-0.845000X0.620000X-0.845000X0*%
%TD*%
%TA.AperFunction,ComponentPad*%
%ADD44O,1.740000X2.190000*%
%TD*%
%TA.AperFunction,SMDPad,CuDef*%
%ADD45RoundRect,0.250000X-0.250000X-0.475000X0.250000X-0.475000X0.250000X0.475000X-0.250000X0.475000X0*%
%TD*%
%TA.AperFunction,SMDPad,CuDef*%
%ADD46RoundRect,0.218750X-0.256250X0.218750X-0.256250X-0.218750X0.256250X-0.218750X0.256250X0.218750X0*%
%TD*%
%TA.AperFunction,SMDPad,CuDef*%
%ADD47RoundRect,0.218750X0.256250X-0.218750X0.256250X0.218750X-0.256250X0.218750X-0.256250X-0.218750X0*%
%TD*%
%TA.AperFunction,SMDPad,CuDef*%
%ADD48RoundRect,0.052000X0.198000X0.048000X-0.198000X0.048000X-0.198000X-0.048000X0.198000X-0.048000X0*%
%TD*%
%TA.AperFunction,SMDPad,CuDef*%
%ADD49FreePoly0,180.000000*%
%TD*%
%TA.AperFunction,ComponentPad*%
%ADD50C,0.300000*%
%TD*%
%TA.AperFunction,SMDPad,CuDef*%
%ADD51RoundRect,0.150000X-0.150000X-0.200000X0.150000X-0.200000X0.150000X0.200000X-0.150000X0.200000X0*%
%TD*%
%TA.AperFunction,SMDPad,CuDef*%
%ADD52RoundRect,0.087500X-0.087500X0.187500X-0.087500X-0.187500X0.087500X-0.187500X0.087500X0.187500X0*%
%TD*%
%TA.AperFunction,SMDPad,CuDef*%
%ADD53RoundRect,0.175000X-0.625000X0.175000X-0.625000X-0.175000X0.625000X-0.175000X0.625000X0.175000X0*%
%TD*%
%TA.AperFunction,SMDPad,CuDef*%
%ADD54RoundRect,0.225000X0.250000X-0.225000X0.250000X0.225000X-0.250000X0.225000X-0.250000X-0.225000X0*%
%TD*%
%TA.AperFunction,SMDPad,CuDef*%
%ADD55RoundRect,0.150000X0.875000X0.150000X-0.875000X0.150000X-0.875000X-0.150000X0.875000X-0.150000X0*%
%TD*%
%TA.AperFunction,SMDPad,CuDef*%
%ADD56RoundRect,0.062500X-0.375000X-0.062500X0.375000X-0.062500X0.375000X0.062500X-0.375000X0.062500X0*%
%TD*%
%TA.AperFunction,SMDPad,CuDef*%
%ADD57RoundRect,0.062500X-0.062500X-0.375000X0.062500X-0.375000X0.062500X0.375000X-0.062500X0.375000X0*%
%TD*%
%TA.AperFunction,HeatsinkPad*%
%ADD58C,0.400000*%
%TD*%
%TA.AperFunction,HeatsinkPad*%
%ADD59R,3.450000X3.450000*%
%TD*%
%TA.AperFunction,SMDPad,CuDef*%
%ADD60RoundRect,0.225000X-0.225000X-0.375000X0.225000X-0.375000X0.225000X0.375000X-0.225000X0.375000X0*%
%TD*%
%TA.AperFunction,SMDPad,CuDef*%
%ADD61RoundRect,0.062500X-0.062500X0.250000X-0.062500X-0.250000X0.062500X-0.250000X0.062500X0.250000X0*%
%TD*%
%TA.AperFunction,SMDPad,CuDef*%
%ADD62RoundRect,0.112500X-0.112500X0.237500X-0.112500X-0.237500X0.112500X-0.237500X0.112500X0.237500X0*%
%TD*%
%TA.AperFunction,SMDPad,CuDef*%
%ADD63RoundRect,0.112500X-0.112500X0.175000X-0.112500X-0.175000X0.112500X-0.175000X0.112500X0.175000X0*%
%TD*%
%TA.AperFunction,SMDPad,CuDef*%
%ADD64RoundRect,0.100000X-0.637500X-0.100000X0.637500X-0.100000X0.637500X0.100000X-0.637500X0.100000X0*%
%TD*%
%TA.AperFunction,SMDPad,CuDef*%
%ADD65RoundRect,0.250000X0.325000X0.650000X-0.325000X0.650000X-0.325000X-0.650000X0.325000X-0.650000X0*%
%TD*%
%TA.AperFunction,SMDPad,CuDef*%
%ADD66R,5.100000X5.100000*%
%TD*%
%TA.AperFunction,SMDPad,CuDef*%
%ADD67C,17.800000*%
%TD*%
%TA.AperFunction,SMDPad,CuDef*%
%ADD68RoundRect,0.200000X-0.800000X0.200000X-0.800000X-0.200000X0.800000X-0.200000X0.800000X0.200000X0*%
%TD*%
%TA.AperFunction,SMDPad,CuDef*%
%ADD69RoundRect,0.250000X-0.325000X-0.650000X0.325000X-0.650000X0.325000X0.650000X-0.325000X0.650000X0*%
%TD*%
%TA.AperFunction,SMDPad,CuDef*%
%ADD70RoundRect,0.250000X-1.075000X0.375000X-1.075000X-0.375000X1.075000X-0.375000X1.075000X0.375000X0*%
%TD*%
%TA.AperFunction,SMDPad,CuDef*%
%ADD71RoundRect,0.250000X0.475000X-0.250000X0.475000X0.250000X-0.475000X0.250000X-0.475000X-0.250000X0*%
%TD*%
%TA.AperFunction,SMDPad,CuDef*%
%ADD72RoundRect,0.150000X-0.625000X0.150000X-0.625000X-0.150000X0.625000X-0.150000X0.625000X0.150000X0*%
%TD*%
%TA.AperFunction,SMDPad,CuDef*%
%ADD73RoundRect,0.250000X-0.650000X0.350000X-0.650000X-0.350000X0.650000X-0.350000X0.650000X0.350000X0*%
%TD*%
%TA.AperFunction,SMDPad,CuDef*%
%ADD74RoundRect,0.218750X-0.218750X-0.256250X0.218750X-0.256250X0.218750X0.256250X-0.218750X0.256250X0*%
%TD*%
%TA.AperFunction,SMDPad,CuDef*%
%ADD75RoundRect,0.218750X0.218750X0.256250X-0.218750X0.256250X-0.218750X-0.256250X0.218750X-0.256250X0*%
%TD*%
%TA.AperFunction,SMDPad,CuDef*%
%ADD76RoundRect,0.150000X-0.150000X0.587500X-0.150000X-0.587500X0.150000X-0.587500X0.150000X0.587500X0*%
%TD*%
%TA.AperFunction,SMDPad,CuDef*%
%ADD77RoundRect,0.375000X0.625000X0.375000X-0.625000X0.375000X-0.625000X-0.375000X0.625000X-0.375000X0*%
%TD*%
%TA.AperFunction,SMDPad,CuDef*%
%ADD78RoundRect,0.500000X0.500000X1.400000X-0.500000X1.400000X-0.500000X-1.400000X0.500000X-1.400000X0*%
%TD*%
%TA.AperFunction,ViaPad*%
%ADD79C,0.500000*%
%TD*%
%TA.AperFunction,ViaPad*%
%ADD80C,0.600000*%
%TD*%
%TA.AperFunction,ViaPad*%
%ADD81C,0.800000*%
%TD*%
%TA.AperFunction,Conductor*%
%ADD82C,0.350000*%
%TD*%
%TA.AperFunction,Conductor*%
%ADD83C,0.200000*%
%TD*%
%TA.AperFunction,Conductor*%
%ADD84C,0.800000*%
%TD*%
%TA.AperFunction,Conductor*%
%ADD85C,0.400000*%
%TD*%
%TA.AperFunction,Conductor*%
%ADD86C,0.250000*%
%TD*%
G04 APERTURE END LIST*
D10*
%TO.P,SW2,*%
%TO.N,*%
X115880000Y-46350000D03*
X115880000Y-44140000D03*
X108580000Y-46350000D03*
X108580000Y-44140000D03*
D11*
%TO.P,SW2,1,A_1*%
%TO.N,GND*%
X114480000Y-47000000D03*
%TO.P,SW2,2,B_2*%
%TO.N,Net-(SW2-B)*%
X111480000Y-47000000D03*
%TO.P,SW2,3,C_3*%
%TO.N,+3.3V*%
X109980000Y-47000000D03*
%TD*%
D12*
%TO.P,SW3,1,1_1*%
%TO.N,GND*%
X71220000Y-46480000D03*
%TO.P,SW3,2,2_2*%
%TO.N,Net-(U6-~{RST})*%
X67020000Y-46480000D03*
%TD*%
D13*
%TO.P,U5,1,Vdd_1*%
%TO.N,+3.3V*%
X146300000Y-52705000D03*
%TO.P,U5,2*%
%TO.N,Net-(D4-A)*%
X146300000Y-51435000D03*
%TO.P,U5,3*%
%TO.N,SD_CLK*%
X146300000Y-50165000D03*
%TO.P,U5,4*%
%TO.N,Net-(J6-DAT1)*%
X146300000Y-48895000D03*
%TO.P,U5,5*%
%TO.N,SD_DataIn*%
X146300000Y-47625000D03*
%TO.P,U5,6*%
%TO.N,Net-(J6-CLK)*%
X146300000Y-46355000D03*
%TO.P,U5,7*%
%TO.N,SD_CLK*%
X146300000Y-45085000D03*
%TO.P,U5,8,Vss_8*%
%TO.N,GND*%
X146300000Y-43815000D03*
%TO.P,U5,9*%
%TO.N,CS*%
X141350000Y-43815000D03*
%TO.P,U5,10*%
%TO.N,Net-(J6-CMD)*%
X141350000Y-45085000D03*
%TO.P,U5,11*%
%TO.N,GND*%
X141350000Y-46355000D03*
%TO.P,U5,12*%
%TO.N,unconnected-(U5-Pad12)*%
X141350000Y-47625000D03*
%TO.P,U5,13*%
%TO.N,N/C*%
X141350000Y-48895000D03*
%TO.P,U5,14*%
%TO.N,GND*%
X141350000Y-50165000D03*
%TO.P,U5,15*%
%TO.N,unconnected-(U5-Pad15)*%
X141350000Y-51435000D03*
%TO.P,U5,16*%
%TO.N,N/C*%
X141350000Y-52705000D03*
%TD*%
D14*
%TO.P,C12,1*%
%TO.N,GND*%
X54060000Y-84590000D03*
%TO.P,C12,2*%
%TO.N,/Solar+Charging/Bat_power*%
X54060000Y-81640000D03*
%TD*%
D15*
%TO.P,J3,1,Pin_1_1*%
%TO.N,Net-(J3-Pin_1)*%
X139080000Y-88765000D03*
D16*
%TO.P,J3,2,Pin_2_2*%
%TO.N,+5V*%
X136540000Y-88765000D03*
%TO.P,J3,3,Pin_3_3*%
%TO.N,GND*%
X134000000Y-88765000D03*
%TD*%
D17*
%TO.P,R9,1*%
%TO.N,+3.3V*%
X66550000Y-68212500D03*
%TO.P,R9,2*%
%TO.N,RTC_SCL*%
X66550000Y-66387500D03*
%TD*%
%TO.P,R14,1*%
%TO.N,Net-(U7-ILIM{slash}VSET)*%
X69230000Y-81802500D03*
%TO.P,R14,2*%
%TO.N,GND*%
X69230000Y-79977500D03*
%TD*%
D18*
%TO.P,R12,1*%
%TO.N,Net-(D5-K)*%
X76000000Y-85397500D03*
%TO.P,R12,2*%
%TO.N,Net-(U7-STAT2)*%
X76000000Y-87222500D03*
%TD*%
D19*
%TO.P,C2,1*%
%TO.N,GND*%
X51600000Y-76235000D03*
%TO.P,C2,2*%
%TO.N,Net-(U2-NRST)*%
X51600000Y-77785000D03*
%TD*%
D20*
%TO.P,J8,1,Pin_1_1*%
%TO.N,/Solar_power*%
X48940000Y-94020000D03*
D21*
%TO.P,J8,2,Pin_2_2*%
%TO.N,GND*%
X48940000Y-96020000D03*
%TD*%
D22*
%TO.P,J6,1,DAT2_1*%
%TO.N,unconnected-(J6-DAT2-Pad1)*%
X161755000Y-47705000D03*
%TO.P,J6,2,DAT3/CD_2*%
%TO.N,CD*%
X161755000Y-48805000D03*
%TO.P,J6,3,CMD_3*%
%TO.N,Net-(J6-CMD)*%
X161755000Y-49905000D03*
%TO.P,J6,4,VDD_4*%
%TO.N,+3.3V*%
X161755000Y-51005000D03*
%TO.P,J6,5,CLK_5*%
%TO.N,Net-(J6-CLK)*%
X161755000Y-52105000D03*
%TO.P,J6,6,VSS_6*%
%TO.N,GND*%
X161755000Y-53205000D03*
%TO.P,J6,7,DAT0_7*%
%TO.N,SD_DataOut*%
X161755000Y-54305000D03*
D23*
%TO.P,J6,8,DAT1_8*%
%TO.N,Net-(J6-DAT1)*%
X161755000Y-55355000D03*
D24*
%TO.P,J6,9*%
%TO.N,N/C*%
X155605000Y-45070000D03*
%TO.P,J6,10*%
X151905000Y-45070000D03*
D25*
%TO.P,J6,SH,SHIELD_SH*%
%TO.N,GND*%
X161630000Y-45245000D03*
D26*
X150930000Y-48570000D03*
X150930000Y-54540000D03*
D27*
X161405000Y-56565000D03*
%TD*%
D28*
%TO.P,C10,1*%
%TO.N,Net-(D7-K)*%
X60390000Y-96010000D03*
%TO.P,C10,2*%
%TO.N,GND*%
X58490000Y-96010000D03*
%TD*%
D29*
%TO.P,R23,1*%
%TO.N,Net-(SW5-A)*%
X116602500Y-91185000D03*
%TO.P,R23,2*%
%TO.N,Net-(U9-FB)*%
X114777500Y-91185000D03*
%TD*%
D30*
%TO.P,R2,1*%
%TO.N,Net-(D1-K)*%
X88740000Y-56660000D03*
%TO.P,R2,2*%
%TO.N,GND*%
X90565000Y-56660000D03*
%TD*%
D17*
%TO.P,R15,1*%
%TO.N,Net-(U7-ISET)*%
X64180000Y-81990000D03*
%TO.P,R15,2*%
%TO.N,GND*%
X64180000Y-80165000D03*
%TD*%
D31*
%TO.P,D2,1,K_1*%
%TO.N,+5V*%
X121830000Y-88292500D03*
%TO.P,D2,2,A_2*%
%TO.N,Net-(D2-A)*%
X121830000Y-89692500D03*
%TD*%
D32*
%TO.P,J11,1,Pin_1_1*%
%TO.N,Temp_SCL*%
X157810000Y-72190000D03*
%TO.P,J11,2,Pin_2_2*%
%TO.N,Temp_SDA*%
X157810000Y-71190000D03*
%TO.P,J11,3,Pin_3_3*%
%TO.N,+3.3V*%
X157810000Y-70190000D03*
%TO.P,J11,4,Pin_4_4*%
%TO.N,GND*%
X157810000Y-69190000D03*
D33*
%TO.P,J11,MP*%
%TO.N,N/C*%
X161685000Y-73490000D03*
X161685000Y-67890000D03*
%TD*%
D34*
%TO.P,C9,1*%
%TO.N,GND*%
X61915000Y-45210000D03*
%TO.P,C9,2*%
%TO.N,Net-(BT1-+)*%
X60365000Y-45210000D03*
%TD*%
D10*
%TO.P,SW5,*%
%TO.N,*%
X103520000Y-95135000D03*
X103520000Y-97345000D03*
X110820000Y-95135000D03*
X110820000Y-97345000D03*
D11*
%TO.P,SW5,1,A_1*%
%TO.N,Net-(SW5-A)*%
X104920000Y-94485000D03*
%TO.P,SW5,2,B_2*%
%TO.N,+5V*%
X107920000Y-94485000D03*
%TO.P,SW5,3*%
%TO.N,N/C*%
X109420000Y-94485000D03*
%TD*%
D35*
%TO.P,J5,A1,GND_A1*%
%TO.N,GND*%
X154985000Y-94980000D03*
%TO.P,J5,A4,VBUS_A4*%
%TO.N,Net-(D3-A)*%
X154985000Y-94180000D03*
D36*
%TO.P,J5,A5,CC1_A5*%
%TO.N,Net-(J5-CC1)*%
X154985000Y-93030000D03*
%TO.P,J5,A6,D+_A6*%
%TO.N,Net-(J5-D+-PadA6)*%
X154985000Y-92030000D03*
%TO.P,J5,A7,D-_A7*%
%TO.N,Net-(J5-D--PadA7)*%
X154985000Y-91530000D03*
%TO.P,J5,A8,SBU1_A8*%
%TO.N,unconnected-(J5-SBU1-PadA8)*%
X154985000Y-90530000D03*
D35*
%TO.P,J5,A9,VBUS_A9*%
%TO.N,Net-(D3-A)*%
X154985000Y-89380000D03*
%TO.P,J5,A12,GND_A12*%
%TO.N,GND*%
X154985000Y-88580000D03*
%TO.P,J5,B1,GND_B1*%
X154985000Y-88580000D03*
%TO.P,J5,B4,VBUS_B4*%
%TO.N,Net-(D3-A)*%
X154985000Y-89380000D03*
D36*
%TO.P,J5,B5,CC2_B5*%
%TO.N,Net-(J5-CC2)*%
X154985000Y-90030000D03*
%TO.P,J5,B6,D+_B6*%
%TO.N,Net-(J5-D+-PadA6)*%
X154985000Y-91030000D03*
%TO.P,J5,B7,D-_B7*%
%TO.N,Net-(J5-D--PadA7)*%
X154985000Y-92530000D03*
%TO.P,J5,B8,SBU2_B8*%
%TO.N,unconnected-(J5-SBU2-PadB8)*%
X154985000Y-93530000D03*
D35*
%TO.P,J5,B9,VBUS_B9*%
%TO.N,Net-(D3-A)*%
X154985000Y-94180000D03*
%TO.P,J5,B12,GND_B12*%
%TO.N,GND*%
X154985000Y-94980000D03*
D37*
%TO.P,J5,SH,SHIELD_SH*%
X155560000Y-96100000D03*
D38*
X159740000Y-96100000D03*
D37*
X155560000Y-87460000D03*
D38*
X159740000Y-87460000D03*
%TD*%
D39*
%TO.P,U9,1,GND_1*%
%TO.N,GND*%
X106870000Y-90502500D03*
D40*
%TO.P,U9,2,SW_2*%
%TO.N,Net-(U9-SW)*%
X107420000Y-90352500D03*
D39*
%TO.P,U9,3,VOUT_3*%
%TO.N,Net-(SW5-A)*%
X107970000Y-90502500D03*
D41*
%TO.P,U9,4,FB_4*%
%TO.N,Net-(U9-FB)*%
X108170000Y-88902500D03*
%TO.P,U9,5,EN_5*%
%TO.N,Net-(U9-EN)*%
X107670000Y-88902500D03*
%TO.P,U9,6,MODE_6*%
%TO.N,unconnected-(U9-MODE-Pad6)*%
X107170000Y-88902500D03*
%TO.P,U9,7,VIN_7*%
%TO.N,V+*%
X106670000Y-88902500D03*
%TD*%
D17*
%TO.P,R25,1*%
%TO.N,Net-(U9-FB)*%
X117360000Y-87447500D03*
%TO.P,R25,2*%
%TO.N,GND*%
X117360000Y-85622500D03*
%TD*%
D42*
%TO.P,C5,1*%
%TO.N,+3.3V*%
X111840000Y-75000000D03*
%TO.P,C5,2*%
%TO.N,GND*%
X113390000Y-75000000D03*
%TD*%
D43*
%TO.P,J9,1,Pin_1_1*%
%TO.N,Net-(J9-Pin_1)*%
X127010000Y-95885000D03*
D44*
%TO.P,J9,2,Pin_2_2*%
%TO.N,+5V*%
X124470000Y-95885000D03*
%TO.P,J9,3,Pin_3_3*%
%TO.N,Net-(D2-A)*%
X121930000Y-95885000D03*
%TD*%
D17*
%TO.P,R10,1*%
%TO.N,+3.3V*%
X71450000Y-68212500D03*
%TO.P,R10,2*%
%TO.N,RTC_SDA*%
X71450000Y-66387500D03*
%TD*%
D42*
%TO.P,C25,1*%
%TO.N,+3.3V*%
X82775000Y-45300000D03*
%TO.P,C25,2*%
%TO.N,GND*%
X84325000Y-45300000D03*
%TD*%
D45*
%TO.P,C16,1*%
%TO.N,GND*%
X99620000Y-63070000D03*
%TO.P,C16,2*%
%TO.N,+3.3V*%
X101520000Y-63070000D03*
%TD*%
D46*
%TO.P,D4,1,K_1*%
%TO.N,Net-(D4-K)*%
X138150000Y-52532500D03*
%TO.P,D4,2,A_2*%
%TO.N,Net-(D4-A)*%
X138150000Y-54107500D03*
%TD*%
D14*
%TO.P,C13,1*%
%TO.N,GND*%
X100470000Y-97120000D03*
%TO.P,C13,2*%
%TO.N,+5V*%
X100470000Y-94170000D03*
%TD*%
D47*
%TO.P,D6,1,K_1*%
%TO.N,Net-(D6-K)*%
X59210000Y-90755000D03*
%TO.P,D6,2,A_2*%
%TO.N,V+*%
X59210000Y-89180000D03*
%TD*%
D29*
%TO.P,R18,1*%
%TO.N,Net-(D8-K)*%
X105190000Y-85405000D03*
%TO.P,R18,2*%
%TO.N,+5V*%
X103365000Y-85405000D03*
%TD*%
D48*
%TO.P,U7,1,SYS_1*%
%TO.N,V+*%
X72710000Y-90210000D03*
%TO.P,U7,2,BAT_2*%
%TO.N,/Solar+Charging/Bat_power*%
X72710000Y-89810000D03*
%TO.P,U7,3,STAT2_3*%
%TO.N,Net-(U7-STAT2)*%
X72710000Y-89410000D03*
%TO.P,U7,4,~{CE}_4*%
%TO.N,GND*%
X72710000Y-89010000D03*
%TO.P,U7,5,GND_5*%
X72710000Y-88610000D03*
%TO.P,U7,6,TS/MR_6*%
%TO.N,Net-(U7-TS{slash}MR)*%
X70610000Y-88610000D03*
%TO.P,U7,7,ILIM/VSET_7*%
%TO.N,Net-(U7-ILIM{slash}VSET)*%
X70610000Y-89010000D03*
%TO.P,U7,8,ISET_8*%
%TO.N,Net-(U7-ISET)*%
X70610000Y-89410000D03*
%TO.P,U7,9,STAT1_9*%
%TO.N,Net-(U7-STAT1)*%
X70610000Y-89810000D03*
%TO.P,U7,10,IN_10*%
%TO.N,Net-(D7-K)*%
X70610000Y-90210000D03*
D49*
%TO.P,U7,11,THERMAL_PAD_11*%
%TO.N,GND*%
X71660000Y-89410000D03*
D50*
%TO.P,U7,12*%
X71660000Y-89910000D03*
%TO.P,U7,13*%
X71660000Y-88910000D03*
%TD*%
D29*
%TO.P,R16,1*%
%TO.N,Net-(U7-ISET)*%
X65800000Y-85520000D03*
%TO.P,R16,2*%
%TO.N,GND*%
X63975000Y-85520000D03*
%TD*%
%TO.P,R6,1*%
%TO.N,Net-(J5-CC1)*%
X151502500Y-96170000D03*
%TO.P,R6,2*%
%TO.N,GND*%
X149677500Y-96170000D03*
%TD*%
D14*
%TO.P,C11,1*%
%TO.N,GND*%
X69930000Y-97645000D03*
%TO.P,C11,2*%
%TO.N,V+*%
X69930000Y-94695000D03*
%TD*%
D51*
%TO.P,D7,1,K_1*%
%TO.N,Net-(D7-K)*%
X54340000Y-94020000D03*
%TO.P,D7,2,A_2*%
%TO.N,/Solar_power*%
X52940000Y-94020000D03*
%TD*%
D29*
%TO.P,R7,1*%
%TO.N,Net-(J5-CC2)*%
X151502500Y-87430000D03*
%TO.P,R7,2*%
%TO.N,GND*%
X149677500Y-87430000D03*
%TD*%
D52*
%TO.P,U3,1,VDD_1*%
%TO.N,+3.3V*%
X176687500Y-69422500D03*
%TO.P,U3,2,SCL_2*%
%TO.N,Temp_SDA*%
X175687500Y-69422500D03*
%TO.P,U3,3,SDA_3*%
%TO.N,Temp_SCL*%
X175687500Y-71272500D03*
%TO.P,U3,4,VSS_4*%
%TO.N,GND*%
X176687500Y-71272500D03*
D53*
%TO.P,U3,5,NC_5*%
%TO.N,unconnected-(U3-NC-Pad5)*%
X176187500Y-70347500D03*
%TD*%
D34*
%TO.P,C6,1*%
%TO.N,+3.3V*%
X97565000Y-73230000D03*
%TO.P,C6,2*%
%TO.N,GND*%
X96015000Y-73230000D03*
%TD*%
D54*
%TO.P,C15,1*%
%TO.N,+3.3V*%
X95960000Y-96820000D03*
%TO.P,C15,2*%
%TO.N,GND*%
X95960000Y-95270000D03*
%TD*%
D20*
%TO.P,J7,1,Pin_1_1*%
%TO.N,/Solar+Charging/Bat_power*%
X48940000Y-84670000D03*
D21*
%TO.P,J7,2,Pin_2_2*%
%TO.N,GND*%
X48940000Y-86670000D03*
%TD*%
D15*
%TO.P,J1,1,Pin_1_1*%
%TO.N,GND*%
X119980000Y-44520000D03*
D16*
%TO.P,J1,2,Pin_2_2*%
%TO.N,Net-(J1-Pin_2)*%
X122520000Y-44520000D03*
%TO.P,J1,3,Pin_3_3*%
%TO.N,Net-(J1-Pin_3)*%
X125060000Y-44520000D03*
%TO.P,J1,4,Pin_4_4*%
%TO.N,unconnected-(J1-Pin_4-Pad4)*%
X127600000Y-44520000D03*
%TO.P,J1,5,Pin_5_5*%
%TO.N,unconnected-(J1-Pin_5-Pad5)*%
X130140000Y-44520000D03*
%TO.P,J1,6,Pin_6_6*%
%TO.N,+3.3V*%
X132680000Y-44520000D03*
%TD*%
D55*
%TO.P,U6,1,32KHZ_1*%
%TO.N,unconnected-(U6-32KHZ-Pad1)*%
X76950000Y-62880000D03*
%TO.P,U6,2,VCC_2*%
%TO.N,+3.3V*%
X76950000Y-61610000D03*
%TO.P,U6,3,~{INT}/SQW_3*%
%TO.N,/RTC/sqw*%
X76950000Y-60340000D03*
%TO.P,U6,4,~{RST}_4*%
%TO.N,Net-(U6-~{RST})*%
X76950000Y-59070000D03*
%TO.P,U6,5,GND_5*%
%TO.N,unconnected-(U6-GND-Pad5)*%
X76950000Y-57800000D03*
%TO.P,U6,6,GND_6*%
%TO.N,unconnected-(U6-GND-Pad6)*%
X76950000Y-56530000D03*
%TO.P,U6,7,GND_7*%
%TO.N,unconnected-(U6-GND-Pad7)*%
X76950000Y-55260000D03*
%TO.P,U6,8,GND_8*%
%TO.N,unconnected-(U6-GND-Pad8)*%
X76950000Y-53990000D03*
%TO.P,U6,9,GND_9*%
%TO.N,unconnected-(U6-GND-Pad9)*%
X67650000Y-53990000D03*
%TO.P,U6,10,GND_10*%
%TO.N,unconnected-(U6-GND-Pad10)*%
X67650000Y-55260000D03*
%TO.P,U6,11,GND_11*%
%TO.N,unconnected-(U6-GND-Pad11)*%
X67650000Y-56530000D03*
%TO.P,U6,12,GND_12*%
%TO.N,unconnected-(U6-GND-Pad12)*%
X67650000Y-57800000D03*
%TO.P,U6,13,GND_13*%
%TO.N,GND*%
X67650000Y-59070000D03*
%TO.P,U6,14,VBAT_14*%
%TO.N,Net-(BT1-+)*%
X67650000Y-60340000D03*
%TO.P,U6,15,SDA_15*%
%TO.N,RTC_SDA*%
X67650000Y-61610000D03*
%TO.P,U6,16,SCL_16*%
%TO.N,RTC_SCL*%
X67650000Y-62880000D03*
%TD*%
D17*
%TO.P,R13,1*%
%TO.N,Net-(D6-K)*%
X64080000Y-90760000D03*
%TO.P,R13,2*%
%TO.N,Net-(U7-STAT1)*%
X64080000Y-88935000D03*
%TD*%
D15*
%TO.P,J2,1,Pin_1_1*%
%TO.N,SWCLK*%
X126010000Y-64380000D03*
D16*
%TO.P,J2,2,Pin_2_2*%
%TO.N,SWDIO*%
X126010000Y-66920000D03*
%TD*%
D56*
%TO.P,U2,1,VDD_1*%
%TO.N,+3.3V*%
X103062500Y-69340000D03*
%TO.P,U2,2,PC14_2*%
%TO.N,Net-(J1-Pin_2)*%
X103062500Y-69840000D03*
%TO.P,U2,3,PC15_3*%
%TO.N,Net-(J1-Pin_3)*%
X103062500Y-70340000D03*
%TO.P,U2,4,NRST_4*%
%TO.N,Net-(U2-NRST)*%
X103062500Y-70840000D03*
%TO.P,U2,5,VDDA_5*%
%TO.N,+3.3V*%
X103062500Y-71340000D03*
%TO.P,U2,6,PA0_6*%
%TO.N,unconnected-(U2-PA0-Pad6)*%
X103062500Y-71840000D03*
%TO.P,U2,7,PA1_7*%
%TO.N,Net-(J4-Pin_6)*%
X103062500Y-72340000D03*
%TO.P,U2,8,PA2_8*%
%TO.N,Net-(U2-PA2)*%
X103062500Y-72840000D03*
D57*
%TO.P,U2,9,PA3_9*%
%TO.N,Net-(J9-Pin_1)*%
X103750000Y-73527500D03*
%TO.P,U2,10,PA4_10*%
%TO.N,Net-(J4-Pin_5)*%
X104250000Y-73527500D03*
%TO.P,U2,11,PA5_11*%
%TO.N,Net-(J4-Pin_4)*%
X104750000Y-73527500D03*
%TO.P,U2,12,PA6_12*%
%TO.N,Net-(J4-Pin_3)*%
X105250000Y-73527500D03*
%TO.P,U2,13,PA7_13*%
%TO.N,Net-(J4-Pin_2)*%
X105750000Y-73527500D03*
%TO.P,U2,14,PB0_14*%
%TO.N,CD*%
X106250000Y-73527500D03*
%TO.P,U2,15,PB1_15*%
%TO.N,unconnected-(U2-PB1-Pad15)*%
X106750000Y-73527500D03*
%TO.P,U2,16,VSS_16*%
%TO.N,GND*%
X107250000Y-73527500D03*
D56*
%TO.P,U2,17,VDD_17*%
%TO.N,+3.3V*%
X107937500Y-72840000D03*
%TO.P,U2,18,PA8_18*%
%TO.N,Net-(J3-Pin_1)*%
X107937500Y-72340000D03*
%TO.P,U2,19,PA9_19*%
%TO.N,RTC_SCL*%
X107937500Y-71840000D03*
%TO.P,U2,20,PA10_20*%
%TO.N,RTC_SDA*%
X107937500Y-71340000D03*
%TO.P,U2,21,PA11_21*%
%TO.N,Data-*%
X107937500Y-70840000D03*
%TO.P,U2,22,PA12_22*%
%TO.N,Data+*%
X107937500Y-70340000D03*
%TO.P,U2,23,PA13_23*%
%TO.N,SWDIO*%
X107937500Y-69840000D03*
%TO.P,U2,24,PA14_24*%
%TO.N,SWCLK*%
X107937500Y-69340000D03*
D57*
%TO.P,U2,25,PA15_25*%
%TO.N,CS*%
X107250000Y-68652500D03*
%TO.P,U2,26,PB3_26*%
%TO.N,SD_CLK*%
X106750000Y-68652500D03*
%TO.P,U2,27,PB4_27*%
%TO.N,SD_DataOut*%
X106250000Y-68652500D03*
%TO.P,U2,28,PB5_28*%
%TO.N,SD_DataIn*%
X105750000Y-68652500D03*
%TO.P,U2,29,PB6_29*%
%TO.N,Temp_SCL*%
X105250000Y-68652500D03*
%TO.P,U2,30,PB7_30*%
%TO.N,Temp_SDA*%
X104750000Y-68652500D03*
%TO.P,U2,31,PH3_31*%
%TO.N,Net-(SW2-B)*%
X104250000Y-68652500D03*
%TO.P,U2,32,VSS_32*%
%TO.N,GND*%
X103750000Y-68652500D03*
D58*
%TO.P,U2,33,VSS_33*%
X104900000Y-70490000D03*
X104900000Y-71690000D03*
D59*
X105500000Y-71090000D03*
D58*
X106100000Y-70490000D03*
X106100000Y-71690000D03*
%TD*%
D19*
%TO.P,C8,1*%
%TO.N,+3.3V*%
X81290000Y-66325000D03*
%TO.P,C8,2*%
%TO.N,GND*%
X81290000Y-67875000D03*
%TD*%
D30*
%TO.P,R24,1*%
%TO.N,Net-(U9-EN)*%
X111387500Y-87850000D03*
%TO.P,R24,2*%
%TO.N,V+*%
X113212500Y-87850000D03*
%TD*%
D60*
%TO.P,D3,1,K_1*%
%TO.N,+5V*%
X147857500Y-81780000D03*
%TO.P,D3,2,A_2*%
%TO.N,Net-(D3-A)*%
X151157500Y-81780000D03*
%TD*%
D61*
%TO.P,U4,1*%
%TO.N,Net-(J5-D+-PadA6)*%
X148532500Y-91412500D03*
%TO.P,U4,2*%
%TO.N,Net-(J5-D--PadA7)*%
X148032500Y-91412500D03*
D62*
%TO.P,U4,3,VSS_3*%
%TO.N,GND*%
X147532500Y-91450000D03*
D61*
%TO.P,U4,4*%
%TO.N,Data-*%
X147032500Y-91412500D03*
%TO.P,U4,5*%
%TO.N,Data+*%
X146532500Y-91412500D03*
%TO.P,U4,6,NC_6*%
%TO.N,unconnected-(U4-NC-Pad6)*%
X146532500Y-92187500D03*
%TO.P,U4,7,NC_7*%
%TO.N,unconnected-(U4-NC-Pad7)*%
X147032500Y-92187500D03*
D63*
%TO.P,U4,8,VSS_8*%
%TO.N,GND*%
X147532500Y-92212500D03*
D61*
%TO.P,U4,9,NC_9*%
%TO.N,Net-(J5-D--PadA7)*%
X148032500Y-92187500D03*
%TO.P,U4,10,NC_10*%
%TO.N,unconnected-(U4-NC-Pad10)*%
X148532500Y-92187500D03*
%TD*%
D29*
%TO.P,R26,1*%
%TO.N,GND*%
X113212500Y-51710000D03*
%TO.P,R26,2*%
%TO.N,Net-(SW2-B)*%
X111387500Y-51710000D03*
%TD*%
D17*
%TO.P,R8,1*%
%TO.N,Net-(D4-K)*%
X138190000Y-50750000D03*
%TO.P,R8,2*%
%TO.N,Net-(J6-CMD)*%
X138190000Y-48925000D03*
%TD*%
D47*
%TO.P,D5,1,K_1*%
%TO.N,Net-(D5-K)*%
X76000000Y-82657500D03*
%TO.P,D5,2,A_2*%
%TO.N,V+*%
X76000000Y-81082500D03*
%TD*%
D64*
%TO.P,U8,1,IN+_1*%
%TO.N,/Solar+Charging/Bat_power*%
X86957500Y-92655000D03*
%TO.P,U8,2,IN+_2*%
X86957500Y-93305000D03*
%TO.P,U8,3,IN+_3*%
X86957500Y-93955000D03*
%TO.P,U8,4,A1_4*%
%TO.N,GND*%
X86957500Y-94605000D03*
%TO.P,U8,5,A0_5*%
X86957500Y-95255000D03*
%TO.P,U8,6,GND_6*%
X86957500Y-95905000D03*
%TO.P,U8,7,ALERT_7*%
%TO.N,unconnected-(U8-ALERT-Pad7)*%
X86957500Y-96555000D03*
%TO.P,U8,8,SDA_8*%
%TO.N,Net-(U8-SDA)*%
X86957500Y-97205000D03*
%TO.P,U8,9,SCL_9*%
%TO.N,Net-(U8-SCL)*%
X92682500Y-97205000D03*
%TO.P,U8,10,VS_10*%
%TO.N,+3.3V*%
X92682500Y-96555000D03*
%TO.P,U8,11,GND_11*%
%TO.N,GND*%
X92682500Y-95905000D03*
%TO.P,U8,12,VBUS_12*%
%TO.N,/Solar+Charging/Bat_power*%
X92682500Y-95255000D03*
%TO.P,U8,13,NC_13*%
%TO.N,unconnected-(U8-NC-Pad13)*%
X92682500Y-94605000D03*
%TO.P,U8,14,IN-_14*%
%TO.N,GND*%
X92682500Y-93955000D03*
%TO.P,U8,15,IN-_15*%
X92682500Y-93305000D03*
%TO.P,U8,16,IN-_16*%
X92682500Y-92655000D03*
%TD*%
D65*
%TO.P,C14,1*%
%TO.N,GND*%
X117075000Y-96185000D03*
%TO.P,C14,2*%
%TO.N,+5V*%
X114125000Y-96185000D03*
%TD*%
D66*
%TO.P,BT1,1,+_1*%
%TO.N,Net-(BT1-+)*%
X52833756Y-70880000D03*
X52833756Y-45280000D03*
D67*
%TO.P,BT1,2,-_2*%
%TO.N,GND*%
X52833756Y-58080000D03*
%TD*%
D30*
%TO.P,R4,1*%
%TO.N,Temp_SCL*%
X179350000Y-72830000D03*
%TO.P,R4,2*%
%TO.N,+3.3V*%
X181175000Y-72830000D03*
%TD*%
%TO.P,R3,1*%
%TO.N,Net-(U2-PA2)*%
X125227500Y-84420000D03*
%TO.P,R3,2*%
%TO.N,Net-(Q1-B)*%
X127052500Y-84420000D03*
%TD*%
D68*
%TO.P,SW1,1,1_1*%
%TO.N,GND*%
X45860000Y-74690000D03*
%TO.P,SW1,2,2_2*%
%TO.N,Net-(U2-NRST)*%
X45860000Y-78890000D03*
%TD*%
D69*
%TO.P,C1,1*%
%TO.N,+5V*%
X94155000Y-54650000D03*
%TO.P,C1,2*%
%TO.N,GND*%
X97105000Y-54650000D03*
%TD*%
D70*
%TO.P,L1,1,1_1*%
%TO.N,V+*%
X100720000Y-88130000D03*
%TO.P,L1,2,2_2*%
%TO.N,Net-(U9-SW)*%
X100720000Y-90930000D03*
%TD*%
D30*
%TO.P,R17,1*%
%TO.N,Net-(U7-TS{slash}MR)*%
X70597500Y-85770000D03*
%TO.P,R17,2*%
%TO.N,GND*%
X72422500Y-85770000D03*
%TD*%
D71*
%TO.P,C3,1*%
%TO.N,+3.3V*%
X87265000Y-69405000D03*
%TO.P,C3,2*%
%TO.N,GND*%
X87265000Y-67505000D03*
%TD*%
D17*
%TO.P,R11,1*%
%TO.N,+3.3V*%
X76130000Y-68212500D03*
%TO.P,R11,2*%
%TO.N,/RTC/sqw*%
X76130000Y-66387500D03*
%TD*%
D19*
%TO.P,C26,1*%
%TO.N,+5V*%
X97410000Y-47985000D03*
%TO.P,C26,2*%
%TO.N,GND*%
X97410000Y-49535000D03*
%TD*%
D15*
%TO.P,J4,1,Pin_1_1*%
%TO.N,GND*%
X116090000Y-78810000D03*
D16*
%TO.P,J4,2,Pin_2_2*%
%TO.N,Net-(J4-Pin_2)*%
X118630000Y-78810000D03*
%TO.P,J4,3,Pin_3_3*%
%TO.N,Net-(J4-Pin_3)*%
X121170000Y-78810000D03*
%TO.P,J4,4,Pin_4_4*%
%TO.N,Net-(J4-Pin_4)*%
X123710000Y-78810000D03*
%TO.P,J4,5,Pin_5_5*%
%TO.N,Net-(J4-Pin_5)*%
X126250000Y-78810000D03*
%TO.P,J4,6,Pin_6_6*%
%TO.N,Net-(J4-Pin_6)*%
X128790000Y-78810000D03*
%TO.P,J4,7,Pin_7_7*%
%TO.N,+3.3V*%
X131330000Y-78810000D03*
%TO.P,J4,8,Pin_8_8*%
%TO.N,+5V*%
X133870000Y-78810000D03*
%TD*%
D72*
%TO.P,J10,1,Pin_1_1*%
%TO.N,GND*%
X172425000Y-68920000D03*
%TO.P,J10,2,Pin_2_2*%
%TO.N,+3.3V*%
X172425000Y-69920000D03*
%TO.P,J10,3,Pin_3_3*%
%TO.N,Temp_SDA*%
X172425000Y-70920000D03*
%TO.P,J10,4,Pin_4_4*%
%TO.N,Temp_SCL*%
X172425000Y-71920000D03*
D73*
%TO.P,J10,MP*%
%TO.N,N/C*%
X168550000Y-67620000D03*
X168550000Y-73220000D03*
%TD*%
D17*
%TO.P,R21,1*%
%TO.N,Net-(U8-SDA)*%
X89540000Y-89160000D03*
%TO.P,R21,2*%
%TO.N,RTC_SDA*%
X89540000Y-87335000D03*
%TD*%
D42*
%TO.P,C17,1*%
%TO.N,+3.3V*%
X112260000Y-64780000D03*
%TO.P,C17,2*%
%TO.N,GND*%
X113810000Y-64780000D03*
%TD*%
D74*
%TO.P,D8,1,K_1*%
%TO.N,Net-(D8-K)*%
X107892500Y-85410000D03*
%TO.P,D8,2,A_2*%
%TO.N,GND*%
X109467500Y-85410000D03*
%TD*%
D75*
%TO.P,D1,1,K_1*%
%TO.N,Net-(D1-K)*%
X85267500Y-56660000D03*
%TO.P,D1,2,A_2*%
%TO.N,+3.3V*%
X83692500Y-56660000D03*
%TD*%
D30*
%TO.P,R19,1*%
%TO.N,+3.3V*%
X82737500Y-89890000D03*
%TO.P,R19,2*%
%TO.N,GND*%
X84562500Y-89890000D03*
%TD*%
%TO.P,R5,1*%
%TO.N,Temp_SDA*%
X179350000Y-67630000D03*
%TO.P,R5,2*%
%TO.N,+3.3V*%
X181175000Y-67630000D03*
%TD*%
D76*
%TO.P,Q1,1,B_1*%
%TO.N,Net-(Q1-B)*%
X127060000Y-87820000D03*
%TO.P,Q1,2,E_2*%
%TO.N,GND*%
X125160000Y-87820000D03*
%TO.P,Q1,3,C_3*%
%TO.N,Net-(D2-A)*%
X126110000Y-89695000D03*
%TD*%
D17*
%TO.P,R22,1*%
%TO.N,Net-(U8-SCL)*%
X94660000Y-89222500D03*
%TO.P,R22,2*%
%TO.N,RTC_SCL*%
X94660000Y-87397500D03*
%TD*%
D30*
%TO.P,R20,1*%
%TO.N,+3.3V*%
X80475000Y-96260000D03*
%TO.P,R20,2*%
%TO.N,GND*%
X82300000Y-96260000D03*
%TD*%
D34*
%TO.P,C7,1*%
%TO.N,+3.3V*%
X146845000Y-57560000D03*
%TO.P,C7,2*%
%TO.N,GND*%
X145295000Y-57560000D03*
%TD*%
D69*
%TO.P,C4,1*%
%TO.N,+3.3V*%
X81350000Y-50500000D03*
%TO.P,C4,2*%
%TO.N,GND*%
X84300000Y-50500000D03*
%TD*%
D77*
%TO.P,U1,1,GND_1*%
%TO.N,GND*%
X93600000Y-50300000D03*
%TO.P,U1,2,VO_2*%
%TO.N,+3.3V*%
X93600000Y-48000000D03*
D78*
X87300000Y-48000000D03*
D77*
%TO.P,U1,3,VI_3*%
%TO.N,+5V*%
X93600000Y-45700000D03*
%TD*%
D79*
%TO.N,GND*%
X53500000Y-76230000D03*
X110780000Y-85430000D03*
X150920000Y-58560000D03*
X115230000Y-64750000D03*
X159310000Y-45250000D03*
D80*
X115330000Y-85620000D03*
D79*
X98510000Y-97080000D03*
X73890000Y-85770000D03*
X153550000Y-87640000D03*
X153050000Y-95990000D03*
X92050000Y-56630000D03*
X139600000Y-55240000D03*
X83630000Y-96230000D03*
X93620000Y-52350000D03*
X67450000Y-79950000D03*
X139330000Y-47400000D03*
X178130000Y-71270000D03*
X155350000Y-69220000D03*
X85680000Y-89890000D03*
X108930000Y-74200000D03*
X81270000Y-69210000D03*
X91060000Y-94780000D03*
X71720000Y-97620000D03*
X101450000Y-68020000D03*
X69710000Y-59050000D03*
X147582500Y-89430000D03*
X118510000Y-96160000D03*
D80*
X113210000Y-55870000D03*
D79*
X152620000Y-48570000D03*
X123940000Y-86580000D03*
X148130000Y-96150000D03*
X149700000Y-85730000D03*
X97940000Y-63050000D03*
X58460000Y-97600000D03*
X56230000Y-84590000D03*
X174750000Y-68400000D03*
X97370000Y-50970000D03*
X94610000Y-73210000D03*
X146590000Y-93870000D03*
X87245000Y-65775000D03*
X62220000Y-85500000D03*
X97830000Y-94350000D03*
X84300000Y-46790000D03*
X72860000Y-46500000D03*
X62500000Y-80120000D03*
X85370000Y-95200000D03*
X144210000Y-43840000D03*
X143910000Y-57525000D03*
X84280000Y-52450000D03*
X114700000Y-74960000D03*
X98670000Y-54650000D03*
D81*
%TO.N,+3.3V*%
X82710000Y-88240000D03*
D79*
X111840000Y-73540000D03*
X110540000Y-65220000D03*
X177850000Y-69410000D03*
X85500000Y-69400000D03*
X87300000Y-52860000D03*
X148530000Y-52080000D03*
D81*
X101399975Y-74019975D03*
D79*
X79850000Y-50520000D03*
X181170000Y-69280000D03*
X82450000Y-56660000D03*
X95960000Y-97990000D03*
X71430000Y-69650000D03*
D81*
X89560000Y-52760000D03*
D79*
X131330000Y-73500000D03*
X76130000Y-69670000D03*
X171140000Y-69920000D03*
X109970000Y-49350000D03*
X103590000Y-62730000D03*
X94250000Y-96560000D03*
X155550000Y-70210000D03*
X81240000Y-45290000D03*
X66540000Y-69580000D03*
X158960000Y-51000000D03*
X82650000Y-66300000D03*
D81*
X80470000Y-94570000D03*
D79*
X181150000Y-74740000D03*
%TO.N,Net-(D4-A)*%
X141260000Y-56340000D03*
X138130000Y-55560000D03*
%TO.N,SD_DataIn*%
X105750000Y-66840000D03*
X144630000Y-47630000D03*
%TO.N,Net-(J6-CMD)*%
X142800000Y-45080000D03*
X160120000Y-49930000D03*
D81*
%TO.N,+5V*%
X101260000Y-85390000D03*
X108850000Y-92670000D03*
X112560000Y-96230000D03*
X94140000Y-56810000D03*
X100480000Y-92750000D03*
X146360000Y-81780000D03*
X99170000Y-47990000D03*
X121820000Y-86690000D03*
D80*
%TO.N,RTC_SCL*%
X84650000Y-84890000D03*
X140830000Y-92010000D03*
X98240000Y-88780000D03*
X68440000Y-67240000D03*
D79*
%TO.N,CD*%
X157780000Y-48810000D03*
D80*
X106449265Y-75240735D03*
D79*
%TO.N,SD_DataOut*%
X139173909Y-57953909D03*
X120450000Y-59200000D03*
X153930000Y-53210000D03*
X141600000Y-57930000D03*
%TO.N,Temp_SCL*%
X113970000Y-60950000D03*
X127460000Y-61610000D03*
%TO.N,Temp_SDA*%
X137220000Y-60260000D03*
X113230000Y-60310000D03*
D80*
%TO.N,V+*%
X76020000Y-79820000D03*
X59210000Y-87840000D03*
X67960000Y-94680000D03*
X80660000Y-80710000D03*
%TO.N,RTC_SDA*%
X92530000Y-88880000D03*
X141470000Y-94480000D03*
X89540000Y-85910000D03*
X73440000Y-67810000D03*
D79*
%TO.N,Net-(J1-Pin_2)*%
X101750000Y-69890000D03*
%TO.N,Net-(J1-Pin_3)*%
X100990000Y-70130000D03*
%TO.N,SWCLK*%
X109290000Y-68440000D03*
%TO.N,SWDIO*%
X109400000Y-69320000D03*
%TO.N,Net-(J4-Pin_6)*%
X128790000Y-82130000D03*
X101670000Y-72760000D03*
%TO.N,Net-(J4-Pin_5)*%
X126250000Y-81050000D03*
X104300000Y-75810000D03*
%TO.N,Net-(J4-Pin_2)*%
X105800000Y-74636091D03*
%TO.N,Data+*%
X146482500Y-84220000D03*
X109270000Y-70290000D03*
%TD*%
%TO.N,GND*%
D82*
X147532500Y-91450000D02*
X147532500Y-90637500D01*
X150930000Y-48570000D02*
X155565000Y-53205000D01*
X148150000Y-96170000D02*
X148130000Y-96150000D01*
D83*
X147532500Y-89480000D02*
X147582500Y-89430000D01*
D82*
X81290000Y-69190000D02*
X81270000Y-69210000D01*
X98550000Y-97120000D02*
X98510000Y-97080000D01*
X95960000Y-94020000D02*
X95960000Y-95270000D01*
X85965000Y-94605000D02*
X85370000Y-95200000D01*
D84*
X58480000Y-96020000D02*
X58490000Y-96010000D01*
D82*
X114660000Y-75000000D02*
X114700000Y-74960000D01*
X159315000Y-45245000D02*
X159310000Y-45250000D01*
D84*
X113212500Y-54733848D02*
X113212500Y-51710000D01*
D82*
X141350000Y-50165000D02*
X140365001Y-50165000D01*
X99620000Y-63070000D02*
X97960000Y-63070000D01*
X144235000Y-43815000D02*
X144210000Y-43840000D01*
D83*
X86957500Y-95905000D02*
X86957500Y-94605000D01*
D82*
X93600000Y-52330000D02*
X93620000Y-52350000D01*
D84*
X51980000Y-86670000D02*
X54060000Y-84590000D01*
D82*
X71220000Y-46480000D02*
X68870000Y-44130000D01*
X92682500Y-95905000D02*
X91849766Y-95905000D01*
X117075000Y-96185000D02*
X118485000Y-96185000D01*
X139600000Y-50930001D02*
X139600000Y-55240000D01*
X82300000Y-96260000D02*
X83600000Y-96260000D01*
D83*
X72422500Y-88322500D02*
X72710000Y-88610000D01*
X147532500Y-90637500D02*
X147532500Y-89480000D01*
D82*
X125160000Y-87820000D02*
X125160000Y-87800000D01*
X149677500Y-85752500D02*
X149700000Y-85730000D01*
X97105000Y-54650000D02*
X98670000Y-54650000D01*
X87265000Y-65795000D02*
X87245000Y-65775000D01*
X91849766Y-95905000D02*
X91060000Y-95115234D01*
X45860000Y-74690000D02*
X50055000Y-74690000D01*
X118485000Y-96185000D02*
X118510000Y-96160000D01*
D84*
X115332500Y-85622500D02*
X115330000Y-85620000D01*
D82*
X103750000Y-68652500D02*
X102082500Y-68652500D01*
X172670000Y-68930406D02*
X174219594Y-68930406D01*
X62240000Y-85520000D02*
X62220000Y-85500000D01*
X94630000Y-73230000D02*
X94610000Y-73210000D01*
X149677500Y-87430000D02*
X149677500Y-85752500D01*
D84*
X48950000Y-96010000D02*
X48940000Y-96020000D01*
D82*
X125160000Y-87800000D02*
X123940000Y-86580000D01*
X97410000Y-49535000D02*
X97410000Y-50930000D01*
X114480000Y-50442500D02*
X113212500Y-51710000D01*
X147532500Y-92927500D02*
X146590000Y-93870000D01*
X143945000Y-57560000D02*
X143910000Y-57525000D01*
X62545000Y-80165000D02*
X62500000Y-80120000D01*
D84*
X48940000Y-96020000D02*
X58480000Y-96020000D01*
D82*
X95960000Y-95270000D02*
X96910000Y-95270000D01*
D83*
X53823756Y-59070000D02*
X52833756Y-58080000D01*
D82*
X97960000Y-63070000D02*
X97940000Y-63050000D01*
X108257500Y-73527500D02*
X108930000Y-74200000D01*
X107787500Y-87090000D02*
X106000000Y-87090000D01*
X92020000Y-56660000D02*
X92050000Y-56630000D01*
X107250000Y-73527500D02*
X108257500Y-73527500D01*
X150930000Y-48570000D02*
X152620000Y-48570000D01*
X91060000Y-95115234D02*
X91060000Y-94780000D01*
D83*
X67650000Y-59070000D02*
X53823756Y-59070000D01*
D84*
X113210000Y-55870000D02*
X113210000Y-54736348D01*
D85*
X54060000Y-84590000D02*
X56230000Y-84590000D01*
D82*
X106000000Y-87090000D02*
X104550000Y-88540000D01*
X149677500Y-96170000D02*
X148150000Y-96170000D01*
X68870000Y-44130000D02*
X62995000Y-44130000D01*
X102082500Y-68652500D02*
X101450000Y-68020000D01*
X146300000Y-43815000D02*
X144235000Y-43815000D01*
X51600000Y-76235000D02*
X53495000Y-76235000D01*
D83*
X176687500Y-71272500D02*
X178127500Y-71272500D01*
D82*
X154945000Y-95000000D02*
X154040000Y-95000000D01*
X96015000Y-73230000D02*
X94630000Y-73230000D01*
X154945000Y-88600000D02*
X154510000Y-88600000D01*
X67477500Y-79977500D02*
X67450000Y-79950000D01*
X140375000Y-46355000D02*
X139330000Y-47400000D01*
X92682500Y-92655000D02*
X92682500Y-93955000D01*
D83*
X178127500Y-71272500D02*
X178130000Y-71270000D01*
D82*
X147532500Y-92212500D02*
X147532500Y-92927500D01*
X106870000Y-90502500D02*
X105322500Y-90502500D01*
X110760000Y-85410000D02*
X110780000Y-85430000D01*
X114480000Y-47000000D02*
X114480000Y-50442500D01*
X84300000Y-50500000D02*
X84300000Y-52430000D01*
X69930000Y-97645000D02*
X71695000Y-97645000D01*
X161630000Y-45245000D02*
X159315000Y-45245000D01*
X72840000Y-46480000D02*
X72860000Y-46500000D01*
X150930000Y-54540000D02*
X150930000Y-58560000D01*
X115200000Y-64780000D02*
X115230000Y-64750000D01*
X145295000Y-57560000D02*
X143945000Y-57560000D01*
D83*
X71523604Y-89410000D02*
X71660000Y-89410000D01*
D82*
X105322500Y-90502500D02*
X104550000Y-89730000D01*
X96910000Y-95270000D02*
X97830000Y-94350000D01*
X61915000Y-45210000D02*
X62995000Y-44130000D01*
X83600000Y-96260000D02*
X83630000Y-96230000D01*
X63975000Y-85520000D02*
X62240000Y-85520000D01*
X152955000Y-56565000D02*
X150930000Y-54540000D01*
D83*
X72710000Y-89010000D02*
X72710000Y-88610000D01*
D82*
X72422500Y-85770000D02*
X73890000Y-85770000D01*
X94595000Y-92655000D02*
X95960000Y-94020000D01*
X100470000Y-97120000D02*
X98550000Y-97120000D01*
X50055000Y-74690000D02*
X51600000Y-76235000D01*
X71695000Y-97645000D02*
X71720000Y-97620000D01*
X154040000Y-95000000D02*
X153050000Y-95990000D01*
D84*
X117360000Y-85622500D02*
X115332500Y-85622500D01*
D82*
X161405000Y-56565000D02*
X152955000Y-56565000D01*
X81290000Y-67875000D02*
X81290000Y-69190000D01*
X64180000Y-80165000D02*
X62545000Y-80165000D01*
X84325000Y-46765000D02*
X84300000Y-46790000D01*
X87265000Y-67505000D02*
X87265000Y-65795000D01*
X71220000Y-46480000D02*
X72840000Y-46480000D01*
X69230000Y-79977500D02*
X67477500Y-79977500D01*
X107787500Y-87090000D02*
X109467500Y-85410000D01*
X150930000Y-58560000D02*
X150920000Y-58560000D01*
X84300000Y-52430000D02*
X84280000Y-52450000D01*
D85*
X58490000Y-97570000D02*
X58460000Y-97600000D01*
D82*
X109467500Y-85410000D02*
X110760000Y-85410000D01*
X97410000Y-50930000D02*
X97370000Y-50970000D01*
X86957500Y-94605000D02*
X85965000Y-94605000D01*
X154510000Y-88600000D02*
X153550000Y-87640000D01*
X141350000Y-46355000D02*
X140375000Y-46355000D01*
X155360000Y-69210000D02*
X155350000Y-69220000D01*
X84562500Y-89890000D02*
X85680000Y-89890000D01*
X157525000Y-69210000D02*
X155360000Y-69210000D01*
X113390000Y-75000000D02*
X114660000Y-75000000D01*
D84*
X48940000Y-86670000D02*
X51980000Y-86670000D01*
D82*
X104550000Y-89730000D02*
X104550000Y-88540000D01*
D83*
X72422500Y-85770000D02*
X72422500Y-88322500D01*
D84*
X113210000Y-54736348D02*
X113212500Y-54733848D01*
D82*
X140365001Y-50165000D02*
X139600000Y-50930001D01*
X84325000Y-45300000D02*
X84325000Y-46765000D01*
X67650000Y-59070000D02*
X69690000Y-59070000D01*
X92682500Y-92655000D02*
X94595000Y-92655000D01*
X155565000Y-53205000D02*
X161755000Y-53205000D01*
X90565000Y-56660000D02*
X92020000Y-56660000D01*
X174219594Y-68930406D02*
X174750000Y-68400000D01*
X69690000Y-59070000D02*
X69710000Y-59050000D01*
X113810000Y-64780000D02*
X115200000Y-64780000D01*
D85*
X58490000Y-96010000D02*
X58490000Y-97570000D01*
D82*
X53495000Y-76235000D02*
X53500000Y-76230000D01*
X93600000Y-50300000D02*
X93600000Y-52330000D01*
%TO.N,Net-(SW2-B)*%
D83*
X111527500Y-46922500D02*
X111530000Y-46920000D01*
X111387500Y-58192500D02*
X104250000Y-65330000D01*
X104250000Y-65330000D02*
X104250000Y-68652500D01*
X111480000Y-47000000D02*
X111480000Y-51617500D01*
X111387500Y-51710000D02*
X111387500Y-58192500D01*
X111380000Y-51702500D02*
X111387500Y-51710000D01*
X111480000Y-51617500D02*
X111387500Y-51710000D01*
%TO.N,+3.3V*%
D84*
X146845000Y-53250000D02*
X146300000Y-52705000D01*
X82775000Y-45300000D02*
X81250000Y-45300000D01*
X161755000Y-51005000D02*
X158965000Y-51005000D01*
D83*
X103062500Y-69340000D02*
X87330000Y-69340000D01*
X94245000Y-96555000D02*
X94250000Y-96560000D01*
D84*
X157525000Y-70210000D02*
X155550000Y-70210000D01*
X81290000Y-64925001D02*
X81290000Y-66325000D01*
X66550000Y-68212500D02*
X66550000Y-69570000D01*
X82737500Y-89890000D02*
X82737500Y-88267500D01*
X82737500Y-88267500D02*
X82710000Y-88240000D01*
X77974999Y-61610000D02*
X81290000Y-64925001D01*
D83*
X172670000Y-69930406D02*
X171150406Y-69930406D01*
D84*
X103250000Y-63070000D02*
X103590000Y-62730000D01*
X95960000Y-96820000D02*
X95960000Y-97990000D01*
X87265000Y-69405000D02*
X87315000Y-69405000D01*
X81290000Y-66325000D02*
X82625000Y-66325000D01*
D83*
X92682500Y-96555000D02*
X94245000Y-96555000D01*
X99455000Y-71340000D02*
X97565000Y-73230000D01*
D84*
X87265000Y-69405000D02*
X87605000Y-69405000D01*
D83*
X87535000Y-69675000D02*
X87265000Y-69405000D01*
D84*
X147905000Y-52705000D02*
X148530000Y-52080000D01*
X80475000Y-94575000D02*
X80470000Y-94570000D01*
D83*
X107937500Y-72840000D02*
X108820000Y-72840000D01*
D84*
X97565000Y-73230000D02*
X100610000Y-73230000D01*
X83692500Y-56660000D02*
X82450000Y-56660000D01*
X158965000Y-51005000D02*
X158960000Y-51000000D01*
X109980000Y-49340000D02*
X109970000Y-49350000D01*
X80475000Y-96260000D02*
X80475000Y-94575000D01*
X89560000Y-51040000D02*
X89560000Y-52760000D01*
X87300000Y-48000000D02*
X87300000Y-52860000D01*
X112260000Y-64780000D02*
X110980000Y-64780000D01*
D83*
X87330000Y-69340000D02*
X87265000Y-69405000D01*
D84*
X131330000Y-78810000D02*
X131330000Y-73500000D01*
X109980000Y-47000000D02*
X109980000Y-49340000D01*
D83*
X181175000Y-67630000D02*
X181175000Y-69275000D01*
D84*
X81350000Y-50500000D02*
X79870000Y-50500000D01*
X82625000Y-66325000D02*
X82650000Y-66300000D01*
D83*
X181175000Y-69275000D02*
X181170000Y-69280000D01*
D84*
X71450000Y-68212500D02*
X71450000Y-69630000D01*
X71450000Y-69630000D02*
X71430000Y-69650000D01*
D83*
X171150406Y-69930406D02*
X171140000Y-69920000D01*
D84*
X111840000Y-75000000D02*
X111840000Y-73540000D01*
X92600000Y-48000000D02*
X89560000Y-51040000D01*
X101520000Y-63070000D02*
X103250000Y-63070000D01*
X66550000Y-69570000D02*
X66540000Y-69580000D01*
X93600000Y-48000000D02*
X92600000Y-48000000D01*
D83*
X181175000Y-72830000D02*
X181175000Y-74715000D01*
D84*
X76950000Y-61610000D02*
X77974999Y-61610000D01*
X146300000Y-52705000D02*
X147905000Y-52705000D01*
D83*
X110980000Y-75000000D02*
X111840000Y-75000000D01*
X103062500Y-71340000D02*
X99455000Y-71340000D01*
D84*
X146845000Y-57560000D02*
X146845000Y-53250000D01*
X87265000Y-69405000D02*
X85505000Y-69405000D01*
X85505000Y-69405000D02*
X85500000Y-69400000D01*
D83*
X108820000Y-72840000D02*
X110980000Y-75000000D01*
X177837500Y-69422500D02*
X177850000Y-69410000D01*
D84*
X81250000Y-45300000D02*
X81240000Y-45290000D01*
X79870000Y-50500000D02*
X79850000Y-50520000D01*
X76130000Y-68212500D02*
X76130000Y-69670000D01*
X110980000Y-64780000D02*
X110540000Y-65220000D01*
X100610000Y-73230000D02*
X101399975Y-74019975D01*
D83*
X181175000Y-74715000D02*
X181150000Y-74740000D01*
X176687500Y-69422500D02*
X177837500Y-69422500D01*
%TO.N,Net-(U6-~{RST})*%
X74840000Y-57670000D02*
X76240000Y-59070000D01*
X67020000Y-46480000D02*
X67020000Y-48110000D01*
X71190000Y-52270000D02*
X74840000Y-55920000D01*
X74840000Y-55920000D02*
X74840000Y-57670000D01*
X76240000Y-59070000D02*
X76950000Y-59070000D01*
X67020000Y-48110000D02*
X71180000Y-52270000D01*
X71180000Y-52270000D02*
X71190000Y-52270000D01*
%TO.N,Net-(D4-A)*%
X144180000Y-51940000D02*
X144180000Y-54440000D01*
X146295000Y-51440000D02*
X144680000Y-51440000D01*
X138150000Y-54107500D02*
X138150000Y-55540000D01*
X144180000Y-54440000D02*
X142280000Y-56340000D01*
X138150000Y-55540000D02*
X138130000Y-55560000D01*
X146300000Y-51435000D02*
X146295000Y-51440000D01*
X142280000Y-56340000D02*
X141260000Y-56340000D01*
X144680000Y-51440000D02*
X144180000Y-51940000D01*
%TO.N,SD_CLK*%
X147555000Y-45085000D02*
X148110000Y-44530000D01*
X139990000Y-42910000D02*
X138600000Y-44300000D01*
X145315001Y-45085000D02*
X143890000Y-46510001D01*
X106750000Y-66800000D02*
X106750000Y-68652500D01*
X138600000Y-44300000D02*
X136820000Y-44300000D01*
X143890000Y-48739999D02*
X145315001Y-50165000D01*
X146300000Y-45085000D02*
X145315001Y-45085000D01*
X147330000Y-42910000D02*
X139990000Y-42910000D01*
X118550000Y-62570000D02*
X110980000Y-62570000D01*
X143890000Y-46510001D02*
X143890000Y-48739999D01*
X110980000Y-62570000D02*
X106750000Y-66800000D01*
X146300000Y-45085000D02*
X147555000Y-45085000D01*
X148110000Y-44530000D02*
X148110000Y-43690000D01*
X145315001Y-50165000D02*
X146300000Y-50165000D01*
X148110000Y-43690000D02*
X147330000Y-42910000D01*
X136820000Y-44300000D02*
X118550000Y-62570000D01*
%TO.N,Net-(J6-DAT1)*%
X146300000Y-48895000D02*
X148380000Y-48895000D01*
X148380000Y-48895000D02*
X154840000Y-55355000D01*
X154840000Y-55355000D02*
X161755000Y-55355000D01*
%TO.N,SD_DataIn*%
X105750000Y-68652500D02*
X105740000Y-68642500D01*
X146300000Y-47625000D02*
X144635000Y-47625000D01*
X105750000Y-68652500D02*
X105750000Y-66840000D01*
X144635000Y-47625000D02*
X144630000Y-47630000D01*
%TO.N,Net-(J6-CLK)*%
X157475000Y-52105000D02*
X161755000Y-52105000D01*
X151725000Y-46355000D02*
X157475000Y-52105000D01*
X146300000Y-46355000D02*
X151725000Y-46355000D01*
%TO.N,CS*%
X142334999Y-43815000D02*
X143350000Y-44830001D01*
X108942500Y-66960000D02*
X107250000Y-68652500D01*
X135300000Y-61050000D02*
X121590000Y-61050000D01*
X121590000Y-61050000D02*
X115680000Y-66960000D01*
X141350000Y-43815000D02*
X142334999Y-43815000D01*
X143350000Y-53000000D02*
X135300000Y-61050000D01*
X143350000Y-44830001D02*
X143350000Y-53000000D01*
X115680000Y-66960000D02*
X108942500Y-66960000D01*
%TO.N,Net-(J6-CMD)*%
X138190000Y-47260001D02*
X138190000Y-48925000D01*
X160145000Y-49905000D02*
X161755000Y-49905000D01*
X142795000Y-45085000D02*
X142800000Y-45080000D01*
X141350000Y-45085000D02*
X142795000Y-45085000D01*
X141350000Y-45085000D02*
X140365001Y-45085000D01*
X160120000Y-49930000D02*
X160145000Y-49905000D01*
X140365001Y-45085000D02*
X138190000Y-47260001D01*
%TO.N,/Solar+Charging/Bat_power*%
X76040000Y-89860000D02*
X72710000Y-89860000D01*
X86957500Y-92655000D02*
X86957500Y-93955000D01*
X79020000Y-89370000D02*
X82305000Y-92655000D01*
D84*
X51030000Y-84670000D02*
X54060000Y-81640000D01*
D83*
X93770000Y-98720000D02*
X85950000Y-98720000D01*
X57020000Y-78680000D02*
X77980000Y-78680000D01*
X84810000Y-94850000D02*
X85705000Y-93955000D01*
X94850000Y-97640000D02*
X93770000Y-98720000D01*
X54060000Y-81640000D02*
X57020000Y-78680000D01*
X92682500Y-95255000D02*
X94625000Y-95255000D01*
D84*
X48940000Y-84670000D02*
X51030000Y-84670000D01*
D83*
X79020000Y-79720000D02*
X79020000Y-86880000D01*
X94850000Y-95480000D02*
X94850000Y-97640000D01*
X77980000Y-78680000D02*
X79020000Y-79720000D01*
X79020000Y-86880000D02*
X76040000Y-89860000D01*
X94625000Y-95255000D02*
X94850000Y-95480000D01*
X82305000Y-92655000D02*
X86957500Y-92655000D01*
X85950000Y-98720000D02*
X84810000Y-97580000D01*
X85705000Y-93955000D02*
X86957500Y-93955000D01*
X79020000Y-86880000D02*
X79020000Y-89370000D01*
X84810000Y-97580000D02*
X84810000Y-94850000D01*
%TO.N,Net-(J3-Pin_1)*%
X139080000Y-88765000D02*
X139080000Y-79360000D01*
X139080000Y-79360000D02*
X132060000Y-72340000D01*
X132060000Y-72340000D02*
X107937500Y-72340000D01*
%TO.N,+5V*%
D84*
X100470000Y-94170000D02*
X100470000Y-92760000D01*
X97410000Y-47985000D02*
X99165000Y-47985000D01*
X93600000Y-45700000D02*
X95125000Y-45700000D01*
X99165000Y-47985000D02*
X99170000Y-47990000D01*
X107920000Y-93600000D02*
X108850000Y-92670000D01*
X101275000Y-85405000D02*
X101260000Y-85390000D01*
X100470000Y-92760000D02*
X100480000Y-92750000D01*
X94155000Y-56795000D02*
X94140000Y-56810000D01*
X121830000Y-86700000D02*
X121820000Y-86690000D01*
X114125000Y-96185000D02*
X112605000Y-96185000D01*
X107920000Y-94485000D02*
X107920000Y-93600000D01*
D83*
X107900000Y-94760000D02*
X107900000Y-95005000D01*
D84*
X147857500Y-81780000D02*
X146360000Y-81780000D01*
X112605000Y-96185000D02*
X112560000Y-96230000D01*
X121830000Y-88292500D02*
X121830000Y-86700000D01*
X103365000Y-85405000D02*
X101275000Y-85405000D01*
X94155000Y-54650000D02*
X94155000Y-56795000D01*
D83*
X107900000Y-94420000D02*
X107900000Y-95005000D01*
D84*
X95125000Y-45700000D02*
X97410000Y-47985000D01*
%TO.N,RTC_SCL*%
D83*
X66550000Y-63980000D02*
X66550000Y-66387500D01*
X140840000Y-92020000D02*
X140830000Y-92010000D01*
X107937500Y-71840000D02*
X132680000Y-71840000D01*
X96857500Y-87397500D02*
X98240000Y-88780000D01*
X94597500Y-87335000D02*
X94660000Y-87397500D01*
D86*
X67587500Y-66387500D02*
X68440000Y-67240000D01*
D83*
X143890000Y-83050000D02*
X143890000Y-91050000D01*
D86*
X92152500Y-84890000D02*
X84650000Y-84890000D01*
D83*
X67650000Y-62880000D02*
X66550000Y-63980000D01*
D86*
X66550000Y-66387500D02*
X67587500Y-66387500D01*
D83*
X94660000Y-87397500D02*
X96857500Y-87397500D01*
X142920000Y-92020000D02*
X140840000Y-92020000D01*
X143890000Y-91050000D02*
X142920000Y-92020000D01*
D86*
X94660000Y-87397500D02*
X92152500Y-84890000D01*
D83*
X132680000Y-71840000D02*
X143890000Y-83050000D01*
%TO.N,Net-(U7-ILIM{slash}VSET)*%
X70360001Y-89010000D02*
X70610000Y-89010000D01*
X69230000Y-81802500D02*
X69230000Y-87879999D01*
X69230000Y-87879999D02*
X70360001Y-89010000D01*
%TO.N,Net-(D5-K)*%
X76000000Y-82657500D02*
X76000000Y-85397500D01*
%TO.N,Net-(U7-STAT2)*%
X73812500Y-89410000D02*
X72710000Y-89410000D01*
X76000000Y-87222500D02*
X73812500Y-89410000D01*
%TO.N,Net-(U2-NRST)*%
X45860000Y-78890000D02*
X50495000Y-78890000D01*
X86235000Y-77785000D02*
X93180000Y-70840000D01*
X51600000Y-77785000D02*
X86235000Y-77785000D01*
X50495000Y-78890000D02*
X51600000Y-77785000D01*
X93180000Y-70840000D02*
X103062500Y-70840000D01*
%TO.N,/Solar_power*%
D84*
X48940000Y-94020000D02*
X52940000Y-94020000D01*
%TO.N,CD*%
D83*
X106250000Y-73527500D02*
X106250000Y-74308273D01*
X106250000Y-74308273D02*
X106449265Y-74507538D01*
X157780000Y-48810000D02*
X159360000Y-48810000D01*
X159365000Y-48805000D02*
X161755000Y-48805000D01*
X159360000Y-48810000D02*
X159365000Y-48805000D01*
X106449265Y-74507538D02*
X106449265Y-75240735D01*
%TO.N,SD_DataOut*%
X110874314Y-62110000D02*
X117540000Y-62110000D01*
X106350000Y-67590000D02*
X106350000Y-66634314D01*
X155025000Y-54305000D02*
X153930000Y-53210000D01*
X106350000Y-66634314D02*
X110874314Y-62110000D01*
X139197818Y-57930000D02*
X139173909Y-57953909D01*
X161755000Y-54305000D02*
X155025000Y-54305000D01*
X106250000Y-67690000D02*
X106350000Y-67590000D01*
X106250000Y-68652500D02*
X106250000Y-67690000D01*
X141600000Y-57930000D02*
X139197818Y-57930000D01*
X117540000Y-62110000D02*
X120450000Y-59200000D01*
%TO.N,Net-(D7-K)*%
X63520000Y-96010000D02*
X69320000Y-90210000D01*
X60390000Y-96010000D02*
X63520000Y-96010000D01*
X54340000Y-94020000D02*
X58400000Y-94020000D01*
X69320000Y-90210000D02*
X70610000Y-90210000D01*
X58400000Y-94020000D02*
X60390000Y-96010000D01*
%TO.N,Net-(SW5-A)*%
X115620000Y-93420000D02*
X110887500Y-93420000D01*
X107970000Y-92120000D02*
X107970000Y-90502500D01*
X116602500Y-91185000D02*
X116602500Y-92437500D01*
X105605000Y-94485000D02*
X104920000Y-94485000D01*
X110887500Y-93420000D02*
X107970000Y-90502500D01*
X107970000Y-92120000D02*
X105605000Y-94485000D01*
X116602500Y-92437500D02*
X115620000Y-93420000D01*
X104900000Y-95005000D02*
X104900000Y-94695000D01*
%TO.N,Net-(U9-FB)*%
X117360000Y-87447500D02*
X116202500Y-87447500D01*
X110452500Y-91185000D02*
X114777500Y-91185000D01*
X114777500Y-88872500D02*
X114777500Y-91185000D01*
X116202500Y-87447500D02*
X114777500Y-88872500D01*
X108170000Y-88902500D02*
X110452500Y-91185000D01*
%TO.N,Net-(D1-K)*%
X88670000Y-56695000D02*
X88740000Y-56625000D01*
X88740000Y-56660000D02*
X85267500Y-56660000D01*
%TO.N,Net-(U7-ISET)*%
X65800000Y-83610000D02*
X64180000Y-81990000D01*
X65800000Y-85520000D02*
X65800000Y-83610000D01*
X70610000Y-89410000D02*
X69690000Y-89410000D01*
X69690000Y-89410000D02*
X65800000Y-85520000D01*
%TO.N,Net-(D2-A)*%
X121832500Y-89695000D02*
X121830000Y-89692500D01*
X121830000Y-95785000D02*
X121930000Y-95885000D01*
X121830000Y-89692500D02*
X126107500Y-89692500D01*
X126107500Y-89692500D02*
X126110000Y-89695000D01*
X121830000Y-89692500D02*
X121830000Y-95785000D01*
%TO.N,Temp_SCL*%
X105250000Y-68652500D02*
X105200000Y-68602500D01*
X157525000Y-72210000D02*
X154900000Y-72210000D01*
X105200000Y-68602500D02*
X105200000Y-66100000D01*
X153230000Y-73880000D02*
X139620000Y-73880000D01*
X154900000Y-72210000D02*
X153230000Y-73880000D01*
X175687500Y-71272500D02*
X175029594Y-71930406D01*
X105200000Y-66100000D02*
X110350000Y-60950000D01*
X175029594Y-71930406D02*
X172670000Y-71930406D01*
X177265000Y-72830000D02*
X177255000Y-72840000D01*
X139620000Y-73880000D02*
X127460000Y-61720000D01*
X127460000Y-61720000D02*
X127460000Y-61610000D01*
X177255000Y-72840000D02*
X175687500Y-71272500D01*
X110350000Y-60950000D02*
X113970000Y-60950000D01*
X179350000Y-72830000D02*
X177265000Y-72830000D01*
%TO.N,Temp_SDA*%
X173360000Y-70920000D02*
X172425000Y-70920000D01*
X110150000Y-60280000D02*
X113200000Y-60280000D01*
X137350000Y-60290000D02*
X143970000Y-60290000D01*
X113200000Y-60280000D02*
X113230000Y-60310000D01*
X177480000Y-67630000D02*
X179350000Y-67630000D01*
X174857500Y-69422500D02*
X173360000Y-70920000D01*
X175687500Y-69422500D02*
X174857500Y-69422500D01*
X104750000Y-68652500D02*
X104750000Y-65680000D01*
X143970000Y-60290000D02*
X154890000Y-71210000D01*
X104750000Y-65680000D02*
X110150000Y-60280000D01*
X137220000Y-60260000D02*
X137320000Y-60260000D01*
X154890000Y-71210000D02*
X157525000Y-71210000D01*
X175687500Y-69422500D02*
X177480000Y-67630000D01*
X137320000Y-60260000D02*
X137350000Y-60290000D01*
%TO.N,Net-(BT1-+)*%
X67650000Y-60340000D02*
X69970000Y-60340000D01*
X64410000Y-67030256D02*
X64410000Y-61600000D01*
X60365000Y-45905000D02*
X60365000Y-45210000D01*
X66580000Y-52120000D02*
X60365000Y-45905000D01*
X60560256Y-70880000D02*
X64410000Y-67030256D01*
X71300000Y-54550000D02*
X68890000Y-52140000D01*
X66580000Y-52140000D02*
X66580000Y-52120000D01*
X52903756Y-45210000D02*
X52833756Y-45280000D01*
X71300000Y-59010000D02*
X71300000Y-54550000D01*
X68890000Y-52140000D02*
X66580000Y-52140000D01*
X52833756Y-70880000D02*
X60560256Y-70880000D01*
X52010000Y-45210000D02*
X51990000Y-45230000D01*
X60365000Y-45210000D02*
X52903756Y-45210000D01*
X65670000Y-60340000D02*
X67650000Y-60340000D01*
X69970000Y-60340000D02*
X71300000Y-59010000D01*
X64410000Y-61600000D02*
X65670000Y-60340000D01*
%TO.N,Net-(D3-A)*%
X152400000Y-81780000D02*
X151157500Y-81780000D01*
X153000000Y-88029999D02*
X153000000Y-82380000D01*
X156220000Y-93480000D02*
X155500000Y-94200000D01*
X154945000Y-89400000D02*
X154370001Y-89400000D01*
X153000000Y-82380000D02*
X152400000Y-81780000D01*
X154370001Y-89400000D02*
X153000000Y-88029999D01*
X155500000Y-94200000D02*
X154945000Y-94200000D01*
X155402410Y-89400000D02*
X156220000Y-90217590D01*
X154945000Y-89400000D02*
X155402410Y-89400000D01*
X156220000Y-90217590D02*
X156220000Y-93480000D01*
%TO.N,Net-(J5-CC1)*%
X151502500Y-96170000D02*
X151502500Y-94417500D01*
X152890000Y-93050000D02*
X154945000Y-93050000D01*
X152880000Y-93040000D02*
X152890000Y-93050000D01*
X151502500Y-94417500D02*
X152880000Y-93040000D01*
%TO.N,Net-(J5-D+-PadA6)*%
X155552410Y-91050000D02*
X155820000Y-91317590D01*
X148532500Y-91412500D02*
X149170000Y-92050000D01*
X149170000Y-92050000D02*
X154945000Y-92050000D01*
X155552410Y-92050000D02*
X154945000Y-92050000D01*
X154945000Y-91050000D02*
X155552410Y-91050000D01*
X155820000Y-91782410D02*
X155552410Y-92050000D01*
X155820000Y-91317590D02*
X155820000Y-91782410D01*
%TO.N,Net-(J5-D--PadA7)*%
X151970000Y-93070000D02*
X148602501Y-93070000D01*
X152620000Y-91550000D02*
X154945000Y-91550000D01*
X148562501Y-90570000D02*
X151640000Y-90570000D01*
X148032500Y-92499999D02*
X148032500Y-92187500D01*
X154945000Y-92550000D02*
X152490000Y-92550000D01*
X152490000Y-92550000D02*
X151970000Y-93070000D01*
X148032500Y-91412500D02*
X148032500Y-92187500D01*
X151640000Y-90570000D02*
X152620000Y-91550000D01*
X148032500Y-91412500D02*
X148032500Y-91100001D01*
X148032500Y-91100001D02*
X148562501Y-90570000D01*
X148602501Y-93070000D02*
X148032500Y-92499999D01*
%TO.N,Net-(J5-CC2)*%
X154122500Y-90050000D02*
X151502500Y-87430000D01*
X154945000Y-90050000D02*
X154122500Y-90050000D01*
%TO.N,Net-(U9-SW)*%
X102580000Y-90930000D02*
X100720000Y-90930000D01*
X103980000Y-92330000D02*
X102580000Y-90930000D01*
X106540000Y-92330000D02*
X103980000Y-92330000D01*
X107420000Y-91450000D02*
X106540000Y-92330000D01*
X107420000Y-90352500D02*
X107420000Y-91450000D01*
%TO.N,Net-(U9-EN)*%
X111387500Y-87850000D02*
X108483114Y-87850000D01*
X108483114Y-87850000D02*
X107670000Y-88663114D01*
X107670000Y-88663114D02*
X107670000Y-88902500D01*
%TO.N,V+*%
X109910000Y-82570000D02*
X102330000Y-82570000D01*
X67975000Y-94695000D02*
X67960000Y-94680000D01*
X100130000Y-84770000D02*
X100130000Y-87540000D01*
X113212500Y-85872500D02*
X109910000Y-82570000D01*
X106670000Y-88663114D02*
X107768114Y-87565000D01*
X108202428Y-87565000D02*
X109177428Y-86590000D01*
X69930000Y-94695000D02*
X72710000Y-91915000D01*
X100720000Y-88130000D02*
X99340000Y-88130000D01*
X113212500Y-87850000D02*
X113212500Y-85872500D01*
X76000000Y-81082500D02*
X76000000Y-79840000D01*
X102330000Y-82570000D02*
X100130000Y-84770000D01*
X100130000Y-87540000D02*
X100720000Y-88130000D01*
X99340000Y-88130000D02*
X93440000Y-82230000D01*
X109177428Y-86590000D02*
X111952500Y-86590000D01*
X69930000Y-94695000D02*
X67975000Y-94695000D01*
X82180000Y-82230000D02*
X80660000Y-80710000D01*
X93440000Y-82230000D02*
X82180000Y-82230000D01*
X107768114Y-87565000D02*
X108202428Y-87565000D01*
X72710000Y-91915000D02*
X72710000Y-90260000D01*
X59210000Y-89180000D02*
X59210000Y-87840000D01*
X111952500Y-86590000D02*
X113212500Y-87850000D01*
X76000000Y-79840000D02*
X76020000Y-79820000D01*
X106670000Y-88902500D02*
X106670000Y-88663114D01*
%TO.N,Net-(J9-Pin_1)*%
X110880000Y-79360000D02*
X113590000Y-82070000D01*
X103750000Y-76680000D02*
X103750000Y-73527500D01*
X128575000Y-95885000D02*
X130300000Y-94160000D01*
X127010000Y-95885000D02*
X128575000Y-95885000D01*
X130300000Y-84820000D02*
X127550000Y-82070000D01*
X106430000Y-79360000D02*
X103750000Y-76680000D01*
X106430000Y-79360000D02*
X110880000Y-79360000D01*
X127550000Y-82070000D02*
X113590000Y-82070000D01*
X130300000Y-94160000D02*
X130300000Y-84820000D01*
%TO.N,RTC_SDA*%
X142790000Y-94480000D02*
X141470000Y-94480000D01*
X144960000Y-92310000D02*
X144960000Y-83000000D01*
X89540000Y-87335000D02*
X90985000Y-87335000D01*
X144960000Y-83000000D02*
X133300000Y-71340000D01*
X141470000Y-94480000D02*
X141490000Y-94460000D01*
D86*
X89540000Y-87335000D02*
X89540000Y-85910000D01*
D83*
X133300000Y-71340000D02*
X107937500Y-71340000D01*
X68674999Y-61610000D02*
X71450000Y-64385001D01*
X71450000Y-64385001D02*
X71450000Y-66387500D01*
D86*
X72017500Y-66387500D02*
X73440000Y-67810000D01*
D83*
X67650000Y-61610000D02*
X68674999Y-61610000D01*
D86*
X71450000Y-66387500D02*
X72017500Y-66387500D01*
D83*
X90985000Y-87335000D02*
X92530000Y-88880000D01*
X144960000Y-92310000D02*
X142790000Y-94480000D01*
%TO.N,Net-(D4-K)*%
X138190000Y-52492500D02*
X138150000Y-52532500D01*
X138190000Y-50750000D02*
X138190000Y-52492500D01*
%TO.N,Net-(D6-K)*%
X59305000Y-90850000D02*
X59210000Y-90755000D01*
X64075000Y-90755000D02*
X64080000Y-90760000D01*
X59210000Y-90755000D02*
X64075000Y-90755000D01*
%TO.N,Net-(D8-K)*%
X107892500Y-85410000D02*
X105195000Y-85410000D01*
X105195000Y-85410000D02*
X105190000Y-85405000D01*
%TO.N,Net-(U7-STAT1)*%
X68680000Y-89810000D02*
X70610000Y-89810000D01*
X67805000Y-88935000D02*
X68680000Y-89810000D01*
X64080000Y-88935000D02*
X67805000Y-88935000D01*
%TO.N,Net-(J1-Pin_2)*%
D86*
X103062500Y-69840000D02*
X101800000Y-69840000D01*
X101800000Y-69840000D02*
X101750000Y-69890000D01*
%TO.N,Net-(J1-Pin_3)*%
D83*
X103062500Y-70340000D02*
X102077818Y-70340000D01*
X101977818Y-70440000D02*
X101300000Y-70440000D01*
X102077818Y-70340000D02*
X101977818Y-70440000D01*
X101300000Y-70440000D02*
X100990000Y-70130000D01*
%TO.N,/RTC/sqw*%
X74892500Y-65150000D02*
X74892500Y-61372501D01*
X74892500Y-65150000D02*
X76130000Y-66387500D01*
X75925001Y-60340000D02*
X76950000Y-60340000D01*
X74892500Y-61372501D02*
X75925001Y-60340000D01*
%TO.N,SWCLK*%
X107937500Y-69340000D02*
X108390000Y-69340000D01*
X108390000Y-69340000D02*
X109290000Y-68440000D01*
%TO.N,SWDIO*%
X107937500Y-69840000D02*
X108880000Y-69840000D01*
X108880000Y-69840000D02*
X109400000Y-69320000D01*
%TO.N,Net-(J4-Pin_6)*%
X128790000Y-78810000D02*
X128790000Y-82130000D01*
X103062500Y-72340000D02*
X102090000Y-72340000D01*
X102090000Y-72340000D02*
X101670000Y-72760000D01*
%TO.N,Net-(U2-PA2)*%
X102450000Y-72840000D02*
X102140000Y-73150000D01*
X102140000Y-73150000D02*
X102140000Y-75910000D01*
X109980000Y-80760000D02*
X113640000Y-84420000D01*
X103062500Y-72840000D02*
X102450000Y-72840000D01*
X106990000Y-80760000D02*
X109980000Y-80760000D01*
X113640000Y-84420000D02*
X125227500Y-84420000D01*
X102140000Y-75910000D02*
X106990000Y-80760000D01*
%TO.N,Net-(J4-Pin_5)*%
X104250000Y-73527500D02*
X104250000Y-75760000D01*
X104250000Y-75760000D02*
X104300000Y-75810000D01*
X126250000Y-81050000D02*
X126250000Y-78810000D01*
%TO.N,Net-(J4-Pin_4)*%
X104850000Y-76037818D02*
X104850000Y-75582182D01*
X104750000Y-75482182D02*
X104750000Y-73527500D01*
X104850000Y-75582182D02*
X104750000Y-75482182D01*
X111300000Y-78330000D02*
X106660000Y-78330000D01*
X104750000Y-76420000D02*
X104750000Y-76137818D01*
X104750000Y-76137818D02*
X104850000Y-76037818D01*
X106660000Y-78330000D02*
X104750000Y-76420000D01*
X123710000Y-78810000D02*
X121240000Y-81280000D01*
X114250000Y-81280000D02*
X111300000Y-78330000D01*
X121240000Y-81280000D02*
X114250000Y-81280000D01*
%TO.N,Net-(J4-Pin_3)*%
X105250000Y-75600000D02*
X106990000Y-77340000D01*
X119700000Y-77340000D02*
X121170000Y-78810000D01*
X105250000Y-73527500D02*
X105250000Y-75600000D01*
X106990000Y-77340000D02*
X119700000Y-77340000D01*
%TO.N,Net-(J4-Pin_2)*%
X105750000Y-74586091D02*
X105800000Y-74636091D01*
X105750000Y-73527500D02*
X105750000Y-74586091D01*
%TO.N,Data-*%
X134070000Y-70840000D02*
X107937500Y-70840000D01*
X147032500Y-83802500D02*
X134070000Y-70840000D01*
X147032500Y-91412500D02*
X147032500Y-83802500D01*
%TO.N,Data+*%
X109220000Y-70340000D02*
X109270000Y-70290000D01*
X146482500Y-84220000D02*
X146532500Y-84270000D01*
X146532500Y-84270000D02*
X146532500Y-91412500D01*
X107937500Y-70340000D02*
X109220000Y-70340000D01*
%TO.N,Net-(U8-SDA)*%
X89540000Y-95359999D02*
X89540000Y-89160000D01*
X87694999Y-97205000D02*
X89540000Y-95359999D01*
X86957500Y-97205000D02*
X87694999Y-97205000D01*
%TO.N,Net-(U8-SCL)*%
X92682500Y-97205000D02*
X91945001Y-97205000D01*
X90510000Y-93372500D02*
X94660000Y-89222500D01*
X90510000Y-95769999D02*
X90510000Y-93372500D01*
X91945001Y-97205000D02*
X90510000Y-95769999D01*
%TO.N,Net-(Q1-B)*%
X127052500Y-87812500D02*
X127060000Y-87820000D01*
X127072500Y-87807500D02*
X127060000Y-87820000D01*
X127052500Y-84420000D02*
X127052500Y-87812500D01*
%TO.N,Net-(U7-TS{slash}MR)*%
X70597500Y-88597500D02*
X70610000Y-88610000D01*
X70597500Y-85770000D02*
X70597500Y-88597500D01*
%TD*%
M02*
