M48
; DRILL file KiCad 10.0.1 date 2026-06-30T14:04:53
; FORMAT={-:-/ absolute / metric / decimal}
; #@! TF.CreationDate,2026-06-30T14:04:53-04:00
; #@! TF.GenerationSoftware,Kicad,Pcbnew,10.0.1
; #@! TF.FileFunction,MixedPlating,1,4
FMAT,2
METRIC
; #@! TA.AperFunction,Plated,PTH,ComponentDrill
T1C0.200
; #@! TA.AperFunction,Plated,PTH,ViaDrill
T2C0.300
; #@! TA.AperFunction,Plated,PTH,ViaDrill
T3C0.400
; #@! TA.AperFunction,Plated,PTH,ComponentDrill
T4C0.600
; #@! TA.AperFunction,Plated,PTH,ComponentDrill
T5C0.750
; #@! TA.AperFunction,Plated,PTH,ComponentDrill
T6C1.000
; #@! TA.AperFunction,Plated,PTH,ComponentDrill
T7C1.190
; #@! TA.AperFunction,NonPlated,NPTH,ComponentDrill
T8C0.500
; #@! TA.AperFunction,NonPlated,NPTH,ComponentDrill
T9C0.650
; #@! TA.AperFunction,NonPlated,NPTH,ComponentDrill
T10C0.900
; #@! TA.AperFunction,NonPlated,NPTH,ComponentDrill
T11C2.200
%
G90
G05
T1
X71.66Y-88.91
X71.66Y-89.91
X104.9Y-70.49
X104.9Y-71.69
X106.1Y-70.49
X106.1Y-71.69
T2
X53.5Y-76.23
X56.23Y-84.59
X58.46Y-97.6
X59.21Y-87.84
X62.22Y-85.5
X62.5Y-80.12
X66.54Y-69.58
X67.45Y-79.95
X67.96Y-94.68
X68.44Y-67.24
X69.71Y-59.05
X71.43Y-69.65
X71.72Y-97.62
X72.86Y-46.5
X73.44Y-67.81
X73.89Y-85.77
X76.02Y-79.82
X76.13Y-69.67
X79.85Y-50.52
X80.66Y-80.71
X81.24Y-45.29
X81.27Y-69.21
X82.45Y-56.66
X82.65Y-66.3
X83.63Y-96.23
X84.28Y-52.45
X84.3Y-46.79
X84.65Y-84.89
X85.37Y-95.2
X85.5Y-69.4
X85.68Y-89.89
X87.245Y-65.775
X87.3Y-52.86
X89.54Y-85.91
X91.06Y-94.78
X92.05Y-56.63
X92.53Y-88.88
X93.62Y-52.35
X94.25Y-96.56
X94.61Y-73.21
X95.96Y-97.99
X97.37Y-50.97
X97.83Y-94.35
X97.94Y-63.05
X98.24Y-88.78
X98.51Y-97.08
X98.67Y-54.65
X100.99Y-70.13
X101.45Y-68.02
X101.67Y-72.76
X101.75Y-69.89
X103.59Y-62.73
X104.3Y-75.81
X105.75Y-66.84
X105.8Y-74.636
X106.449Y-75.241
X108.93Y-74.2
X109.27Y-70.29
X109.29Y-68.44
X109.4Y-69.32
X109.97Y-49.35
X110.54Y-65.22
X110.78Y-85.43
X111.84Y-73.54
X113.21Y-55.87
X113.23Y-60.31
X113.97Y-60.95
X114.7Y-74.96
X115.23Y-64.75
X115.33Y-85.62
X118.51Y-96.16
X120.45Y-59.2
X123.94Y-86.58
X126.25Y-81.05
X127.46Y-61.61
X128.79Y-82.13
X131.33Y-73.5
X137.22Y-60.26
X138.13Y-55.56
X139.174Y-57.954
X139.33Y-47.4
X139.6Y-55.24
X140.83Y-92.01
X141.26Y-56.34
X141.47Y-94.48
X141.6Y-57.93
X142.8Y-45.08
X143.91Y-57.525
X144.21Y-43.84
X144.63Y-47.63
X146.482Y-84.22
X146.59Y-93.87
X147.582Y-89.43
X148.13Y-96.15
X148.53Y-52.08
X149.7Y-85.73
X150.92Y-58.56
X152.62Y-48.57
X153.05Y-95.99
X153.55Y-87.64
X153.93Y-53.21
X155.35Y-69.22
X155.55Y-70.21
X157.78Y-48.81
X158.96Y-51.0
X159.31Y-45.25
X160.12Y-49.93
X171.14Y-69.92
X174.75Y-68.4
X177.85Y-69.41
X178.13Y-71.27
X181.15Y-74.74
X181.17Y-69.28
T3
X80.47Y-94.57
X82.71Y-88.24
X89.56Y-52.76
X94.14Y-56.81
X99.17Y-47.99
X100.48Y-92.75
X101.26Y-85.39
X101.4Y-74.02
X108.85Y-92.67
X112.56Y-96.23
X121.82Y-86.69
X146.36Y-81.78
T5
X48.94Y-84.67
X48.94Y-86.67
X48.94Y-94.02
X48.94Y-96.02
T6
X116.09Y-78.81
X118.63Y-78.81
X119.98Y-44.52
X121.17Y-78.81
X122.52Y-44.52
X123.71Y-78.81
X125.06Y-44.52
X126.01Y-64.38
X126.01Y-66.92
X126.25Y-78.81
X127.6Y-44.52
X128.79Y-78.81
X130.14Y-44.52
X131.33Y-78.81
X132.68Y-44.52
X133.87Y-78.81
X134.0Y-88.765
X136.54Y-88.765
X139.08Y-88.765
T7
X121.93Y-95.885
X124.47Y-95.885
X127.01Y-95.885
T8
X163.44Y-62.54
X163.44Y-63.39
X163.44Y-64.24
X163.44Y-65.09
X163.44Y-65.94
X163.44Y-66.79
X163.44Y-67.64
X163.44Y-68.49
X163.44Y-69.34
X163.44Y-70.19
X163.44Y-71.04
X163.44Y-71.89
X163.44Y-72.74
X163.44Y-73.59
X163.44Y-74.44
X163.44Y-75.29
X163.44Y-76.14
X163.44Y-76.99
X163.44Y-77.84
X163.44Y-78.69
X163.44Y-79.54
X163.44Y-80.39
X166.79Y-71.86
X166.79Y-72.71
X166.79Y-73.56
X166.79Y-74.41
X166.79Y-75.26
X166.79Y-76.11
X166.79Y-76.96
X166.79Y-77.81
X166.79Y-78.66
X166.79Y-79.51
X166.79Y-80.36
X166.8Y-62.51
X166.8Y-63.36
X166.8Y-64.21
X166.8Y-65.06
X166.8Y-65.91
X166.8Y-66.76
X166.8Y-67.61
X166.8Y-68.46
X166.8Y-69.31
X166.8Y-70.16
X166.8Y-71.01
T9
X156.06Y-88.89
X156.06Y-94.67
T10
X105.67Y-96.245
X108.67Y-96.245
X110.73Y-45.24
X113.73Y-45.24
T11
X76.41Y-93.32
X76.46Y-48.18
X150.71Y-70.75
X176.035Y-62.09
X176.055Y-79.6
T4
G00X155.01Y-87.46
M15
G01X156.11Y-87.46
M16
G05
G00X155.01Y-96.1
M15
G01X156.11Y-96.1
M16
G05
G00X159.34Y-87.46
M15
G01X160.14Y-87.46
M16
G05
G00X159.34Y-96.1
M15
G01X160.14Y-96.1
M16
G05
M30
