%TF.GenerationSoftware,KiCad,Pcbnew,10.0.1*%
%TF.CreationDate,2026-06-30T14:04:32-04:00*%
%TF.ProjectId,DosingPCB,446f7369-6e67-4504-9342-2e6b69636164,rev?*%
%TF.SameCoordinates,Original*%
%TF.FileFunction,Paste,Top*%
%TF.FilePolarity,Positive*%
%FSLAX46Y46*%
G04 Gerber Fmt 4.6, Leading zero omitted, Abs format (unit mm)*
G04 Created by KiCad (PCBNEW 10.0.1) date 2026-06-30 14:04:32*
%MOMM*%
%LPD*%
G01*
G04 APERTURE LIST*
G04 Aperture macros list*
%AMRoundRect*
0 Rectangle with rounded corners*
0 $1 Rounding radius*
0 $2 $3 $4 $5 $6 $7 $8 $9 X,Y pos of 4 corners*
0 Add a 4 corners polygon primitive as box body*
4,1,4,$2,$3,$4,$5,$6,$7,$8,$9,$2,$3,0*
0 Add four circle primitives for the rounded corners*
1,1,$1+$1,$2,$3*
1,1,$1+$1,$4,$5*
1,1,$1+$1,$6,$7*
1,1,$1+$1,$8,$9*
0 Add four rect primitives between the rounded corners*
20,1,$1+$1,$2,$3,$4,$5,0*
20,1,$1+$1,$4,$5,$6,$7,0*
20,1,$1+$1,$6,$7,$8,$9,0*
20,1,$1+$1,$8,$9,$2,$3,0*%
G04 Aperture macros list end*
%ADD10C,0.010000*%
%ADD11R,1.000000X0.800000*%
%ADD12R,0.700000X1.500000*%
%ADD13RoundRect,0.200000X0.200000X0.800000X-0.200000X0.800000X-0.200000X-0.800000X0.200000X-0.800000X0*%
%ADD14RoundRect,0.075000X0.910000X0.225000X-0.910000X0.225000X-0.910000X-0.225000X0.910000X-0.225000X0*%
%ADD15RoundRect,0.250000X0.650000X-0.325000X0.650000X0.325000X-0.650000X0.325000X-0.650000X-0.325000X0*%
%ADD16RoundRect,0.250000X0.450000X-0.262500X0.450000X0.262500X-0.450000X0.262500X-0.450000X-0.262500X0*%
%ADD17RoundRect,0.250000X-0.450000X0.262500X-0.450000X-0.262500X0.450000X-0.262500X0.450000X0.262500X0*%
%ADD18RoundRect,0.225000X-0.250000X0.225000X-0.250000X-0.225000X0.250000X-0.225000X0.250000X0.225000X0*%
%ADD19R,1.100000X0.850000*%
%ADD20R,1.100000X0.750000*%
%ADD21R,1.000000X1.200000*%
%ADD22R,1.350000X1.550000*%
%ADD23R,1.350000X1.900000*%
%ADD24R,1.800000X1.170000*%
%ADD25RoundRect,0.250000X0.250000X0.475000X-0.250000X0.475000X-0.250000X-0.475000X0.250000X-0.475000X0*%
%ADD26RoundRect,0.250000X0.262500X0.450000X-0.262500X0.450000X-0.262500X-0.450000X0.262500X-0.450000X0*%
%ADD27RoundRect,0.250000X-0.262500X-0.450000X0.262500X-0.450000X0.262500X0.450000X-0.262500X0.450000X0*%
%ADD28RoundRect,0.150000X0.200000X-0.150000X0.200000X0.150000X-0.200000X0.150000X-0.200000X-0.150000X0*%
%ADD29RoundRect,0.150000X0.625000X-0.150000X0.625000X0.150000X-0.625000X0.150000X-0.625000X-0.150000X0*%
%ADD30RoundRect,0.250000X0.650000X-0.350000X0.650000X0.350000X-0.650000X0.350000X-0.650000X-0.350000X0*%
%ADD31RoundRect,0.225000X0.225000X0.250000X-0.225000X0.250000X-0.225000X-0.250000X0.225000X-0.250000X0*%
%ADD32RoundRect,0.150000X0.425000X-0.150000X0.425000X0.150000X-0.425000X0.150000X-0.425000X-0.150000X0*%
%ADD33RoundRect,0.075000X0.500000X-0.075000X0.500000X0.075000X-0.500000X0.075000X-0.500000X-0.075000X0*%
%ADD34O,2.100000X1.000000*%
%ADD35O,1.800000X1.000000*%
%ADD36RoundRect,0.087500X0.087500X-0.150000X0.087500X0.150000X-0.087500X0.150000X-0.087500X-0.150000X0*%
%ADD37RoundRect,0.050000X0.050000X-0.262500X0.050000X0.262500X-0.050000X0.262500X-0.050000X-0.262500X0*%
%ADD38RoundRect,0.062500X0.062500X-0.162500X0.062500X0.162500X-0.062500X0.162500X-0.062500X-0.162500X0*%
%ADD39RoundRect,0.225000X-0.225000X-0.250000X0.225000X-0.250000X0.225000X0.250000X-0.225000X0.250000X0*%
%ADD40RoundRect,0.250000X-0.250000X-0.475000X0.250000X-0.475000X0.250000X0.475000X-0.250000X0.475000X0*%
%ADD41RoundRect,0.218750X-0.256250X0.218750X-0.256250X-0.218750X0.256250X-0.218750X0.256250X0.218750X0*%
%ADD42RoundRect,0.218750X0.256250X-0.218750X0.256250X0.218750X-0.256250X0.218750X-0.256250X-0.218750X0*%
%ADD43RoundRect,0.052000X0.198000X0.048000X-0.198000X0.048000X-0.198000X-0.048000X0.198000X-0.048000X0*%
%ADD44RoundRect,0.150000X-0.150000X-0.200000X0.150000X-0.200000X0.150000X0.200000X-0.150000X0.200000X0*%
%ADD45RoundRect,0.087500X-0.087500X0.187500X-0.087500X-0.187500X0.087500X-0.187500X0.087500X0.187500X0*%
%ADD46RoundRect,0.125000X-0.575000X0.125000X-0.575000X-0.125000X0.575000X-0.125000X0.575000X0.125000X0*%
%ADD47RoundRect,0.087500X0.087500X-0.187500X0.087500X0.187500X-0.087500X0.187500X-0.087500X-0.187500X0*%
%ADD48RoundRect,0.225000X0.250000X-0.225000X0.250000X0.225000X-0.250000X0.225000X-0.250000X-0.225000X0*%
%ADD49RoundRect,0.150000X0.875000X0.150000X-0.875000X0.150000X-0.875000X-0.150000X0.875000X-0.150000X0*%
%ADD50RoundRect,0.232500X-0.232500X-0.232500X0.232500X-0.232500X0.232500X0.232500X-0.232500X0.232500X0*%
%ADD51RoundRect,0.062500X-0.375000X-0.062500X0.375000X-0.062500X0.375000X0.062500X-0.375000X0.062500X0*%
%ADD52RoundRect,0.062500X-0.062500X-0.375000X0.062500X-0.375000X0.062500X0.375000X-0.062500X0.375000X0*%
%ADD53RoundRect,0.225000X-0.225000X-0.375000X0.225000X-0.375000X0.225000X0.375000X-0.225000X0.375000X0*%
%ADD54RoundRect,0.062500X-0.062500X0.250000X-0.062500X-0.250000X0.062500X-0.250000X0.062500X0.250000X0*%
%ADD55RoundRect,0.112500X-0.112500X0.237500X-0.112500X-0.237500X0.112500X-0.237500X0.112500X0.237500X0*%
%ADD56RoundRect,0.112500X-0.112500X0.175000X-0.112500X-0.175000X0.112500X-0.175000X0.112500X0.175000X0*%
%ADD57RoundRect,0.100000X-0.637500X-0.100000X0.637500X-0.100000X0.637500X0.100000X-0.637500X0.100000X0*%
%ADD58RoundRect,0.250000X0.325000X0.650000X-0.325000X0.650000X-0.325000X-0.650000X0.325000X-0.650000X0*%
%ADD59R,5.100000X5.100000*%
%ADD60RoundRect,0.200000X-0.800000X0.200000X-0.800000X-0.200000X0.800000X-0.200000X0.800000X0.200000X0*%
%ADD61RoundRect,0.250000X-0.325000X-0.650000X0.325000X-0.650000X0.325000X0.650000X-0.325000X0.650000X0*%
%ADD62RoundRect,0.250000X-1.075000X0.375000X-1.075000X-0.375000X1.075000X-0.375000X1.075000X0.375000X0*%
%ADD63RoundRect,0.250000X0.475000X-0.250000X0.475000X0.250000X-0.475000X0.250000X-0.475000X-0.250000X0*%
%ADD64RoundRect,0.150000X-0.625000X0.150000X-0.625000X-0.150000X0.625000X-0.150000X0.625000X0.150000X0*%
%ADD65RoundRect,0.250000X-0.650000X0.350000X-0.650000X-0.350000X0.650000X-0.350000X0.650000X0.350000X0*%
%ADD66RoundRect,0.218750X-0.218750X-0.256250X0.218750X-0.256250X0.218750X0.256250X-0.218750X0.256250X0*%
%ADD67RoundRect,0.218750X0.218750X0.256250X-0.218750X0.256250X-0.218750X-0.256250X0.218750X-0.256250X0*%
%ADD68RoundRect,0.150000X-0.150000X0.587500X-0.150000X-0.587500X0.150000X-0.587500X0.150000X0.587500X0*%
%ADD69RoundRect,0.375000X0.625000X0.375000X-0.625000X0.375000X-0.625000X-0.375000X0.625000X-0.375000X0*%
%ADD70RoundRect,0.500000X0.500000X1.400000X-0.500000X1.400000X-0.500000X-1.400000X0.500000X-1.400000X0*%
G04 APERTURE END LIST*
D10*
%TO.C,U7*%
X72043000Y-88721000D02*
X72045000Y-88721000D01*
X72048000Y-88722000D01*
X72050000Y-88722000D01*
X72053000Y-88723000D01*
X72055000Y-88724000D01*
X72058000Y-88725000D01*
X72060000Y-88727000D01*
X72062000Y-88728000D01*
X72064000Y-88730000D01*
X72066000Y-88731000D01*
X72068000Y-88733000D01*
X72070000Y-88735000D01*
X72072000Y-88737000D01*
X72074000Y-88739000D01*
X72075000Y-88741000D01*
X72077000Y-88743000D01*
X72078000Y-88745000D01*
X72080000Y-88747000D01*
X72081000Y-88750000D01*
X72082000Y-88752000D01*
X72083000Y-88755000D01*
X72083000Y-88757000D01*
X72084000Y-88760000D01*
X72084000Y-88762000D01*
X72085000Y-88765000D01*
X72085000Y-88767000D01*
X72085000Y-88770000D01*
X72085000Y-90050000D01*
X72085000Y-90053000D01*
X72085000Y-90055000D01*
X72084000Y-90058000D01*
X72084000Y-90060000D01*
X72083000Y-90063000D01*
X72083000Y-90065000D01*
X72082000Y-90068000D01*
X72081000Y-90070000D01*
X72080000Y-90073000D01*
X72078000Y-90075000D01*
X72077000Y-90077000D01*
X72075000Y-90079000D01*
X72074000Y-90081000D01*
X72072000Y-90083000D01*
X72070000Y-90085000D01*
X72068000Y-90087000D01*
X72066000Y-90089000D01*
X72064000Y-90090000D01*
X72062000Y-90092000D01*
X72060000Y-90093000D01*
X72058000Y-90095000D01*
X72055000Y-90096000D01*
X72053000Y-90097000D01*
X72050000Y-90098000D01*
X72048000Y-90098000D01*
X72045000Y-90099000D01*
X72043000Y-90099000D01*
X72040000Y-90100000D01*
X72038000Y-90100000D01*
X72035000Y-90100000D01*
X71285000Y-90100000D01*
X71282000Y-90100000D01*
X71280000Y-90100000D01*
X71277000Y-90099000D01*
X71275000Y-90099000D01*
X71272000Y-90098000D01*
X71270000Y-90098000D01*
X71267000Y-90097000D01*
X71265000Y-90096000D01*
X71262000Y-90095000D01*
X71260000Y-90093000D01*
X71258000Y-90092000D01*
X71256000Y-90090000D01*
X71254000Y-90089000D01*
X71252000Y-90087000D01*
X71250000Y-90085000D01*
X71248000Y-90083000D01*
X71246000Y-90081000D01*
X71245000Y-90079000D01*
X71243000Y-90077000D01*
X71242000Y-90075000D01*
X71240000Y-90073000D01*
X71239000Y-90070000D01*
X71238000Y-90068000D01*
X71237000Y-90065000D01*
X71237000Y-90063000D01*
X71236000Y-90060000D01*
X71236000Y-90058000D01*
X71235000Y-90055000D01*
X71235000Y-90053000D01*
X71235000Y-90050000D01*
X71235000Y-88770000D01*
X71235000Y-88767000D01*
X71235000Y-88765000D01*
X71236000Y-88762000D01*
X71236000Y-88760000D01*
X71237000Y-88757000D01*
X71237000Y-88755000D01*
X71238000Y-88752000D01*
X71239000Y-88750000D01*
X71240000Y-88747000D01*
X71242000Y-88745000D01*
X71243000Y-88743000D01*
X71245000Y-88741000D01*
X71246000Y-88739000D01*
X71248000Y-88737000D01*
X71250000Y-88735000D01*
X71252000Y-88733000D01*
X71254000Y-88731000D01*
X71256000Y-88730000D01*
X71258000Y-88728000D01*
X71260000Y-88727000D01*
X71262000Y-88725000D01*
X71265000Y-88724000D01*
X71267000Y-88723000D01*
X71270000Y-88722000D01*
X71272000Y-88722000D01*
X71275000Y-88721000D01*
X71277000Y-88721000D01*
X71280000Y-88720000D01*
X71282000Y-88720000D01*
X71285000Y-88720000D01*
X72035000Y-88720000D01*
X72038000Y-88720000D01*
X72040000Y-88720000D01*
X72043000Y-88721000D01*
G36*
X72043000Y-88721000D02*
G01*
X72045000Y-88721000D01*
X72048000Y-88722000D01*
X72050000Y-88722000D01*
X72053000Y-88723000D01*
X72055000Y-88724000D01*
X72058000Y-88725000D01*
X72060000Y-88727000D01*
X72062000Y-88728000D01*
X72064000Y-88730000D01*
X72066000Y-88731000D01*
X72068000Y-88733000D01*
X72070000Y-88735000D01*
X72072000Y-88737000D01*
X72074000Y-88739000D01*
X72075000Y-88741000D01*
X72077000Y-88743000D01*
X72078000Y-88745000D01*
X72080000Y-88747000D01*
X72081000Y-88750000D01*
X72082000Y-88752000D01*
X72083000Y-88755000D01*
X72083000Y-88757000D01*
X72084000Y-88760000D01*
X72084000Y-88762000D01*
X72085000Y-88765000D01*
X72085000Y-88767000D01*
X72085000Y-88770000D01*
X72085000Y-90050000D01*
X72085000Y-90053000D01*
X72085000Y-90055000D01*
X72084000Y-90058000D01*
X72084000Y-90060000D01*
X72083000Y-90063000D01*
X72083000Y-90065000D01*
X72082000Y-90068000D01*
X72081000Y-90070000D01*
X72080000Y-90073000D01*
X72078000Y-90075000D01*
X72077000Y-90077000D01*
X72075000Y-90079000D01*
X72074000Y-90081000D01*
X72072000Y-90083000D01*
X72070000Y-90085000D01*
X72068000Y-90087000D01*
X72066000Y-90089000D01*
X72064000Y-90090000D01*
X72062000Y-90092000D01*
X72060000Y-90093000D01*
X72058000Y-90095000D01*
X72055000Y-90096000D01*
X72053000Y-90097000D01*
X72050000Y-90098000D01*
X72048000Y-90098000D01*
X72045000Y-90099000D01*
X72043000Y-90099000D01*
X72040000Y-90100000D01*
X72038000Y-90100000D01*
X72035000Y-90100000D01*
X71285000Y-90100000D01*
X71282000Y-90100000D01*
X71280000Y-90100000D01*
X71277000Y-90099000D01*
X71275000Y-90099000D01*
X71272000Y-90098000D01*
X71270000Y-90098000D01*
X71267000Y-90097000D01*
X71265000Y-90096000D01*
X71262000Y-90095000D01*
X71260000Y-90093000D01*
X71258000Y-90092000D01*
X71256000Y-90090000D01*
X71254000Y-90089000D01*
X71252000Y-90087000D01*
X71250000Y-90085000D01*
X71248000Y-90083000D01*
X71246000Y-90081000D01*
X71245000Y-90079000D01*
X71243000Y-90077000D01*
X71242000Y-90075000D01*
X71240000Y-90073000D01*
X71239000Y-90070000D01*
X71238000Y-90068000D01*
X71237000Y-90065000D01*
X71237000Y-90063000D01*
X71236000Y-90060000D01*
X71236000Y-90058000D01*
X71235000Y-90055000D01*
X71235000Y-90053000D01*
X71235000Y-90050000D01*
X71235000Y-88770000D01*
X71235000Y-88767000D01*
X71235000Y-88765000D01*
X71236000Y-88762000D01*
X71236000Y-88760000D01*
X71237000Y-88757000D01*
X71237000Y-88755000D01*
X71238000Y-88752000D01*
X71239000Y-88750000D01*
X71240000Y-88747000D01*
X71242000Y-88745000D01*
X71243000Y-88743000D01*
X71245000Y-88741000D01*
X71246000Y-88739000D01*
X71248000Y-88737000D01*
X71250000Y-88735000D01*
X71252000Y-88733000D01*
X71254000Y-88731000D01*
X71256000Y-88730000D01*
X71258000Y-88728000D01*
X71260000Y-88727000D01*
X71262000Y-88725000D01*
X71265000Y-88724000D01*
X71267000Y-88723000D01*
X71270000Y-88722000D01*
X71272000Y-88722000D01*
X71275000Y-88721000D01*
X71277000Y-88721000D01*
X71280000Y-88720000D01*
X71282000Y-88720000D01*
X71285000Y-88720000D01*
X72035000Y-88720000D01*
X72038000Y-88720000D01*
X72040000Y-88720000D01*
X72043000Y-88721000D01*
G37*
%TD*%
D11*
%TO.C,SW2*%
X115880000Y-46350000D03*
X115880000Y-44140000D03*
X108580000Y-46350000D03*
X108580000Y-44140000D03*
D12*
X114480000Y-47000000D03*
X111480000Y-47000000D03*
X109980000Y-47000000D03*
%TD*%
D13*
%TO.C,SW3*%
X71220000Y-46480000D03*
X67020000Y-46480000D03*
%TD*%
D14*
%TO.C,U5*%
X146300000Y-52705000D03*
X146300000Y-51435000D03*
X146300000Y-50165000D03*
X146300000Y-48895000D03*
X146300000Y-47625000D03*
X146300000Y-46355000D03*
X146300000Y-45085000D03*
X146300000Y-43815000D03*
X141350000Y-43815000D03*
X141350000Y-45085000D03*
X141350000Y-46355000D03*
X141350000Y-47625000D03*
X141350000Y-48895000D03*
X141350000Y-50165000D03*
X141350000Y-51435000D03*
X141350000Y-52705000D03*
%TD*%
D15*
%TO.C,C12*%
X54060000Y-84590000D03*
X54060000Y-81640000D03*
%TD*%
D16*
%TO.C,R9*%
X66550000Y-68212500D03*
X66550000Y-66387500D03*
%TD*%
%TO.C,R14*%
X69230000Y-81802500D03*
X69230000Y-79977500D03*
%TD*%
D17*
%TO.C,R12*%
X76000000Y-85397500D03*
X76000000Y-87222500D03*
%TD*%
D18*
%TO.C,C2*%
X51600000Y-76235000D03*
X51600000Y-77785000D03*
%TD*%
D19*
%TO.C,J6*%
X161755000Y-47705000D03*
X161755000Y-48805000D03*
X161755000Y-49905000D03*
X161755000Y-51005000D03*
X161755000Y-52105000D03*
X161755000Y-53205000D03*
X161755000Y-54305000D03*
D20*
X161755000Y-55355000D03*
D21*
X155605000Y-45070000D03*
X151905000Y-45070000D03*
D22*
X161630000Y-45245000D03*
D23*
X150930000Y-48570000D03*
X150930000Y-54540000D03*
D24*
X161405000Y-56565000D03*
%TD*%
D25*
%TO.C,C10*%
X60390000Y-96010000D03*
X58490000Y-96010000D03*
%TD*%
D26*
%TO.C,R23*%
X116602500Y-91185000D03*
X114777500Y-91185000D03*
%TD*%
D27*
%TO.C,R2*%
X88740000Y-56660000D03*
X90565000Y-56660000D03*
%TD*%
D16*
%TO.C,R15*%
X64180000Y-81990000D03*
X64180000Y-80165000D03*
%TD*%
D28*
%TO.C,D2*%
X121830000Y-88292500D03*
X121830000Y-89692500D03*
%TD*%
D29*
%TO.C,J11*%
X157810000Y-72190000D03*
X157810000Y-71190000D03*
X157810000Y-70190000D03*
X157810000Y-69190000D03*
D30*
X161685000Y-73490000D03*
X161685000Y-67890000D03*
%TD*%
D31*
%TO.C,C9*%
X61915000Y-45210000D03*
X60365000Y-45210000D03*
%TD*%
D11*
%TO.C,SW5*%
X103520000Y-95135000D03*
X103520000Y-97345000D03*
X110820000Y-95135000D03*
X110820000Y-97345000D03*
D12*
X104920000Y-94485000D03*
X107920000Y-94485000D03*
X109420000Y-94485000D03*
%TD*%
D32*
%TO.C,J5*%
X154985000Y-94980000D03*
X154985000Y-94180000D03*
D33*
X154985000Y-93030000D03*
X154985000Y-92030000D03*
X154985000Y-91530000D03*
X154985000Y-90530000D03*
D32*
X154985000Y-89380000D03*
X154985000Y-88580000D03*
X154985000Y-88580000D03*
X154985000Y-89380000D03*
D33*
X154985000Y-90030000D03*
X154985000Y-91030000D03*
X154985000Y-92530000D03*
X154985000Y-93530000D03*
D32*
X154985000Y-94180000D03*
X154985000Y-94980000D03*
D34*
X155560000Y-96100000D03*
D35*
X159740000Y-96100000D03*
D34*
X155560000Y-87460000D03*
D35*
X159740000Y-87460000D03*
%TD*%
D36*
%TO.C,U9*%
X106870000Y-90840500D03*
X107970000Y-90840500D03*
D37*
X107420000Y-90765000D03*
D36*
X106870000Y-90165500D03*
X107970000Y-90165500D03*
D37*
X107420000Y-89939500D03*
D38*
X108170000Y-88902500D03*
X107670000Y-88902500D03*
X107170000Y-88902500D03*
X106670000Y-88902500D03*
%TD*%
D16*
%TO.C,R25*%
X117360000Y-87447500D03*
X117360000Y-85622500D03*
%TD*%
D39*
%TO.C,C5*%
X111840000Y-75000000D03*
X113390000Y-75000000D03*
%TD*%
D16*
%TO.C,R10*%
X71450000Y-68212500D03*
X71450000Y-66387500D03*
%TD*%
D39*
%TO.C,C25*%
X82775000Y-45300000D03*
X84325000Y-45300000D03*
%TD*%
D40*
%TO.C,C16*%
X99620000Y-63070000D03*
X101520000Y-63070000D03*
%TD*%
D41*
%TO.C,D4*%
X138150000Y-52532500D03*
X138150000Y-54107500D03*
%TD*%
D15*
%TO.C,C13*%
X100470000Y-97120000D03*
X100470000Y-94170000D03*
%TD*%
D42*
%TO.C,D6*%
X59210000Y-90755000D03*
X59210000Y-89180000D03*
%TD*%
D26*
%TO.C,R18*%
X105190000Y-85405000D03*
X103365000Y-85405000D03*
%TD*%
D43*
%TO.C,U7*%
X72710000Y-90210000D03*
X72710000Y-89810000D03*
X72710000Y-89410000D03*
X72710000Y-89010000D03*
X72710000Y-88610000D03*
X70610000Y-88610000D03*
X70610000Y-89010000D03*
X70610000Y-89410000D03*
X70610000Y-89810000D03*
X70610000Y-90210000D03*
%TD*%
D26*
%TO.C,R16*%
X65800000Y-85520000D03*
X63975000Y-85520000D03*
%TD*%
%TO.C,R6*%
X151502500Y-96170000D03*
X149677500Y-96170000D03*
%TD*%
D15*
%TO.C,C11*%
X69930000Y-97645000D03*
X69930000Y-94695000D03*
%TD*%
D44*
%TO.C,D7*%
X54340000Y-94020000D03*
X52940000Y-94020000D03*
%TD*%
D26*
%TO.C,R7*%
X151502500Y-87430000D03*
X149677500Y-87430000D03*
%TD*%
D45*
%TO.C,U3*%
X176687500Y-69322500D03*
X175687500Y-69322500D03*
D46*
X176187500Y-70347500D03*
D47*
X176687500Y-71372500D03*
X175687500Y-71372500D03*
%TD*%
D31*
%TO.C,C6*%
X97565000Y-73230000D03*
X96015000Y-73230000D03*
%TD*%
D48*
%TO.C,C15*%
X95960000Y-96820000D03*
X95960000Y-95270000D03*
%TD*%
D49*
%TO.C,U6*%
X76950000Y-62880000D03*
X76950000Y-61610000D03*
X76950000Y-60340000D03*
X76950000Y-59070000D03*
X76950000Y-57800000D03*
X76950000Y-56530000D03*
X76950000Y-55260000D03*
X76950000Y-53990000D03*
X67650000Y-53990000D03*
X67650000Y-55260000D03*
X67650000Y-56530000D03*
X67650000Y-57800000D03*
X67650000Y-59070000D03*
X67650000Y-60340000D03*
X67650000Y-61610000D03*
X67650000Y-62880000D03*
%TD*%
D16*
%TO.C,R13*%
X64080000Y-90760000D03*
X64080000Y-88935000D03*
%TD*%
D50*
%TO.C,U2*%
X104350000Y-69940000D03*
X104350000Y-71090000D03*
X104350000Y-72240000D03*
X105500000Y-69940000D03*
X105500000Y-71090000D03*
X105500000Y-72240000D03*
X106650000Y-69940000D03*
X106650000Y-71090000D03*
X106650000Y-72240000D03*
D51*
X103062500Y-69340000D03*
X103062500Y-69840000D03*
X103062500Y-70340000D03*
X103062500Y-70840000D03*
X103062500Y-71340000D03*
X103062500Y-71840000D03*
X103062500Y-72340000D03*
X103062500Y-72840000D03*
D52*
X103750000Y-73527500D03*
X104250000Y-73527500D03*
X104750000Y-73527500D03*
X105250000Y-73527500D03*
X105750000Y-73527500D03*
X106250000Y-73527500D03*
X106750000Y-73527500D03*
X107250000Y-73527500D03*
D51*
X107937500Y-72840000D03*
X107937500Y-72340000D03*
X107937500Y-71840000D03*
X107937500Y-71340000D03*
X107937500Y-70840000D03*
X107937500Y-70340000D03*
X107937500Y-69840000D03*
X107937500Y-69340000D03*
D52*
X107250000Y-68652500D03*
X106750000Y-68652500D03*
X106250000Y-68652500D03*
X105750000Y-68652500D03*
X105250000Y-68652500D03*
X104750000Y-68652500D03*
X104250000Y-68652500D03*
X103750000Y-68652500D03*
%TD*%
D18*
%TO.C,C8*%
X81290000Y-66325000D03*
X81290000Y-67875000D03*
%TD*%
D27*
%TO.C,R24*%
X111387500Y-87850000D03*
X113212500Y-87850000D03*
%TD*%
D53*
%TO.C,D3*%
X147857500Y-81780000D03*
X151157500Y-81780000D03*
%TD*%
D54*
%TO.C,U4*%
X148532500Y-91412500D03*
X148032500Y-91412500D03*
D55*
X147532500Y-91450000D03*
D54*
X147032500Y-91412500D03*
X146532500Y-91412500D03*
X146532500Y-92187500D03*
X147032500Y-92187500D03*
D56*
X147532500Y-92212500D03*
D54*
X148032500Y-92187500D03*
X148532500Y-92187500D03*
%TD*%
D26*
%TO.C,R26*%
X113212500Y-51710000D03*
X111387500Y-51710000D03*
%TD*%
D16*
%TO.C,R8*%
X138190000Y-50750000D03*
X138190000Y-48925000D03*
%TD*%
D42*
%TO.C,D5*%
X76000000Y-82657500D03*
X76000000Y-81082500D03*
%TD*%
D57*
%TO.C,U8*%
X86957500Y-92655000D03*
X86957500Y-93305000D03*
X86957500Y-93955000D03*
X86957500Y-94605000D03*
X86957500Y-95255000D03*
X86957500Y-95905000D03*
X86957500Y-96555000D03*
X86957500Y-97205000D03*
X92682500Y-97205000D03*
X92682500Y-96555000D03*
X92682500Y-95905000D03*
X92682500Y-95255000D03*
X92682500Y-94605000D03*
X92682500Y-93955000D03*
X92682500Y-93305000D03*
X92682500Y-92655000D03*
%TD*%
D58*
%TO.C,C14*%
X117075000Y-96185000D03*
X114125000Y-96185000D03*
%TD*%
D59*
%TO.C,BT1*%
X52833756Y-70880000D03*
X52833756Y-45280000D03*
%TD*%
D27*
%TO.C,R4*%
X179350000Y-72830000D03*
X181175000Y-72830000D03*
%TD*%
%TO.C,R3*%
X125227500Y-84420000D03*
X127052500Y-84420000D03*
%TD*%
D60*
%TO.C,SW1*%
X45860000Y-74690000D03*
X45860000Y-78890000D03*
%TD*%
D61*
%TO.C,C1*%
X94155000Y-54650000D03*
X97105000Y-54650000D03*
%TD*%
D62*
%TO.C,L1*%
X100720000Y-88130000D03*
X100720000Y-90930000D03*
%TD*%
D27*
%TO.C,R17*%
X70597500Y-85770000D03*
X72422500Y-85770000D03*
%TD*%
D63*
%TO.C,C3*%
X87265000Y-69405000D03*
X87265000Y-67505000D03*
%TD*%
D16*
%TO.C,R11*%
X76130000Y-68212500D03*
X76130000Y-66387500D03*
%TD*%
D18*
%TO.C,C26*%
X97410000Y-47985000D03*
X97410000Y-49535000D03*
%TD*%
D64*
%TO.C,J10*%
X172425000Y-68920000D03*
X172425000Y-69920000D03*
X172425000Y-70920000D03*
X172425000Y-71920000D03*
D65*
X168550000Y-67620000D03*
X168550000Y-73220000D03*
%TD*%
D16*
%TO.C,R21*%
X89540000Y-89160000D03*
X89540000Y-87335000D03*
%TD*%
D39*
%TO.C,C17*%
X112260000Y-64780000D03*
X113810000Y-64780000D03*
%TD*%
D66*
%TO.C,D8*%
X107892500Y-85410000D03*
X109467500Y-85410000D03*
%TD*%
D67*
%TO.C,D1*%
X85267500Y-56660000D03*
X83692500Y-56660000D03*
%TD*%
D27*
%TO.C,R19*%
X82737500Y-89890000D03*
X84562500Y-89890000D03*
%TD*%
%TO.C,R5*%
X179350000Y-67630000D03*
X181175000Y-67630000D03*
%TD*%
D68*
%TO.C,Q1*%
X127060000Y-87820000D03*
X125160000Y-87820000D03*
X126110000Y-89695000D03*
%TD*%
D16*
%TO.C,R22*%
X94660000Y-89222500D03*
X94660000Y-87397500D03*
%TD*%
D27*
%TO.C,R20*%
X80475000Y-96260000D03*
X82300000Y-96260000D03*
%TD*%
D31*
%TO.C,C7*%
X146845000Y-57560000D03*
X145295000Y-57560000D03*
%TD*%
D61*
%TO.C,C4*%
X81350000Y-50500000D03*
X84300000Y-50500000D03*
%TD*%
D69*
%TO.C,U1*%
X93600000Y-50300000D03*
X93600000Y-48000000D03*
D70*
X87300000Y-48000000D03*
D69*
X93600000Y-45700000D03*
%TD*%
M02*
