%TF.GenerationSoftware,KiCad,Pcbnew,10.0.1*%
%TF.CreationDate,2026-06-30T14:04:32-04:00*%
%TF.ProjectId,DosingPCB,446f7369-6e67-4504-9342-2e6b69636164,rev?*%
%TF.SameCoordinates,Original*%
%TF.FileFunction,Copper,L2,Inr*%
%TF.FilePolarity,Positive*%
%FSLAX46Y46*%
G04 Gerber Fmt 4.6, Leading zero omitted, Abs format (unit mm)*
G04 Created by KiCad (PCBNEW 10.0.1) date 2026-06-30 14:04:32*
%MOMM*%
%LPD*%
G01*
G04 APERTURE LIST*
G04 Aperture macros list*
%AMRoundRect*
0 Rectangle with rounded corners*
0 $1 Rounding radius*
0 $2 $3 $4 $5 $6 $7 $8 $9 X,Y pos of 4 corners*
0 Add a 4 corners polygon primitive as box body*
4,1,4,$2,$3,$4,$5,$6,$7,$8,$9,$2,$3,0*
0 Add four circle primitives for the rounded corners*
1,1,$1+$1,$2,$3*
1,1,$1+$1,$4,$5*
1,1,$1+$1,$6,$7*
1,1,$1+$1,$8,$9*
0 Add four rect primitives between the rounded corners*
20,1,$1+$1,$2,$3,$4,$5,0*
20,1,$1+$1,$4,$5,$6,$7,0*
20,1,$1+$1,$6,$7,$8,$9,0*
20,1,$1+$1,$8,$9,$2,$3,0*%
G04 Aperture macros list end*
%TA.AperFunction,ComponentPad*%
%ADD10R,1.700000X1.700000*%
%TD*%
%TA.AperFunction,ComponentPad*%
%ADD11C,1.700000*%
%TD*%
%TA.AperFunction,ComponentPad*%
%ADD12RoundRect,0.250000X-0.625000X0.350000X-0.625000X-0.350000X0.625000X-0.350000X0.625000X0.350000X0*%
%TD*%
%TA.AperFunction,ComponentPad*%
%ADD13O,1.750000X1.200000*%
%TD*%
%TA.AperFunction,ComponentPad*%
%ADD14O,2.100000X1.000000*%
%TD*%
%TA.AperFunction,ComponentPad*%
%ADD15O,1.800000X1.000000*%
%TD*%
%TA.AperFunction,ComponentPad*%
%ADD16RoundRect,0.250000X0.620000X0.845000X-0.620000X0.845000X-0.620000X-0.845000X0.620000X-0.845000X0*%
%TD*%
%TA.AperFunction,ComponentPad*%
%ADD17O,1.740000X2.190000*%
%TD*%
%TA.AperFunction,ComponentPad*%
%ADD18C,0.300000*%
%TD*%
%TA.AperFunction,HeatsinkPad*%
%ADD19C,0.400000*%
%TD*%
%TA.AperFunction,ViaPad*%
%ADD20C,0.500000*%
%TD*%
%TA.AperFunction,ViaPad*%
%ADD21C,0.600000*%
%TD*%
%TA.AperFunction,ViaPad*%
%ADD22C,0.800000*%
%TD*%
G04 APERTURE END LIST*
D10*
%TO.N,Net-(J3-Pin_1)*%
%TO.C,J3*%
X139080000Y-88765000D03*
D11*
%TO.N,+5V*%
X136540000Y-88765000D03*
%TO.N,GND*%
X134000000Y-88765000D03*
%TD*%
D12*
%TO.N,/Solar_power*%
%TO.C,J8*%
X48940000Y-94020000D03*
D13*
%TO.N,GND*%
X48940000Y-96020000D03*
%TD*%
D14*
%TO.N,GND*%
%TO.C,J5*%
X155560000Y-96100000D03*
D15*
X159740000Y-96100000D03*
D14*
X155560000Y-87460000D03*
D15*
X159740000Y-87460000D03*
%TD*%
D16*
%TO.N,Net-(J9-Pin_1)*%
%TO.C,J9*%
X127010000Y-95885000D03*
D17*
%TO.N,+5V*%
X124470000Y-95885000D03*
%TO.N,Net-(D2-A)*%
X121930000Y-95885000D03*
%TD*%
D18*
%TO.N,GND*%
%TO.C,U7*%
X71660000Y-89910000D03*
X71660000Y-88910000D03*
%TD*%
D12*
%TO.N,/Solar+Charging/Bat_power*%
%TO.C,J7*%
X48940000Y-84670000D03*
D13*
%TO.N,GND*%
X48940000Y-86670000D03*
%TD*%
D10*
%TO.N,GND*%
%TO.C,J1*%
X119980000Y-44520000D03*
D11*
%TO.N,Net-(J1-Pin_2)*%
X122520000Y-44520000D03*
%TO.N,Net-(J1-Pin_3)*%
X125060000Y-44520000D03*
%TO.N,unconnected-(J1-Pin_4-Pad4)*%
X127600000Y-44520000D03*
%TO.N,unconnected-(J1-Pin_5-Pad5)*%
X130140000Y-44520000D03*
%TO.N,+3.3V*%
X132680000Y-44520000D03*
%TD*%
D10*
%TO.N,SWCLK*%
%TO.C,J2*%
X126010000Y-64380000D03*
D11*
%TO.N,SWDIO*%
X126010000Y-66920000D03*
%TD*%
D19*
%TO.N,GND*%
%TO.C,U2*%
X104900000Y-70490000D03*
X104900000Y-71690000D03*
X106100000Y-70490000D03*
X106100000Y-71690000D03*
%TD*%
D10*
%TO.N,GND*%
%TO.C,J4*%
X116090000Y-78810000D03*
D11*
%TO.N,Net-(J4-Pin_2)*%
X118630000Y-78810000D03*
%TO.N,Net-(J4-Pin_3)*%
X121170000Y-78810000D03*
%TO.N,Net-(J4-Pin_4)*%
X123710000Y-78810000D03*
%TO.N,Net-(J4-Pin_5)*%
X126250000Y-78810000D03*
%TO.N,Net-(J4-Pin_6)*%
X128790000Y-78810000D03*
%TO.N,+3.3V*%
X131330000Y-78810000D03*
%TO.N,+5V*%
X133870000Y-78810000D03*
%TD*%
D20*
%TO.N,GND*%
X53500000Y-76230000D03*
X110780000Y-85430000D03*
X150920000Y-58560000D03*
X115230000Y-64750000D03*
X159310000Y-45250000D03*
D21*
X115330000Y-85620000D03*
D20*
X98510000Y-97080000D03*
X73890000Y-85770000D03*
X153550000Y-87640000D03*
X153050000Y-95990000D03*
X92050000Y-56630000D03*
X139600000Y-55240000D03*
X83630000Y-96230000D03*
X93620000Y-52350000D03*
X67450000Y-79950000D03*
X139330000Y-47400000D03*
X178130000Y-71270000D03*
X155350000Y-69220000D03*
X85680000Y-89890000D03*
X108930000Y-74200000D03*
X81270000Y-69210000D03*
X91060000Y-94780000D03*
X71720000Y-97620000D03*
X101450000Y-68020000D03*
X69710000Y-59050000D03*
X147582500Y-89430000D03*
X118510000Y-96160000D03*
D21*
X113210000Y-55870000D03*
D20*
X152620000Y-48570000D03*
X123940000Y-86580000D03*
X148130000Y-96150000D03*
X149700000Y-85730000D03*
X97940000Y-63050000D03*
X58460000Y-97600000D03*
X56230000Y-84590000D03*
X174750000Y-68400000D03*
X97370000Y-50970000D03*
X94610000Y-73210000D03*
X146590000Y-93870000D03*
X87245000Y-65775000D03*
X62220000Y-85500000D03*
X97830000Y-94350000D03*
X84300000Y-46790000D03*
X72860000Y-46500000D03*
X62500000Y-80120000D03*
X85370000Y-95200000D03*
X144210000Y-43840000D03*
X143910000Y-57525000D03*
X84280000Y-52450000D03*
X114700000Y-74960000D03*
X98670000Y-54650000D03*
D22*
%TO.N,+3.3V*%
X82710000Y-88240000D03*
D20*
X111840000Y-73540000D03*
X110540000Y-65220000D03*
X177850000Y-69410000D03*
X85500000Y-69400000D03*
X87300000Y-52860000D03*
X148530000Y-52080000D03*
D22*
X101399975Y-74019975D03*
D20*
X79850000Y-50520000D03*
X181170000Y-69280000D03*
X82450000Y-56660000D03*
X95960000Y-97990000D03*
X71430000Y-69650000D03*
D22*
X89560000Y-52760000D03*
D20*
X131330000Y-73500000D03*
X76130000Y-69670000D03*
X171140000Y-69920000D03*
X109970000Y-49350000D03*
X103590000Y-62730000D03*
X94250000Y-96560000D03*
X155550000Y-70210000D03*
X81240000Y-45290000D03*
X66540000Y-69580000D03*
X158960000Y-51000000D03*
X82650000Y-66300000D03*
D22*
X80470000Y-94570000D03*
D20*
X181150000Y-74740000D03*
%TO.N,Net-(D4-A)*%
X141260000Y-56340000D03*
X138130000Y-55560000D03*
%TO.N,SD_DataIn*%
X105750000Y-66840000D03*
X144630000Y-47630000D03*
%TO.N,Net-(J6-CMD)*%
X142800000Y-45080000D03*
X160120000Y-49930000D03*
D22*
%TO.N,+5V*%
X101260000Y-85390000D03*
X108850000Y-92670000D03*
X112560000Y-96230000D03*
X94140000Y-56810000D03*
X100480000Y-92750000D03*
X146360000Y-81780000D03*
X99170000Y-47990000D03*
X121820000Y-86690000D03*
D21*
%TO.N,RTC_SCL*%
X84650000Y-84890000D03*
X140830000Y-92010000D03*
X98240000Y-88780000D03*
X68440000Y-67240000D03*
D20*
%TO.N,CD*%
X157780000Y-48810000D03*
D21*
X106449265Y-75240735D03*
D20*
%TO.N,SD_DataOut*%
X139173909Y-57953909D03*
X120450000Y-59200000D03*
X153930000Y-53210000D03*
X141600000Y-57930000D03*
%TO.N,Temp_SCL*%
X113970000Y-60950000D03*
X127460000Y-61610000D03*
%TO.N,Temp_SDA*%
X137220000Y-60260000D03*
X113230000Y-60310000D03*
D21*
%TO.N,V+*%
X76020000Y-79820000D03*
X59210000Y-87840000D03*
X67960000Y-94680000D03*
X80660000Y-80710000D03*
%TO.N,RTC_SDA*%
X92530000Y-88880000D03*
X141470000Y-94480000D03*
X89540000Y-85910000D03*
X73440000Y-67810000D03*
D20*
%TO.N,Net-(J1-Pin_2)*%
X101750000Y-69890000D03*
%TO.N,Net-(J1-Pin_3)*%
X100990000Y-70130000D03*
%TO.N,SWCLK*%
X109290000Y-68440000D03*
%TO.N,SWDIO*%
X109400000Y-69320000D03*
%TO.N,Net-(J4-Pin_6)*%
X128790000Y-82130000D03*
X101670000Y-72760000D03*
%TO.N,Net-(J4-Pin_5)*%
X126250000Y-81050000D03*
X104300000Y-75810000D03*
%TO.N,Net-(J4-Pin_2)*%
X105800000Y-74636091D03*
%TO.N,Data+*%
X146482500Y-84220000D03*
X109270000Y-70290000D03*
%TD*%
%TA.AperFunction,Conductor*%
%TO.N,GND*%
G36*
X162282539Y-42700185D02*
G01*
X162328294Y-42752989D01*
X162339500Y-42804500D01*
X162339500Y-62004108D01*
X162339500Y-62135892D01*
X162342490Y-62147051D01*
X162373608Y-62263187D01*
X162380475Y-62275080D01*
X162439500Y-62377314D01*
X162532686Y-62470500D01*
X162646814Y-62536392D01*
X162774108Y-62570500D01*
X162776552Y-62570500D01*
X162778537Y-62571082D01*
X162782168Y-62571561D01*
X162782093Y-62572127D01*
X162843591Y-62590185D01*
X162889346Y-62642989D01*
X162900552Y-62694570D01*
X162896730Y-69506079D01*
X162891416Y-78975572D01*
X162871695Y-79042598D01*
X162818865Y-79088323D01*
X162781893Y-79096354D01*
X162782168Y-79098439D01*
X162774108Y-79099500D01*
X162646812Y-79133608D01*
X162532686Y-79199500D01*
X162532683Y-79199502D01*
X162439502Y-79292683D01*
X162439500Y-79292686D01*
X162373608Y-79406812D01*
X162339500Y-79534108D01*
X162339500Y-98695500D01*
X162319815Y-98762539D01*
X162267011Y-98808294D01*
X162215500Y-98819500D01*
X96478203Y-98819500D01*
X96411164Y-98799815D01*
X96365409Y-98747011D01*
X96355465Y-98677853D01*
X96384490Y-98614297D01*
X96409312Y-98592398D01*
X96419738Y-98585430D01*
X96438416Y-98572951D01*
X96542951Y-98468416D01*
X96625084Y-98345495D01*
X96681658Y-98208913D01*
X96710500Y-98063918D01*
X96710500Y-97916082D01*
X96710500Y-97916079D01*
X96681659Y-97771092D01*
X96681658Y-97771091D01*
X96681658Y-97771087D01*
X96681656Y-97771082D01*
X96625087Y-97634511D01*
X96625080Y-97634498D01*
X96542951Y-97511584D01*
X96542948Y-97511580D01*
X96438419Y-97407051D01*
X96438415Y-97407048D01*
X96315501Y-97324919D01*
X96315488Y-97324912D01*
X96178917Y-97268343D01*
X96178907Y-97268340D01*
X96033920Y-97239500D01*
X96033918Y-97239500D01*
X95886082Y-97239500D01*
X95886080Y-97239500D01*
X95741092Y-97268340D01*
X95741082Y-97268343D01*
X95604511Y-97324912D01*
X95604498Y-97324919D01*
X95481584Y-97407048D01*
X95481580Y-97407051D01*
X95377051Y-97511580D01*
X95377048Y-97511584D01*
X95294919Y-97634498D01*
X95294912Y-97634511D01*
X95238343Y-97771082D01*
X95238340Y-97771092D01*
X95209500Y-97916079D01*
X95209500Y-97916082D01*
X95209500Y-98063918D01*
X95209500Y-98063920D01*
X95209499Y-98063920D01*
X95238340Y-98208907D01*
X95238343Y-98208917D01*
X95294912Y-98345488D01*
X95294919Y-98345501D01*
X95377048Y-98468415D01*
X95377051Y-98468419D01*
X95481580Y-98572948D01*
X95481584Y-98572951D01*
X95510688Y-98592398D01*
X95555493Y-98646010D01*
X95564200Y-98715335D01*
X95534046Y-98778362D01*
X95474603Y-98815082D01*
X95441797Y-98819500D01*
X42814500Y-98819500D01*
X42747461Y-98799815D01*
X42701706Y-98747011D01*
X42690500Y-98695500D01*
X42690500Y-93619983D01*
X47564500Y-93619983D01*
X47564500Y-94420001D01*
X47564501Y-94420019D01*
X47575000Y-94522796D01*
X47575001Y-94522799D01*
X47620033Y-94658695D01*
X47630186Y-94689334D01*
X47722288Y-94838656D01*
X47846344Y-94962712D01*
X47910981Y-95002580D01*
X47957705Y-95054526D01*
X47968928Y-95123489D01*
X47941085Y-95187571D01*
X47933566Y-95195799D01*
X47825964Y-95303401D01*
X47724195Y-95443475D01*
X47645591Y-95597744D01*
X47592085Y-95762415D01*
X47590884Y-95769999D01*
X47590885Y-95770000D01*
X48659670Y-95770000D01*
X48639925Y-95789745D01*
X48590556Y-95875255D01*
X48565000Y-95970630D01*
X48565000Y-96069370D01*
X48590556Y-96164745D01*
X48639925Y-96250255D01*
X48659670Y-96270000D01*
X47590885Y-96270000D01*
X47592085Y-96277584D01*
X47645591Y-96442255D01*
X47724195Y-96596524D01*
X47825967Y-96736602D01*
X47948397Y-96859032D01*
X48088475Y-96960804D01*
X48242742Y-97039408D01*
X48407415Y-97092914D01*
X48578429Y-97120000D01*
X48690000Y-97120000D01*
X48690000Y-96300330D01*
X48709745Y-96320075D01*
X48795255Y-96369444D01*
X48890630Y-96395000D01*
X48989370Y-96395000D01*
X49084745Y-96369444D01*
X49170255Y-96320075D01*
X49190000Y-96300330D01*
X49190000Y-97120000D01*
X49301571Y-97120000D01*
X49472584Y-97092914D01*
X49637257Y-97039408D01*
X49791524Y-96960804D01*
X49931602Y-96859032D01*
X50054032Y-96736602D01*
X50128634Y-96633920D01*
X93499499Y-96633920D01*
X93528340Y-96778907D01*
X93528343Y-96778917D01*
X93584912Y-96915488D01*
X93584919Y-96915501D01*
X93667048Y-97038415D01*
X93667051Y-97038419D01*
X93771580Y-97142948D01*
X93771584Y-97142951D01*
X93894498Y-97225080D01*
X93894511Y-97225087D01*
X94031082Y-97281656D01*
X94031087Y-97281658D01*
X94031091Y-97281658D01*
X94031092Y-97281659D01*
X94176079Y-97310500D01*
X94176082Y-97310500D01*
X94323920Y-97310500D01*
X94421462Y-97291096D01*
X94468913Y-97281658D01*
X94605495Y-97225084D01*
X94728416Y-97142951D01*
X94832951Y-97038416D01*
X94915084Y-96915495D01*
X94971658Y-96778913D01*
X94996000Y-96656540D01*
X95000500Y-96633920D01*
X95000500Y-96486079D01*
X94971659Y-96341092D01*
X94971658Y-96341091D01*
X94971658Y-96341087D01*
X94960436Y-96313995D01*
X104969499Y-96313995D01*
X104996418Y-96449322D01*
X104996421Y-96449332D01*
X105049221Y-96576804D01*
X105049228Y-96576817D01*
X105125885Y-96691541D01*
X105125888Y-96691545D01*
X105223454Y-96789111D01*
X105223458Y-96789114D01*
X105338182Y-96865771D01*
X105338195Y-96865778D01*
X105465667Y-96918578D01*
X105465672Y-96918580D01*
X105465676Y-96918580D01*
X105465677Y-96918581D01*
X105601004Y-96945500D01*
X105601007Y-96945500D01*
X105738995Y-96945500D01*
X105830041Y-96927389D01*
X105874328Y-96918580D01*
X105972924Y-96877740D01*
X106001804Y-96865778D01*
X106001804Y-96865777D01*
X106001811Y-96865775D01*
X106116542Y-96789114D01*
X106214114Y-96691542D01*
X106290775Y-96576811D01*
X106343580Y-96449328D01*
X106365315Y-96340060D01*
X106370500Y-96313995D01*
X107969499Y-96313995D01*
X107996418Y-96449322D01*
X107996421Y-96449332D01*
X108049221Y-96576804D01*
X108049228Y-96576817D01*
X108125885Y-96691541D01*
X108125888Y-96691545D01*
X108223454Y-96789111D01*
X108223458Y-96789114D01*
X108338182Y-96865771D01*
X108338195Y-96865778D01*
X108465667Y-96918578D01*
X108465672Y-96918580D01*
X108465676Y-96918580D01*
X108465677Y-96918581D01*
X108601004Y-96945500D01*
X108601007Y-96945500D01*
X108738995Y-96945500D01*
X108830041Y-96927389D01*
X108874328Y-96918580D01*
X108972924Y-96877740D01*
X109001804Y-96865778D01*
X109001804Y-96865777D01*
X109001811Y-96865775D01*
X109116542Y-96789114D01*
X109214114Y-96691542D01*
X109290775Y-96576811D01*
X109343580Y-96449328D01*
X109365315Y-96340060D01*
X109370500Y-96313995D01*
X109370500Y-96176004D01*
X109370499Y-96176002D01*
X109367199Y-96159408D01*
X109363598Y-96141304D01*
X111659500Y-96141304D01*
X111659500Y-96318695D01*
X111694103Y-96492658D01*
X111694106Y-96492667D01*
X111761983Y-96656540D01*
X111761990Y-96656553D01*
X111860535Y-96804034D01*
X111860538Y-96804038D01*
X111985961Y-96929461D01*
X111985965Y-96929464D01*
X112133446Y-97028009D01*
X112133459Y-97028016D01*
X112214465Y-97061569D01*
X112297334Y-97095894D01*
X112297336Y-97095894D01*
X112297341Y-97095896D01*
X112471304Y-97130499D01*
X112471307Y-97130500D01*
X112471309Y-97130500D01*
X112648693Y-97130500D01*
X112648694Y-97130499D01*
X112706682Y-97118964D01*
X112822658Y-97095896D01*
X112822661Y-97095894D01*
X112822666Y-97095894D01*
X112986547Y-97028013D01*
X113134035Y-96929464D01*
X113259464Y-96804035D01*
X113358013Y-96656547D01*
X113425894Y-96492666D01*
X113427205Y-96486079D01*
X113460499Y-96318695D01*
X113460500Y-96318693D01*
X113460500Y-96141306D01*
X113460499Y-96141304D01*
X113425896Y-95967341D01*
X113425893Y-95967332D01*
X113358016Y-95803459D01*
X113358009Y-95803446D01*
X113259464Y-95655965D01*
X113259461Y-95655961D01*
X113155633Y-95552133D01*
X120559500Y-95552133D01*
X120559500Y-96217866D01*
X120593245Y-96430922D01*
X120593246Y-96430926D01*
X120659908Y-96636089D01*
X120757843Y-96828299D01*
X120884641Y-97002821D01*
X121037179Y-97155359D01*
X121211701Y-97282157D01*
X121403911Y-97380092D01*
X121609074Y-97446754D01*
X121688973Y-97459408D01*
X121822134Y-97480500D01*
X121822139Y-97480500D01*
X122037866Y-97480500D01*
X122156230Y-97461752D01*
X122250926Y-97446754D01*
X122456089Y-97380092D01*
X122648299Y-97282157D01*
X122822821Y-97155359D01*
X122975359Y-97002821D01*
X123099682Y-96831704D01*
X123155012Y-96789040D01*
X123224626Y-96783061D01*
X123286420Y-96815667D01*
X123300315Y-96831702D01*
X123424641Y-97002821D01*
X123577179Y-97155359D01*
X123751701Y-97282157D01*
X123943911Y-97380092D01*
X124149074Y-97446754D01*
X124228973Y-97459408D01*
X124362134Y-97480500D01*
X124362139Y-97480500D01*
X124577866Y-97480500D01*
X124696230Y-97461752D01*
X124790926Y-97446754D01*
X124996089Y-97380092D01*
X125188299Y-97282157D01*
X125362821Y-97155359D01*
X125504807Y-97013372D01*
X125566126Y-96979890D01*
X125635818Y-96984874D01*
X125691752Y-97026745D01*
X125704864Y-97048645D01*
X125705181Y-97049326D01*
X125705186Y-97049334D01*
X125797288Y-97198656D01*
X125921344Y-97322712D01*
X126070666Y-97414814D01*
X126237203Y-97469999D01*
X126339991Y-97480500D01*
X127680008Y-97480499D01*
X127782797Y-97469999D01*
X127949334Y-97414814D01*
X128098656Y-97322712D01*
X128222712Y-97198656D01*
X128314814Y-97049334D01*
X128369999Y-96882797D01*
X128380500Y-96780009D01*
X128380499Y-95850000D01*
X154040138Y-95850000D01*
X154843012Y-95850000D01*
X154825795Y-95859940D01*
X154769940Y-95915795D01*
X154730444Y-95984204D01*
X154710000Y-96060504D01*
X154710000Y-96139496D01*
X154730444Y-96215796D01*
X154769940Y-96284205D01*
X154825795Y-96340060D01*
X154843012Y-96350000D01*
X154040138Y-96350000D01*
X154048430Y-96391690D01*
X154048430Y-96391692D01*
X154123807Y-96573671D01*
X154123814Y-96573684D01*
X154233248Y-96737462D01*
X154233251Y-96737466D01*
X154372533Y-96876748D01*
X154372537Y-96876751D01*
X154536315Y-96986185D01*
X154536328Y-96986192D01*
X154718306Y-97061569D01*
X154718318Y-97061572D01*
X154911504Y-97099999D01*
X154911508Y-97100000D01*
X155310000Y-97100000D01*
X155310000Y-96400000D01*
X155810000Y-96400000D01*
X155810000Y-97100000D01*
X156208492Y-97100000D01*
X156208495Y-97099999D01*
X156401681Y-97061572D01*
X156401693Y-97061569D01*
X156583671Y-96986192D01*
X156583684Y-96986185D01*
X156747462Y-96876751D01*
X156747466Y-96876748D01*
X156886748Y-96737466D01*
X156886751Y-96737462D01*
X156996185Y-96573684D01*
X156996192Y-96573671D01*
X157071569Y-96391692D01*
X157071569Y-96391690D01*
X157079862Y-96350000D01*
X156276988Y-96350000D01*
X156294205Y-96340060D01*
X156350060Y-96284205D01*
X156389556Y-96215796D01*
X156410000Y-96139496D01*
X156410000Y-96060504D01*
X156389556Y-95984204D01*
X156350060Y-95915795D01*
X156294205Y-95859940D01*
X156276988Y-95850000D01*
X157079862Y-95850000D01*
X158370138Y-95850000D01*
X159173012Y-95850000D01*
X159155795Y-95859940D01*
X159099940Y-95915795D01*
X159060444Y-95984204D01*
X159040000Y-96060504D01*
X159040000Y-96139496D01*
X159060444Y-96215796D01*
X159099940Y-96284205D01*
X159155795Y-96340060D01*
X159173012Y-96350000D01*
X158370138Y-96350000D01*
X158378430Y-96391690D01*
X158378430Y-96391692D01*
X158453807Y-96573671D01*
X158453814Y-96573684D01*
X158563248Y-96737462D01*
X158563251Y-96737466D01*
X158702533Y-96876748D01*
X158702537Y-96876751D01*
X158866315Y-96986185D01*
X158866328Y-96986192D01*
X159048306Y-97061569D01*
X159048318Y-97061572D01*
X159241504Y-97099999D01*
X159241508Y-97100000D01*
X159490000Y-97100000D01*
X159490000Y-96400000D01*
X159990000Y-96400000D01*
X159990000Y-97100000D01*
X160238492Y-97100000D01*
X160238495Y-97099999D01*
X160431681Y-97061572D01*
X160431693Y-97061569D01*
X160613671Y-96986192D01*
X160613684Y-96986185D01*
X160777462Y-96876751D01*
X160777466Y-96876748D01*
X160916748Y-96737466D01*
X160916751Y-96737462D01*
X161026185Y-96573684D01*
X161026192Y-96573671D01*
X161101569Y-96391692D01*
X161101569Y-96391690D01*
X161109862Y-96350000D01*
X160306988Y-96350000D01*
X160324205Y-96340060D01*
X160380060Y-96284205D01*
X160419556Y-96215796D01*
X160440000Y-96139496D01*
X160440000Y-96060504D01*
X160419556Y-95984204D01*
X160380060Y-95915795D01*
X160324205Y-95859940D01*
X160306988Y-95850000D01*
X161109862Y-95850000D01*
X161101569Y-95808309D01*
X161101569Y-95808307D01*
X161026192Y-95626328D01*
X161026185Y-95626315D01*
X160916751Y-95462537D01*
X160916748Y-95462533D01*
X160777466Y-95323251D01*
X160777462Y-95323248D01*
X160613684Y-95213814D01*
X160613671Y-95213807D01*
X160431693Y-95138430D01*
X160431681Y-95138427D01*
X160238495Y-95100000D01*
X159990000Y-95100000D01*
X159990000Y-95800000D01*
X159490000Y-95800000D01*
X159490000Y-95100000D01*
X159241504Y-95100000D01*
X159048318Y-95138427D01*
X159048306Y-95138430D01*
X158866328Y-95213807D01*
X158866315Y-95213814D01*
X158702537Y-95323248D01*
X158702533Y-95323251D01*
X158563251Y-95462533D01*
X158563248Y-95462537D01*
X158453814Y-95626315D01*
X158453807Y-95626328D01*
X158378430Y-95808307D01*
X158378430Y-95808309D01*
X158370138Y-95850000D01*
X157079862Y-95850000D01*
X157071569Y-95808309D01*
X157071569Y-95808307D01*
X156996192Y-95626328D01*
X156996185Y-95626315D01*
X156886751Y-95462537D01*
X156886748Y-95462533D01*
X156747466Y-95323251D01*
X156747462Y-95323248D01*
X156583684Y-95213814D01*
X156583674Y-95213809D01*
X156574157Y-95209867D01*
X156519754Y-95166026D01*
X156497689Y-95099731D01*
X156514969Y-95032032D01*
X156518648Y-95026597D01*
X156520512Y-95023367D01*
X156520515Y-95023365D01*
X156596281Y-94892135D01*
X156635500Y-94745766D01*
X156635500Y-94594234D01*
X156596281Y-94447865D01*
X156595948Y-94447289D01*
X156580194Y-94420001D01*
X156520515Y-94316635D01*
X156413365Y-94209485D01*
X156344468Y-94169707D01*
X156282136Y-94133719D01*
X156208950Y-94114109D01*
X156135766Y-94094500D01*
X155984234Y-94094500D01*
X155837863Y-94133719D01*
X155706635Y-94209485D01*
X155706632Y-94209487D01*
X155599487Y-94316632D01*
X155599485Y-94316635D01*
X155523719Y-94447863D01*
X155494728Y-94556061D01*
X155484500Y-94594234D01*
X155484500Y-94745766D01*
X155488004Y-94758842D01*
X155523719Y-94892136D01*
X155550369Y-94938294D01*
X155599485Y-95023365D01*
X155706635Y-95130515D01*
X155748000Y-95154397D01*
X155796216Y-95204964D01*
X155810000Y-95261784D01*
X155810000Y-95800000D01*
X155310000Y-95800000D01*
X155310000Y-95100000D01*
X154911504Y-95100000D01*
X154718318Y-95138427D01*
X154718306Y-95138430D01*
X154536328Y-95213807D01*
X154536315Y-95213814D01*
X154372537Y-95323248D01*
X154372533Y-95323251D01*
X154233251Y-95462533D01*
X154233248Y-95462537D01*
X154123814Y-95626315D01*
X154123807Y-95626328D01*
X154048430Y-95808307D01*
X154048430Y-95808309D01*
X154040138Y-95850000D01*
X128380499Y-95850000D01*
X128380499Y-94989992D01*
X128369999Y-94887203D01*
X128314814Y-94720666D01*
X128222712Y-94571344D01*
X128098656Y-94447288D01*
X128023859Y-94401153D01*
X140669500Y-94401153D01*
X140669500Y-94558846D01*
X140700261Y-94713489D01*
X140700264Y-94713501D01*
X140760602Y-94859172D01*
X140760609Y-94859185D01*
X140848210Y-94990288D01*
X140848213Y-94990292D01*
X140959707Y-95101786D01*
X140959711Y-95101789D01*
X141090814Y-95189390D01*
X141090827Y-95189397D01*
X141226274Y-95245500D01*
X141236503Y-95249737D01*
X141335662Y-95269461D01*
X141391153Y-95280499D01*
X141391156Y-95280500D01*
X141391158Y-95280500D01*
X141548844Y-95280500D01*
X141548845Y-95280499D01*
X141703497Y-95249737D01*
X141849179Y-95189394D01*
X141980289Y-95101789D01*
X142091789Y-94990289D01*
X142179394Y-94859179D01*
X142239737Y-94713497D01*
X142270500Y-94558842D01*
X142270500Y-94401158D01*
X142270500Y-94401155D01*
X142270499Y-94401153D01*
X142268262Y-94389908D01*
X142239737Y-94246503D01*
X142220389Y-94199792D01*
X142179397Y-94100827D01*
X142179390Y-94100814D01*
X142091789Y-93969711D01*
X142091786Y-93969707D01*
X141980292Y-93858213D01*
X141980288Y-93858210D01*
X141849185Y-93770609D01*
X141849172Y-93770602D01*
X141703501Y-93710264D01*
X141703489Y-93710261D01*
X141548845Y-93679500D01*
X141548842Y-93679500D01*
X141391158Y-93679500D01*
X141391155Y-93679500D01*
X141236510Y-93710261D01*
X141236498Y-93710264D01*
X141090827Y-93770602D01*
X141090814Y-93770609D01*
X140959711Y-93858210D01*
X140959707Y-93858213D01*
X140848213Y-93969707D01*
X140848210Y-93969711D01*
X140760609Y-94100814D01*
X140760602Y-94100827D01*
X140700264Y-94246498D01*
X140700261Y-94246510D01*
X140669500Y-94401153D01*
X128023859Y-94401153D01*
X128005628Y-94389908D01*
X127949336Y-94355187D01*
X127949331Y-94355185D01*
X127947862Y-94354698D01*
X127782797Y-94300001D01*
X127782795Y-94300000D01*
X127680010Y-94289500D01*
X126339998Y-94289500D01*
X126339981Y-94289501D01*
X126237203Y-94300000D01*
X126237200Y-94300001D01*
X126070668Y-94355185D01*
X126070663Y-94355187D01*
X125921342Y-94447289D01*
X125797289Y-94571342D01*
X125705179Y-94720677D01*
X125704861Y-94721360D01*
X125704518Y-94721748D01*
X125701395Y-94726813D01*
X125700529Y-94726278D01*
X125658683Y-94773794D01*
X125591487Y-94792939D01*
X125524608Y-94772716D01*
X125504804Y-94756624D01*
X125362823Y-94614643D01*
X125362821Y-94614641D01*
X125188299Y-94487843D01*
X124996089Y-94389908D01*
X124790926Y-94323246D01*
X124790924Y-94323245D01*
X124790922Y-94323245D01*
X124577866Y-94289500D01*
X124577861Y-94289500D01*
X124362139Y-94289500D01*
X124362134Y-94289500D01*
X124149077Y-94323245D01*
X123943908Y-94389909D01*
X123751700Y-94487843D01*
X123703592Y-94522796D01*
X123577179Y-94614641D01*
X123577177Y-94614643D01*
X123577176Y-94614643D01*
X123424643Y-94767176D01*
X123424643Y-94767177D01*
X123424641Y-94767179D01*
X123377068Y-94832658D01*
X123300318Y-94938294D01*
X123244988Y-94980959D01*
X123175374Y-94986938D01*
X123113579Y-94954332D01*
X123099682Y-94938294D01*
X123062562Y-94887203D01*
X122975359Y-94767179D01*
X122822821Y-94614641D01*
X122648299Y-94487843D01*
X122456089Y-94389908D01*
X122250926Y-94323246D01*
X122250924Y-94323245D01*
X122250922Y-94323245D01*
X122037866Y-94289500D01*
X122037861Y-94289500D01*
X121822139Y-94289500D01*
X121822134Y-94289500D01*
X121609077Y-94323245D01*
X121403908Y-94389909D01*
X121211700Y-94487843D01*
X121163592Y-94522796D01*
X121037179Y-94614641D01*
X121037177Y-94614643D01*
X121037176Y-94614643D01*
X120884643Y-94767176D01*
X120884643Y-94767177D01*
X120884641Y-94767179D01*
X120837068Y-94832658D01*
X120757843Y-94941700D01*
X120659909Y-95133908D01*
X120659908Y-95133910D01*
X120659908Y-95133911D01*
X120656618Y-95144038D01*
X120593245Y-95339077D01*
X120559500Y-95552133D01*
X113155633Y-95552133D01*
X113134038Y-95530538D01*
X113134034Y-95530535D01*
X112986553Y-95431990D01*
X112986540Y-95431983D01*
X112822667Y-95364106D01*
X112822658Y-95364103D01*
X112648694Y-95329500D01*
X112648691Y-95329500D01*
X112471309Y-95329500D01*
X112471306Y-95329500D01*
X112297341Y-95364103D01*
X112297332Y-95364106D01*
X112133459Y-95431983D01*
X112133446Y-95431990D01*
X111985965Y-95530535D01*
X111985961Y-95530538D01*
X111860538Y-95655961D01*
X111860535Y-95655965D01*
X111761990Y-95803446D01*
X111761983Y-95803459D01*
X111694106Y-95967332D01*
X111694103Y-95967341D01*
X111659500Y-96141304D01*
X109363598Y-96141304D01*
X109343581Y-96040677D01*
X109343580Y-96040676D01*
X109343580Y-96040672D01*
X109343578Y-96040667D01*
X109290778Y-95913195D01*
X109290771Y-95913182D01*
X109214114Y-95798458D01*
X109214111Y-95798454D01*
X109116545Y-95700888D01*
X109116541Y-95700885D01*
X109001817Y-95624228D01*
X109001804Y-95624221D01*
X108874332Y-95571421D01*
X108874322Y-95571418D01*
X108738995Y-95544500D01*
X108738993Y-95544500D01*
X108601007Y-95544500D01*
X108601005Y-95544500D01*
X108465677Y-95571418D01*
X108465667Y-95571421D01*
X108338195Y-95624221D01*
X108338182Y-95624228D01*
X108223458Y-95700885D01*
X108223454Y-95700888D01*
X108125888Y-95798454D01*
X108125885Y-95798458D01*
X108049228Y-95913182D01*
X108049221Y-95913195D01*
X107996421Y-96040667D01*
X107996418Y-96040677D01*
X107969500Y-96176004D01*
X107969500Y-96176007D01*
X107969500Y-96313993D01*
X107969500Y-96313995D01*
X107969499Y-96313995D01*
X106370500Y-96313995D01*
X106370500Y-96176004D01*
X106343581Y-96040677D01*
X106343580Y-96040676D01*
X106343580Y-96040672D01*
X106343578Y-96040667D01*
X106290778Y-95913195D01*
X106290771Y-95913182D01*
X106214114Y-95798458D01*
X106214111Y-95798454D01*
X106116545Y-95700888D01*
X106116541Y-95700885D01*
X106001817Y-95624228D01*
X106001804Y-95624221D01*
X105874332Y-95571421D01*
X105874322Y-95571418D01*
X105738995Y-95544500D01*
X105738993Y-95544500D01*
X105601007Y-95544500D01*
X105601005Y-95544500D01*
X105465677Y-95571418D01*
X105465667Y-95571421D01*
X105338195Y-95624221D01*
X105338182Y-95624228D01*
X105223458Y-95700885D01*
X105223454Y-95700888D01*
X105125888Y-95798454D01*
X105125885Y-95798458D01*
X105049228Y-95913182D01*
X105049221Y-95913195D01*
X104996421Y-96040667D01*
X104996418Y-96040677D01*
X104969500Y-96176004D01*
X104969500Y-96176007D01*
X104969500Y-96313993D01*
X104969500Y-96313995D01*
X104969499Y-96313995D01*
X94960436Y-96313995D01*
X94915084Y-96204505D01*
X94915082Y-96204502D01*
X94915080Y-96204498D01*
X94832951Y-96081584D01*
X94832948Y-96081580D01*
X94728419Y-95977051D01*
X94728415Y-95977048D01*
X94605501Y-95894919D01*
X94605488Y-95894912D01*
X94468917Y-95838343D01*
X94468907Y-95838340D01*
X94323920Y-95809500D01*
X94323918Y-95809500D01*
X94176082Y-95809500D01*
X94176080Y-95809500D01*
X94031092Y-95838340D01*
X94031082Y-95838343D01*
X93894511Y-95894912D01*
X93894498Y-95894919D01*
X93771584Y-95977048D01*
X93771580Y-95977051D01*
X93667051Y-96081580D01*
X93667048Y-96081584D01*
X93584919Y-96204498D01*
X93584912Y-96204511D01*
X93528343Y-96341082D01*
X93528340Y-96341092D01*
X93499500Y-96486079D01*
X93499500Y-96486082D01*
X93499500Y-96633918D01*
X93499500Y-96633920D01*
X93499499Y-96633920D01*
X50128634Y-96633920D01*
X50155804Y-96596524D01*
X50234407Y-96442258D01*
X50234595Y-96441681D01*
X50234596Y-96441679D01*
X50234598Y-96441671D01*
X50287914Y-96277582D01*
X50289115Y-96270000D01*
X49220330Y-96270000D01*
X49240075Y-96250255D01*
X49289444Y-96164745D01*
X49315000Y-96069370D01*
X49315000Y-95970630D01*
X49289444Y-95875255D01*
X49240075Y-95789745D01*
X49220330Y-95770000D01*
X50289115Y-95770000D01*
X50289115Y-95769999D01*
X50287914Y-95762415D01*
X50234408Y-95597744D01*
X50155804Y-95443475D01*
X50054032Y-95303397D01*
X49946434Y-95195799D01*
X49912949Y-95134476D01*
X49917933Y-95064784D01*
X49959805Y-95008851D01*
X49968995Y-95002594D01*
X50033656Y-94962712D01*
X50157712Y-94838656D01*
X50249814Y-94689334D01*
X50279034Y-94601153D01*
X67159500Y-94601153D01*
X67159500Y-94758846D01*
X67190261Y-94913489D01*
X67190264Y-94913501D01*
X67250602Y-95059172D01*
X67250609Y-95059185D01*
X67338210Y-95190288D01*
X67338213Y-95190292D01*
X67449707Y-95301786D01*
X67449711Y-95301789D01*
X67580814Y-95389390D01*
X67580827Y-95389397D01*
X67711385Y-95443475D01*
X67726503Y-95449737D01*
X67881153Y-95480499D01*
X67881156Y-95480500D01*
X67881158Y-95480500D01*
X68038844Y-95480500D01*
X68038845Y-95480499D01*
X68193497Y-95449737D01*
X68339179Y-95389394D01*
X68470289Y-95301789D01*
X68581789Y-95190289D01*
X68669394Y-95059179D01*
X68729737Y-94913497D01*
X68760500Y-94758842D01*
X68760500Y-94601158D01*
X68760500Y-94601155D01*
X68760499Y-94601153D01*
X68754612Y-94571557D01*
X68729737Y-94446503D01*
X68718763Y-94420009D01*
X68669397Y-94300827D01*
X68669390Y-94300814D01*
X68581789Y-94169711D01*
X68581786Y-94169707D01*
X68470292Y-94058213D01*
X68470288Y-94058210D01*
X68339185Y-93970609D01*
X68339172Y-93970602D01*
X68193501Y-93910264D01*
X68193489Y-93910261D01*
X68038845Y-93879500D01*
X68038842Y-93879500D01*
X67881158Y-93879500D01*
X67881155Y-93879500D01*
X67726510Y-93910261D01*
X67726498Y-93910264D01*
X67580827Y-93970602D01*
X67580814Y-93970609D01*
X67449711Y-94058210D01*
X67449707Y-94058213D01*
X67338213Y-94169707D01*
X67338210Y-94169711D01*
X67250609Y-94300814D01*
X67250602Y-94300827D01*
X67190264Y-94446498D01*
X67190261Y-94446510D01*
X67159500Y-94601153D01*
X50279034Y-94601153D01*
X50304999Y-94522797D01*
X50315500Y-94420009D01*
X50315499Y-93619992D01*
X50315080Y-93615894D01*
X50304999Y-93517203D01*
X50304998Y-93517200D01*
X50288699Y-93468013D01*
X50249814Y-93350666D01*
X50233387Y-93324034D01*
X50202489Y-93273939D01*
X50202488Y-93273938D01*
X50165341Y-93213713D01*
X75059500Y-93213713D01*
X75059500Y-93426287D01*
X75063171Y-93449464D01*
X75090178Y-93619983D01*
X75092754Y-93636243D01*
X75136412Y-93770609D01*
X75158444Y-93838414D01*
X75254951Y-94027820D01*
X75379890Y-94199786D01*
X75530213Y-94350109D01*
X75702179Y-94475048D01*
X75702181Y-94475049D01*
X75702184Y-94475051D01*
X75891588Y-94571557D01*
X76093757Y-94637246D01*
X76303713Y-94670500D01*
X76303714Y-94670500D01*
X76516286Y-94670500D01*
X76516287Y-94670500D01*
X76726243Y-94637246D01*
X76928412Y-94571557D01*
X77105544Y-94481304D01*
X79569500Y-94481304D01*
X79569500Y-94658695D01*
X79604103Y-94832658D01*
X79604106Y-94832667D01*
X79671983Y-94996540D01*
X79671990Y-94996553D01*
X79770535Y-95144034D01*
X79770538Y-95144038D01*
X79895961Y-95269461D01*
X79895965Y-95269464D01*
X80043446Y-95368009D01*
X80043459Y-95368016D01*
X80166363Y-95418923D01*
X80207334Y-95435894D01*
X80207336Y-95435894D01*
X80207341Y-95435896D01*
X80381304Y-95470499D01*
X80381307Y-95470500D01*
X80381309Y-95470500D01*
X80558693Y-95470500D01*
X80558694Y-95470499D01*
X80616682Y-95458964D01*
X80732658Y-95435896D01*
X80732661Y-95435894D01*
X80732666Y-95435894D01*
X80896547Y-95368013D01*
X81044035Y-95269464D01*
X81169464Y-95144035D01*
X81268013Y-94996547D01*
X81335894Y-94832666D01*
X81343797Y-94792939D01*
X81370499Y-94658695D01*
X81370500Y-94658693D01*
X81370500Y-94481306D01*
X81370499Y-94481304D01*
X81335896Y-94307341D01*
X81335893Y-94307332D01*
X81332856Y-94300001D01*
X81291347Y-94199786D01*
X81268016Y-94143459D01*
X81268009Y-94143446D01*
X81169464Y-93995965D01*
X81169461Y-93995961D01*
X81044038Y-93870538D01*
X81044034Y-93870535D01*
X80896553Y-93771990D01*
X80896540Y-93771983D01*
X80732667Y-93704106D01*
X80732658Y-93704103D01*
X80558694Y-93669500D01*
X80558691Y-93669500D01*
X80381309Y-93669500D01*
X80381306Y-93669500D01*
X80207341Y-93704103D01*
X80207332Y-93704106D01*
X80043459Y-93771983D01*
X80043446Y-93771990D01*
X79895965Y-93870535D01*
X79895961Y-93870538D01*
X79770538Y-93995961D01*
X79770535Y-93995965D01*
X79671990Y-94143446D01*
X79671983Y-94143459D01*
X79604106Y-94307332D01*
X79604103Y-94307341D01*
X79569500Y-94481304D01*
X77105544Y-94481304D01*
X77117816Y-94475051D01*
X77255666Y-94374898D01*
X77255668Y-94374897D01*
X77289785Y-94350109D01*
X77289783Y-94350109D01*
X77289792Y-94350104D01*
X77440104Y-94199792D01*
X77440106Y-94199788D01*
X77440109Y-94199786D01*
X77565048Y-94027820D01*
X77565047Y-94027820D01*
X77565051Y-94027816D01*
X77661557Y-93838412D01*
X77727246Y-93636243D01*
X77760500Y-93426287D01*
X77760500Y-93213713D01*
X77727246Y-93003757D01*
X77661557Y-92801588D01*
X77590079Y-92661304D01*
X99579500Y-92661304D01*
X99579500Y-92838695D01*
X99614103Y-93012658D01*
X99614106Y-93012667D01*
X99681983Y-93176540D01*
X99681990Y-93176553D01*
X99780535Y-93324034D01*
X99780538Y-93324038D01*
X99905961Y-93449461D01*
X99905965Y-93449464D01*
X100053446Y-93548009D01*
X100053459Y-93548016D01*
X100176363Y-93598923D01*
X100217334Y-93615894D01*
X100217336Y-93615894D01*
X100217341Y-93615896D01*
X100391304Y-93650499D01*
X100391307Y-93650500D01*
X100391309Y-93650500D01*
X100568693Y-93650500D01*
X100568694Y-93650499D01*
X100626682Y-93638964D01*
X100742658Y-93615896D01*
X100742661Y-93615894D01*
X100742666Y-93615894D01*
X100906547Y-93548013D01*
X101054035Y-93449464D01*
X101179464Y-93324035D01*
X101278013Y-93176547D01*
X101345894Y-93012666D01*
X101351361Y-92985185D01*
X101380499Y-92838695D01*
X101380500Y-92838693D01*
X101380500Y-92661306D01*
X101380499Y-92661304D01*
X101368188Y-92599408D01*
X101364587Y-92581304D01*
X107949500Y-92581304D01*
X107949500Y-92758695D01*
X107984103Y-92932658D01*
X107984106Y-92932667D01*
X108051983Y-93096540D01*
X108051990Y-93096553D01*
X108150535Y-93244034D01*
X108150538Y-93244038D01*
X108275961Y-93369461D01*
X108275965Y-93369464D01*
X108423446Y-93468009D01*
X108423459Y-93468016D01*
X108542202Y-93517200D01*
X108587334Y-93535894D01*
X108587336Y-93535894D01*
X108587341Y-93535896D01*
X108761304Y-93570499D01*
X108761307Y-93570500D01*
X108761309Y-93570500D01*
X108938693Y-93570500D01*
X108938694Y-93570499D01*
X108996682Y-93558964D01*
X109112658Y-93535896D01*
X109112661Y-93535894D01*
X109112666Y-93535894D01*
X109276547Y-93468013D01*
X109424035Y-93369464D01*
X109549464Y-93244035D01*
X109648013Y-93096547D01*
X109715894Y-92932666D01*
X109716425Y-92930001D01*
X109750499Y-92758695D01*
X109750500Y-92758693D01*
X109750500Y-92581306D01*
X109750499Y-92581304D01*
X109715896Y-92407341D01*
X109715893Y-92407332D01*
X109708376Y-92389185D01*
X109648033Y-92243501D01*
X109648016Y-92243459D01*
X109648009Y-92243446D01*
X109549464Y-92095965D01*
X109549461Y-92095961D01*
X109424038Y-91970538D01*
X109424034Y-91970535D01*
X109365095Y-91931153D01*
X140029500Y-91931153D01*
X140029500Y-92088846D01*
X140060261Y-92243489D01*
X140060264Y-92243501D01*
X140120602Y-92389172D01*
X140120609Y-92389185D01*
X140208210Y-92520288D01*
X140208213Y-92520292D01*
X140319707Y-92631786D01*
X140319711Y-92631789D01*
X140450814Y-92719390D01*
X140450827Y-92719397D01*
X140596498Y-92779735D01*
X140596503Y-92779737D01*
X140706340Y-92801585D01*
X140751153Y-92810499D01*
X140751156Y-92810500D01*
X140751158Y-92810500D01*
X140908844Y-92810500D01*
X140908845Y-92810499D01*
X141063497Y-92779737D01*
X141209179Y-92719394D01*
X141340289Y-92631789D01*
X141451789Y-92520289D01*
X141539394Y-92389179D01*
X141599737Y-92243497D01*
X141630500Y-92088842D01*
X141630500Y-91931158D01*
X141630500Y-91931155D01*
X141630499Y-91931153D01*
X141614257Y-91849500D01*
X141599737Y-91776503D01*
X141596836Y-91769500D01*
X141539397Y-91630827D01*
X141539390Y-91630814D01*
X141451789Y-91499711D01*
X141451786Y-91499707D01*
X141340292Y-91388213D01*
X141340288Y-91388210D01*
X141209185Y-91300609D01*
X141209172Y-91300602D01*
X141063501Y-91240264D01*
X141063489Y-91240261D01*
X140908845Y-91209500D01*
X140908842Y-91209500D01*
X140751158Y-91209500D01*
X140751155Y-91209500D01*
X140596510Y-91240261D01*
X140596498Y-91240264D01*
X140450827Y-91300602D01*
X140450814Y-91300609D01*
X140319711Y-91388210D01*
X140319707Y-91388213D01*
X140208213Y-91499707D01*
X140208210Y-91499711D01*
X140120609Y-91630814D01*
X140120602Y-91630827D01*
X140060264Y-91776498D01*
X140060261Y-91776510D01*
X140029500Y-91931153D01*
X109365095Y-91931153D01*
X109276553Y-91871990D01*
X109276540Y-91871983D01*
X109112667Y-91804106D01*
X109112658Y-91804103D01*
X108938694Y-91769500D01*
X108938691Y-91769500D01*
X108761309Y-91769500D01*
X108761306Y-91769500D01*
X108587341Y-91804103D01*
X108587332Y-91804106D01*
X108423459Y-91871983D01*
X108423446Y-91871990D01*
X108275965Y-91970535D01*
X108275961Y-91970538D01*
X108150538Y-92095961D01*
X108150535Y-92095965D01*
X108051990Y-92243446D01*
X108051983Y-92243459D01*
X107984106Y-92407332D01*
X107984103Y-92407341D01*
X107949500Y-92581304D01*
X101364587Y-92581304D01*
X101345895Y-92487340D01*
X101345894Y-92487334D01*
X101312757Y-92407334D01*
X101278016Y-92323459D01*
X101278009Y-92323446D01*
X101179464Y-92175965D01*
X101179461Y-92175961D01*
X101054038Y-92050538D01*
X101054034Y-92050535D01*
X100906553Y-91951990D01*
X100906540Y-91951983D01*
X100742667Y-91884106D01*
X100742658Y-91884103D01*
X100568694Y-91849500D01*
X100568691Y-91849500D01*
X100391309Y-91849500D01*
X100391306Y-91849500D01*
X100217341Y-91884103D01*
X100217332Y-91884106D01*
X100053459Y-91951983D01*
X100053446Y-91951990D01*
X99905965Y-92050535D01*
X99905961Y-92050538D01*
X99780538Y-92175961D01*
X99780535Y-92175965D01*
X99681990Y-92323446D01*
X99681983Y-92323459D01*
X99614106Y-92487332D01*
X99614103Y-92487341D01*
X99579500Y-92661304D01*
X77590079Y-92661304D01*
X77565051Y-92612184D01*
X77565049Y-92612181D01*
X77565048Y-92612179D01*
X77440109Y-92440213D01*
X77289786Y-92289890D01*
X77117820Y-92164951D01*
X76928414Y-92068444D01*
X76928413Y-92068443D01*
X76928412Y-92068443D01*
X76726243Y-92002754D01*
X76726241Y-92002753D01*
X76726240Y-92002753D01*
X76564957Y-91977208D01*
X76516287Y-91969500D01*
X76303713Y-91969500D01*
X76255042Y-91977208D01*
X76093760Y-92002753D01*
X75891585Y-92068444D01*
X75702179Y-92164951D01*
X75530213Y-92289890D01*
X75379890Y-92440213D01*
X75254951Y-92612179D01*
X75158444Y-92801585D01*
X75092753Y-93003760D01*
X75065386Y-93176553D01*
X75059500Y-93213713D01*
X50165341Y-93213713D01*
X50157712Y-93201344D01*
X50033656Y-93077288D01*
X49928888Y-93012667D01*
X49884336Y-92985187D01*
X49884331Y-92985185D01*
X49882862Y-92984698D01*
X49717797Y-92930001D01*
X49717795Y-92930000D01*
X49615010Y-92919500D01*
X48264998Y-92919500D01*
X48264981Y-92919501D01*
X48162203Y-92930000D01*
X48162200Y-92930001D01*
X47995668Y-92985185D01*
X47995663Y-92985187D01*
X47846342Y-93077289D01*
X47722289Y-93201342D01*
X47630187Y-93350663D01*
X47630186Y-93350666D01*
X47575001Y-93517203D01*
X47575001Y-93517204D01*
X47575000Y-93517204D01*
X47564500Y-93619983D01*
X42690500Y-93619983D01*
X42690500Y-90463591D01*
X71318540Y-90463591D01*
X71352112Y-90486023D01*
X71470401Y-90535020D01*
X71470409Y-90535022D01*
X71595976Y-90559999D01*
X71595980Y-90560000D01*
X71724020Y-90560000D01*
X71724023Y-90559999D01*
X71849590Y-90535022D01*
X71849594Y-90535021D01*
X71967891Y-90486020D01*
X71967898Y-90486016D01*
X72001458Y-90463591D01*
X72001459Y-90463590D01*
X71660001Y-90122132D01*
X71660000Y-90122132D01*
X71318540Y-90463591D01*
X42690500Y-90463591D01*
X42690500Y-89845976D01*
X71010000Y-89845976D01*
X71010000Y-89974023D01*
X71034977Y-90099590D01*
X71034979Y-90099598D01*
X71083976Y-90217886D01*
X71083981Y-90217896D01*
X71106407Y-90251458D01*
X71106408Y-90251458D01*
X71447868Y-89910000D01*
X71447868Y-89909999D01*
X71427978Y-89890109D01*
X71560000Y-89890109D01*
X71560000Y-89929891D01*
X71575224Y-89966645D01*
X71603355Y-89994776D01*
X71640109Y-90010000D01*
X71679891Y-90010000D01*
X71716645Y-89994776D01*
X71744776Y-89966645D01*
X71760000Y-89929891D01*
X71760000Y-89909999D01*
X71872132Y-89909999D01*
X71872132Y-89910001D01*
X72213590Y-90251459D01*
X72213591Y-90251458D01*
X72236016Y-90217898D01*
X72236020Y-90217891D01*
X72285021Y-90099594D01*
X72285022Y-90099590D01*
X72309999Y-89974023D01*
X72310000Y-89974020D01*
X72310000Y-89845980D01*
X72309999Y-89845976D01*
X72285022Y-89720409D01*
X72285020Y-89720401D01*
X72236023Y-89602112D01*
X72213591Y-89568540D01*
X71872132Y-89909999D01*
X71760000Y-89909999D01*
X71760000Y-89890109D01*
X71744776Y-89853355D01*
X71716645Y-89825224D01*
X71679891Y-89810000D01*
X71640109Y-89810000D01*
X71603355Y-89825224D01*
X71575224Y-89853355D01*
X71560000Y-89890109D01*
X71427978Y-89890109D01*
X71106408Y-89568539D01*
X71106407Y-89568540D01*
X71083978Y-89602109D01*
X71034979Y-89720401D01*
X71034977Y-89720409D01*
X71010000Y-89845976D01*
X42690500Y-89845976D01*
X42690500Y-89410000D01*
X71372132Y-89410000D01*
X71660000Y-89697868D01*
X71947868Y-89410000D01*
X71660000Y-89122132D01*
X71372132Y-89410000D01*
X42690500Y-89410000D01*
X42690500Y-88845976D01*
X71010000Y-88845976D01*
X71010000Y-88974023D01*
X71034977Y-89099590D01*
X71034979Y-89099598D01*
X71083976Y-89217886D01*
X71083981Y-89217896D01*
X71106407Y-89251458D01*
X71106408Y-89251458D01*
X71447868Y-88910000D01*
X71447868Y-88909999D01*
X71427978Y-88890109D01*
X71560000Y-88890109D01*
X71560000Y-88929891D01*
X71575224Y-88966645D01*
X71603355Y-88994776D01*
X71640109Y-89010000D01*
X71679891Y-89010000D01*
X71716645Y-88994776D01*
X71744776Y-88966645D01*
X71760000Y-88929891D01*
X71760000Y-88909999D01*
X71872132Y-88909999D01*
X71872132Y-88910001D01*
X72213590Y-89251459D01*
X72213591Y-89251458D01*
X72236016Y-89217898D01*
X72236020Y-89217891D01*
X72285021Y-89099594D01*
X72285022Y-89099590D01*
X72309999Y-88974023D01*
X72310000Y-88974020D01*
X72310000Y-88845980D01*
X72309999Y-88845976D01*
X72285022Y-88720409D01*
X72285020Y-88720401D01*
X72236023Y-88602112D01*
X72213591Y-88568540D01*
X71872132Y-88909999D01*
X71760000Y-88909999D01*
X71760000Y-88890109D01*
X71744776Y-88853355D01*
X71716645Y-88825224D01*
X71679891Y-88810000D01*
X71640109Y-88810000D01*
X71603355Y-88825224D01*
X71575224Y-88853355D01*
X71560000Y-88890109D01*
X71427978Y-88890109D01*
X71106408Y-88568539D01*
X71106407Y-88568540D01*
X71083978Y-88602109D01*
X71034979Y-88720401D01*
X71034977Y-88720409D01*
X71010000Y-88845976D01*
X42690500Y-88845976D01*
X42690500Y-84269983D01*
X47564500Y-84269983D01*
X47564500Y-85070001D01*
X47564501Y-85070019D01*
X47575000Y-85172796D01*
X47575001Y-85172799D01*
X47606939Y-85269179D01*
X47630186Y-85339334D01*
X47722288Y-85488656D01*
X47846344Y-85612712D01*
X47910981Y-85652580D01*
X47957705Y-85704526D01*
X47968928Y-85773489D01*
X47941085Y-85837571D01*
X47933566Y-85845799D01*
X47825964Y-85953401D01*
X47724195Y-86093475D01*
X47645591Y-86247744D01*
X47592085Y-86412415D01*
X47590884Y-86419999D01*
X47590885Y-86420000D01*
X48659670Y-86420000D01*
X48639925Y-86439745D01*
X48590556Y-86525255D01*
X48565000Y-86620630D01*
X48565000Y-86719370D01*
X48590556Y-86814745D01*
X48639925Y-86900255D01*
X48659670Y-86920000D01*
X47590885Y-86920000D01*
X47592085Y-86927584D01*
X47645591Y-87092255D01*
X47724195Y-87246524D01*
X47825967Y-87386602D01*
X47948397Y-87509032D01*
X48088475Y-87610804D01*
X48242742Y-87689408D01*
X48407415Y-87742914D01*
X48578429Y-87770000D01*
X48690000Y-87770000D01*
X48690000Y-86950330D01*
X48709745Y-86970075D01*
X48795255Y-87019444D01*
X48890630Y-87045000D01*
X48989370Y-87045000D01*
X49084745Y-87019444D01*
X49170255Y-86970075D01*
X49190000Y-86950330D01*
X49190000Y-87770000D01*
X49301571Y-87770000D01*
X49357428Y-87761153D01*
X58409500Y-87761153D01*
X58409500Y-87918846D01*
X58440261Y-88073489D01*
X58440264Y-88073501D01*
X58500602Y-88219172D01*
X58500609Y-88219185D01*
X58588210Y-88350288D01*
X58588213Y-88350292D01*
X58699707Y-88461786D01*
X58699711Y-88461789D01*
X58830814Y-88549390D01*
X58830827Y-88549397D01*
X58958087Y-88602109D01*
X58976503Y-88609737D01*
X59131153Y-88640499D01*
X59131156Y-88640500D01*
X59131158Y-88640500D01*
X59288844Y-88640500D01*
X59288845Y-88640499D01*
X59443497Y-88609737D01*
X59589179Y-88549394D01*
X59720289Y-88461789D01*
X59825670Y-88356408D01*
X71318539Y-88356408D01*
X71660000Y-88697868D01*
X71660001Y-88697868D01*
X72001458Y-88356408D01*
X72001458Y-88356407D01*
X71967896Y-88333981D01*
X71967886Y-88333976D01*
X71849598Y-88284979D01*
X71849590Y-88284977D01*
X71758379Y-88266834D01*
X71724023Y-88260000D01*
X71595976Y-88260000D01*
X71470409Y-88284977D01*
X71470401Y-88284979D01*
X71352109Y-88333978D01*
X71318540Y-88356407D01*
X71318539Y-88356408D01*
X59825670Y-88356408D01*
X59831789Y-88350289D01*
X59846221Y-88328691D01*
X59919390Y-88219185D01*
X59919390Y-88219184D01*
X59919394Y-88219179D01*
X59947509Y-88151304D01*
X81809500Y-88151304D01*
X81809500Y-88328695D01*
X81844103Y-88502658D01*
X81844106Y-88502667D01*
X81911983Y-88666540D01*
X81911990Y-88666553D01*
X82010535Y-88814034D01*
X82010538Y-88814038D01*
X82135961Y-88939461D01*
X82135965Y-88939464D01*
X82283446Y-89038009D01*
X82283459Y-89038016D01*
X82406363Y-89088923D01*
X82447334Y-89105894D01*
X82447336Y-89105894D01*
X82447341Y-89105896D01*
X82621304Y-89140499D01*
X82621307Y-89140500D01*
X82621309Y-89140500D01*
X82798693Y-89140500D01*
X82798694Y-89140499D01*
X82891033Y-89122132D01*
X82972658Y-89105896D01*
X82972661Y-89105894D01*
X82972666Y-89105894D01*
X83136547Y-89038013D01*
X83284035Y-88939464D01*
X83409464Y-88814035D01*
X83418072Y-88801153D01*
X91729500Y-88801153D01*
X91729500Y-88958846D01*
X91760261Y-89113489D01*
X91760264Y-89113501D01*
X91820602Y-89259172D01*
X91820609Y-89259185D01*
X91908210Y-89390288D01*
X91908213Y-89390292D01*
X92019707Y-89501786D01*
X92019711Y-89501789D01*
X92150814Y-89589390D01*
X92150827Y-89589397D01*
X92292512Y-89648084D01*
X92296503Y-89649737D01*
X92451153Y-89680499D01*
X92451156Y-89680500D01*
X92451158Y-89680500D01*
X92608844Y-89680500D01*
X92608845Y-89680499D01*
X92763497Y-89649737D01*
X92909179Y-89589394D01*
X93040289Y-89501789D01*
X93151789Y-89390289D01*
X93239394Y-89259179D01*
X93245944Y-89243367D01*
X93278363Y-89165099D01*
X93299737Y-89113497D01*
X93330500Y-88958842D01*
X93330500Y-88801158D01*
X93330500Y-88801155D01*
X93314209Y-88719258D01*
X93314209Y-88719257D01*
X93310608Y-88701153D01*
X97439500Y-88701153D01*
X97439500Y-88858846D01*
X97470261Y-89013489D01*
X97470264Y-89013501D01*
X97530602Y-89159172D01*
X97530609Y-89159185D01*
X97618210Y-89290288D01*
X97618213Y-89290292D01*
X97729707Y-89401786D01*
X97729711Y-89401789D01*
X97860814Y-89489390D01*
X97860827Y-89489397D01*
X97950927Y-89526717D01*
X98006503Y-89549737D01*
X98161153Y-89580499D01*
X98161156Y-89580500D01*
X98161158Y-89580500D01*
X98318844Y-89580500D01*
X98318845Y-89580499D01*
X98473497Y-89549737D01*
X98619179Y-89489394D01*
X98750289Y-89401789D01*
X98861789Y-89290289D01*
X98949394Y-89159179D01*
X99009737Y-89013497D01*
X99040500Y-88858842D01*
X99040500Y-88701158D01*
X99035908Y-88678071D01*
X99035908Y-88678068D01*
X99032066Y-88658753D01*
X132650000Y-88658753D01*
X132650000Y-88871246D01*
X132683242Y-89081127D01*
X132683242Y-89081130D01*
X132748904Y-89283217D01*
X132845375Y-89472550D01*
X132884728Y-89526716D01*
X133517037Y-88894408D01*
X133534075Y-88957993D01*
X133599901Y-89072007D01*
X133692993Y-89165099D01*
X133807007Y-89230925D01*
X133870590Y-89247962D01*
X133238282Y-89880269D01*
X133238282Y-89880270D01*
X133292449Y-89919624D01*
X133481782Y-90016095D01*
X133683870Y-90081757D01*
X133893754Y-90115000D01*
X134106246Y-90115000D01*
X134316127Y-90081757D01*
X134316130Y-90081757D01*
X134518217Y-90016095D01*
X134707554Y-89919622D01*
X134761716Y-89880270D01*
X134761717Y-89880270D01*
X134129408Y-89247962D01*
X134192993Y-89230925D01*
X134307007Y-89165099D01*
X134400099Y-89072007D01*
X134465925Y-88957993D01*
X134482962Y-88894408D01*
X135115270Y-89526717D01*
X135115270Y-89526716D01*
X135154622Y-89472555D01*
X135159232Y-89463507D01*
X135207205Y-89412709D01*
X135275025Y-89395912D01*
X135341161Y-89418447D01*
X135380204Y-89463504D01*
X135384949Y-89472817D01*
X135509890Y-89644786D01*
X135660213Y-89795109D01*
X135832179Y-89920048D01*
X135832181Y-89920049D01*
X135832184Y-89920051D01*
X136021588Y-90016557D01*
X136223757Y-90082246D01*
X136433713Y-90115500D01*
X136433714Y-90115500D01*
X136646286Y-90115500D01*
X136646287Y-90115500D01*
X136856243Y-90082246D01*
X137058412Y-90016557D01*
X137247816Y-89920051D01*
X137419792Y-89795104D01*
X137533329Y-89681566D01*
X137594648Y-89648084D01*
X137664340Y-89653068D01*
X137720274Y-89694939D01*
X137737189Y-89725917D01*
X137786202Y-89857328D01*
X137786206Y-89857335D01*
X137872452Y-89972544D01*
X137872455Y-89972547D01*
X137987664Y-90058793D01*
X137987671Y-90058797D01*
X138122517Y-90109091D01*
X138122516Y-90109091D01*
X138129444Y-90109835D01*
X138182127Y-90115500D01*
X139977872Y-90115499D01*
X140037483Y-90109091D01*
X140172331Y-90058796D01*
X140287546Y-89972546D01*
X140373796Y-89857331D01*
X140424091Y-89722483D01*
X140430500Y-89662873D01*
X140430499Y-88765000D01*
X140430499Y-87867129D01*
X140430498Y-87867123D01*
X140424091Y-87807516D01*
X140391450Y-87720002D01*
X140391449Y-87720000D01*
X140387719Y-87710000D01*
X140380039Y-87689408D01*
X140373798Y-87672673D01*
X140373793Y-87672664D01*
X140287547Y-87557455D01*
X140287544Y-87557452D01*
X140172335Y-87471206D01*
X140172328Y-87471202D01*
X140037482Y-87420908D01*
X140037483Y-87420908D01*
X139977883Y-87414501D01*
X139977881Y-87414500D01*
X139977873Y-87414500D01*
X139977864Y-87414500D01*
X138182129Y-87414500D01*
X138182123Y-87414501D01*
X138122516Y-87420908D01*
X137987671Y-87471202D01*
X137987664Y-87471206D01*
X137872455Y-87557452D01*
X137872452Y-87557455D01*
X137786206Y-87672664D01*
X137786203Y-87672669D01*
X137737189Y-87804083D01*
X137695317Y-87860016D01*
X137629853Y-87884433D01*
X137561580Y-87869581D01*
X137533326Y-87848430D01*
X137419786Y-87734890D01*
X137247820Y-87609951D01*
X137058414Y-87513444D01*
X137058413Y-87513443D01*
X137058412Y-87513443D01*
X136856243Y-87447754D01*
X136856241Y-87447753D01*
X136856240Y-87447753D01*
X136694957Y-87422208D01*
X136646287Y-87414500D01*
X136433713Y-87414500D01*
X136385042Y-87422208D01*
X136223760Y-87447753D01*
X136021585Y-87513444D01*
X135832179Y-87609951D01*
X135660213Y-87734890D01*
X135509890Y-87885213D01*
X135384949Y-88057182D01*
X135380202Y-88066499D01*
X135332227Y-88117293D01*
X135264405Y-88134087D01*
X135198271Y-88111548D01*
X135159234Y-88066495D01*
X135154626Y-88057452D01*
X135115270Y-88003282D01*
X135115269Y-88003282D01*
X134482962Y-88635590D01*
X134465925Y-88572007D01*
X134400099Y-88457993D01*
X134307007Y-88364901D01*
X134192993Y-88299075D01*
X134129409Y-88282037D01*
X134761716Y-87649728D01*
X134707550Y-87610375D01*
X134518217Y-87513904D01*
X134316129Y-87448242D01*
X134106246Y-87415000D01*
X133893754Y-87415000D01*
X133683872Y-87448242D01*
X133683869Y-87448242D01*
X133481782Y-87513904D01*
X133292439Y-87610380D01*
X133238282Y-87649727D01*
X133238282Y-87649728D01*
X133870591Y-88282037D01*
X133807007Y-88299075D01*
X133692993Y-88364901D01*
X133599901Y-88457993D01*
X133534075Y-88572007D01*
X133517037Y-88635591D01*
X132884728Y-88003282D01*
X132884727Y-88003282D01*
X132845380Y-88057439D01*
X132748904Y-88246782D01*
X132683242Y-88448869D01*
X132683242Y-88448872D01*
X132650000Y-88658753D01*
X99032066Y-88658753D01*
X99009738Y-88546508D01*
X99009737Y-88546507D01*
X99009737Y-88546503D01*
X99002734Y-88529597D01*
X98949397Y-88400827D01*
X98949390Y-88400814D01*
X98861789Y-88269711D01*
X98861786Y-88269707D01*
X98750292Y-88158213D01*
X98750288Y-88158210D01*
X98619185Y-88070609D01*
X98619172Y-88070602D01*
X98473501Y-88010264D01*
X98473489Y-88010261D01*
X98318845Y-87979500D01*
X98318842Y-87979500D01*
X98161158Y-87979500D01*
X98161155Y-87979500D01*
X98006510Y-88010261D01*
X98006498Y-88010264D01*
X97860827Y-88070602D01*
X97860814Y-88070609D01*
X97729711Y-88158210D01*
X97729707Y-88158213D01*
X97618213Y-88269707D01*
X97618210Y-88269711D01*
X97530609Y-88400814D01*
X97530602Y-88400827D01*
X97470264Y-88546498D01*
X97470261Y-88546510D01*
X97439500Y-88701153D01*
X93310608Y-88701153D01*
X93303724Y-88666547D01*
X93299737Y-88646503D01*
X93299735Y-88646498D01*
X93239397Y-88500827D01*
X93239390Y-88500814D01*
X93151789Y-88369711D01*
X93151786Y-88369707D01*
X93040292Y-88258213D01*
X93040288Y-88258210D01*
X92909185Y-88170609D01*
X92909172Y-88170602D01*
X92763501Y-88110264D01*
X92763489Y-88110261D01*
X92608845Y-88079500D01*
X92608842Y-88079500D01*
X92451158Y-88079500D01*
X92451155Y-88079500D01*
X92296510Y-88110261D01*
X92296498Y-88110264D01*
X92150827Y-88170602D01*
X92150814Y-88170609D01*
X92019711Y-88258210D01*
X92019707Y-88258213D01*
X91908213Y-88369707D01*
X91908210Y-88369711D01*
X91820609Y-88500814D01*
X91820602Y-88500827D01*
X91760264Y-88646498D01*
X91760261Y-88646510D01*
X91729500Y-88801153D01*
X83418072Y-88801153D01*
X83472024Y-88720409D01*
X83483818Y-88702756D01*
X83508013Y-88666547D01*
X83575894Y-88502666D01*
X83576263Y-88500814D01*
X83604987Y-88356407D01*
X83610500Y-88328691D01*
X83610500Y-88151309D01*
X83610500Y-88151306D01*
X83610499Y-88151304D01*
X83575896Y-87977341D01*
X83575893Y-87977332D01*
X83508016Y-87813459D01*
X83508009Y-87813446D01*
X83409464Y-87665965D01*
X83409461Y-87665961D01*
X83284038Y-87540538D01*
X83284034Y-87540535D01*
X83136553Y-87441990D01*
X83136540Y-87441983D01*
X82972667Y-87374106D01*
X82972658Y-87374103D01*
X82798694Y-87339500D01*
X82798691Y-87339500D01*
X82621309Y-87339500D01*
X82621306Y-87339500D01*
X82447341Y-87374103D01*
X82447332Y-87374106D01*
X82283459Y-87441983D01*
X82283446Y-87441990D01*
X82135965Y-87540535D01*
X82135961Y-87540538D01*
X82010538Y-87665961D01*
X82010535Y-87665965D01*
X81911990Y-87813446D01*
X81911983Y-87813459D01*
X81844106Y-87977332D01*
X81844103Y-87977341D01*
X81809500Y-88151304D01*
X59947509Y-88151304D01*
X59979737Y-88073497D01*
X60010500Y-87918842D01*
X60010500Y-87761158D01*
X60010500Y-87761155D01*
X60010499Y-87761153D01*
X60005275Y-87734890D01*
X59979737Y-87606503D01*
X59979735Y-87606498D01*
X59919397Y-87460827D01*
X59919390Y-87460814D01*
X59831789Y-87329711D01*
X59831786Y-87329707D01*
X59720292Y-87218213D01*
X59720288Y-87218210D01*
X59589185Y-87130609D01*
X59589172Y-87130602D01*
X59443501Y-87070264D01*
X59443489Y-87070261D01*
X59288845Y-87039500D01*
X59288842Y-87039500D01*
X59131158Y-87039500D01*
X59131155Y-87039500D01*
X58976510Y-87070261D01*
X58976498Y-87070264D01*
X58830827Y-87130602D01*
X58830814Y-87130609D01*
X58699711Y-87218210D01*
X58699707Y-87218213D01*
X58588213Y-87329707D01*
X58588210Y-87329711D01*
X58500609Y-87460814D01*
X58500602Y-87460827D01*
X58440264Y-87606498D01*
X58440261Y-87606510D01*
X58409500Y-87761153D01*
X49357428Y-87761153D01*
X49472584Y-87742914D01*
X49637257Y-87689408D01*
X49725234Y-87644581D01*
X49791524Y-87610804D01*
X49931602Y-87509032D01*
X50054032Y-87386602D01*
X50155804Y-87246524D01*
X50234408Y-87092255D01*
X50287914Y-86927584D01*
X50289115Y-86920000D01*
X49220330Y-86920000D01*
X49240075Y-86900255D01*
X49289444Y-86814745D01*
X49315000Y-86719370D01*
X49315000Y-86620630D01*
X49289444Y-86525255D01*
X49240075Y-86439745D01*
X49220330Y-86420000D01*
X50289115Y-86420000D01*
X50289115Y-86419999D01*
X50287914Y-86412415D01*
X50234408Y-86247744D01*
X50155804Y-86093475D01*
X50054032Y-85953397D01*
X49946434Y-85845799D01*
X49938437Y-85831153D01*
X88739500Y-85831153D01*
X88739500Y-85988846D01*
X88770261Y-86143489D01*
X88770264Y-86143501D01*
X88830602Y-86289172D01*
X88830609Y-86289185D01*
X88918210Y-86420288D01*
X88918213Y-86420292D01*
X89029707Y-86531786D01*
X89029711Y-86531789D01*
X89160814Y-86619390D01*
X89160827Y-86619397D01*
X89306498Y-86679735D01*
X89306503Y-86679737D01*
X89461153Y-86710499D01*
X89461156Y-86710500D01*
X89461158Y-86710500D01*
X89618844Y-86710500D01*
X89618845Y-86710499D01*
X89773497Y-86679737D01*
X89919179Y-86619394D01*
X89946253Y-86601304D01*
X120919500Y-86601304D01*
X120919500Y-86778695D01*
X120954103Y-86952658D01*
X120954106Y-86952667D01*
X121021983Y-87116540D01*
X121021990Y-87116553D01*
X121120535Y-87264034D01*
X121120538Y-87264038D01*
X121245961Y-87389461D01*
X121245965Y-87389464D01*
X121393446Y-87488009D01*
X121393459Y-87488016D01*
X121516363Y-87538923D01*
X121557334Y-87555894D01*
X121557336Y-87555894D01*
X121557341Y-87555896D01*
X121731304Y-87590499D01*
X121731307Y-87590500D01*
X121731309Y-87590500D01*
X121908693Y-87590500D01*
X121984756Y-87575370D01*
X121984756Y-87575369D01*
X122035250Y-87565325D01*
X122082658Y-87555896D01*
X122082661Y-87555894D01*
X122082666Y-87555894D01*
X122246547Y-87488013D01*
X122394035Y-87389464D01*
X122519464Y-87264035D01*
X122555569Y-87210000D01*
X154040138Y-87210000D01*
X154843012Y-87210000D01*
X154825795Y-87219940D01*
X154769940Y-87275795D01*
X154730444Y-87344204D01*
X154710000Y-87420504D01*
X154710000Y-87499496D01*
X154730444Y-87575796D01*
X154769940Y-87644205D01*
X154825795Y-87700060D01*
X154843012Y-87710000D01*
X154040138Y-87710000D01*
X154048430Y-87751690D01*
X154048430Y-87751692D01*
X154123807Y-87933671D01*
X154123814Y-87933684D01*
X154233248Y-88097462D01*
X154233251Y-88097466D01*
X154372533Y-88236748D01*
X154372537Y-88236751D01*
X154536315Y-88346185D01*
X154536328Y-88346192D01*
X154718306Y-88421569D01*
X154718318Y-88421572D01*
X154911504Y-88459999D01*
X154911508Y-88460000D01*
X155310000Y-88460000D01*
X155310000Y-87760000D01*
X155810000Y-87760000D01*
X155810000Y-88298215D01*
X155790315Y-88365254D01*
X155748002Y-88405601D01*
X155706638Y-88429483D01*
X155706632Y-88429487D01*
X155599487Y-88536632D01*
X155599485Y-88536635D01*
X155523719Y-88667863D01*
X155509948Y-88719258D01*
X155484500Y-88814234D01*
X155484500Y-88965766D01*
X155492273Y-88994776D01*
X155523719Y-89112136D01*
X155550876Y-89159172D01*
X155599485Y-89243365D01*
X155706635Y-89350515D01*
X155837865Y-89426281D01*
X155984234Y-89465500D01*
X155984236Y-89465500D01*
X156135764Y-89465500D01*
X156135766Y-89465500D01*
X156282135Y-89426281D01*
X156413365Y-89350515D01*
X156520515Y-89243365D01*
X156596281Y-89112135D01*
X156635500Y-88965766D01*
X156635500Y-88814234D01*
X156596281Y-88667865D01*
X156520515Y-88536635D01*
X156520513Y-88536633D01*
X156516451Y-88529597D01*
X156518654Y-88528325D01*
X156498041Y-88475022D01*
X156512073Y-88406576D01*
X156560882Y-88356582D01*
X156574163Y-88350129D01*
X156583682Y-88346186D01*
X156583684Y-88346185D01*
X156747462Y-88236751D01*
X156747466Y-88236748D01*
X156886748Y-88097466D01*
X156886751Y-88097462D01*
X156996185Y-87933684D01*
X156996192Y-87933671D01*
X157071569Y-87751692D01*
X157071569Y-87751690D01*
X157079862Y-87710000D01*
X156276988Y-87710000D01*
X156294205Y-87700060D01*
X156350060Y-87644205D01*
X156389556Y-87575796D01*
X156410000Y-87499496D01*
X156410000Y-87420504D01*
X156389556Y-87344204D01*
X156350060Y-87275795D01*
X156294205Y-87219940D01*
X156276988Y-87210000D01*
X157079862Y-87210000D01*
X158370138Y-87210000D01*
X159173012Y-87210000D01*
X159155795Y-87219940D01*
X159099940Y-87275795D01*
X159060444Y-87344204D01*
X159040000Y-87420504D01*
X159040000Y-87499496D01*
X159060444Y-87575796D01*
X159099940Y-87644205D01*
X159155795Y-87700060D01*
X159173012Y-87710000D01*
X158370138Y-87710000D01*
X158378430Y-87751690D01*
X158378430Y-87751692D01*
X158453807Y-87933671D01*
X158453814Y-87933684D01*
X158563248Y-88097462D01*
X158563251Y-88097466D01*
X158702533Y-88236748D01*
X158702537Y-88236751D01*
X158866315Y-88346185D01*
X158866328Y-88346192D01*
X159048306Y-88421569D01*
X159048318Y-88421572D01*
X159241504Y-88459999D01*
X159241508Y-88460000D01*
X159490000Y-88460000D01*
X159490000Y-87760000D01*
X159990000Y-87760000D01*
X159990000Y-88460000D01*
X160238492Y-88460000D01*
X160238495Y-88459999D01*
X160431681Y-88421572D01*
X160431693Y-88421569D01*
X160613671Y-88346192D01*
X160613684Y-88346185D01*
X160777462Y-88236751D01*
X160777466Y-88236748D01*
X160916748Y-88097466D01*
X160916751Y-88097462D01*
X161026185Y-87933684D01*
X161026192Y-87933671D01*
X161101569Y-87751692D01*
X161101569Y-87751690D01*
X161109862Y-87710000D01*
X160306988Y-87710000D01*
X160324205Y-87700060D01*
X160380060Y-87644205D01*
X160419556Y-87575796D01*
X160440000Y-87499496D01*
X160440000Y-87420504D01*
X160419556Y-87344204D01*
X160380060Y-87275795D01*
X160324205Y-87219940D01*
X160306988Y-87210000D01*
X161109862Y-87210000D01*
X161101569Y-87168309D01*
X161101569Y-87168307D01*
X161026192Y-86986328D01*
X161026185Y-86986315D01*
X160916751Y-86822537D01*
X160916748Y-86822533D01*
X160777466Y-86683251D01*
X160777462Y-86683248D01*
X160613684Y-86573814D01*
X160613671Y-86573807D01*
X160431693Y-86498430D01*
X160431681Y-86498427D01*
X160238495Y-86460000D01*
X159990000Y-86460000D01*
X159990000Y-87160000D01*
X159490000Y-87160000D01*
X159490000Y-86460000D01*
X159241504Y-86460000D01*
X159048318Y-86498427D01*
X159048306Y-86498430D01*
X158866328Y-86573807D01*
X158866315Y-86573814D01*
X158702537Y-86683248D01*
X158702533Y-86683251D01*
X158563251Y-86822533D01*
X158563248Y-86822537D01*
X158453814Y-86986315D01*
X158453807Y-86986328D01*
X158378430Y-87168307D01*
X158378430Y-87168309D01*
X158370138Y-87210000D01*
X157079862Y-87210000D01*
X157071569Y-87168309D01*
X157071569Y-87168307D01*
X156996192Y-86986328D01*
X156996185Y-86986315D01*
X156886751Y-86822537D01*
X156886748Y-86822533D01*
X156747466Y-86683251D01*
X156747462Y-86683248D01*
X156583684Y-86573814D01*
X156583671Y-86573807D01*
X156401693Y-86498430D01*
X156401681Y-86498427D01*
X156208495Y-86460000D01*
X155810000Y-86460000D01*
X155810000Y-87160000D01*
X155310000Y-87160000D01*
X155310000Y-86460000D01*
X154911504Y-86460000D01*
X154718318Y-86498427D01*
X154718306Y-86498430D01*
X154536328Y-86573807D01*
X154536315Y-86573814D01*
X154372537Y-86683248D01*
X154372533Y-86683251D01*
X154233251Y-86822533D01*
X154233248Y-86822537D01*
X154123814Y-86986315D01*
X154123807Y-86986328D01*
X154048430Y-87168307D01*
X154048430Y-87168309D01*
X154040138Y-87210000D01*
X122555569Y-87210000D01*
X122618013Y-87116547D01*
X122685894Y-86952666D01*
X122720500Y-86778691D01*
X122720500Y-86601309D01*
X122720500Y-86601306D01*
X122720499Y-86601304D01*
X122685896Y-86427341D01*
X122685893Y-86427332D01*
X122618016Y-86263459D01*
X122618009Y-86263446D01*
X122519464Y-86115965D01*
X122519461Y-86115961D01*
X122394038Y-85990538D01*
X122394034Y-85990535D01*
X122246553Y-85891990D01*
X122246540Y-85891983D01*
X122082667Y-85824106D01*
X122082658Y-85824103D01*
X121908694Y-85789500D01*
X121908691Y-85789500D01*
X121731309Y-85789500D01*
X121731306Y-85789500D01*
X121557341Y-85824103D01*
X121557332Y-85824106D01*
X121393459Y-85891983D01*
X121393446Y-85891990D01*
X121245965Y-85990535D01*
X121245961Y-85990538D01*
X121120538Y-86115961D01*
X121120535Y-86115965D01*
X121021990Y-86263446D01*
X121021983Y-86263459D01*
X120954106Y-86427332D01*
X120954103Y-86427341D01*
X120919500Y-86601304D01*
X89946253Y-86601304D01*
X90050289Y-86531789D01*
X90056823Y-86525255D01*
X90074543Y-86507536D01*
X90161786Y-86420292D01*
X90161789Y-86420289D01*
X90249394Y-86289179D01*
X90260048Y-86263459D01*
X90291298Y-86188013D01*
X90309737Y-86143497D01*
X90340500Y-85988842D01*
X90340500Y-85831158D01*
X90340500Y-85831155D01*
X90340499Y-85831153D01*
X90326345Y-85759999D01*
X90309737Y-85676503D01*
X90299864Y-85652667D01*
X90249397Y-85530827D01*
X90249390Y-85530814D01*
X90161789Y-85399711D01*
X90161786Y-85399707D01*
X90063383Y-85301304D01*
X100359500Y-85301304D01*
X100359500Y-85478695D01*
X100394103Y-85652658D01*
X100394106Y-85652667D01*
X100461983Y-85816540D01*
X100461990Y-85816553D01*
X100560535Y-85964034D01*
X100560538Y-85964038D01*
X100685961Y-86089461D01*
X100685965Y-86089464D01*
X100833446Y-86188009D01*
X100833459Y-86188016D01*
X100956363Y-86238923D01*
X100997334Y-86255894D01*
X100997336Y-86255894D01*
X100997341Y-86255896D01*
X101171304Y-86290499D01*
X101171307Y-86290500D01*
X101171309Y-86290500D01*
X101348693Y-86290500D01*
X101348694Y-86290499D01*
X101406682Y-86278964D01*
X101522658Y-86255896D01*
X101522661Y-86255894D01*
X101522666Y-86255894D01*
X101686547Y-86188013D01*
X101834035Y-86089464D01*
X101959464Y-85964035D01*
X102058013Y-85816547D01*
X102125894Y-85652666D01*
X102125912Y-85652579D01*
X102153917Y-85511786D01*
X102160500Y-85478691D01*
X102160500Y-85301309D01*
X102160500Y-85301306D01*
X102160499Y-85301304D01*
X102125896Y-85127341D01*
X102125893Y-85127332D01*
X102058016Y-84963459D01*
X102058009Y-84963446D01*
X101959464Y-84815965D01*
X101959461Y-84815961D01*
X101834038Y-84690538D01*
X101834034Y-84690535D01*
X101686553Y-84591990D01*
X101686540Y-84591983D01*
X101522667Y-84524106D01*
X101522658Y-84524103D01*
X101348694Y-84489500D01*
X101348691Y-84489500D01*
X101171309Y-84489500D01*
X101171306Y-84489500D01*
X100997341Y-84524103D01*
X100997332Y-84524106D01*
X100833459Y-84591983D01*
X100833446Y-84591990D01*
X100685965Y-84690535D01*
X100685961Y-84690538D01*
X100560538Y-84815961D01*
X100560535Y-84815965D01*
X100461990Y-84963446D01*
X100461983Y-84963459D01*
X100394106Y-85127332D01*
X100394103Y-85127341D01*
X100359500Y-85301304D01*
X90063383Y-85301304D01*
X90050292Y-85288213D01*
X90050288Y-85288210D01*
X89919185Y-85200609D01*
X89919172Y-85200602D01*
X89773501Y-85140264D01*
X89773489Y-85140261D01*
X89618845Y-85109500D01*
X89618842Y-85109500D01*
X89461158Y-85109500D01*
X89461155Y-85109500D01*
X89306510Y-85140261D01*
X89306498Y-85140264D01*
X89160827Y-85200602D01*
X89160814Y-85200609D01*
X89029711Y-85288210D01*
X89029707Y-85288213D01*
X88918213Y-85399707D01*
X88918210Y-85399711D01*
X88830609Y-85530814D01*
X88830602Y-85530827D01*
X88770264Y-85676498D01*
X88770261Y-85676510D01*
X88739500Y-85831153D01*
X49938437Y-85831153D01*
X49912949Y-85784476D01*
X49917933Y-85714784D01*
X49959805Y-85658851D01*
X49968995Y-85652594D01*
X50033656Y-85612712D01*
X50157712Y-85488656D01*
X50249814Y-85339334D01*
X50304999Y-85172797D01*
X50315500Y-85070009D01*
X50315499Y-84811153D01*
X83849500Y-84811153D01*
X83849500Y-84968846D01*
X83880261Y-85123489D01*
X83880264Y-85123501D01*
X83940602Y-85269172D01*
X83940609Y-85269185D01*
X84028210Y-85400288D01*
X84028213Y-85400292D01*
X84139707Y-85511786D01*
X84139711Y-85511789D01*
X84270814Y-85599390D01*
X84270827Y-85599397D01*
X84399432Y-85652666D01*
X84416503Y-85659737D01*
X84571153Y-85690499D01*
X84571156Y-85690500D01*
X84571158Y-85690500D01*
X84728844Y-85690500D01*
X84728845Y-85690499D01*
X84883497Y-85659737D01*
X85029179Y-85599394D01*
X85160289Y-85511789D01*
X85271789Y-85400289D01*
X85359394Y-85269179D01*
X85419737Y-85123497D01*
X85450500Y-84968842D01*
X85450500Y-84811158D01*
X85450500Y-84811155D01*
X85450499Y-84811153D01*
X85449288Y-84805066D01*
X85419737Y-84656503D01*
X85364896Y-84524103D01*
X85359397Y-84510827D01*
X85359390Y-84510814D01*
X85271789Y-84379711D01*
X85271786Y-84379707D01*
X85185999Y-84293920D01*
X145731999Y-84293920D01*
X145760840Y-84438907D01*
X145760843Y-84438917D01*
X145817412Y-84575488D01*
X145817419Y-84575501D01*
X145899548Y-84698415D01*
X145899551Y-84698419D01*
X146004080Y-84802948D01*
X146004084Y-84802951D01*
X146126998Y-84885080D01*
X146127011Y-84885087D01*
X146263582Y-84941656D01*
X146263587Y-84941658D01*
X146263591Y-84941658D01*
X146263592Y-84941659D01*
X146408579Y-84970500D01*
X146408582Y-84970500D01*
X146556420Y-84970500D01*
X146653962Y-84951096D01*
X146701413Y-84941658D01*
X146837995Y-84885084D01*
X146960916Y-84802951D01*
X147065451Y-84698416D01*
X147147584Y-84575495D01*
X147204158Y-84438913D01*
X147233000Y-84293918D01*
X147233000Y-84146082D01*
X147233000Y-84146079D01*
X147204159Y-84001092D01*
X147204158Y-84001091D01*
X147204158Y-84001087D01*
X147204156Y-84001082D01*
X147147587Y-83864511D01*
X147147580Y-83864498D01*
X147065451Y-83741584D01*
X147065448Y-83741580D01*
X146960919Y-83637051D01*
X146960915Y-83637048D01*
X146838001Y-83554919D01*
X146837988Y-83554912D01*
X146701417Y-83498343D01*
X146701407Y-83498340D01*
X146556420Y-83469500D01*
X146556418Y-83469500D01*
X146408582Y-83469500D01*
X146408580Y-83469500D01*
X146263592Y-83498340D01*
X146263582Y-83498343D01*
X146127011Y-83554912D01*
X146126998Y-83554919D01*
X146004084Y-83637048D01*
X146004080Y-83637051D01*
X145899551Y-83741580D01*
X145899548Y-83741584D01*
X145817419Y-83864498D01*
X145817412Y-83864511D01*
X145760843Y-84001082D01*
X145760840Y-84001092D01*
X145732000Y-84146079D01*
X145732000Y-84146082D01*
X145732000Y-84293918D01*
X145732000Y-84293920D01*
X145731999Y-84293920D01*
X85185999Y-84293920D01*
X85160292Y-84268213D01*
X85160284Y-84268207D01*
X85122746Y-84243125D01*
X85122696Y-84243092D01*
X85029185Y-84180609D01*
X85029172Y-84180602D01*
X84883501Y-84120264D01*
X84883489Y-84120261D01*
X84728845Y-84089500D01*
X84728842Y-84089500D01*
X84571158Y-84089500D01*
X84571155Y-84089500D01*
X84416510Y-84120261D01*
X84416498Y-84120264D01*
X84270827Y-84180602D01*
X84270814Y-84180609D01*
X84139711Y-84268210D01*
X84139707Y-84268213D01*
X84028213Y-84379707D01*
X84028210Y-84379711D01*
X83940609Y-84510814D01*
X83940602Y-84510827D01*
X83880264Y-84656498D01*
X83880261Y-84656510D01*
X83849500Y-84811153D01*
X50315499Y-84811153D01*
X50315499Y-84656510D01*
X50315499Y-84269998D01*
X50315498Y-84269980D01*
X50304999Y-84167203D01*
X50304998Y-84167200D01*
X50289445Y-84120264D01*
X50249814Y-84000666D01*
X50157712Y-83851344D01*
X50033656Y-83727288D01*
X49887358Y-83637051D01*
X49884336Y-83635187D01*
X49884331Y-83635185D01*
X49882862Y-83634698D01*
X49717797Y-83580001D01*
X49717795Y-83580000D01*
X49615010Y-83569500D01*
X48264998Y-83569500D01*
X48264981Y-83569501D01*
X48162203Y-83580000D01*
X48162200Y-83580001D01*
X47995668Y-83635185D01*
X47995663Y-83635187D01*
X47846342Y-83727289D01*
X47722289Y-83851342D01*
X47630187Y-84000663D01*
X47630186Y-84000666D01*
X47575001Y-84167203D01*
X47575001Y-84167204D01*
X47575000Y-84167204D01*
X47564500Y-84269983D01*
X42690500Y-84269983D01*
X42690500Y-82203920D01*
X128039499Y-82203920D01*
X128068340Y-82348907D01*
X128068343Y-82348917D01*
X128124912Y-82485488D01*
X128124919Y-82485501D01*
X128207048Y-82608415D01*
X128207051Y-82608419D01*
X128311580Y-82712948D01*
X128311584Y-82712951D01*
X128434498Y-82795080D01*
X128434511Y-82795087D01*
X128571082Y-82851656D01*
X128571087Y-82851658D01*
X128571091Y-82851658D01*
X128571092Y-82851659D01*
X128716079Y-82880500D01*
X128716082Y-82880500D01*
X128863920Y-82880500D01*
X128961462Y-82861096D01*
X129008913Y-82851658D01*
X129145495Y-82795084D01*
X129268416Y-82712951D01*
X129372951Y-82608416D01*
X129455084Y-82485495D01*
X129511658Y-82348913D01*
X129539977Y-82206547D01*
X129540500Y-82203920D01*
X129540500Y-82056079D01*
X129511659Y-81911092D01*
X129511658Y-81911091D01*
X129511658Y-81911087D01*
X129494097Y-81868691D01*
X129455087Y-81774511D01*
X129455081Y-81774500D01*
X129441455Y-81754107D01*
X129441454Y-81754106D01*
X129399491Y-81691304D01*
X145459500Y-81691304D01*
X145459500Y-81868695D01*
X145494103Y-82042658D01*
X145494106Y-82042667D01*
X145561983Y-82206540D01*
X145561990Y-82206553D01*
X145660535Y-82354034D01*
X145660538Y-82354038D01*
X145785961Y-82479461D01*
X145785965Y-82479464D01*
X145933446Y-82578009D01*
X145933459Y-82578016D01*
X146006853Y-82608416D01*
X146097334Y-82645894D01*
X146097336Y-82645894D01*
X146097341Y-82645896D01*
X146271304Y-82680499D01*
X146271307Y-82680500D01*
X146271309Y-82680500D01*
X146448693Y-82680500D01*
X146448694Y-82680499D01*
X146506682Y-82668964D01*
X146622658Y-82645896D01*
X146622661Y-82645894D01*
X146622666Y-82645894D01*
X146786547Y-82578013D01*
X146934035Y-82479464D01*
X147059464Y-82354035D01*
X147158013Y-82206547D01*
X147225894Y-82042666D01*
X147260500Y-81868691D01*
X147260500Y-81691309D01*
X147260500Y-81691306D01*
X147260499Y-81691304D01*
X147225896Y-81517341D01*
X147225893Y-81517332D01*
X147158016Y-81353459D01*
X147158009Y-81353446D01*
X147059464Y-81205965D01*
X147059461Y-81205961D01*
X146934038Y-81080538D01*
X146934034Y-81080535D01*
X146786553Y-80981990D01*
X146786540Y-80981983D01*
X146622667Y-80914106D01*
X146622658Y-80914103D01*
X146448694Y-80879500D01*
X146448691Y-80879500D01*
X146271309Y-80879500D01*
X146271306Y-80879500D01*
X146097341Y-80914103D01*
X146097332Y-80914106D01*
X145933459Y-80981983D01*
X145933446Y-80981990D01*
X145785965Y-81080535D01*
X145785961Y-81080538D01*
X145660538Y-81205961D01*
X145660535Y-81205965D01*
X145561990Y-81353446D01*
X145561983Y-81353459D01*
X145494106Y-81517332D01*
X145494103Y-81517341D01*
X145459500Y-81691304D01*
X129399491Y-81691304D01*
X129372951Y-81651584D01*
X129372948Y-81651580D01*
X129268419Y-81547051D01*
X129268415Y-81547048D01*
X129145501Y-81464919D01*
X129145488Y-81464912D01*
X129008917Y-81408343D01*
X129008907Y-81408340D01*
X128863920Y-81379500D01*
X128863918Y-81379500D01*
X128716082Y-81379500D01*
X128716080Y-81379500D01*
X128571092Y-81408340D01*
X128571082Y-81408343D01*
X128434511Y-81464912D01*
X128434498Y-81464919D01*
X128311584Y-81547048D01*
X128311580Y-81547051D01*
X128207051Y-81651580D01*
X128207048Y-81651584D01*
X128124919Y-81774498D01*
X128124912Y-81774511D01*
X128068343Y-81911082D01*
X128068340Y-81911092D01*
X128039500Y-82056079D01*
X128039500Y-82056082D01*
X128039500Y-82203918D01*
X128039500Y-82203920D01*
X128039499Y-82203920D01*
X42690500Y-82203920D01*
X42690500Y-80631153D01*
X79859500Y-80631153D01*
X79859500Y-80788846D01*
X79890261Y-80943489D01*
X79890264Y-80943501D01*
X79950602Y-81089172D01*
X79950609Y-81089185D01*
X80038210Y-81220288D01*
X80038213Y-81220292D01*
X80149707Y-81331786D01*
X80149711Y-81331789D01*
X80280814Y-81419390D01*
X80280827Y-81419397D01*
X80426498Y-81479735D01*
X80426503Y-81479737D01*
X80581153Y-81510499D01*
X80581156Y-81510500D01*
X80581158Y-81510500D01*
X80738844Y-81510500D01*
X80738845Y-81510499D01*
X80893497Y-81479737D01*
X81039179Y-81419394D01*
X81170289Y-81331789D01*
X81281789Y-81220289D01*
X81369394Y-81089179D01*
X81372975Y-81080535D01*
X81413794Y-80981987D01*
X81429737Y-80943497D01*
X81460500Y-80788842D01*
X81460500Y-80631158D01*
X81460500Y-80631155D01*
X81460499Y-80631153D01*
X81440258Y-80529397D01*
X81429737Y-80476503D01*
X81391799Y-80384912D01*
X81369397Y-80330827D01*
X81369390Y-80330814D01*
X81281789Y-80199711D01*
X81281786Y-80199707D01*
X81170292Y-80088213D01*
X81170288Y-80088210D01*
X81039185Y-80000609D01*
X81039172Y-80000602D01*
X80893501Y-79940264D01*
X80893489Y-79940261D01*
X80738845Y-79909500D01*
X80738842Y-79909500D01*
X80581158Y-79909500D01*
X80581155Y-79909500D01*
X80426510Y-79940261D01*
X80426498Y-79940264D01*
X80280827Y-80000602D01*
X80280814Y-80000609D01*
X80149711Y-80088210D01*
X80149707Y-80088213D01*
X80038213Y-80199707D01*
X80038210Y-80199711D01*
X79950609Y-80330814D01*
X79950602Y-80330827D01*
X79890264Y-80476498D01*
X79890261Y-80476510D01*
X79859500Y-80631153D01*
X42690500Y-80631153D01*
X42690500Y-79741153D01*
X75219500Y-79741153D01*
X75219500Y-79898846D01*
X75250261Y-80053489D01*
X75250264Y-80053501D01*
X75310602Y-80199172D01*
X75310609Y-80199185D01*
X75398210Y-80330288D01*
X75398213Y-80330292D01*
X75509707Y-80441786D01*
X75509711Y-80441789D01*
X75640814Y-80529390D01*
X75640827Y-80529397D01*
X75742677Y-80571584D01*
X75786503Y-80589737D01*
X75941153Y-80620499D01*
X75941156Y-80620500D01*
X75941158Y-80620500D01*
X76098844Y-80620500D01*
X76098845Y-80620499D01*
X76253497Y-80589737D01*
X76399179Y-80529394D01*
X76403628Y-80526420D01*
X76410301Y-80521963D01*
X76410301Y-80521962D01*
X76530289Y-80441789D01*
X76641789Y-80330289D01*
X76729394Y-80199179D01*
X76789737Y-80053497D01*
X76820500Y-79898842D01*
X76820500Y-79741158D01*
X76820500Y-79741155D01*
X76820499Y-79741153D01*
X76810359Y-79690178D01*
X76789737Y-79586503D01*
X76789735Y-79586498D01*
X76729397Y-79440827D01*
X76729390Y-79440814D01*
X76641789Y-79309711D01*
X76641786Y-79309707D01*
X76530292Y-79198213D01*
X76530288Y-79198210D01*
X76400877Y-79111740D01*
X76400876Y-79111739D01*
X76399187Y-79110610D01*
X76399172Y-79110602D01*
X76253501Y-79050264D01*
X76253489Y-79050261D01*
X76098845Y-79019500D01*
X76098842Y-79019500D01*
X75941158Y-79019500D01*
X75941155Y-79019500D01*
X75786510Y-79050261D01*
X75786498Y-79050264D01*
X75640827Y-79110602D01*
X75640814Y-79110609D01*
X75509711Y-79198210D01*
X75509707Y-79198213D01*
X75398213Y-79309707D01*
X75398210Y-79309711D01*
X75310609Y-79440814D01*
X75310602Y-79440827D01*
X75250264Y-79586498D01*
X75250261Y-79586510D01*
X75219500Y-79741153D01*
X42690500Y-79741153D01*
X42690500Y-77912155D01*
X114740000Y-77912155D01*
X114740000Y-78560000D01*
X115656988Y-78560000D01*
X115624075Y-78617007D01*
X115590000Y-78744174D01*
X115590000Y-78875826D01*
X115624075Y-79002993D01*
X115656988Y-79060000D01*
X114740000Y-79060000D01*
X114740000Y-79707844D01*
X114746401Y-79767372D01*
X114746403Y-79767379D01*
X114796645Y-79902086D01*
X114796649Y-79902093D01*
X114882809Y-80017187D01*
X114882812Y-80017190D01*
X114997906Y-80103350D01*
X114997913Y-80103354D01*
X115132620Y-80153596D01*
X115132627Y-80153598D01*
X115192155Y-80159999D01*
X115192172Y-80160000D01*
X115840000Y-80160000D01*
X115840000Y-79243012D01*
X115897007Y-79275925D01*
X116024174Y-79310000D01*
X116155826Y-79310000D01*
X116282993Y-79275925D01*
X116340000Y-79243012D01*
X116340000Y-80160000D01*
X116987828Y-80160000D01*
X116987844Y-80159999D01*
X117047372Y-80153598D01*
X117047379Y-80153596D01*
X117182086Y-80103354D01*
X117182093Y-80103350D01*
X117297187Y-80017190D01*
X117297190Y-80017187D01*
X117383350Y-79902093D01*
X117383354Y-79902086D01*
X117432422Y-79770529D01*
X117474293Y-79714595D01*
X117539757Y-79690178D01*
X117608030Y-79705030D01*
X117636285Y-79726181D01*
X117750213Y-79840109D01*
X117922179Y-79965048D01*
X117922181Y-79965049D01*
X117922184Y-79965051D01*
X118111588Y-80061557D01*
X118313757Y-80127246D01*
X118523713Y-80160500D01*
X118523714Y-80160500D01*
X118736286Y-80160500D01*
X118736287Y-80160500D01*
X118946243Y-80127246D01*
X119148412Y-80061557D01*
X119337816Y-79965051D01*
X119424471Y-79902093D01*
X119509786Y-79840109D01*
X119509788Y-79840106D01*
X119509792Y-79840104D01*
X119660104Y-79689792D01*
X119660106Y-79689788D01*
X119660109Y-79689786D01*
X119785048Y-79517820D01*
X119785047Y-79517820D01*
X119785051Y-79517816D01*
X119789514Y-79509054D01*
X119837488Y-79458259D01*
X119905308Y-79441463D01*
X119971444Y-79463999D01*
X120010486Y-79509056D01*
X120014951Y-79517820D01*
X120139890Y-79689786D01*
X120290213Y-79840109D01*
X120462179Y-79965048D01*
X120462181Y-79965049D01*
X120462184Y-79965051D01*
X120651588Y-80061557D01*
X120853757Y-80127246D01*
X121063713Y-80160500D01*
X121063714Y-80160500D01*
X121276286Y-80160500D01*
X121276287Y-80160500D01*
X121486243Y-80127246D01*
X121688412Y-80061557D01*
X121877816Y-79965051D01*
X121964471Y-79902093D01*
X122049786Y-79840109D01*
X122049788Y-79840106D01*
X122049792Y-79840104D01*
X122200104Y-79689792D01*
X122200106Y-79689788D01*
X122200109Y-79689786D01*
X122325048Y-79517820D01*
X122325047Y-79517820D01*
X122325051Y-79517816D01*
X122329514Y-79509054D01*
X122377488Y-79458259D01*
X122445308Y-79441463D01*
X122511444Y-79463999D01*
X122550486Y-79509056D01*
X122554951Y-79517820D01*
X122679890Y-79689786D01*
X122830213Y-79840109D01*
X123002179Y-79965048D01*
X123002181Y-79965049D01*
X123002184Y-79965051D01*
X123191588Y-80061557D01*
X123393757Y-80127246D01*
X123603713Y-80160500D01*
X123603714Y-80160500D01*
X123816286Y-80160500D01*
X123816287Y-80160500D01*
X124026243Y-80127246D01*
X124228412Y-80061557D01*
X124417816Y-79965051D01*
X124504471Y-79902093D01*
X124589786Y-79840109D01*
X124589788Y-79840106D01*
X124589792Y-79840104D01*
X124740104Y-79689792D01*
X124740106Y-79689788D01*
X124740109Y-79689786D01*
X124865048Y-79517820D01*
X124865047Y-79517820D01*
X124865051Y-79517816D01*
X124869514Y-79509054D01*
X124917488Y-79458259D01*
X124985308Y-79441463D01*
X125051444Y-79463999D01*
X125090486Y-79509056D01*
X125094951Y-79517820D01*
X125219890Y-79689786D01*
X125370213Y-79840109D01*
X125542179Y-79965048D01*
X125542181Y-79965049D01*
X125542184Y-79965051D01*
X125731588Y-80061557D01*
X125933757Y-80127246D01*
X125933759Y-80127246D01*
X125938390Y-80128751D01*
X125937880Y-80130319D01*
X125992232Y-80161533D01*
X126024392Y-80223562D01*
X126017911Y-80293130D01*
X125974847Y-80348151D01*
X125950140Y-80361871D01*
X125894508Y-80384914D01*
X125894498Y-80384919D01*
X125771584Y-80467048D01*
X125771580Y-80467051D01*
X125667051Y-80571580D01*
X125667048Y-80571584D01*
X125584919Y-80694498D01*
X125584912Y-80694511D01*
X125528343Y-80831082D01*
X125528340Y-80831092D01*
X125499500Y-80976079D01*
X125499500Y-80976082D01*
X125499500Y-81123918D01*
X125499500Y-81123920D01*
X125499499Y-81123920D01*
X125528340Y-81268907D01*
X125528343Y-81268917D01*
X125584912Y-81405488D01*
X125584919Y-81405501D01*
X125667048Y-81528415D01*
X125667051Y-81528419D01*
X125771580Y-81632948D01*
X125771584Y-81632951D01*
X125894498Y-81715080D01*
X125894511Y-81715087D01*
X125988715Y-81754107D01*
X126031087Y-81771658D01*
X126031091Y-81771658D01*
X126031092Y-81771659D01*
X126176079Y-81800500D01*
X126176082Y-81800500D01*
X126323920Y-81800500D01*
X126454570Y-81774511D01*
X126468913Y-81771658D01*
X126605495Y-81715084D01*
X126728416Y-81632951D01*
X126832951Y-81528416D01*
X126915084Y-81405495D01*
X126971658Y-81268913D01*
X126981330Y-81220288D01*
X127000500Y-81123920D01*
X127000500Y-80976079D01*
X126971659Y-80831092D01*
X126971658Y-80831091D01*
X126971658Y-80831087D01*
X126971656Y-80831082D01*
X126915087Y-80694511D01*
X126915080Y-80694498D01*
X126832951Y-80571584D01*
X126832948Y-80571580D01*
X126728419Y-80467051D01*
X126728415Y-80467048D01*
X126605501Y-80384919D01*
X126605488Y-80384912D01*
X126549860Y-80361871D01*
X126495456Y-80318031D01*
X126473391Y-80251737D01*
X126490670Y-80184037D01*
X126541807Y-80136426D01*
X126561740Y-80129153D01*
X126561610Y-80128751D01*
X126566240Y-80127246D01*
X126566243Y-80127246D01*
X126768412Y-80061557D01*
X126957816Y-79965051D01*
X127044471Y-79902093D01*
X127129786Y-79840109D01*
X127129788Y-79840106D01*
X127129792Y-79840104D01*
X127280104Y-79689792D01*
X127280106Y-79689788D01*
X127280109Y-79689786D01*
X127405048Y-79517820D01*
X127405047Y-79517820D01*
X127405051Y-79517816D01*
X127409514Y-79509054D01*
X127457488Y-79458259D01*
X127525308Y-79441463D01*
X127591444Y-79463999D01*
X127630486Y-79509056D01*
X127634951Y-79517820D01*
X127759890Y-79689786D01*
X127910213Y-79840109D01*
X128082179Y-79965048D01*
X128082181Y-79965049D01*
X128082184Y-79965051D01*
X128271588Y-80061557D01*
X128473757Y-80127246D01*
X128683713Y-80160500D01*
X128683714Y-80160500D01*
X128896286Y-80160500D01*
X128896287Y-80160500D01*
X129106243Y-80127246D01*
X129308412Y-80061557D01*
X129497816Y-79965051D01*
X129584471Y-79902093D01*
X129669786Y-79840109D01*
X129669788Y-79840106D01*
X129669792Y-79840104D01*
X129820104Y-79689792D01*
X129820106Y-79689788D01*
X129820109Y-79689786D01*
X129945048Y-79517820D01*
X129945047Y-79517820D01*
X129945051Y-79517816D01*
X129949514Y-79509054D01*
X129997488Y-79458259D01*
X130065308Y-79441463D01*
X130131444Y-79463999D01*
X130170486Y-79509056D01*
X130174951Y-79517820D01*
X130299890Y-79689786D01*
X130450213Y-79840109D01*
X130622179Y-79965048D01*
X130622181Y-79965049D01*
X130622184Y-79965051D01*
X130811588Y-80061557D01*
X131013757Y-80127246D01*
X131223713Y-80160500D01*
X131223714Y-80160500D01*
X131436286Y-80160500D01*
X131436287Y-80160500D01*
X131646243Y-80127246D01*
X131848412Y-80061557D01*
X132037816Y-79965051D01*
X132124471Y-79902093D01*
X132209786Y-79840109D01*
X132209788Y-79840106D01*
X132209792Y-79840104D01*
X132360104Y-79689792D01*
X132360106Y-79689788D01*
X132360109Y-79689786D01*
X132485048Y-79517820D01*
X132485047Y-79517820D01*
X132485051Y-79517816D01*
X132489514Y-79509054D01*
X132537488Y-79458259D01*
X132605308Y-79441463D01*
X132671444Y-79463999D01*
X132710486Y-79509056D01*
X132714951Y-79517820D01*
X132839890Y-79689786D01*
X132990213Y-79840109D01*
X133162179Y-79965048D01*
X133162181Y-79965049D01*
X133162184Y-79965051D01*
X133351588Y-80061557D01*
X133553757Y-80127246D01*
X133763713Y-80160500D01*
X133763714Y-80160500D01*
X133976286Y-80160500D01*
X133976287Y-80160500D01*
X134186243Y-80127246D01*
X134388412Y-80061557D01*
X134577816Y-79965051D01*
X134664471Y-79902093D01*
X134749786Y-79840109D01*
X134749788Y-79840106D01*
X134749792Y-79840104D01*
X134900104Y-79689792D01*
X134900106Y-79689788D01*
X134900109Y-79689786D01*
X135025048Y-79517820D01*
X135025047Y-79517820D01*
X135025051Y-79517816D01*
X135121557Y-79328412D01*
X135187246Y-79126243D01*
X135220500Y-78916287D01*
X135220500Y-78703713D01*
X135187246Y-78493757D01*
X135121557Y-78291588D01*
X135025051Y-78102184D01*
X135025049Y-78102181D01*
X135025048Y-78102179D01*
X134900109Y-77930213D01*
X134749786Y-77779890D01*
X134577820Y-77654951D01*
X134388414Y-77558444D01*
X134388413Y-77558443D01*
X134388412Y-77558443D01*
X134186243Y-77492754D01*
X134186241Y-77492753D01*
X134186240Y-77492753D01*
X134024957Y-77467208D01*
X133976287Y-77459500D01*
X133763713Y-77459500D01*
X133715042Y-77467208D01*
X133553760Y-77492753D01*
X133351585Y-77558444D01*
X133162179Y-77654951D01*
X132990213Y-77779890D01*
X132839890Y-77930213D01*
X132714949Y-78102182D01*
X132710484Y-78110946D01*
X132662509Y-78161742D01*
X132594688Y-78178536D01*
X132528553Y-78155998D01*
X132489516Y-78110946D01*
X132485050Y-78102182D01*
X132360109Y-77930213D01*
X132209786Y-77779890D01*
X132037820Y-77654951D01*
X131848414Y-77558444D01*
X131848413Y-77558443D01*
X131848412Y-77558443D01*
X131646243Y-77492754D01*
X131646241Y-77492753D01*
X131646240Y-77492753D01*
X131484957Y-77467208D01*
X131436287Y-77459500D01*
X131223713Y-77459500D01*
X131175042Y-77467208D01*
X131013760Y-77492753D01*
X130811585Y-77558444D01*
X130622179Y-77654951D01*
X130450213Y-77779890D01*
X130299890Y-77930213D01*
X130174949Y-78102182D01*
X130170484Y-78110946D01*
X130122509Y-78161742D01*
X130054688Y-78178536D01*
X129988553Y-78155998D01*
X129949516Y-78110946D01*
X129945050Y-78102182D01*
X129820109Y-77930213D01*
X129669786Y-77779890D01*
X129497820Y-77654951D01*
X129308414Y-77558444D01*
X129308413Y-77558443D01*
X129308412Y-77558443D01*
X129106243Y-77492754D01*
X129106241Y-77492753D01*
X129106240Y-77492753D01*
X128944957Y-77467208D01*
X128896287Y-77459500D01*
X128683713Y-77459500D01*
X128635042Y-77467208D01*
X128473760Y-77492753D01*
X128271585Y-77558444D01*
X128082179Y-77654951D01*
X127910213Y-77779890D01*
X127759890Y-77930213D01*
X127634949Y-78102182D01*
X127630484Y-78110946D01*
X127582509Y-78161742D01*
X127514688Y-78178536D01*
X127448553Y-78155998D01*
X127409516Y-78110946D01*
X127405050Y-78102182D01*
X127280109Y-77930213D01*
X127129786Y-77779890D01*
X126957820Y-77654951D01*
X126768414Y-77558444D01*
X126768413Y-77558443D01*
X126768412Y-77558443D01*
X126566243Y-77492754D01*
X126566241Y-77492753D01*
X126566240Y-77492753D01*
X126404957Y-77467208D01*
X126356287Y-77459500D01*
X126143713Y-77459500D01*
X126095042Y-77467208D01*
X125933760Y-77492753D01*
X125731585Y-77558444D01*
X125542179Y-77654951D01*
X125370213Y-77779890D01*
X125219890Y-77930213D01*
X125094949Y-78102182D01*
X125090484Y-78110946D01*
X125042509Y-78161742D01*
X124974688Y-78178536D01*
X124908553Y-78155998D01*
X124869516Y-78110946D01*
X124865050Y-78102182D01*
X124740109Y-77930213D01*
X124589786Y-77779890D01*
X124417820Y-77654951D01*
X124228414Y-77558444D01*
X124228413Y-77558443D01*
X124228412Y-77558443D01*
X124026243Y-77492754D01*
X124026241Y-77492753D01*
X124026240Y-77492753D01*
X123864957Y-77467208D01*
X123816287Y-77459500D01*
X123603713Y-77459500D01*
X123555042Y-77467208D01*
X123393760Y-77492753D01*
X123191585Y-77558444D01*
X123002179Y-77654951D01*
X122830213Y-77779890D01*
X122679890Y-77930213D01*
X122554949Y-78102182D01*
X122550484Y-78110946D01*
X122502509Y-78161742D01*
X122434688Y-78178536D01*
X122368553Y-78155998D01*
X122329516Y-78110946D01*
X122325050Y-78102182D01*
X122200109Y-77930213D01*
X122049786Y-77779890D01*
X121877820Y-77654951D01*
X121688414Y-77558444D01*
X121688413Y-77558443D01*
X121688412Y-77558443D01*
X121486243Y-77492754D01*
X121486241Y-77492753D01*
X121486240Y-77492753D01*
X121324957Y-77467208D01*
X121276287Y-77459500D01*
X121063713Y-77459500D01*
X121015042Y-77467208D01*
X120853760Y-77492753D01*
X120651585Y-77558444D01*
X120462179Y-77654951D01*
X120290213Y-77779890D01*
X120139890Y-77930213D01*
X120014949Y-78102182D01*
X120010484Y-78110946D01*
X119962509Y-78161742D01*
X119894688Y-78178536D01*
X119828553Y-78155998D01*
X119789516Y-78110946D01*
X119785050Y-78102182D01*
X119660109Y-77930213D01*
X119509786Y-77779890D01*
X119337820Y-77654951D01*
X119148414Y-77558444D01*
X119148413Y-77558443D01*
X119148412Y-77558443D01*
X118946243Y-77492754D01*
X118946241Y-77492753D01*
X118946240Y-77492753D01*
X118784957Y-77467208D01*
X118736287Y-77459500D01*
X118523713Y-77459500D01*
X118475042Y-77467208D01*
X118313760Y-77492753D01*
X118111585Y-77558444D01*
X117922179Y-77654951D01*
X117750215Y-77779889D01*
X117636285Y-77893819D01*
X117574962Y-77927303D01*
X117505270Y-77922319D01*
X117449337Y-77880447D01*
X117432422Y-77849470D01*
X117383354Y-77717913D01*
X117383350Y-77717906D01*
X117297190Y-77602812D01*
X117297187Y-77602809D01*
X117182093Y-77516649D01*
X117182086Y-77516645D01*
X117047379Y-77466403D01*
X117047372Y-77466401D01*
X116987844Y-77460000D01*
X116340000Y-77460000D01*
X116340000Y-78376988D01*
X116282993Y-78344075D01*
X116155826Y-78310000D01*
X116024174Y-78310000D01*
X115897007Y-78344075D01*
X115840000Y-78376988D01*
X115840000Y-77460000D01*
X115192155Y-77460000D01*
X115132627Y-77466401D01*
X115132620Y-77466403D01*
X114997913Y-77516645D01*
X114997906Y-77516649D01*
X114882812Y-77602809D01*
X114882809Y-77602812D01*
X114796649Y-77717906D01*
X114796645Y-77717913D01*
X114746403Y-77852620D01*
X114746401Y-77852627D01*
X114740000Y-77912155D01*
X42690500Y-77912155D01*
X42690500Y-75883920D01*
X103549499Y-75883920D01*
X103578340Y-76028907D01*
X103578343Y-76028917D01*
X103634912Y-76165488D01*
X103634919Y-76165501D01*
X103717048Y-76288415D01*
X103717051Y-76288419D01*
X103821580Y-76392948D01*
X103821584Y-76392951D01*
X103944498Y-76475080D01*
X103944511Y-76475087D01*
X104081082Y-76531656D01*
X104081087Y-76531658D01*
X104081091Y-76531658D01*
X104081092Y-76531659D01*
X104226079Y-76560500D01*
X104226082Y-76560500D01*
X104373920Y-76560500D01*
X104474462Y-76540500D01*
X104518913Y-76531658D01*
X104655495Y-76475084D01*
X104778416Y-76392951D01*
X104882951Y-76288416D01*
X104965084Y-76165495D01*
X105021658Y-76028913D01*
X105037329Y-75950132D01*
X105050500Y-75883920D01*
X105050500Y-75736079D01*
X105021659Y-75591092D01*
X105021658Y-75591091D01*
X105021658Y-75591087D01*
X104973256Y-75474234D01*
X104965087Y-75454511D01*
X104965080Y-75454498D01*
X104882951Y-75331584D01*
X104882948Y-75331580D01*
X104778419Y-75227051D01*
X104778415Y-75227048D01*
X104655501Y-75144919D01*
X104655488Y-75144912D01*
X104518917Y-75088343D01*
X104518907Y-75088340D01*
X104373920Y-75059500D01*
X104373918Y-75059500D01*
X104226082Y-75059500D01*
X104226080Y-75059500D01*
X104081092Y-75088340D01*
X104081082Y-75088343D01*
X103944511Y-75144912D01*
X103944498Y-75144919D01*
X103821584Y-75227048D01*
X103821580Y-75227051D01*
X103717051Y-75331580D01*
X103717048Y-75331584D01*
X103634919Y-75454498D01*
X103634912Y-75454511D01*
X103578343Y-75591082D01*
X103578340Y-75591092D01*
X103549500Y-75736079D01*
X103549500Y-75736082D01*
X103549500Y-75883918D01*
X103549500Y-75883920D01*
X103549499Y-75883920D01*
X42690500Y-75883920D01*
X42690500Y-73931279D01*
X100499475Y-73931279D01*
X100499475Y-74108670D01*
X100534078Y-74282633D01*
X100534081Y-74282642D01*
X100601958Y-74446515D01*
X100601965Y-74446528D01*
X100700510Y-74594009D01*
X100700513Y-74594013D01*
X100825936Y-74719436D01*
X100825940Y-74719439D01*
X100973421Y-74817984D01*
X100973434Y-74817991D01*
X101078626Y-74861562D01*
X101137309Y-74885869D01*
X101137311Y-74885869D01*
X101137316Y-74885871D01*
X101311279Y-74920474D01*
X101311282Y-74920475D01*
X101311284Y-74920475D01*
X101488668Y-74920475D01*
X101488669Y-74920474D01*
X101546657Y-74908939D01*
X101662633Y-74885871D01*
X101662636Y-74885869D01*
X101662641Y-74885869D01*
X101826522Y-74817988D01*
X101974010Y-74719439D01*
X101983438Y-74710011D01*
X105049499Y-74710011D01*
X105078340Y-74854998D01*
X105078343Y-74855008D01*
X105134912Y-74991579D01*
X105134919Y-74991592D01*
X105217048Y-75114506D01*
X105217051Y-75114510D01*
X105321580Y-75219039D01*
X105321584Y-75219042D01*
X105444498Y-75301171D01*
X105444511Y-75301178D01*
X105576604Y-75355892D01*
X105581087Y-75357749D01*
X105581091Y-75357749D01*
X105586919Y-75359518D01*
X105586337Y-75361436D01*
X105640095Y-75389547D01*
X105674677Y-75450258D01*
X105675622Y-75454599D01*
X105679526Y-75474226D01*
X105679528Y-75474234D01*
X105739867Y-75619907D01*
X105739874Y-75619920D01*
X105827475Y-75751023D01*
X105827478Y-75751027D01*
X105938972Y-75862521D01*
X105938976Y-75862524D01*
X106070079Y-75950125D01*
X106070092Y-75950132D01*
X106215763Y-76010470D01*
X106215768Y-76010472D01*
X106308477Y-76028913D01*
X106370418Y-76041234D01*
X106370421Y-76041235D01*
X106370423Y-76041235D01*
X106528109Y-76041235D01*
X106528110Y-76041234D01*
X106682762Y-76010472D01*
X106828444Y-75950129D01*
X106959554Y-75862524D01*
X107071054Y-75751024D01*
X107158659Y-75619914D01*
X107219002Y-75474232D01*
X107249765Y-75319577D01*
X107249765Y-75161893D01*
X107249765Y-75161890D01*
X107249764Y-75161888D01*
X107235134Y-75088340D01*
X107219002Y-75007238D01*
X107183064Y-74920475D01*
X107158662Y-74861562D01*
X107158655Y-74861549D01*
X107071054Y-74730446D01*
X107071051Y-74730442D01*
X106959557Y-74618948D01*
X106959553Y-74618945D01*
X106828450Y-74531344D01*
X106828437Y-74531337D01*
X106682766Y-74470999D01*
X106682756Y-74470996D01*
X106596491Y-74453837D01*
X106534580Y-74421452D01*
X106506124Y-74379677D01*
X106465084Y-74280596D01*
X106465082Y-74280593D01*
X106465080Y-74280589D01*
X106382951Y-74157675D01*
X106382948Y-74157671D01*
X106278419Y-74053142D01*
X106278415Y-74053139D01*
X106155501Y-73971010D01*
X106155488Y-73971003D01*
X106018917Y-73914434D01*
X106018907Y-73914431D01*
X105873920Y-73885591D01*
X105873918Y-73885591D01*
X105726082Y-73885591D01*
X105726080Y-73885591D01*
X105581092Y-73914431D01*
X105581082Y-73914434D01*
X105444511Y-73971003D01*
X105444498Y-73971010D01*
X105321584Y-74053139D01*
X105321580Y-74053142D01*
X105217051Y-74157671D01*
X105217048Y-74157675D01*
X105134919Y-74280589D01*
X105134912Y-74280602D01*
X105078343Y-74417173D01*
X105078340Y-74417183D01*
X105049500Y-74562170D01*
X105049500Y-74562173D01*
X105049500Y-74710009D01*
X105049500Y-74710011D01*
X105049499Y-74710011D01*
X101983438Y-74710011D01*
X102099439Y-74594010D01*
X102158318Y-74505892D01*
X102170815Y-74487190D01*
X102197984Y-74446528D01*
X102197984Y-74446527D01*
X102197988Y-74446522D01*
X102265869Y-74282641D01*
X102266277Y-74280593D01*
X102295697Y-74132686D01*
X102300475Y-74108666D01*
X102300475Y-73931284D01*
X102300475Y-73931281D01*
X102300474Y-73931279D01*
X102265871Y-73757316D01*
X102265868Y-73757307D01*
X102206476Y-73613920D01*
X111089499Y-73613920D01*
X111118340Y-73758907D01*
X111118343Y-73758917D01*
X111174912Y-73895488D01*
X111174919Y-73895501D01*
X111257048Y-74018415D01*
X111257051Y-74018419D01*
X111361580Y-74122948D01*
X111361584Y-74122951D01*
X111484498Y-74205080D01*
X111484511Y-74205087D01*
X111585250Y-74246814D01*
X111621087Y-74261658D01*
X111621091Y-74261658D01*
X111621092Y-74261659D01*
X111766079Y-74290500D01*
X111766082Y-74290500D01*
X111913920Y-74290500D01*
X112011462Y-74271096D01*
X112058913Y-74261658D01*
X112195495Y-74205084D01*
X112318416Y-74122951D01*
X112422951Y-74018416D01*
X112505084Y-73895495D01*
X112561658Y-73758913D01*
X112590500Y-73613918D01*
X112590500Y-73573920D01*
X130579499Y-73573920D01*
X130608340Y-73718907D01*
X130608343Y-73718917D01*
X130664912Y-73855488D01*
X130664919Y-73855501D01*
X130747048Y-73978415D01*
X130747051Y-73978419D01*
X130851580Y-74082948D01*
X130851584Y-74082951D01*
X130974498Y-74165080D01*
X130974511Y-74165087D01*
X131111082Y-74221656D01*
X131111087Y-74221658D01*
X131111091Y-74221658D01*
X131111092Y-74221659D01*
X131256079Y-74250500D01*
X131256082Y-74250500D01*
X131403920Y-74250500D01*
X131501462Y-74231096D01*
X131548913Y-74221658D01*
X131685495Y-74165084D01*
X131808416Y-74082951D01*
X131912951Y-73978416D01*
X131995084Y-73855495D01*
X132051658Y-73718913D01*
X132072543Y-73613920D01*
X132080500Y-73573920D01*
X132080500Y-73426079D01*
X132051659Y-73281092D01*
X132051658Y-73281091D01*
X132051658Y-73281087D01*
X132034201Y-73238941D01*
X131995087Y-73144511D01*
X131995080Y-73144498D01*
X131912951Y-73021584D01*
X131912948Y-73021580D01*
X131808419Y-72917051D01*
X131808415Y-72917048D01*
X131685501Y-72834919D01*
X131685488Y-72834912D01*
X131548917Y-72778343D01*
X131548907Y-72778340D01*
X131403920Y-72749500D01*
X131403918Y-72749500D01*
X131256082Y-72749500D01*
X131256080Y-72749500D01*
X131111092Y-72778340D01*
X131111082Y-72778343D01*
X130974511Y-72834912D01*
X130974498Y-72834919D01*
X130851584Y-72917048D01*
X130851580Y-72917051D01*
X130747051Y-73021580D01*
X130747048Y-73021584D01*
X130664919Y-73144498D01*
X130664912Y-73144511D01*
X130608343Y-73281082D01*
X130608340Y-73281092D01*
X130579500Y-73426079D01*
X130579500Y-73426082D01*
X130579500Y-73573918D01*
X130579500Y-73573920D01*
X130579499Y-73573920D01*
X112590500Y-73573920D01*
X112590500Y-73466082D01*
X112590499Y-73466079D01*
X112586144Y-73444183D01*
X112586144Y-73444182D01*
X112561659Y-73321092D01*
X112561658Y-73321091D01*
X112561658Y-73321087D01*
X112545092Y-73281092D01*
X112505087Y-73184511D01*
X112505080Y-73184498D01*
X112422951Y-73061584D01*
X112422948Y-73061580D01*
X112318419Y-72957051D01*
X112318415Y-72957048D01*
X112195501Y-72874919D01*
X112195488Y-72874912D01*
X112058917Y-72818343D01*
X112058907Y-72818340D01*
X111913920Y-72789500D01*
X111913918Y-72789500D01*
X111766082Y-72789500D01*
X111766080Y-72789500D01*
X111621092Y-72818340D01*
X111621082Y-72818343D01*
X111484511Y-72874912D01*
X111484498Y-72874919D01*
X111361584Y-72957048D01*
X111361580Y-72957051D01*
X111257051Y-73061580D01*
X111257048Y-73061584D01*
X111174919Y-73184498D01*
X111174912Y-73184511D01*
X111118343Y-73321082D01*
X111118340Y-73321092D01*
X111089500Y-73466079D01*
X111089500Y-73466080D01*
X111089500Y-73466082D01*
X111089500Y-73613918D01*
X111089500Y-73613920D01*
X111089499Y-73613920D01*
X102206476Y-73613920D01*
X102197991Y-73593434D01*
X102197989Y-73593430D01*
X102197988Y-73593428D01*
X102154859Y-73528881D01*
X102154859Y-73528880D01*
X102134342Y-73498174D01*
X102113464Y-73431497D01*
X102131949Y-73364117D01*
X102149760Y-73341606D01*
X102252951Y-73238416D01*
X102335084Y-73115495D01*
X102391658Y-72978913D01*
X102420301Y-72834919D01*
X102420500Y-72833920D01*
X102420500Y-72686079D01*
X102391659Y-72541092D01*
X102391658Y-72541091D01*
X102391658Y-72541087D01*
X102346757Y-72432686D01*
X102335087Y-72404511D01*
X102335080Y-72404498D01*
X102252951Y-72281584D01*
X102252948Y-72281580D01*
X102148419Y-72177051D01*
X102148415Y-72177048D01*
X102025501Y-72094919D01*
X102025488Y-72094912D01*
X101888917Y-72038343D01*
X101888907Y-72038340D01*
X101743920Y-72009500D01*
X101743918Y-72009500D01*
X101596082Y-72009500D01*
X101596080Y-72009500D01*
X101451092Y-72038340D01*
X101451082Y-72038343D01*
X101314511Y-72094912D01*
X101314498Y-72094919D01*
X101191584Y-72177048D01*
X101191580Y-72177051D01*
X101087051Y-72281580D01*
X101087048Y-72281584D01*
X101004919Y-72404498D01*
X101004912Y-72404511D01*
X100948343Y-72541082D01*
X100948340Y-72541092D01*
X100919500Y-72686079D01*
X100919500Y-72686082D01*
X100919500Y-72833918D01*
X100919500Y-72833920D01*
X100919499Y-72833920D01*
X100948340Y-72978907D01*
X100948343Y-72978917D01*
X100993687Y-73088387D01*
X101001156Y-73157856D01*
X100969881Y-73220335D01*
X100948017Y-73238941D01*
X100825940Y-73320510D01*
X100825936Y-73320513D01*
X100700513Y-73445936D01*
X100700510Y-73445940D01*
X100601965Y-73593421D01*
X100601958Y-73593434D01*
X100534081Y-73757307D01*
X100534078Y-73757316D01*
X100499475Y-73931279D01*
X42690500Y-73931279D01*
X42690500Y-69653920D01*
X65789499Y-69653920D01*
X65818340Y-69798907D01*
X65818343Y-69798917D01*
X65874912Y-69935488D01*
X65874919Y-69935501D01*
X65957048Y-70058415D01*
X65957051Y-70058419D01*
X66061580Y-70162948D01*
X66061584Y-70162951D01*
X66184498Y-70245080D01*
X66184511Y-70245087D01*
X66321082Y-70301656D01*
X66321087Y-70301658D01*
X66321091Y-70301658D01*
X66321092Y-70301659D01*
X66466079Y-70330500D01*
X66466082Y-70330500D01*
X66613920Y-70330500D01*
X66711462Y-70311096D01*
X66758913Y-70301658D01*
X66876510Y-70252948D01*
X66895488Y-70245087D01*
X66895488Y-70245086D01*
X66895495Y-70245084D01*
X67018416Y-70162951D01*
X67122951Y-70058416D01*
X67205084Y-69935495D01*
X67261658Y-69798913D01*
X67275688Y-69728380D01*
X67276575Y-69723920D01*
X70679499Y-69723920D01*
X70708340Y-69868907D01*
X70708343Y-69868917D01*
X70764912Y-70005488D01*
X70764919Y-70005501D01*
X70847048Y-70128415D01*
X70847051Y-70128419D01*
X70951580Y-70232948D01*
X70951584Y-70232951D01*
X71074498Y-70315080D01*
X71074511Y-70315087D01*
X71203260Y-70368416D01*
X71211087Y-70371658D01*
X71211091Y-70371658D01*
X71211092Y-70371659D01*
X71356079Y-70400500D01*
X71356082Y-70400500D01*
X71503920Y-70400500D01*
X71601462Y-70381096D01*
X71648913Y-70371658D01*
X71785495Y-70315084D01*
X71908416Y-70232951D01*
X72012951Y-70128416D01*
X72095084Y-70005495D01*
X72151658Y-69868913D01*
X72163062Y-69811584D01*
X72176522Y-69743920D01*
X75379499Y-69743920D01*
X75408340Y-69888907D01*
X75408343Y-69888917D01*
X75464912Y-70025488D01*
X75464919Y-70025501D01*
X75547048Y-70148415D01*
X75547051Y-70148419D01*
X75651580Y-70252948D01*
X75651584Y-70252951D01*
X75774498Y-70335080D01*
X75774511Y-70335087D01*
X75911082Y-70391656D01*
X75911087Y-70391658D01*
X75911091Y-70391658D01*
X75911092Y-70391659D01*
X76056079Y-70420500D01*
X76056082Y-70420500D01*
X76203920Y-70420500D01*
X76304462Y-70400500D01*
X76348913Y-70391658D01*
X76485495Y-70335084D01*
X76608416Y-70252951D01*
X76657447Y-70203920D01*
X100239499Y-70203920D01*
X100268340Y-70348907D01*
X100268343Y-70348917D01*
X100324912Y-70485488D01*
X100324919Y-70485501D01*
X100407048Y-70608415D01*
X100407051Y-70608419D01*
X100511580Y-70712948D01*
X100511584Y-70712951D01*
X100634498Y-70795080D01*
X100634511Y-70795087D01*
X100771082Y-70851656D01*
X100771087Y-70851658D01*
X100771091Y-70851658D01*
X100771092Y-70851659D01*
X100916079Y-70880500D01*
X100916082Y-70880500D01*
X101063920Y-70880500D01*
X101185647Y-70856286D01*
X101208913Y-70851658D01*
X101345495Y-70795084D01*
X101468416Y-70712951D01*
X101516434Y-70664932D01*
X101577756Y-70631447D01*
X101628305Y-70630996D01*
X101676082Y-70640500D01*
X101823920Y-70640500D01*
X101921462Y-70621096D01*
X101968913Y-70611658D01*
X102080361Y-70565495D01*
X102105488Y-70555087D01*
X102105488Y-70555086D01*
X102105495Y-70555084D01*
X102228416Y-70472951D01*
X102332951Y-70368416D01*
X102335955Y-70363920D01*
X108519499Y-70363920D01*
X108548340Y-70508907D01*
X108548343Y-70508917D01*
X108604912Y-70645488D01*
X108604919Y-70645501D01*
X108687048Y-70768415D01*
X108687051Y-70768419D01*
X108791580Y-70872948D01*
X108791584Y-70872951D01*
X108914498Y-70955080D01*
X108914511Y-70955087D01*
X109051082Y-71011656D01*
X109051087Y-71011658D01*
X109051091Y-71011658D01*
X109051092Y-71011659D01*
X109196079Y-71040500D01*
X109196082Y-71040500D01*
X109343920Y-71040500D01*
X109441462Y-71021096D01*
X109488913Y-71011658D01*
X109625495Y-70955084D01*
X109748416Y-70872951D01*
X109852951Y-70768416D01*
X109935084Y-70645495D01*
X109935822Y-70643713D01*
X149359500Y-70643713D01*
X149359500Y-70856286D01*
X149388676Y-71040500D01*
X149392754Y-71066243D01*
X149446997Y-71233186D01*
X149458444Y-71268414D01*
X149554951Y-71457820D01*
X149679890Y-71629786D01*
X149830213Y-71780109D01*
X150002179Y-71905048D01*
X150002181Y-71905049D01*
X150002184Y-71905051D01*
X150191588Y-72001557D01*
X150393757Y-72067246D01*
X150603713Y-72100500D01*
X150603714Y-72100500D01*
X150816286Y-72100500D01*
X150816287Y-72100500D01*
X151026243Y-72067246D01*
X151228412Y-72001557D01*
X151417816Y-71905051D01*
X151439789Y-71889086D01*
X151589786Y-71780109D01*
X151589788Y-71780106D01*
X151589792Y-71780104D01*
X151740104Y-71629792D01*
X151740106Y-71629788D01*
X151740109Y-71629786D01*
X151849086Y-71479789D01*
X151865051Y-71457816D01*
X151961557Y-71268412D01*
X152027246Y-71066243D01*
X152060500Y-70856287D01*
X152060500Y-70643713D01*
X152027246Y-70433757D01*
X151978561Y-70283920D01*
X154799499Y-70283920D01*
X154828340Y-70428907D01*
X154828343Y-70428917D01*
X154884912Y-70565488D01*
X154884919Y-70565501D01*
X154967048Y-70688415D01*
X154967051Y-70688419D01*
X155071580Y-70792948D01*
X155071584Y-70792951D01*
X155194498Y-70875080D01*
X155194511Y-70875087D01*
X155331082Y-70931656D01*
X155331087Y-70931658D01*
X155331091Y-70931658D01*
X155331092Y-70931659D01*
X155476079Y-70960500D01*
X155476082Y-70960500D01*
X155623920Y-70960500D01*
X155721462Y-70941096D01*
X155768913Y-70931658D01*
X155905495Y-70875084D01*
X156028416Y-70792951D01*
X156132951Y-70688416D01*
X156215084Y-70565495D01*
X156271658Y-70428913D01*
X156287571Y-70348917D01*
X156300500Y-70283920D01*
X156300500Y-70136079D01*
X156271659Y-69991092D01*
X156271658Y-69991091D01*
X156271658Y-69991087D01*
X156229338Y-69888917D01*
X156215087Y-69854511D01*
X156215080Y-69854498D01*
X156132951Y-69731584D01*
X156132948Y-69731580D01*
X156028419Y-69627051D01*
X156028415Y-69627048D01*
X155905501Y-69544919D01*
X155905488Y-69544912D01*
X155768917Y-69488343D01*
X155768907Y-69488340D01*
X155623920Y-69459500D01*
X155623918Y-69459500D01*
X155476082Y-69459500D01*
X155476080Y-69459500D01*
X155331092Y-69488340D01*
X155331082Y-69488343D01*
X155194511Y-69544912D01*
X155194498Y-69544919D01*
X155071584Y-69627048D01*
X155071580Y-69627051D01*
X154967051Y-69731580D01*
X154967048Y-69731584D01*
X154884919Y-69854498D01*
X154884912Y-69854511D01*
X154828343Y-69991082D01*
X154828340Y-69991092D01*
X154799500Y-70136079D01*
X154799500Y-70136082D01*
X154799500Y-70283918D01*
X154799500Y-70283920D01*
X154799499Y-70283920D01*
X151978561Y-70283920D01*
X151961557Y-70231588D01*
X151865051Y-70042184D01*
X151865049Y-70042181D01*
X151865048Y-70042179D01*
X151740109Y-69870213D01*
X151589786Y-69719890D01*
X151417820Y-69594951D01*
X151228414Y-69498444D01*
X151228413Y-69498443D01*
X151228412Y-69498443D01*
X151026243Y-69432754D01*
X151026241Y-69432753D01*
X151026240Y-69432753D01*
X150856644Y-69405892D01*
X150816287Y-69399500D01*
X150603713Y-69399500D01*
X150563356Y-69405892D01*
X150393760Y-69432753D01*
X150393757Y-69432754D01*
X150222673Y-69488343D01*
X150191585Y-69498444D01*
X150002179Y-69594951D01*
X149830213Y-69719890D01*
X149679890Y-69870213D01*
X149554951Y-70042179D01*
X149458444Y-70231585D01*
X149392753Y-70433760D01*
X149359500Y-70643713D01*
X109935822Y-70643713D01*
X109991658Y-70508913D01*
X110007571Y-70428917D01*
X110020500Y-70363920D01*
X110020500Y-70216079D01*
X109991659Y-70071092D01*
X109991658Y-70071091D01*
X109991658Y-70071087D01*
X109989173Y-70065087D01*
X109940951Y-69948668D01*
X109933482Y-69879199D01*
X109964757Y-69816720D01*
X109967810Y-69813556D01*
X109982951Y-69798416D01*
X110065084Y-69675495D01*
X110121658Y-69538913D01*
X110142775Y-69432753D01*
X110150500Y-69393920D01*
X110150500Y-69246079D01*
X110121659Y-69101092D01*
X110121658Y-69101091D01*
X110121658Y-69101087D01*
X110098218Y-69044498D01*
X110065087Y-68964511D01*
X110065080Y-68964498D01*
X109990786Y-68853310D01*
X109969908Y-68786633D01*
X109979327Y-68736966D01*
X109980175Y-68734919D01*
X110011658Y-68658913D01*
X110027407Y-68579738D01*
X110040500Y-68513920D01*
X110040500Y-68366079D01*
X110011659Y-68221092D01*
X110011658Y-68221091D01*
X110011658Y-68221087D01*
X109998441Y-68189179D01*
X109955087Y-68084511D01*
X109955080Y-68084498D01*
X109872951Y-67961584D01*
X109872948Y-67961580D01*
X109768419Y-67857051D01*
X109768415Y-67857048D01*
X109645501Y-67774919D01*
X109645488Y-67774912D01*
X109508917Y-67718343D01*
X109508907Y-67718340D01*
X109363920Y-67689500D01*
X109363918Y-67689500D01*
X109216082Y-67689500D01*
X109216080Y-67689500D01*
X109071092Y-67718340D01*
X109071082Y-67718343D01*
X108934511Y-67774912D01*
X108934498Y-67774919D01*
X108811584Y-67857048D01*
X108811580Y-67857051D01*
X108707051Y-67961580D01*
X108707048Y-67961584D01*
X108624919Y-68084498D01*
X108624912Y-68084511D01*
X108568343Y-68221082D01*
X108568340Y-68221092D01*
X108539500Y-68366079D01*
X108539500Y-68366082D01*
X108539500Y-68513918D01*
X108539500Y-68513920D01*
X108539499Y-68513920D01*
X108568340Y-68658907D01*
X108568343Y-68658917D01*
X108624912Y-68795488D01*
X108624919Y-68795500D01*
X108699213Y-68906689D01*
X108720091Y-68973367D01*
X108710673Y-69023031D01*
X108678342Y-69101087D01*
X108678340Y-69101092D01*
X108649500Y-69246079D01*
X108649500Y-69246082D01*
X108649500Y-69393918D01*
X108649500Y-69393920D01*
X108649499Y-69393920D01*
X108678340Y-69538907D01*
X108678343Y-69538917D01*
X108729048Y-69661330D01*
X108736517Y-69730799D01*
X108705242Y-69793278D01*
X108702173Y-69796459D01*
X108687047Y-69811586D01*
X108687046Y-69811587D01*
X108604919Y-69934498D01*
X108604912Y-69934511D01*
X108548343Y-70071082D01*
X108548340Y-70071092D01*
X108519500Y-70216079D01*
X108519500Y-70216082D01*
X108519500Y-70363918D01*
X108519500Y-70363920D01*
X108519499Y-70363920D01*
X102335955Y-70363920D01*
X102415084Y-70245495D01*
X102420281Y-70232948D01*
X102449446Y-70162538D01*
X102449446Y-70162537D01*
X102455295Y-70148416D01*
X102471658Y-70108913D01*
X102488253Y-70025488D01*
X102500500Y-69963920D01*
X102500500Y-69816079D01*
X102471659Y-69671092D01*
X102471658Y-69671091D01*
X102471658Y-69671087D01*
X102464547Y-69653920D01*
X102415087Y-69534511D01*
X102415080Y-69534498D01*
X102332951Y-69411584D01*
X102332948Y-69411580D01*
X102228419Y-69307051D01*
X102228415Y-69307048D01*
X102105501Y-69224919D01*
X102105488Y-69224912D01*
X101968917Y-69168343D01*
X101968907Y-69168340D01*
X101823920Y-69139500D01*
X101823918Y-69139500D01*
X101676082Y-69139500D01*
X101676080Y-69139500D01*
X101531092Y-69168340D01*
X101531082Y-69168343D01*
X101394511Y-69224912D01*
X101394498Y-69224919D01*
X101271587Y-69307046D01*
X101223564Y-69355068D01*
X101162240Y-69388552D01*
X101111694Y-69389003D01*
X101063918Y-69379500D01*
X100916082Y-69379500D01*
X100916080Y-69379500D01*
X100771092Y-69408340D01*
X100771082Y-69408343D01*
X100634511Y-69464912D01*
X100634498Y-69464919D01*
X100511584Y-69547048D01*
X100511580Y-69547051D01*
X100407051Y-69651580D01*
X100407048Y-69651584D01*
X100324919Y-69774498D01*
X100324912Y-69774511D01*
X100268343Y-69911082D01*
X100268340Y-69911092D01*
X100239500Y-70056079D01*
X100239500Y-70056082D01*
X100239500Y-70203918D01*
X100239500Y-70203920D01*
X100239499Y-70203920D01*
X76657447Y-70203920D01*
X76712951Y-70148416D01*
X76795084Y-70025495D01*
X76851658Y-69888913D01*
X76861096Y-69841462D01*
X76880500Y-69743920D01*
X76880500Y-69596079D01*
X76856200Y-69473920D01*
X84749499Y-69473920D01*
X84778340Y-69618907D01*
X84778343Y-69618917D01*
X84834912Y-69755488D01*
X84834919Y-69755501D01*
X84917048Y-69878415D01*
X84917051Y-69878419D01*
X85021580Y-69982948D01*
X85021584Y-69982951D01*
X85144498Y-70065080D01*
X85144511Y-70065087D01*
X85281082Y-70121656D01*
X85281087Y-70121658D01*
X85281091Y-70121658D01*
X85281092Y-70121659D01*
X85426079Y-70150500D01*
X85426082Y-70150500D01*
X85573920Y-70150500D01*
X85706596Y-70124108D01*
X85718913Y-70121658D01*
X85824547Y-70077902D01*
X85855488Y-70065087D01*
X85855488Y-70065086D01*
X85855495Y-70065084D01*
X85978416Y-69982951D01*
X85978419Y-69982948D01*
X85999059Y-69962309D01*
X86082948Y-69878419D01*
X86082951Y-69878416D01*
X86165084Y-69755495D01*
X86221658Y-69618913D01*
X86237571Y-69538917D01*
X86250500Y-69473920D01*
X86250500Y-69326079D01*
X86221659Y-69181092D01*
X86221658Y-69181091D01*
X86221658Y-69181087D01*
X86188727Y-69101584D01*
X86165087Y-69044511D01*
X86165080Y-69044498D01*
X86082951Y-68921584D01*
X86082948Y-68921580D01*
X85978419Y-68817051D01*
X85978415Y-68817048D01*
X85855501Y-68734919D01*
X85855488Y-68734912D01*
X85718917Y-68678343D01*
X85718907Y-68678340D01*
X85573920Y-68649500D01*
X85573918Y-68649500D01*
X85426082Y-68649500D01*
X85426080Y-68649500D01*
X85281092Y-68678340D01*
X85281082Y-68678343D01*
X85144511Y-68734912D01*
X85144498Y-68734919D01*
X85021584Y-68817048D01*
X85021580Y-68817051D01*
X84917051Y-68921580D01*
X84917048Y-68921584D01*
X84834919Y-69044498D01*
X84834912Y-69044511D01*
X84778343Y-69181082D01*
X84778340Y-69181092D01*
X84749500Y-69326079D01*
X84749500Y-69326082D01*
X84749500Y-69473918D01*
X84749500Y-69473920D01*
X84749499Y-69473920D01*
X76856200Y-69473920D01*
X76851659Y-69451092D01*
X76851658Y-69451091D01*
X76851658Y-69451087D01*
X76843372Y-69431082D01*
X76817012Y-69367442D01*
X76795085Y-69314508D01*
X76795084Y-69314505D01*
X76795082Y-69314502D01*
X76795080Y-69314498D01*
X76712951Y-69191584D01*
X76712948Y-69191580D01*
X76608419Y-69087051D01*
X76608415Y-69087048D01*
X76485501Y-69004919D01*
X76485488Y-69004912D01*
X76348917Y-68948343D01*
X76348907Y-68948340D01*
X76203920Y-68919500D01*
X76203918Y-68919500D01*
X76056082Y-68919500D01*
X76056080Y-68919500D01*
X75911092Y-68948340D01*
X75911082Y-68948343D01*
X75774511Y-69004912D01*
X75774498Y-69004919D01*
X75651584Y-69087048D01*
X75651580Y-69087051D01*
X75547051Y-69191580D01*
X75547048Y-69191584D01*
X75464919Y-69314498D01*
X75464912Y-69314511D01*
X75408343Y-69451082D01*
X75408340Y-69451092D01*
X75379500Y-69596079D01*
X75379500Y-69596082D01*
X75379500Y-69743918D01*
X75379500Y-69743920D01*
X75379499Y-69743920D01*
X72176522Y-69743920D01*
X72180500Y-69723920D01*
X72180500Y-69576079D01*
X72151659Y-69431092D01*
X72151658Y-69431091D01*
X72151658Y-69431087D01*
X72141222Y-69405892D01*
X72095087Y-69294511D01*
X72095080Y-69294498D01*
X72012951Y-69171584D01*
X72012948Y-69171580D01*
X71908419Y-69067051D01*
X71908415Y-69067048D01*
X71785501Y-68984919D01*
X71785488Y-68984912D01*
X71648917Y-68928343D01*
X71648907Y-68928340D01*
X71503920Y-68899500D01*
X71503918Y-68899500D01*
X71356082Y-68899500D01*
X71356080Y-68899500D01*
X71211092Y-68928340D01*
X71211082Y-68928343D01*
X71074511Y-68984912D01*
X71074498Y-68984919D01*
X70951584Y-69067048D01*
X70951580Y-69067051D01*
X70847051Y-69171580D01*
X70847048Y-69171584D01*
X70764919Y-69294498D01*
X70764912Y-69294511D01*
X70708343Y-69431082D01*
X70708340Y-69431092D01*
X70679500Y-69576079D01*
X70679500Y-69576082D01*
X70679500Y-69723918D01*
X70679500Y-69723920D01*
X70679499Y-69723920D01*
X67276575Y-69723920D01*
X67290500Y-69653920D01*
X67290500Y-69506079D01*
X67261659Y-69361092D01*
X67261658Y-69361091D01*
X67261658Y-69361087D01*
X67259165Y-69355068D01*
X67205087Y-69224511D01*
X67205080Y-69224498D01*
X67122951Y-69101584D01*
X67122948Y-69101580D01*
X67018419Y-68997051D01*
X67018415Y-68997048D01*
X66895501Y-68914919D01*
X66895488Y-68914912D01*
X66758917Y-68858343D01*
X66758907Y-68858340D01*
X66613920Y-68829500D01*
X66613918Y-68829500D01*
X66466082Y-68829500D01*
X66466080Y-68829500D01*
X66321092Y-68858340D01*
X66321082Y-68858343D01*
X66184511Y-68914912D01*
X66184498Y-68914919D01*
X66061584Y-68997048D01*
X66061580Y-68997051D01*
X65957051Y-69101580D01*
X65957048Y-69101584D01*
X65874919Y-69224498D01*
X65874912Y-69224511D01*
X65818343Y-69361082D01*
X65818340Y-69361092D01*
X65789500Y-69506079D01*
X65789500Y-69506082D01*
X65789500Y-69653918D01*
X65789500Y-69653920D01*
X65789499Y-69653920D01*
X42690500Y-69653920D01*
X42690500Y-67161153D01*
X67639500Y-67161153D01*
X67639500Y-67318846D01*
X67670261Y-67473489D01*
X67670264Y-67473501D01*
X67730602Y-67619172D01*
X67730609Y-67619185D01*
X67818210Y-67750288D01*
X67818213Y-67750292D01*
X67929707Y-67861786D01*
X67929711Y-67861789D01*
X68060814Y-67949390D01*
X68060827Y-67949397D01*
X68206498Y-68009735D01*
X68206503Y-68009737D01*
X68361153Y-68040499D01*
X68361156Y-68040500D01*
X68361158Y-68040500D01*
X68518844Y-68040500D01*
X68518845Y-68040499D01*
X68673497Y-68009737D01*
X68819179Y-67949394D01*
X68950289Y-67861789D01*
X69061789Y-67750289D01*
X69074575Y-67731153D01*
X72639500Y-67731153D01*
X72639500Y-67888846D01*
X72670261Y-68043489D01*
X72670264Y-68043501D01*
X72730602Y-68189172D01*
X72730609Y-68189185D01*
X72818210Y-68320288D01*
X72818213Y-68320292D01*
X72929707Y-68431786D01*
X72929711Y-68431789D01*
X73060814Y-68519390D01*
X73060827Y-68519397D01*
X73206498Y-68579735D01*
X73206503Y-68579737D01*
X73361153Y-68610499D01*
X73361156Y-68610500D01*
X73361158Y-68610500D01*
X73518844Y-68610500D01*
X73518845Y-68610499D01*
X73673497Y-68579737D01*
X73819179Y-68519394D01*
X73950289Y-68431789D01*
X74061789Y-68320289D01*
X74149394Y-68189179D01*
X74152084Y-68182686D01*
X74190682Y-68089500D01*
X74209737Y-68043497D01*
X74240500Y-67888842D01*
X74240500Y-67731158D01*
X74240500Y-67731155D01*
X74240499Y-67731153D01*
X74225585Y-67656175D01*
X74209737Y-67576503D01*
X74208745Y-67574108D01*
X74149397Y-67430827D01*
X74149390Y-67430814D01*
X74061789Y-67299711D01*
X74061786Y-67299707D01*
X73950292Y-67188213D01*
X73950288Y-67188210D01*
X73819185Y-67100609D01*
X73819172Y-67100602D01*
X73673501Y-67040264D01*
X73673489Y-67040261D01*
X73518845Y-67009500D01*
X73518842Y-67009500D01*
X73361158Y-67009500D01*
X73361155Y-67009500D01*
X73206510Y-67040261D01*
X73206498Y-67040264D01*
X73060827Y-67100602D01*
X73060814Y-67100609D01*
X72929711Y-67188210D01*
X72929707Y-67188213D01*
X72818213Y-67299707D01*
X72818210Y-67299711D01*
X72730609Y-67430814D01*
X72730602Y-67430827D01*
X72670264Y-67576498D01*
X72670261Y-67576510D01*
X72639500Y-67731153D01*
X69074575Y-67731153D01*
X69102407Y-67689500D01*
X69124675Y-67656175D01*
X69149391Y-67619183D01*
X69149394Y-67619179D01*
X69209737Y-67473497D01*
X69240500Y-67318842D01*
X69240500Y-67161158D01*
X69240500Y-67161155D01*
X69240499Y-67161153D01*
X69228455Y-67100606D01*
X69209737Y-67006503D01*
X69192579Y-66965080D01*
X69149397Y-66860827D01*
X69149390Y-66860814D01*
X69061789Y-66729711D01*
X69061786Y-66729707D01*
X68950292Y-66618213D01*
X68950288Y-66618210D01*
X68819185Y-66530609D01*
X68819172Y-66530602D01*
X68673501Y-66470264D01*
X68673489Y-66470261D01*
X68518845Y-66439500D01*
X68518842Y-66439500D01*
X68361158Y-66439500D01*
X68361155Y-66439500D01*
X68206510Y-66470261D01*
X68206498Y-66470264D01*
X68060827Y-66530602D01*
X68060814Y-66530609D01*
X67929711Y-66618210D01*
X67929707Y-66618213D01*
X67818213Y-66729707D01*
X67818210Y-66729711D01*
X67730609Y-66860814D01*
X67730602Y-66860827D01*
X67670264Y-67006498D01*
X67670261Y-67006510D01*
X67639500Y-67161153D01*
X42690500Y-67161153D01*
X42690500Y-66373920D01*
X81899499Y-66373920D01*
X81928340Y-66518907D01*
X81928343Y-66518917D01*
X81984912Y-66655488D01*
X81984919Y-66655501D01*
X82067048Y-66778415D01*
X82067051Y-66778419D01*
X82171580Y-66882948D01*
X82171584Y-66882951D01*
X82294498Y-66965080D01*
X82294511Y-66965087D01*
X82394516Y-67006510D01*
X82431087Y-67021658D01*
X82431091Y-67021658D01*
X82431092Y-67021659D01*
X82576079Y-67050500D01*
X82576082Y-67050500D01*
X82723920Y-67050500D01*
X82845647Y-67026286D01*
X82868913Y-67021658D01*
X83005495Y-66965084D01*
X83082068Y-66913920D01*
X104999499Y-66913920D01*
X105028340Y-67058907D01*
X105028343Y-67058917D01*
X105084912Y-67195488D01*
X105084919Y-67195501D01*
X105167048Y-67318415D01*
X105167051Y-67318419D01*
X105271580Y-67422948D01*
X105271584Y-67422951D01*
X105394498Y-67505080D01*
X105394511Y-67505087D01*
X105531082Y-67561656D01*
X105531087Y-67561658D01*
X105531091Y-67561658D01*
X105531092Y-67561659D01*
X105676079Y-67590500D01*
X105676082Y-67590500D01*
X105823920Y-67590500D01*
X105921462Y-67571096D01*
X105968913Y-67561658D01*
X106105495Y-67505084D01*
X106228416Y-67422951D01*
X106332951Y-67318416D01*
X106415084Y-67195495D01*
X106471658Y-67058913D01*
X106482084Y-67006498D01*
X106500500Y-66913920D01*
X106500500Y-66766079D01*
X106471659Y-66621092D01*
X106471658Y-66621091D01*
X106471658Y-66621087D01*
X106429338Y-66518917D01*
X106415087Y-66484511D01*
X106415080Y-66484498D01*
X106332951Y-66361584D01*
X106332948Y-66361580D01*
X106228419Y-66257051D01*
X106228415Y-66257048D01*
X106105501Y-66174919D01*
X106105488Y-66174912D01*
X105968917Y-66118343D01*
X105968907Y-66118340D01*
X105823920Y-66089500D01*
X105823918Y-66089500D01*
X105676082Y-66089500D01*
X105676080Y-66089500D01*
X105531092Y-66118340D01*
X105531082Y-66118343D01*
X105394511Y-66174912D01*
X105394498Y-66174919D01*
X105271584Y-66257048D01*
X105271580Y-66257051D01*
X105167051Y-66361580D01*
X105167048Y-66361584D01*
X105084919Y-66484498D01*
X105084912Y-66484511D01*
X105028343Y-66621082D01*
X105028340Y-66621092D01*
X104999500Y-66766079D01*
X104999500Y-66766082D01*
X104999500Y-66913918D01*
X104999500Y-66913920D01*
X104999499Y-66913920D01*
X83082068Y-66913920D01*
X83128416Y-66882951D01*
X83232951Y-66778416D01*
X83265497Y-66729707D01*
X83291295Y-66691099D01*
X83291296Y-66691097D01*
X83315077Y-66655506D01*
X83315080Y-66655501D01*
X83315084Y-66655495D01*
X83371658Y-66518913D01*
X83394997Y-66401585D01*
X83400500Y-66373920D01*
X83400500Y-66226079D01*
X83371659Y-66081092D01*
X83371658Y-66081091D01*
X83371658Y-66081087D01*
X83371656Y-66081082D01*
X83315087Y-65944511D01*
X83315080Y-65944498D01*
X83232951Y-65821584D01*
X83232948Y-65821580D01*
X83128419Y-65717051D01*
X83128415Y-65717048D01*
X83005501Y-65634919D01*
X83005488Y-65634912D01*
X82868917Y-65578343D01*
X82868907Y-65578340D01*
X82723920Y-65549500D01*
X82723918Y-65549500D01*
X82576082Y-65549500D01*
X82576080Y-65549500D01*
X82431092Y-65578340D01*
X82431082Y-65578343D01*
X82294511Y-65634912D01*
X82294498Y-65634919D01*
X82171584Y-65717048D01*
X82171580Y-65717051D01*
X82067051Y-65821580D01*
X82067048Y-65821584D01*
X81984919Y-65944498D01*
X81984912Y-65944511D01*
X81928343Y-66081082D01*
X81928340Y-66081092D01*
X81899500Y-66226079D01*
X81899500Y-66226082D01*
X81899500Y-66373918D01*
X81899500Y-66373920D01*
X81899499Y-66373920D01*
X42690500Y-66373920D01*
X42690500Y-65293920D01*
X109789499Y-65293920D01*
X109818340Y-65438907D01*
X109818343Y-65438917D01*
X109874912Y-65575488D01*
X109874919Y-65575501D01*
X109957048Y-65698415D01*
X109957051Y-65698419D01*
X110061580Y-65802948D01*
X110061584Y-65802951D01*
X110184498Y-65885080D01*
X110184511Y-65885087D01*
X110321082Y-65941656D01*
X110321087Y-65941658D01*
X110321091Y-65941658D01*
X110321092Y-65941659D01*
X110466079Y-65970500D01*
X110466082Y-65970500D01*
X110613920Y-65970500D01*
X110744570Y-65944511D01*
X110758913Y-65941658D01*
X110895495Y-65885084D01*
X111018416Y-65802951D01*
X111122951Y-65698416D01*
X111205084Y-65575495D01*
X111261658Y-65438913D01*
X111281834Y-65337483D01*
X111290500Y-65293920D01*
X111290500Y-65146079D01*
X111261659Y-65001092D01*
X111261658Y-65001091D01*
X111261658Y-65001087D01*
X111218467Y-64896814D01*
X111205087Y-64864511D01*
X111205080Y-64864498D01*
X111122951Y-64741584D01*
X111122948Y-64741580D01*
X111018419Y-64637051D01*
X111018415Y-64637048D01*
X110895501Y-64554919D01*
X110895488Y-64554912D01*
X110758917Y-64498343D01*
X110758907Y-64498340D01*
X110613920Y-64469500D01*
X110613918Y-64469500D01*
X110466082Y-64469500D01*
X110466080Y-64469500D01*
X110321092Y-64498340D01*
X110321082Y-64498343D01*
X110184511Y-64554912D01*
X110184498Y-64554919D01*
X110061584Y-64637048D01*
X110061580Y-64637051D01*
X109957051Y-64741580D01*
X109957048Y-64741584D01*
X109874919Y-64864498D01*
X109874912Y-64864511D01*
X109818343Y-65001082D01*
X109818340Y-65001092D01*
X109789500Y-65146079D01*
X109789500Y-65146082D01*
X109789500Y-65293918D01*
X109789500Y-65293920D01*
X109789499Y-65293920D01*
X42690500Y-65293920D01*
X42690500Y-63482135D01*
X124659500Y-63482135D01*
X124659500Y-65277870D01*
X124659501Y-65277876D01*
X124665908Y-65337483D01*
X124716202Y-65472328D01*
X124716206Y-65472335D01*
X124802452Y-65587544D01*
X124802455Y-65587547D01*
X124917664Y-65673793D01*
X124917671Y-65673797D01*
X125049082Y-65722810D01*
X125105016Y-65764681D01*
X125129433Y-65830145D01*
X125114582Y-65898418D01*
X125093431Y-65926673D01*
X124979889Y-66040215D01*
X124854951Y-66212179D01*
X124758444Y-66401585D01*
X124692753Y-66603760D01*
X124665090Y-66778419D01*
X124659500Y-66813713D01*
X124659500Y-67026287D01*
X124664668Y-67058917D01*
X124685146Y-67188213D01*
X124692754Y-67236243D01*
X124755978Y-67430827D01*
X124758444Y-67438414D01*
X124854951Y-67627820D01*
X124979890Y-67799786D01*
X125130213Y-67950109D01*
X125302179Y-68075048D01*
X125302181Y-68075049D01*
X125302184Y-68075051D01*
X125491588Y-68171557D01*
X125693757Y-68237246D01*
X125903713Y-68270500D01*
X125903714Y-68270500D01*
X126116286Y-68270500D01*
X126116287Y-68270500D01*
X126326243Y-68237246D01*
X126528412Y-68171557D01*
X126717816Y-68075051D01*
X126765373Y-68040499D01*
X126889786Y-67950109D01*
X126889788Y-67950106D01*
X126889792Y-67950104D01*
X127040104Y-67799792D01*
X127040106Y-67799788D01*
X127040109Y-67799786D01*
X127165048Y-67627820D01*
X127165047Y-67627820D01*
X127165051Y-67627816D01*
X127261557Y-67438412D01*
X127327246Y-67236243D01*
X127360500Y-67026287D01*
X127360500Y-66813713D01*
X127327246Y-66603757D01*
X127261557Y-66401588D01*
X127165051Y-66212184D01*
X127165049Y-66212181D01*
X127165048Y-66212179D01*
X127040109Y-66040213D01*
X126926569Y-65926673D01*
X126893084Y-65865350D01*
X126898068Y-65795658D01*
X126939940Y-65739725D01*
X126970915Y-65722810D01*
X127102331Y-65673796D01*
X127217546Y-65587546D01*
X127303796Y-65472331D01*
X127354091Y-65337483D01*
X127360500Y-65277873D01*
X127360499Y-63482128D01*
X127354091Y-63422517D01*
X127343860Y-63395087D01*
X127303797Y-63287671D01*
X127303793Y-63287664D01*
X127217547Y-63172455D01*
X127217544Y-63172452D01*
X127102335Y-63086206D01*
X127102328Y-63086202D01*
X126967482Y-63035908D01*
X126967483Y-63035908D01*
X126907883Y-63029501D01*
X126907881Y-63029500D01*
X126907873Y-63029500D01*
X126907864Y-63029500D01*
X125112129Y-63029500D01*
X125112123Y-63029501D01*
X125052516Y-63035908D01*
X124917671Y-63086202D01*
X124917664Y-63086206D01*
X124802455Y-63172452D01*
X124802452Y-63172455D01*
X124716206Y-63287664D01*
X124716202Y-63287671D01*
X124665908Y-63422517D01*
X124659675Y-63480500D01*
X124659501Y-63482123D01*
X124659500Y-63482135D01*
X42690500Y-63482135D01*
X42690500Y-62803920D01*
X102839499Y-62803920D01*
X102868340Y-62948907D01*
X102868343Y-62948917D01*
X102924912Y-63085488D01*
X102924919Y-63085501D01*
X103007048Y-63208415D01*
X103007051Y-63208419D01*
X103111580Y-63312948D01*
X103111584Y-63312951D01*
X103234498Y-63395080D01*
X103234511Y-63395087D01*
X103300734Y-63422517D01*
X103371087Y-63451658D01*
X103371091Y-63451658D01*
X103371092Y-63451659D01*
X103516079Y-63480500D01*
X103516082Y-63480500D01*
X103663920Y-63480500D01*
X103761462Y-63461096D01*
X103808913Y-63451658D01*
X103945495Y-63395084D01*
X103945501Y-63395080D01*
X103974500Y-63375704D01*
X104051718Y-63324108D01*
X104068416Y-63312951D01*
X104172951Y-63208416D01*
X104255084Y-63085495D01*
X104311658Y-62948913D01*
X104340500Y-62803918D01*
X104340500Y-62656082D01*
X104340500Y-62656079D01*
X104311659Y-62511092D01*
X104311658Y-62511091D01*
X104311658Y-62511087D01*
X104311656Y-62511082D01*
X104255087Y-62374511D01*
X104255080Y-62374498D01*
X104172951Y-62251584D01*
X104172948Y-62251580D01*
X104068419Y-62147051D01*
X104068415Y-62147048D01*
X103945501Y-62064919D01*
X103945488Y-62064912D01*
X103808917Y-62008343D01*
X103808907Y-62008340D01*
X103663920Y-61979500D01*
X103663918Y-61979500D01*
X103516082Y-61979500D01*
X103516080Y-61979500D01*
X103371092Y-62008340D01*
X103371082Y-62008343D01*
X103234511Y-62064912D01*
X103234498Y-62064919D01*
X103111584Y-62147048D01*
X103111580Y-62147051D01*
X103007051Y-62251580D01*
X103007048Y-62251584D01*
X102924919Y-62374498D01*
X102924912Y-62374511D01*
X102868343Y-62511082D01*
X102868340Y-62511092D01*
X102839500Y-62656079D01*
X102839500Y-62656082D01*
X102839500Y-62803918D01*
X102839500Y-62803920D01*
X102839499Y-62803920D01*
X42690500Y-62803920D01*
X42690500Y-60383920D01*
X112479499Y-60383920D01*
X112508340Y-60528907D01*
X112508343Y-60528917D01*
X112564912Y-60665488D01*
X112564919Y-60665501D01*
X112647048Y-60788415D01*
X112647051Y-60788419D01*
X112751580Y-60892948D01*
X112751584Y-60892951D01*
X112874498Y-60975080D01*
X112874511Y-60975087D01*
X113011082Y-61031656D01*
X113011087Y-61031658D01*
X113011091Y-61031658D01*
X113011092Y-61031659D01*
X113148428Y-61058978D01*
X113210339Y-61091363D01*
X113244913Y-61152079D01*
X113245853Y-61156402D01*
X113248340Y-61168908D01*
X113248343Y-61168917D01*
X113304912Y-61305488D01*
X113304919Y-61305501D01*
X113387048Y-61428415D01*
X113387051Y-61428419D01*
X113491580Y-61532948D01*
X113491584Y-61532951D01*
X113614498Y-61615080D01*
X113614511Y-61615087D01*
X113745877Y-61669500D01*
X113751087Y-61671658D01*
X113751091Y-61671658D01*
X113751092Y-61671659D01*
X113896079Y-61700500D01*
X113896082Y-61700500D01*
X114043920Y-61700500D01*
X114127266Y-61683920D01*
X126709499Y-61683920D01*
X126738340Y-61828907D01*
X126738343Y-61828917D01*
X126794912Y-61965488D01*
X126794919Y-61965501D01*
X126877048Y-62088415D01*
X126877051Y-62088419D01*
X126981580Y-62192948D01*
X126981584Y-62192951D01*
X127104498Y-62275080D01*
X127104511Y-62275087D01*
X127241082Y-62331656D01*
X127241087Y-62331658D01*
X127241091Y-62331658D01*
X127241092Y-62331659D01*
X127386079Y-62360500D01*
X127386082Y-62360500D01*
X127533920Y-62360500D01*
X127631462Y-62341096D01*
X127678913Y-62331658D01*
X127815495Y-62275084D01*
X127938416Y-62192951D01*
X128042951Y-62088416D01*
X128125084Y-61965495D01*
X128181658Y-61828913D01*
X128210500Y-61683918D01*
X128210500Y-61536082D01*
X128210500Y-61536079D01*
X128181659Y-61391092D01*
X128181658Y-61391091D01*
X128181658Y-61391087D01*
X128181656Y-61391082D01*
X128125087Y-61254511D01*
X128125080Y-61254498D01*
X128042951Y-61131584D01*
X128042948Y-61131580D01*
X127938419Y-61027051D01*
X127938415Y-61027048D01*
X127815501Y-60944919D01*
X127815488Y-60944912D01*
X127678917Y-60888343D01*
X127678907Y-60888340D01*
X127533920Y-60859500D01*
X127533918Y-60859500D01*
X127386082Y-60859500D01*
X127386080Y-60859500D01*
X127241092Y-60888340D01*
X127241082Y-60888343D01*
X127104511Y-60944912D01*
X127104498Y-60944919D01*
X126981584Y-61027048D01*
X126981580Y-61027051D01*
X126877051Y-61131580D01*
X126877048Y-61131584D01*
X126794919Y-61254498D01*
X126794912Y-61254511D01*
X126738343Y-61391082D01*
X126738340Y-61391092D01*
X126709500Y-61536079D01*
X126709500Y-61536082D01*
X126709500Y-61683918D01*
X126709500Y-61683920D01*
X126709499Y-61683920D01*
X114127266Y-61683920D01*
X114141462Y-61681096D01*
X114188913Y-61671658D01*
X114325495Y-61615084D01*
X114448416Y-61532951D01*
X114448419Y-61532948D01*
X114539059Y-61442309D01*
X114552948Y-61428419D01*
X114552951Y-61428416D01*
X114635084Y-61305495D01*
X114691658Y-61168913D01*
X114713526Y-61058978D01*
X114720500Y-61023920D01*
X114720500Y-60876079D01*
X114691659Y-60731092D01*
X114691658Y-60731091D01*
X114691658Y-60731087D01*
X114691656Y-60731082D01*
X114635087Y-60594511D01*
X114635080Y-60594498D01*
X114552951Y-60471584D01*
X114552948Y-60471580D01*
X114448419Y-60367051D01*
X114448415Y-60367048D01*
X114398836Y-60333920D01*
X136469499Y-60333920D01*
X136498340Y-60478907D01*
X136498343Y-60478917D01*
X136554912Y-60615488D01*
X136554919Y-60615501D01*
X136637048Y-60738415D01*
X136637051Y-60738419D01*
X136741580Y-60842948D01*
X136741584Y-60842951D01*
X136864498Y-60925080D01*
X136864511Y-60925087D01*
X136985206Y-60975080D01*
X137001087Y-60981658D01*
X137001091Y-60981658D01*
X137001092Y-60981659D01*
X137146079Y-61010500D01*
X137146082Y-61010500D01*
X137293920Y-61010500D01*
X137391462Y-60991096D01*
X137438913Y-60981658D01*
X137575495Y-60925084D01*
X137698416Y-60842951D01*
X137802951Y-60738416D01*
X137885084Y-60615495D01*
X137941658Y-60478913D01*
X137960554Y-60383918D01*
X137970500Y-60333920D01*
X137970500Y-60186079D01*
X137941659Y-60041092D01*
X137941658Y-60041091D01*
X137941658Y-60041087D01*
X137904136Y-59950500D01*
X137885087Y-59904511D01*
X137885080Y-59904498D01*
X137802951Y-59781584D01*
X137802948Y-59781580D01*
X137698419Y-59677051D01*
X137698415Y-59677048D01*
X137575501Y-59594919D01*
X137575488Y-59594912D01*
X137438917Y-59538343D01*
X137438907Y-59538340D01*
X137293920Y-59509500D01*
X137293918Y-59509500D01*
X137146082Y-59509500D01*
X137146080Y-59509500D01*
X137001092Y-59538340D01*
X137001082Y-59538343D01*
X136864511Y-59594912D01*
X136864498Y-59594919D01*
X136741584Y-59677048D01*
X136741580Y-59677051D01*
X136637051Y-59781580D01*
X136637048Y-59781584D01*
X136554919Y-59904498D01*
X136554912Y-59904511D01*
X136498343Y-60041082D01*
X136498340Y-60041092D01*
X136469500Y-60186079D01*
X136469500Y-60186082D01*
X136469500Y-60333918D01*
X136469500Y-60333920D01*
X136469499Y-60333920D01*
X114398836Y-60333920D01*
X114325500Y-60284918D01*
X114325488Y-60284912D01*
X114188917Y-60228343D01*
X114188908Y-60228341D01*
X114051570Y-60201021D01*
X113989660Y-60168635D01*
X113955086Y-60107919D01*
X113954145Y-60103592D01*
X113951658Y-60091088D01*
X113951656Y-60091082D01*
X113895087Y-59954511D01*
X113895080Y-59954498D01*
X113812951Y-59831584D01*
X113812948Y-59831580D01*
X113708419Y-59727051D01*
X113708415Y-59727048D01*
X113585501Y-59644919D01*
X113585488Y-59644912D01*
X113448917Y-59588343D01*
X113448907Y-59588340D01*
X113303920Y-59559500D01*
X113303918Y-59559500D01*
X113156082Y-59559500D01*
X113156080Y-59559500D01*
X113011092Y-59588340D01*
X113011082Y-59588343D01*
X112874511Y-59644912D01*
X112874498Y-59644919D01*
X112751584Y-59727048D01*
X112751580Y-59727051D01*
X112647051Y-59831580D01*
X112647048Y-59831584D01*
X112564919Y-59954498D01*
X112564912Y-59954511D01*
X112508343Y-60091082D01*
X112508340Y-60091092D01*
X112479500Y-60236079D01*
X112479500Y-60236082D01*
X112479500Y-60383918D01*
X112479500Y-60383920D01*
X112479499Y-60383920D01*
X42690500Y-60383920D01*
X42690500Y-59273920D01*
X119699499Y-59273920D01*
X119728340Y-59418907D01*
X119728343Y-59418917D01*
X119784912Y-59555488D01*
X119784919Y-59555501D01*
X119867048Y-59678415D01*
X119867051Y-59678419D01*
X119971580Y-59782948D01*
X119971584Y-59782951D01*
X120094498Y-59865080D01*
X120094511Y-59865087D01*
X120189690Y-59904511D01*
X120231087Y-59921658D01*
X120231091Y-59921658D01*
X120231092Y-59921659D01*
X120376079Y-59950500D01*
X120376082Y-59950500D01*
X120523920Y-59950500D01*
X120621462Y-59931096D01*
X120668913Y-59921658D01*
X120805495Y-59865084D01*
X120928416Y-59782951D01*
X121032951Y-59678416D01*
X121115084Y-59555495D01*
X121171658Y-59418913D01*
X121200500Y-59273918D01*
X121200500Y-59126082D01*
X121200500Y-59126079D01*
X121171659Y-58981092D01*
X121171658Y-58981091D01*
X121171658Y-58981087D01*
X121171656Y-58981082D01*
X121115087Y-58844511D01*
X121115080Y-58844498D01*
X121032951Y-58721584D01*
X121032948Y-58721580D01*
X120928419Y-58617051D01*
X120928415Y-58617048D01*
X120805501Y-58534919D01*
X120805488Y-58534912D01*
X120668917Y-58478343D01*
X120668907Y-58478340D01*
X120523920Y-58449500D01*
X120523918Y-58449500D01*
X120376082Y-58449500D01*
X120376080Y-58449500D01*
X120231092Y-58478340D01*
X120231082Y-58478343D01*
X120094511Y-58534912D01*
X120094498Y-58534919D01*
X119971584Y-58617048D01*
X119971580Y-58617051D01*
X119867051Y-58721580D01*
X119867048Y-58721584D01*
X119784919Y-58844498D01*
X119784912Y-58844511D01*
X119728343Y-58981082D01*
X119728340Y-58981092D01*
X119699500Y-59126079D01*
X119699500Y-59126082D01*
X119699500Y-59273918D01*
X119699500Y-59273920D01*
X119699499Y-59273920D01*
X42690500Y-59273920D01*
X42690500Y-58027829D01*
X138423408Y-58027829D01*
X138452249Y-58172816D01*
X138452252Y-58172826D01*
X138508821Y-58309397D01*
X138508828Y-58309410D01*
X138590957Y-58432324D01*
X138590960Y-58432328D01*
X138695489Y-58536857D01*
X138695493Y-58536860D01*
X138818407Y-58618989D01*
X138818420Y-58618996D01*
X138954991Y-58675565D01*
X138954996Y-58675567D01*
X138955000Y-58675567D01*
X138955001Y-58675568D01*
X139099988Y-58704409D01*
X139099991Y-58704409D01*
X139247829Y-58704409D01*
X139345371Y-58685005D01*
X139392822Y-58675567D01*
X139529404Y-58618993D01*
X139652325Y-58536860D01*
X139756860Y-58432325D01*
X139838993Y-58309404D01*
X139895567Y-58172822D01*
X139924409Y-58027827D01*
X139924409Y-57879991D01*
X139924409Y-57879988D01*
X139895568Y-57735001D01*
X139895567Y-57735000D01*
X139895567Y-57734996D01*
X139885662Y-57711082D01*
X139838996Y-57598420D01*
X139838989Y-57598407D01*
X139756860Y-57475493D01*
X139756857Y-57475489D01*
X139652328Y-57370960D01*
X139652324Y-57370957D01*
X139529410Y-57288828D01*
X139529397Y-57288821D01*
X139392826Y-57232252D01*
X139392816Y-57232249D01*
X139247829Y-57203409D01*
X139247827Y-57203409D01*
X139099991Y-57203409D01*
X139099989Y-57203409D01*
X138955001Y-57232249D01*
X138954991Y-57232252D01*
X138818420Y-57288821D01*
X138818407Y-57288828D01*
X138695493Y-57370957D01*
X138695489Y-57370960D01*
X138590960Y-57475489D01*
X138590957Y-57475493D01*
X138508828Y-57598407D01*
X138508821Y-57598420D01*
X138452252Y-57734991D01*
X138452249Y-57735001D01*
X138423409Y-57879988D01*
X138423409Y-57879991D01*
X138423409Y-58027827D01*
X138423409Y-58027829D01*
X138423408Y-58027829D01*
X42690500Y-58027829D01*
X42690500Y-56733920D01*
X81699499Y-56733920D01*
X81728340Y-56878907D01*
X81728343Y-56878917D01*
X81784912Y-57015488D01*
X81784919Y-57015501D01*
X81867048Y-57138415D01*
X81867051Y-57138419D01*
X81971580Y-57242948D01*
X81971584Y-57242951D01*
X82094498Y-57325080D01*
X82094511Y-57325087D01*
X82231082Y-57381656D01*
X82231087Y-57381658D01*
X82231091Y-57381658D01*
X82231092Y-57381659D01*
X82376079Y-57410500D01*
X82376082Y-57410500D01*
X82523920Y-57410500D01*
X82621462Y-57391096D01*
X82668913Y-57381658D01*
X82805495Y-57325084D01*
X82928416Y-57242951D01*
X83032951Y-57138416D01*
X83115084Y-57015495D01*
X83171658Y-56878913D01*
X83200500Y-56733918D01*
X83200500Y-56721304D01*
X93239500Y-56721304D01*
X93239500Y-56898695D01*
X93274103Y-57072658D01*
X93274106Y-57072667D01*
X93341983Y-57236540D01*
X93341990Y-57236553D01*
X93440535Y-57384034D01*
X93440538Y-57384038D01*
X93565961Y-57509461D01*
X93565965Y-57509464D01*
X93713446Y-57608009D01*
X93713459Y-57608016D01*
X93836363Y-57658923D01*
X93877334Y-57675894D01*
X93877336Y-57675894D01*
X93877341Y-57675896D01*
X94051304Y-57710499D01*
X94051307Y-57710500D01*
X94051309Y-57710500D01*
X94228693Y-57710500D01*
X94228694Y-57710499D01*
X94286682Y-57698964D01*
X94402658Y-57675896D01*
X94402661Y-57675894D01*
X94402666Y-57675894D01*
X94566547Y-57608013D01*
X94714035Y-57509464D01*
X94839464Y-57384035D01*
X94938013Y-57236547D01*
X94939793Y-57232251D01*
X94971149Y-57156549D01*
X95005894Y-57072666D01*
X95008084Y-57061659D01*
X95040499Y-56898695D01*
X95040500Y-56898693D01*
X95040500Y-56721306D01*
X95040499Y-56721304D01*
X95005896Y-56547341D01*
X95005893Y-56547332D01*
X94950633Y-56413920D01*
X140509499Y-56413920D01*
X140538340Y-56558907D01*
X140538343Y-56558917D01*
X140594912Y-56695488D01*
X140594919Y-56695501D01*
X140677048Y-56818415D01*
X140677051Y-56818419D01*
X140781580Y-56922948D01*
X140781584Y-56922951D01*
X140904498Y-57005080D01*
X140904511Y-57005087D01*
X141041082Y-57061656D01*
X141041087Y-57061658D01*
X141041091Y-57061658D01*
X141041092Y-57061659D01*
X141138643Y-57081064D01*
X141200554Y-57113449D01*
X141235128Y-57174165D01*
X141231387Y-57243935D01*
X141190521Y-57300606D01*
X141183342Y-57305783D01*
X141121584Y-57347048D01*
X141121580Y-57347051D01*
X141017051Y-57451580D01*
X141017048Y-57451584D01*
X140934919Y-57574498D01*
X140934912Y-57574511D01*
X140878343Y-57711082D01*
X140878340Y-57711092D01*
X140849500Y-57856079D01*
X140849500Y-57856082D01*
X140849500Y-58003918D01*
X140849500Y-58003920D01*
X140849499Y-58003920D01*
X140878340Y-58148907D01*
X140878343Y-58148917D01*
X140934912Y-58285488D01*
X140934919Y-58285501D01*
X141017048Y-58408415D01*
X141017051Y-58408419D01*
X141121580Y-58512948D01*
X141121584Y-58512951D01*
X141244498Y-58595080D01*
X141244511Y-58595087D01*
X141381082Y-58651656D01*
X141381087Y-58651658D01*
X141381091Y-58651658D01*
X141381092Y-58651659D01*
X141526079Y-58680500D01*
X141526082Y-58680500D01*
X141673920Y-58680500D01*
X141771462Y-58661096D01*
X141818913Y-58651658D01*
X141955495Y-58595084D01*
X142078416Y-58512951D01*
X142182951Y-58408416D01*
X142265084Y-58285495D01*
X142321658Y-58148913D01*
X142350500Y-58003918D01*
X142350500Y-57856082D01*
X142350500Y-57856079D01*
X142321659Y-57711092D01*
X142321658Y-57711091D01*
X142321658Y-57711087D01*
X142321415Y-57710500D01*
X142265087Y-57574511D01*
X142265080Y-57574498D01*
X142182951Y-57451584D01*
X142182948Y-57451580D01*
X142078419Y-57347051D01*
X142078415Y-57347048D01*
X141955501Y-57264919D01*
X141955488Y-57264912D01*
X141818917Y-57208343D01*
X141818908Y-57208340D01*
X141721355Y-57188935D01*
X141659445Y-57156549D01*
X141624871Y-57095833D01*
X141628612Y-57026064D01*
X141669479Y-56969392D01*
X141676647Y-56964223D01*
X141738416Y-56922951D01*
X141842951Y-56818416D01*
X141925084Y-56695495D01*
X141981658Y-56558913D01*
X142010500Y-56413918D01*
X142010500Y-56266082D01*
X142010500Y-56266079D01*
X141981659Y-56121092D01*
X141981658Y-56121091D01*
X141981658Y-56121087D01*
X141981656Y-56121082D01*
X141925087Y-55984511D01*
X141925080Y-55984498D01*
X141842951Y-55861584D01*
X141842948Y-55861580D01*
X141738419Y-55757051D01*
X141738415Y-55757048D01*
X141615501Y-55674919D01*
X141615488Y-55674912D01*
X141478917Y-55618343D01*
X141478907Y-55618340D01*
X141333920Y-55589500D01*
X141333918Y-55589500D01*
X141186082Y-55589500D01*
X141186080Y-55589500D01*
X141041092Y-55618340D01*
X141041082Y-55618343D01*
X140904511Y-55674912D01*
X140904498Y-55674919D01*
X140781584Y-55757048D01*
X140781580Y-55757051D01*
X140677051Y-55861580D01*
X140677048Y-55861584D01*
X140594919Y-55984498D01*
X140594912Y-55984511D01*
X140538343Y-56121082D01*
X140538340Y-56121092D01*
X140509500Y-56266079D01*
X140509500Y-56266082D01*
X140509500Y-56413918D01*
X140509500Y-56413920D01*
X140509499Y-56413920D01*
X94950633Y-56413920D01*
X94938016Y-56383459D01*
X94938009Y-56383446D01*
X94839464Y-56235965D01*
X94839461Y-56235961D01*
X94714038Y-56110538D01*
X94714034Y-56110535D01*
X94566553Y-56011990D01*
X94566540Y-56011983D01*
X94402667Y-55944106D01*
X94402658Y-55944103D01*
X94228694Y-55909500D01*
X94228691Y-55909500D01*
X94051309Y-55909500D01*
X94051306Y-55909500D01*
X93877341Y-55944103D01*
X93877332Y-55944106D01*
X93713459Y-56011983D01*
X93713446Y-56011990D01*
X93565965Y-56110535D01*
X93565961Y-56110538D01*
X93440538Y-56235961D01*
X93440535Y-56235965D01*
X93341990Y-56383446D01*
X93341983Y-56383459D01*
X93274106Y-56547332D01*
X93274103Y-56547341D01*
X93239500Y-56721304D01*
X83200500Y-56721304D01*
X83200500Y-56586082D01*
X83200500Y-56586079D01*
X83171659Y-56441092D01*
X83171658Y-56441091D01*
X83171658Y-56441087D01*
X83147788Y-56383459D01*
X83115087Y-56304511D01*
X83115080Y-56304498D01*
X83032951Y-56181584D01*
X83032948Y-56181580D01*
X82928419Y-56077051D01*
X82928415Y-56077048D01*
X82805501Y-55994919D01*
X82805488Y-55994912D01*
X82668917Y-55938343D01*
X82668907Y-55938340D01*
X82523920Y-55909500D01*
X82523918Y-55909500D01*
X82376082Y-55909500D01*
X82376080Y-55909500D01*
X82231092Y-55938340D01*
X82231082Y-55938343D01*
X82094511Y-55994912D01*
X82094498Y-55994919D01*
X81971584Y-56077048D01*
X81971580Y-56077051D01*
X81867051Y-56181580D01*
X81867048Y-56181584D01*
X81784919Y-56304498D01*
X81784912Y-56304511D01*
X81728343Y-56441082D01*
X81728340Y-56441092D01*
X81699500Y-56586079D01*
X81699500Y-56586082D01*
X81699500Y-56733918D01*
X81699500Y-56733920D01*
X81699499Y-56733920D01*
X42690500Y-56733920D01*
X42690500Y-55633920D01*
X137379499Y-55633920D01*
X137408340Y-55778907D01*
X137408343Y-55778917D01*
X137464912Y-55915488D01*
X137464919Y-55915501D01*
X137547048Y-56038415D01*
X137547051Y-56038419D01*
X137651580Y-56142948D01*
X137651584Y-56142951D01*
X137774498Y-56225080D01*
X137774511Y-56225087D01*
X137873483Y-56266082D01*
X137911087Y-56281658D01*
X137911091Y-56281658D01*
X137911092Y-56281659D01*
X138056079Y-56310500D01*
X138056082Y-56310500D01*
X138203920Y-56310500D01*
X138301462Y-56291096D01*
X138348913Y-56281658D01*
X138485495Y-56225084D01*
X138485501Y-56225080D01*
X138587558Y-56156888D01*
X138587559Y-56156887D01*
X138608416Y-56142951D01*
X138712951Y-56038416D01*
X138795084Y-55915495D01*
X138851658Y-55778913D01*
X138880500Y-55633918D01*
X138880500Y-55486082D01*
X138880500Y-55486079D01*
X138851659Y-55341092D01*
X138851658Y-55341091D01*
X138851658Y-55341087D01*
X138851656Y-55341082D01*
X138795087Y-55204511D01*
X138795080Y-55204498D01*
X138712951Y-55081584D01*
X138712948Y-55081580D01*
X138608419Y-54977051D01*
X138608415Y-54977048D01*
X138485501Y-54894919D01*
X138485488Y-54894912D01*
X138348917Y-54838343D01*
X138348907Y-54838340D01*
X138203920Y-54809500D01*
X138203918Y-54809500D01*
X138056082Y-54809500D01*
X138056080Y-54809500D01*
X137911092Y-54838340D01*
X137911082Y-54838343D01*
X137774511Y-54894912D01*
X137774498Y-54894919D01*
X137651584Y-54977048D01*
X137651580Y-54977051D01*
X137547051Y-55081580D01*
X137547048Y-55081584D01*
X137464919Y-55204498D01*
X137464912Y-55204511D01*
X137408343Y-55341082D01*
X137408340Y-55341092D01*
X137379500Y-55486079D01*
X137379500Y-55486082D01*
X137379500Y-55633918D01*
X137379500Y-55633920D01*
X137379499Y-55633920D01*
X42690500Y-55633920D01*
X42690500Y-52933920D01*
X86549499Y-52933920D01*
X86578340Y-53078907D01*
X86578343Y-53078917D01*
X86634912Y-53215488D01*
X86634919Y-53215501D01*
X86717048Y-53338415D01*
X86717051Y-53338419D01*
X86821580Y-53442948D01*
X86821584Y-53442951D01*
X86944498Y-53525080D01*
X86944511Y-53525087D01*
X87042049Y-53565488D01*
X87081087Y-53581658D01*
X87081091Y-53581658D01*
X87081092Y-53581659D01*
X87226079Y-53610500D01*
X87226082Y-53610500D01*
X87373920Y-53610500D01*
X87471462Y-53591096D01*
X87518913Y-53581658D01*
X87655495Y-53525084D01*
X87778416Y-53442951D01*
X87882951Y-53338416D01*
X87965084Y-53215495D01*
X88021658Y-53078913D01*
X88032846Y-53022667D01*
X88050500Y-52933920D01*
X88050500Y-52786079D01*
X88031270Y-52689409D01*
X88031270Y-52689408D01*
X88027669Y-52671304D01*
X88659500Y-52671304D01*
X88659500Y-52848695D01*
X88694103Y-53022658D01*
X88694106Y-53022667D01*
X88761983Y-53186540D01*
X88761990Y-53186553D01*
X88860535Y-53334034D01*
X88860538Y-53334038D01*
X88985961Y-53459461D01*
X88985965Y-53459464D01*
X89133446Y-53558009D01*
X89133459Y-53558016D01*
X89256363Y-53608923D01*
X89297334Y-53625894D01*
X89297336Y-53625894D01*
X89297341Y-53625896D01*
X89471304Y-53660499D01*
X89471307Y-53660500D01*
X89471309Y-53660500D01*
X89648693Y-53660500D01*
X89648694Y-53660499D01*
X89706682Y-53648964D01*
X89822658Y-53625896D01*
X89822661Y-53625894D01*
X89822666Y-53625894D01*
X89986547Y-53558013D01*
X90134035Y-53459464D01*
X90259464Y-53334035D01*
X90292950Y-53283920D01*
X153179499Y-53283920D01*
X153208340Y-53428907D01*
X153208343Y-53428917D01*
X153264912Y-53565488D01*
X153264919Y-53565501D01*
X153347048Y-53688415D01*
X153347051Y-53688419D01*
X153451580Y-53792948D01*
X153451584Y-53792951D01*
X153574498Y-53875080D01*
X153574511Y-53875087D01*
X153711082Y-53931656D01*
X153711087Y-53931658D01*
X153711091Y-53931658D01*
X153711092Y-53931659D01*
X153856079Y-53960500D01*
X153856082Y-53960500D01*
X154003920Y-53960500D01*
X154101462Y-53941096D01*
X154148913Y-53931658D01*
X154285495Y-53875084D01*
X154408416Y-53792951D01*
X154512951Y-53688416D01*
X154595084Y-53565495D01*
X154651658Y-53428913D01*
X154669659Y-53338419D01*
X154680500Y-53283920D01*
X154680500Y-53136079D01*
X154651659Y-52991092D01*
X154651658Y-52991091D01*
X154651658Y-52991087D01*
X154627978Y-52933918D01*
X154595087Y-52854511D01*
X154595080Y-52854498D01*
X154512951Y-52731584D01*
X154512948Y-52731580D01*
X154408419Y-52627051D01*
X154408415Y-52627048D01*
X154285501Y-52544919D01*
X154285488Y-52544912D01*
X154148917Y-52488343D01*
X154148907Y-52488340D01*
X154003920Y-52459500D01*
X154003918Y-52459500D01*
X153856082Y-52459500D01*
X153856080Y-52459500D01*
X153711092Y-52488340D01*
X153711082Y-52488343D01*
X153574511Y-52544912D01*
X153574498Y-52544919D01*
X153451584Y-52627048D01*
X153451580Y-52627051D01*
X153347051Y-52731580D01*
X153347048Y-52731584D01*
X153264919Y-52854498D01*
X153264912Y-52854511D01*
X153208343Y-52991082D01*
X153208340Y-52991092D01*
X153179500Y-53136079D01*
X153179500Y-53136082D01*
X153179500Y-53283918D01*
X153179500Y-53283920D01*
X153179499Y-53283920D01*
X90292950Y-53283920D01*
X90358013Y-53186547D01*
X90425894Y-53022666D01*
X90432175Y-52991092D01*
X90459342Y-52854511D01*
X90460500Y-52848691D01*
X90460500Y-52671309D01*
X90460500Y-52671306D01*
X90460499Y-52671304D01*
X90425896Y-52497341D01*
X90425893Y-52497332D01*
X90422168Y-52488340D01*
X90400277Y-52435488D01*
X90358016Y-52333459D01*
X90358009Y-52333446D01*
X90259464Y-52185965D01*
X90259461Y-52185961D01*
X90227420Y-52153920D01*
X147779499Y-52153920D01*
X147808340Y-52298907D01*
X147808343Y-52298917D01*
X147864912Y-52435488D01*
X147864919Y-52435501D01*
X147947048Y-52558415D01*
X147947051Y-52558419D01*
X148051580Y-52662948D01*
X148051584Y-52662951D01*
X148174498Y-52745080D01*
X148174511Y-52745087D01*
X148273483Y-52786082D01*
X148311087Y-52801658D01*
X148311091Y-52801658D01*
X148311092Y-52801659D01*
X148456079Y-52830500D01*
X148456082Y-52830500D01*
X148603920Y-52830500D01*
X148701462Y-52811096D01*
X148748913Y-52801658D01*
X148885495Y-52745084D01*
X149008416Y-52662951D01*
X149112951Y-52558416D01*
X149195084Y-52435495D01*
X149251658Y-52298913D01*
X149272346Y-52194912D01*
X149280500Y-52153920D01*
X149280500Y-52006079D01*
X149251659Y-51861092D01*
X149251658Y-51861091D01*
X149251658Y-51861087D01*
X149251001Y-51859500D01*
X149195087Y-51724511D01*
X149195080Y-51724498D01*
X149112951Y-51601584D01*
X149112948Y-51601580D01*
X149008419Y-51497051D01*
X149008415Y-51497048D01*
X148885501Y-51414919D01*
X148885488Y-51414912D01*
X148748917Y-51358343D01*
X148748907Y-51358340D01*
X148603920Y-51329500D01*
X148603918Y-51329500D01*
X148456082Y-51329500D01*
X148456080Y-51329500D01*
X148311092Y-51358340D01*
X148311082Y-51358343D01*
X148174511Y-51414912D01*
X148174498Y-51414919D01*
X148051584Y-51497048D01*
X148051580Y-51497051D01*
X147947051Y-51601580D01*
X147947048Y-51601584D01*
X147864919Y-51724498D01*
X147864912Y-51724511D01*
X147808343Y-51861082D01*
X147808340Y-51861092D01*
X147779500Y-52006079D01*
X147779500Y-52006082D01*
X147779500Y-52153918D01*
X147779500Y-52153920D01*
X147779499Y-52153920D01*
X90227420Y-52153920D01*
X90134038Y-52060538D01*
X90134034Y-52060535D01*
X89986553Y-51961990D01*
X89986540Y-51961983D01*
X89822667Y-51894106D01*
X89822658Y-51894103D01*
X89648694Y-51859500D01*
X89648691Y-51859500D01*
X89471309Y-51859500D01*
X89471306Y-51859500D01*
X89297341Y-51894103D01*
X89297332Y-51894106D01*
X89133459Y-51961983D01*
X89133446Y-51961990D01*
X88985965Y-52060535D01*
X88985961Y-52060538D01*
X88860538Y-52185961D01*
X88860535Y-52185965D01*
X88761990Y-52333446D01*
X88761983Y-52333459D01*
X88694106Y-52497332D01*
X88694103Y-52497341D01*
X88659500Y-52671304D01*
X88027669Y-52671304D01*
X88026007Y-52662951D01*
X88021658Y-52641087D01*
X87987415Y-52558416D01*
X87965087Y-52504511D01*
X87965080Y-52504498D01*
X87882951Y-52381584D01*
X87882948Y-52381580D01*
X87778419Y-52277051D01*
X87778415Y-52277048D01*
X87655501Y-52194919D01*
X87655488Y-52194912D01*
X87518917Y-52138343D01*
X87518907Y-52138340D01*
X87373920Y-52109500D01*
X87373918Y-52109500D01*
X87226082Y-52109500D01*
X87226080Y-52109500D01*
X87081092Y-52138340D01*
X87081082Y-52138343D01*
X86944511Y-52194912D01*
X86944498Y-52194919D01*
X86821584Y-52277048D01*
X86821580Y-52277051D01*
X86717051Y-52381580D01*
X86717048Y-52381584D01*
X86634919Y-52504498D01*
X86634912Y-52504511D01*
X86578343Y-52641082D01*
X86578340Y-52641092D01*
X86549500Y-52786079D01*
X86549500Y-52786082D01*
X86549500Y-52933918D01*
X86549500Y-52933920D01*
X86549499Y-52933920D01*
X42690500Y-52933920D01*
X42690500Y-50593920D01*
X79099499Y-50593920D01*
X79128340Y-50738907D01*
X79128343Y-50738917D01*
X79184912Y-50875488D01*
X79184919Y-50875501D01*
X79267048Y-50998415D01*
X79267051Y-50998419D01*
X79371580Y-51102948D01*
X79371584Y-51102951D01*
X79494498Y-51185080D01*
X79494511Y-51185087D01*
X79576185Y-51218917D01*
X79631087Y-51241658D01*
X79631091Y-51241658D01*
X79631092Y-51241659D01*
X79776079Y-51270500D01*
X79776082Y-51270500D01*
X79923920Y-51270500D01*
X80021462Y-51251096D01*
X80068913Y-51241658D01*
X80205495Y-51185084D01*
X80328416Y-51102951D01*
X80357447Y-51073920D01*
X158209499Y-51073920D01*
X158238340Y-51218907D01*
X158238343Y-51218917D01*
X158294912Y-51355488D01*
X158294919Y-51355501D01*
X158377048Y-51478415D01*
X158377051Y-51478419D01*
X158481580Y-51582948D01*
X158481584Y-51582951D01*
X158604498Y-51665080D01*
X158604511Y-51665087D01*
X158741082Y-51721656D01*
X158741087Y-51721658D01*
X158741091Y-51721658D01*
X158741092Y-51721659D01*
X158886079Y-51750500D01*
X158886082Y-51750500D01*
X159033920Y-51750500D01*
X159164570Y-51724511D01*
X159178913Y-51721658D01*
X159315495Y-51665084D01*
X159438416Y-51582951D01*
X159542951Y-51478416D01*
X159625084Y-51355495D01*
X159681658Y-51218913D01*
X159704725Y-51102951D01*
X159710500Y-51073920D01*
X159710500Y-50926079D01*
X159681660Y-50781097D01*
X159681659Y-50781096D01*
X159681658Y-50781087D01*
X159681654Y-50781077D01*
X159681328Y-50780002D01*
X159681322Y-50779399D01*
X159680470Y-50775113D01*
X159681282Y-50774951D01*
X159680699Y-50710135D01*
X159717942Y-50651019D01*
X159781234Y-50621423D01*
X159847437Y-50629435D01*
X159901087Y-50651658D01*
X159901091Y-50651658D01*
X159901092Y-50651659D01*
X160046079Y-50680500D01*
X160046082Y-50680500D01*
X160193920Y-50680500D01*
X160291462Y-50661096D01*
X160338913Y-50651658D01*
X160475495Y-50595084D01*
X160598416Y-50512951D01*
X160702951Y-50408416D01*
X160785084Y-50285495D01*
X160788047Y-50278343D01*
X160835197Y-50164511D01*
X160841658Y-50148913D01*
X160863008Y-50041584D01*
X160870500Y-50003920D01*
X160870500Y-49856079D01*
X160841659Y-49711092D01*
X160841658Y-49711091D01*
X160841658Y-49711087D01*
X160839339Y-49705488D01*
X160785087Y-49574511D01*
X160785080Y-49574498D01*
X160702951Y-49451584D01*
X160702948Y-49451580D01*
X160598419Y-49347051D01*
X160598415Y-49347048D01*
X160475501Y-49264919D01*
X160475488Y-49264912D01*
X160338917Y-49208343D01*
X160338907Y-49208340D01*
X160193920Y-49179500D01*
X160193918Y-49179500D01*
X160046082Y-49179500D01*
X160046080Y-49179500D01*
X159901092Y-49208340D01*
X159901082Y-49208343D01*
X159764511Y-49264912D01*
X159764498Y-49264919D01*
X159641584Y-49347048D01*
X159641580Y-49347051D01*
X159537051Y-49451580D01*
X159537048Y-49451584D01*
X159454919Y-49574498D01*
X159454912Y-49574511D01*
X159398343Y-49711082D01*
X159398340Y-49711092D01*
X159369500Y-49856079D01*
X159369500Y-49856082D01*
X159369500Y-50003918D01*
X159369500Y-50003920D01*
X159369499Y-50003920D01*
X159398341Y-50148911D01*
X159398674Y-50150008D01*
X159398679Y-50150610D01*
X159399530Y-50154887D01*
X159398718Y-50155048D01*
X159399297Y-50219875D01*
X159362048Y-50278987D01*
X159298754Y-50308578D01*
X159232561Y-50300563D01*
X159178917Y-50278343D01*
X159178907Y-50278340D01*
X159033920Y-50249500D01*
X159033918Y-50249500D01*
X158886082Y-50249500D01*
X158886080Y-50249500D01*
X158741092Y-50278340D01*
X158741082Y-50278343D01*
X158604511Y-50334912D01*
X158604498Y-50334919D01*
X158481584Y-50417048D01*
X158481580Y-50417051D01*
X158377051Y-50521580D01*
X158377048Y-50521584D01*
X158294919Y-50644498D01*
X158294912Y-50644511D01*
X158238343Y-50781082D01*
X158238340Y-50781092D01*
X158209500Y-50926079D01*
X158209500Y-50926082D01*
X158209500Y-51073918D01*
X158209500Y-51073920D01*
X158209499Y-51073920D01*
X80357447Y-51073920D01*
X80432951Y-50998416D01*
X80515084Y-50875495D01*
X80571658Y-50738913D01*
X80590436Y-50644511D01*
X80600500Y-50593920D01*
X80600500Y-50446079D01*
X80571659Y-50301092D01*
X80571658Y-50301091D01*
X80571658Y-50301087D01*
X80538019Y-50219875D01*
X80515087Y-50164511D01*
X80515080Y-50164498D01*
X80432951Y-50041584D01*
X80432948Y-50041580D01*
X80328419Y-49937051D01*
X80328415Y-49937048D01*
X80205501Y-49854919D01*
X80205488Y-49854912D01*
X80068917Y-49798343D01*
X80068907Y-49798340D01*
X79923920Y-49769500D01*
X79923918Y-49769500D01*
X79776082Y-49769500D01*
X79776080Y-49769500D01*
X79631092Y-49798340D01*
X79631082Y-49798343D01*
X79494511Y-49854912D01*
X79494498Y-49854919D01*
X79371584Y-49937048D01*
X79371580Y-49937051D01*
X79267051Y-50041580D01*
X79267048Y-50041584D01*
X79184919Y-50164498D01*
X79184912Y-50164511D01*
X79128343Y-50301082D01*
X79128340Y-50301092D01*
X79099500Y-50446079D01*
X79099500Y-50446082D01*
X79099500Y-50593918D01*
X79099500Y-50593920D01*
X79099499Y-50593920D01*
X42690500Y-50593920D01*
X42690500Y-48073713D01*
X75109500Y-48073713D01*
X75109500Y-48286287D01*
X75142754Y-48496243D01*
X75176304Y-48599500D01*
X75208444Y-48698414D01*
X75304951Y-48887820D01*
X75429890Y-49059786D01*
X75580213Y-49210109D01*
X75752179Y-49335048D01*
X75752181Y-49335049D01*
X75752184Y-49335051D01*
X75941588Y-49431557D01*
X76143757Y-49497246D01*
X76353713Y-49530500D01*
X76353714Y-49530500D01*
X76566286Y-49530500D01*
X76566287Y-49530500D01*
X76776243Y-49497246D01*
X76978412Y-49431557D01*
X76993400Y-49423920D01*
X109219499Y-49423920D01*
X109248340Y-49568907D01*
X109248343Y-49568917D01*
X109304912Y-49705488D01*
X109304919Y-49705501D01*
X109387048Y-49828415D01*
X109387051Y-49828419D01*
X109491580Y-49932948D01*
X109491584Y-49932951D01*
X109614498Y-50015080D01*
X109614511Y-50015087D01*
X109751082Y-50071656D01*
X109751087Y-50071658D01*
X109751091Y-50071658D01*
X109751092Y-50071659D01*
X109896079Y-50100500D01*
X109896082Y-50100500D01*
X110043920Y-50100500D01*
X110141462Y-50081096D01*
X110188913Y-50071658D01*
X110325495Y-50015084D01*
X110448416Y-49932951D01*
X110552951Y-49828416D01*
X110635084Y-49705495D01*
X110691658Y-49568913D01*
X110714998Y-49451580D01*
X110720500Y-49423920D01*
X110720500Y-49276079D01*
X110691659Y-49131092D01*
X110691658Y-49131091D01*
X110691658Y-49131087D01*
X110662126Y-49059790D01*
X110635087Y-48994511D01*
X110635080Y-48994498D01*
X110561194Y-48883920D01*
X157029499Y-48883920D01*
X157058340Y-49028907D01*
X157058343Y-49028917D01*
X157114912Y-49165488D01*
X157114919Y-49165501D01*
X157197048Y-49288415D01*
X157197051Y-49288419D01*
X157301580Y-49392948D01*
X157301584Y-49392951D01*
X157424498Y-49475080D01*
X157424511Y-49475087D01*
X157558291Y-49530500D01*
X157561087Y-49531658D01*
X157561091Y-49531658D01*
X157561092Y-49531659D01*
X157706079Y-49560500D01*
X157706082Y-49560500D01*
X157853920Y-49560500D01*
X157951462Y-49541096D01*
X157998913Y-49531658D01*
X158135495Y-49475084D01*
X158258416Y-49392951D01*
X158362951Y-49288416D01*
X158445084Y-49165495D01*
X158501658Y-49028913D01*
X158530500Y-48883918D01*
X158530500Y-48736082D01*
X158530500Y-48736079D01*
X158501659Y-48591092D01*
X158501658Y-48591091D01*
X158501658Y-48591087D01*
X158490452Y-48564034D01*
X158445087Y-48454511D01*
X158445080Y-48454498D01*
X158362951Y-48331584D01*
X158362948Y-48331580D01*
X158258419Y-48227051D01*
X158258415Y-48227048D01*
X158135501Y-48144919D01*
X158135488Y-48144912D01*
X157998917Y-48088343D01*
X157998907Y-48088340D01*
X157853920Y-48059500D01*
X157853918Y-48059500D01*
X157706082Y-48059500D01*
X157706080Y-48059500D01*
X157561092Y-48088340D01*
X157561082Y-48088343D01*
X157424511Y-48144912D01*
X157424498Y-48144919D01*
X157301584Y-48227048D01*
X157301580Y-48227051D01*
X157197051Y-48331580D01*
X157197048Y-48331584D01*
X157114919Y-48454498D01*
X157114912Y-48454511D01*
X157058343Y-48591082D01*
X157058340Y-48591092D01*
X157029500Y-48736079D01*
X157029500Y-48736082D01*
X157029500Y-48883918D01*
X157029500Y-48883920D01*
X157029499Y-48883920D01*
X110561194Y-48883920D01*
X110552951Y-48871584D01*
X110552948Y-48871580D01*
X110448419Y-48767051D01*
X110448415Y-48767048D01*
X110325501Y-48684919D01*
X110325488Y-48684912D01*
X110188917Y-48628343D01*
X110188907Y-48628340D01*
X110043920Y-48599500D01*
X110043918Y-48599500D01*
X109896082Y-48599500D01*
X109896080Y-48599500D01*
X109751092Y-48628340D01*
X109751082Y-48628343D01*
X109614511Y-48684912D01*
X109614498Y-48684919D01*
X109491584Y-48767048D01*
X109491580Y-48767051D01*
X109387051Y-48871580D01*
X109387048Y-48871584D01*
X109304919Y-48994498D01*
X109304912Y-48994511D01*
X109248343Y-49131082D01*
X109248340Y-49131092D01*
X109219500Y-49276079D01*
X109219500Y-49276082D01*
X109219500Y-49423918D01*
X109219500Y-49423920D01*
X109219499Y-49423920D01*
X76993400Y-49423920D01*
X77167816Y-49335051D01*
X77232004Y-49288416D01*
X77339786Y-49210109D01*
X77339788Y-49210106D01*
X77339792Y-49210104D01*
X77490104Y-49059792D01*
X77490106Y-49059788D01*
X77490109Y-49059786D01*
X77615048Y-48887820D01*
X77615047Y-48887820D01*
X77615051Y-48887816D01*
X77711557Y-48698412D01*
X77777246Y-48496243D01*
X77810500Y-48286287D01*
X77810500Y-48073713D01*
X77783193Y-47901304D01*
X98269500Y-47901304D01*
X98269500Y-48078695D01*
X98304103Y-48252658D01*
X98304106Y-48252667D01*
X98371983Y-48416540D01*
X98371990Y-48416553D01*
X98470535Y-48564034D01*
X98470538Y-48564038D01*
X98595961Y-48689461D01*
X98595965Y-48689464D01*
X98743446Y-48788009D01*
X98743459Y-48788016D01*
X98866363Y-48838923D01*
X98907334Y-48855894D01*
X98907336Y-48855894D01*
X98907341Y-48855896D01*
X99081304Y-48890499D01*
X99081307Y-48890500D01*
X99081309Y-48890500D01*
X99258693Y-48890500D01*
X99258694Y-48890499D01*
X99353808Y-48871580D01*
X99432658Y-48855896D01*
X99432661Y-48855894D01*
X99432666Y-48855894D01*
X99596547Y-48788013D01*
X99744035Y-48689464D01*
X99869464Y-48564035D01*
X99968013Y-48416547D01*
X100035894Y-48252666D01*
X100043795Y-48212948D01*
X100070499Y-48078695D01*
X100070500Y-48078693D01*
X100070500Y-47901306D01*
X100070499Y-47901304D01*
X100035896Y-47727341D01*
X100035893Y-47727332D01*
X100026196Y-47703920D01*
X143879499Y-47703920D01*
X143908340Y-47848907D01*
X143908343Y-47848917D01*
X143964912Y-47985488D01*
X143964919Y-47985501D01*
X144047048Y-48108415D01*
X144047051Y-48108419D01*
X144151580Y-48212948D01*
X144151584Y-48212951D01*
X144274498Y-48295080D01*
X144274511Y-48295087D01*
X144411082Y-48351656D01*
X144411087Y-48351658D01*
X144411091Y-48351658D01*
X144411092Y-48351659D01*
X144556079Y-48380500D01*
X144556082Y-48380500D01*
X144703920Y-48380500D01*
X144801462Y-48361096D01*
X144848913Y-48351658D01*
X144985495Y-48295084D01*
X145108416Y-48212951D01*
X145212951Y-48108416D01*
X145295084Y-47985495D01*
X145351658Y-47848913D01*
X145380500Y-47703918D01*
X145380500Y-47556082D01*
X145380500Y-47556079D01*
X145351659Y-47411092D01*
X145351658Y-47411091D01*
X145351658Y-47411087D01*
X145305731Y-47300208D01*
X145295087Y-47274511D01*
X145295080Y-47274498D01*
X145212951Y-47151584D01*
X145212948Y-47151580D01*
X145108419Y-47047051D01*
X145108415Y-47047048D01*
X144985501Y-46964919D01*
X144985488Y-46964912D01*
X144848917Y-46908343D01*
X144848907Y-46908340D01*
X144703920Y-46879500D01*
X144703918Y-46879500D01*
X144556082Y-46879500D01*
X144556080Y-46879500D01*
X144411092Y-46908340D01*
X144411082Y-46908343D01*
X144274511Y-46964912D01*
X144274498Y-46964919D01*
X144151584Y-47047048D01*
X144151580Y-47047051D01*
X144047051Y-47151580D01*
X144047048Y-47151584D01*
X143964919Y-47274498D01*
X143964912Y-47274511D01*
X143908343Y-47411082D01*
X143908340Y-47411092D01*
X143879500Y-47556079D01*
X143879500Y-47556082D01*
X143879500Y-47703918D01*
X143879500Y-47703920D01*
X143879499Y-47703920D01*
X100026196Y-47703920D01*
X99982092Y-47597442D01*
X99968016Y-47563459D01*
X99968009Y-47563446D01*
X99869464Y-47415965D01*
X99869461Y-47415961D01*
X99744038Y-47290538D01*
X99744034Y-47290535D01*
X99596553Y-47191990D01*
X99596540Y-47191983D01*
X99432667Y-47124106D01*
X99432658Y-47124103D01*
X99258694Y-47089500D01*
X99258691Y-47089500D01*
X99081309Y-47089500D01*
X99081306Y-47089500D01*
X98907341Y-47124103D01*
X98907332Y-47124106D01*
X98743459Y-47191983D01*
X98743446Y-47191990D01*
X98595965Y-47290535D01*
X98595961Y-47290538D01*
X98470538Y-47415961D01*
X98470535Y-47415965D01*
X98371990Y-47563446D01*
X98371983Y-47563459D01*
X98304106Y-47727332D01*
X98304103Y-47727341D01*
X98269500Y-47901304D01*
X77783193Y-47901304D01*
X77777246Y-47863757D01*
X77711557Y-47661588D01*
X77615051Y-47472184D01*
X77615049Y-47472181D01*
X77615048Y-47472179D01*
X77490109Y-47300213D01*
X77339786Y-47149890D01*
X77167820Y-47024951D01*
X76978414Y-46928444D01*
X76978413Y-46928443D01*
X76978412Y-46928443D01*
X76776243Y-46862754D01*
X76776241Y-46862753D01*
X76776240Y-46862753D01*
X76614957Y-46837208D01*
X76566287Y-46829500D01*
X76353713Y-46829500D01*
X76305042Y-46837208D01*
X76143760Y-46862753D01*
X75941585Y-46928444D01*
X75752179Y-47024951D01*
X75580213Y-47149890D01*
X75429890Y-47300213D01*
X75304951Y-47472179D01*
X75208444Y-47661585D01*
X75142753Y-47863760D01*
X75111751Y-48059500D01*
X75109500Y-48073713D01*
X42690500Y-48073713D01*
X42690500Y-45363920D01*
X80489499Y-45363920D01*
X80518340Y-45508907D01*
X80518343Y-45508917D01*
X80574912Y-45645488D01*
X80574919Y-45645501D01*
X80657048Y-45768415D01*
X80657051Y-45768419D01*
X80761580Y-45872948D01*
X80761584Y-45872951D01*
X80884498Y-45955080D01*
X80884511Y-45955087D01*
X81021082Y-46011656D01*
X81021087Y-46011658D01*
X81021091Y-46011658D01*
X81021092Y-46011659D01*
X81166079Y-46040500D01*
X81166082Y-46040500D01*
X81313920Y-46040500D01*
X81411462Y-46021096D01*
X81458913Y-46011658D01*
X81595495Y-45955084D01*
X81718416Y-45872951D01*
X81822951Y-45768416D01*
X81905084Y-45645495D01*
X81961658Y-45508913D01*
X81976262Y-45435495D01*
X81990500Y-45363920D01*
X81990500Y-45308995D01*
X110029499Y-45308995D01*
X110056418Y-45444322D01*
X110056421Y-45444332D01*
X110109221Y-45571804D01*
X110109228Y-45571817D01*
X110185885Y-45686541D01*
X110185888Y-45686545D01*
X110283454Y-45784111D01*
X110283458Y-45784114D01*
X110398182Y-45860771D01*
X110398195Y-45860778D01*
X110525667Y-45913578D01*
X110525672Y-45913580D01*
X110525676Y-45913580D01*
X110525677Y-45913581D01*
X110661004Y-45940500D01*
X110661007Y-45940500D01*
X110798995Y-45940500D01*
X110890041Y-45922389D01*
X110934328Y-45913580D01*
X111054996Y-45863598D01*
X111061804Y-45860778D01*
X111061804Y-45860777D01*
X111061811Y-45860775D01*
X111176542Y-45784114D01*
X111274114Y-45686542D01*
X111350775Y-45571811D01*
X111403580Y-45444328D01*
X111430500Y-45308995D01*
X113029499Y-45308995D01*
X113056418Y-45444322D01*
X113056421Y-45444332D01*
X113109221Y-45571804D01*
X113109228Y-45571817D01*
X113185885Y-45686541D01*
X113185888Y-45686545D01*
X113283454Y-45784111D01*
X113283458Y-45784114D01*
X113398182Y-45860771D01*
X113398195Y-45860778D01*
X113525667Y-45913578D01*
X113525672Y-45913580D01*
X113525676Y-45913580D01*
X113525677Y-45913581D01*
X113661004Y-45940500D01*
X113661007Y-45940500D01*
X113798995Y-45940500D01*
X113890041Y-45922389D01*
X113934328Y-45913580D01*
X114054996Y-45863598D01*
X114061804Y-45860778D01*
X114061804Y-45860777D01*
X114061811Y-45860775D01*
X114176542Y-45784114D01*
X114274114Y-45686542D01*
X114350775Y-45571811D01*
X114403580Y-45444328D01*
X114430500Y-45308993D01*
X114430500Y-45171007D01*
X114430500Y-45171004D01*
X114403581Y-45035677D01*
X114403580Y-45035676D01*
X114403580Y-45035672D01*
X114403578Y-45035667D01*
X114350778Y-44908195D01*
X114350771Y-44908182D01*
X114274114Y-44793457D01*
X114176545Y-44695888D01*
X114176541Y-44695885D01*
X114061817Y-44619228D01*
X114061804Y-44619221D01*
X113934332Y-44566421D01*
X113934322Y-44566418D01*
X113798995Y-44539500D01*
X113798993Y-44539500D01*
X113661007Y-44539500D01*
X113661005Y-44539500D01*
X113525677Y-44566418D01*
X113525667Y-44566421D01*
X113398195Y-44619221D01*
X113398182Y-44619228D01*
X113283458Y-44695885D01*
X113283454Y-44695888D01*
X113185888Y-44793454D01*
X113185885Y-44793458D01*
X113109228Y-44908182D01*
X113109221Y-44908195D01*
X113056421Y-45035667D01*
X113056418Y-45035677D01*
X113029500Y-45171004D01*
X113029500Y-45171007D01*
X113029500Y-45308993D01*
X113029500Y-45308995D01*
X113029499Y-45308995D01*
X111430500Y-45308995D01*
X111430500Y-45308993D01*
X111430500Y-45171007D01*
X111430500Y-45171004D01*
X111403581Y-45035677D01*
X111403580Y-45035676D01*
X111403580Y-45035672D01*
X111403578Y-45035667D01*
X111350778Y-44908195D01*
X111350771Y-44908182D01*
X111274114Y-44793458D01*
X111274111Y-44793454D01*
X111176545Y-44695888D01*
X111176541Y-44695885D01*
X111061817Y-44619228D01*
X111061804Y-44619221D01*
X110934332Y-44566421D01*
X110934322Y-44566418D01*
X110798995Y-44539500D01*
X110798993Y-44539500D01*
X110661007Y-44539500D01*
X110661005Y-44539500D01*
X110525677Y-44566418D01*
X110525667Y-44566421D01*
X110398195Y-44619221D01*
X110398182Y-44619228D01*
X110283458Y-44695885D01*
X110283454Y-44695888D01*
X110185888Y-44793454D01*
X110185885Y-44793458D01*
X110109228Y-44908182D01*
X110109221Y-44908195D01*
X110056421Y-45035667D01*
X110056418Y-45035677D01*
X110029500Y-45171004D01*
X110029500Y-45171007D01*
X110029500Y-45308993D01*
X110029500Y-45308995D01*
X110029499Y-45308995D01*
X81990500Y-45308995D01*
X81990500Y-45216079D01*
X81990499Y-45216077D01*
X81985135Y-45189106D01*
X81961659Y-45071092D01*
X81961658Y-45071091D01*
X81961658Y-45071087D01*
X81961656Y-45071082D01*
X81905087Y-44934511D01*
X81905080Y-44934498D01*
X81822951Y-44811584D01*
X81822948Y-44811580D01*
X81718419Y-44707051D01*
X81718415Y-44707048D01*
X81595501Y-44624919D01*
X81595488Y-44624912D01*
X81458917Y-44568343D01*
X81458907Y-44568340D01*
X81313920Y-44539500D01*
X81313918Y-44539500D01*
X81166082Y-44539500D01*
X81166080Y-44539500D01*
X81021092Y-44568340D01*
X81021082Y-44568343D01*
X80884511Y-44624912D01*
X80884498Y-44624919D01*
X80761584Y-44707048D01*
X80761580Y-44707051D01*
X80657051Y-44811580D01*
X80657048Y-44811584D01*
X80574919Y-44934498D01*
X80574912Y-44934511D01*
X80518343Y-45071082D01*
X80518340Y-45071092D01*
X80489500Y-45216079D01*
X80489500Y-45216082D01*
X80489500Y-45363918D01*
X80489500Y-45363920D01*
X80489499Y-45363920D01*
X42690500Y-45363920D01*
X42690500Y-43622155D01*
X118630000Y-43622155D01*
X118630000Y-44270000D01*
X119546988Y-44270000D01*
X119514075Y-44327007D01*
X119480000Y-44454174D01*
X119480000Y-44585826D01*
X119514075Y-44712993D01*
X119546988Y-44770000D01*
X118630000Y-44770000D01*
X118630000Y-45417844D01*
X118636401Y-45477372D01*
X118636403Y-45477379D01*
X118686645Y-45612086D01*
X118686649Y-45612093D01*
X118772809Y-45727187D01*
X118772812Y-45727190D01*
X118887906Y-45813350D01*
X118887913Y-45813354D01*
X119022620Y-45863596D01*
X119022627Y-45863598D01*
X119082155Y-45869999D01*
X119082172Y-45870000D01*
X119730000Y-45870000D01*
X119730000Y-44953012D01*
X119787007Y-44985925D01*
X119914174Y-45020000D01*
X120045826Y-45020000D01*
X120172993Y-44985925D01*
X120230000Y-44953012D01*
X120230000Y-45870000D01*
X120877828Y-45870000D01*
X120877844Y-45869999D01*
X120937372Y-45863598D01*
X120937379Y-45863596D01*
X121072086Y-45813354D01*
X121072093Y-45813350D01*
X121187187Y-45727190D01*
X121187190Y-45727187D01*
X121273350Y-45612093D01*
X121273354Y-45612086D01*
X121322422Y-45480529D01*
X121364293Y-45424595D01*
X121429757Y-45400178D01*
X121498030Y-45415030D01*
X121526285Y-45436181D01*
X121640213Y-45550109D01*
X121812179Y-45675048D01*
X121812181Y-45675049D01*
X121812184Y-45675051D01*
X122001588Y-45771557D01*
X122203757Y-45837246D01*
X122413713Y-45870500D01*
X122413714Y-45870500D01*
X122626286Y-45870500D01*
X122626287Y-45870500D01*
X122836243Y-45837246D01*
X123038412Y-45771557D01*
X123227816Y-45675051D01*
X123314471Y-45612093D01*
X123399786Y-45550109D01*
X123399788Y-45550106D01*
X123399792Y-45550104D01*
X123550104Y-45399792D01*
X123550106Y-45399788D01*
X123550109Y-45399786D01*
X123675048Y-45227820D01*
X123675047Y-45227820D01*
X123675051Y-45227816D01*
X123679514Y-45219054D01*
X123727488Y-45168259D01*
X123795308Y-45151463D01*
X123861444Y-45173999D01*
X123900486Y-45219056D01*
X123904951Y-45227820D01*
X124029890Y-45399786D01*
X124180213Y-45550109D01*
X124352179Y-45675048D01*
X124352181Y-45675049D01*
X124352184Y-45675051D01*
X124541588Y-45771557D01*
X124743757Y-45837246D01*
X124953713Y-45870500D01*
X124953714Y-45870500D01*
X125166286Y-45870500D01*
X125166287Y-45870500D01*
X125376243Y-45837246D01*
X125578412Y-45771557D01*
X125767816Y-45675051D01*
X125854471Y-45612093D01*
X125939786Y-45550109D01*
X125939788Y-45550106D01*
X125939792Y-45550104D01*
X126090104Y-45399792D01*
X126090106Y-45399788D01*
X126090109Y-45399786D01*
X126215048Y-45227820D01*
X126215047Y-45227820D01*
X126215051Y-45227816D01*
X126219514Y-45219054D01*
X126267488Y-45168259D01*
X126335308Y-45151463D01*
X126401444Y-45173999D01*
X126440486Y-45219056D01*
X126444951Y-45227820D01*
X126569890Y-45399786D01*
X126720213Y-45550109D01*
X126892179Y-45675048D01*
X126892181Y-45675049D01*
X126892184Y-45675051D01*
X127081588Y-45771557D01*
X127283757Y-45837246D01*
X127493713Y-45870500D01*
X127493714Y-45870500D01*
X127706286Y-45870500D01*
X127706287Y-45870500D01*
X127916243Y-45837246D01*
X128118412Y-45771557D01*
X128307816Y-45675051D01*
X128394471Y-45612093D01*
X128479786Y-45550109D01*
X128479788Y-45550106D01*
X128479792Y-45550104D01*
X128630104Y-45399792D01*
X128630106Y-45399788D01*
X128630109Y-45399786D01*
X128755048Y-45227820D01*
X128755047Y-45227820D01*
X128755051Y-45227816D01*
X128759514Y-45219054D01*
X128807488Y-45168259D01*
X128875308Y-45151463D01*
X128941444Y-45173999D01*
X128980486Y-45219056D01*
X128984951Y-45227820D01*
X129109890Y-45399786D01*
X129260213Y-45550109D01*
X129432179Y-45675048D01*
X129432181Y-45675049D01*
X129432184Y-45675051D01*
X129621588Y-45771557D01*
X129823757Y-45837246D01*
X130033713Y-45870500D01*
X130033714Y-45870500D01*
X130246286Y-45870500D01*
X130246287Y-45870500D01*
X130456243Y-45837246D01*
X130658412Y-45771557D01*
X130847816Y-45675051D01*
X130934471Y-45612093D01*
X131019786Y-45550109D01*
X131019788Y-45550106D01*
X131019792Y-45550104D01*
X131170104Y-45399792D01*
X131170106Y-45399788D01*
X131170109Y-45399786D01*
X131295048Y-45227820D01*
X131295047Y-45227820D01*
X131295051Y-45227816D01*
X131299514Y-45219054D01*
X131347488Y-45168259D01*
X131415308Y-45151463D01*
X131481444Y-45173999D01*
X131520486Y-45219056D01*
X131524951Y-45227820D01*
X131649890Y-45399786D01*
X131800213Y-45550109D01*
X131972179Y-45675048D01*
X131972181Y-45675049D01*
X131972184Y-45675051D01*
X132161588Y-45771557D01*
X132363757Y-45837246D01*
X132573713Y-45870500D01*
X132573714Y-45870500D01*
X132786286Y-45870500D01*
X132786287Y-45870500D01*
X132996243Y-45837246D01*
X133198412Y-45771557D01*
X133387816Y-45675051D01*
X133474471Y-45612093D01*
X133559786Y-45550109D01*
X133559788Y-45550106D01*
X133559792Y-45550104D01*
X133710104Y-45399792D01*
X133710106Y-45399788D01*
X133710109Y-45399786D01*
X133835048Y-45227820D01*
X133835047Y-45227820D01*
X133835051Y-45227816D01*
X133872703Y-45153920D01*
X142049499Y-45153920D01*
X142078340Y-45298907D01*
X142078343Y-45298917D01*
X142134912Y-45435488D01*
X142134919Y-45435501D01*
X142217048Y-45558415D01*
X142217051Y-45558419D01*
X142321580Y-45662948D01*
X142321584Y-45662951D01*
X142444498Y-45745080D01*
X142444511Y-45745087D01*
X142581082Y-45801656D01*
X142581087Y-45801658D01*
X142581091Y-45801658D01*
X142581092Y-45801659D01*
X142726079Y-45830500D01*
X142726082Y-45830500D01*
X142873920Y-45830500D01*
X142971462Y-45811096D01*
X143018913Y-45801658D01*
X143155495Y-45745084D01*
X143278416Y-45662951D01*
X143382951Y-45558416D01*
X143465084Y-45435495D01*
X143521658Y-45298913D01*
X143535800Y-45227820D01*
X143550500Y-45153920D01*
X143550500Y-45006079D01*
X143521659Y-44861092D01*
X143521658Y-44861091D01*
X143521658Y-44861087D01*
X143483929Y-44770000D01*
X143465087Y-44724511D01*
X143465080Y-44724498D01*
X143382951Y-44601584D01*
X143382948Y-44601580D01*
X143278419Y-44497051D01*
X143278415Y-44497048D01*
X143155501Y-44414919D01*
X143155488Y-44414912D01*
X143018917Y-44358343D01*
X143018907Y-44358340D01*
X142873920Y-44329500D01*
X142873918Y-44329500D01*
X142726082Y-44329500D01*
X142726080Y-44329500D01*
X142581092Y-44358340D01*
X142581082Y-44358343D01*
X142444511Y-44414912D01*
X142444498Y-44414919D01*
X142321584Y-44497048D01*
X142321580Y-44497051D01*
X142217051Y-44601580D01*
X142217048Y-44601584D01*
X142134919Y-44724498D01*
X142134912Y-44724511D01*
X142078343Y-44861082D01*
X142078340Y-44861092D01*
X142049500Y-45006079D01*
X142049500Y-45006082D01*
X142049500Y-45153918D01*
X142049500Y-45153920D01*
X142049499Y-45153920D01*
X133872703Y-45153920D01*
X133931557Y-45038412D01*
X133997246Y-44836243D01*
X134030500Y-44626287D01*
X134030500Y-44413713D01*
X133997246Y-44203757D01*
X133931557Y-44001588D01*
X133835051Y-43812184D01*
X133835049Y-43812181D01*
X133835048Y-43812179D01*
X133710109Y-43640213D01*
X133559786Y-43489890D01*
X133387820Y-43364951D01*
X133198414Y-43268444D01*
X133198413Y-43268443D01*
X133198412Y-43268443D01*
X132996243Y-43202754D01*
X132996241Y-43202753D01*
X132996240Y-43202753D01*
X132834957Y-43177208D01*
X132786287Y-43169500D01*
X132573713Y-43169500D01*
X132525042Y-43177208D01*
X132363760Y-43202753D01*
X132161585Y-43268444D01*
X131972179Y-43364951D01*
X131800213Y-43489890D01*
X131649890Y-43640213D01*
X131524949Y-43812182D01*
X131520484Y-43820946D01*
X131472509Y-43871742D01*
X131404688Y-43888536D01*
X131338553Y-43865998D01*
X131299516Y-43820946D01*
X131295050Y-43812182D01*
X131170109Y-43640213D01*
X131019786Y-43489890D01*
X130847820Y-43364951D01*
X130658414Y-43268444D01*
X130658413Y-43268443D01*
X130658412Y-43268443D01*
X130456243Y-43202754D01*
X130456241Y-43202753D01*
X130456240Y-43202753D01*
X130294957Y-43177208D01*
X130246287Y-43169500D01*
X130033713Y-43169500D01*
X129985042Y-43177208D01*
X129823760Y-43202753D01*
X129621585Y-43268444D01*
X129432179Y-43364951D01*
X129260213Y-43489890D01*
X129109890Y-43640213D01*
X128984949Y-43812182D01*
X128980484Y-43820946D01*
X128932509Y-43871742D01*
X128864688Y-43888536D01*
X128798553Y-43865998D01*
X128759516Y-43820946D01*
X128755050Y-43812182D01*
X128630109Y-43640213D01*
X128479786Y-43489890D01*
X128307820Y-43364951D01*
X128118414Y-43268444D01*
X128118413Y-43268443D01*
X128118412Y-43268443D01*
X127916243Y-43202754D01*
X127916241Y-43202753D01*
X127916240Y-43202753D01*
X127754957Y-43177208D01*
X127706287Y-43169500D01*
X127493713Y-43169500D01*
X127445042Y-43177208D01*
X127283760Y-43202753D01*
X127081585Y-43268444D01*
X126892179Y-43364951D01*
X126720213Y-43489890D01*
X126569890Y-43640213D01*
X126444949Y-43812182D01*
X126440484Y-43820946D01*
X126392509Y-43871742D01*
X126324688Y-43888536D01*
X126258553Y-43865998D01*
X126219516Y-43820946D01*
X126215050Y-43812182D01*
X126090109Y-43640213D01*
X125939786Y-43489890D01*
X125767820Y-43364951D01*
X125578414Y-43268444D01*
X125578413Y-43268443D01*
X125578412Y-43268443D01*
X125376243Y-43202754D01*
X125376241Y-43202753D01*
X125376240Y-43202753D01*
X125214957Y-43177208D01*
X125166287Y-43169500D01*
X124953713Y-43169500D01*
X124905042Y-43177208D01*
X124743760Y-43202753D01*
X124541585Y-43268444D01*
X124352179Y-43364951D01*
X124180213Y-43489890D01*
X124029890Y-43640213D01*
X123904949Y-43812182D01*
X123900484Y-43820946D01*
X123852509Y-43871742D01*
X123784688Y-43888536D01*
X123718553Y-43865998D01*
X123679516Y-43820946D01*
X123675050Y-43812182D01*
X123550109Y-43640213D01*
X123399786Y-43489890D01*
X123227820Y-43364951D01*
X123038414Y-43268444D01*
X123038413Y-43268443D01*
X123038412Y-43268443D01*
X122836243Y-43202754D01*
X122836241Y-43202753D01*
X122836240Y-43202753D01*
X122674957Y-43177208D01*
X122626287Y-43169500D01*
X122413713Y-43169500D01*
X122365042Y-43177208D01*
X122203760Y-43202753D01*
X122001585Y-43268444D01*
X121812179Y-43364951D01*
X121640215Y-43489889D01*
X121526285Y-43603819D01*
X121464962Y-43637303D01*
X121395270Y-43632319D01*
X121339337Y-43590447D01*
X121322422Y-43559470D01*
X121273354Y-43427913D01*
X121273350Y-43427906D01*
X121187190Y-43312812D01*
X121187187Y-43312809D01*
X121072093Y-43226649D01*
X121072086Y-43226645D01*
X120937379Y-43176403D01*
X120937372Y-43176401D01*
X120877844Y-43170000D01*
X120230000Y-43170000D01*
X120230000Y-44086988D01*
X120172993Y-44054075D01*
X120045826Y-44020000D01*
X119914174Y-44020000D01*
X119787007Y-44054075D01*
X119730000Y-44086988D01*
X119730000Y-43170000D01*
X119082155Y-43170000D01*
X119022627Y-43176401D01*
X119022620Y-43176403D01*
X118887913Y-43226645D01*
X118887906Y-43226649D01*
X118772812Y-43312809D01*
X118772809Y-43312812D01*
X118686649Y-43427906D01*
X118686645Y-43427913D01*
X118636403Y-43562620D01*
X118636401Y-43562627D01*
X118630000Y-43622155D01*
X42690500Y-43622155D01*
X42690500Y-42804500D01*
X42710185Y-42737461D01*
X42762989Y-42691706D01*
X42814500Y-42680500D01*
X162215500Y-42680500D01*
X162282539Y-42700185D01*
G37*
%TD.AperFunction*%
%TD*%
%TA.AperFunction,Conductor*%
%TO.N,GND*%
G36*
X174654660Y-62489294D02*
G01*
X174721694Y-62508982D01*
X174767445Y-62561790D01*
X174772577Y-62574972D01*
X174783443Y-62608413D01*
X174879951Y-62797820D01*
X175004890Y-62969786D01*
X175155213Y-63120109D01*
X175327179Y-63245048D01*
X175327181Y-63245049D01*
X175327184Y-63245051D01*
X175516588Y-63341557D01*
X175718757Y-63407246D01*
X175928713Y-63440500D01*
X175928714Y-63440500D01*
X176141286Y-63440500D01*
X176141287Y-63440500D01*
X176351243Y-63407246D01*
X176553412Y-63341557D01*
X176742816Y-63245051D01*
X176850501Y-63166814D01*
X176914786Y-63120109D01*
X176914788Y-63120106D01*
X176914792Y-63120104D01*
X177065104Y-62969792D01*
X177065106Y-62969788D01*
X177065109Y-62969786D01*
X177190048Y-62797820D01*
X177190047Y-62797820D01*
X177190051Y-62797816D01*
X177286557Y-62608412D01*
X177297355Y-62575177D01*
X177336790Y-62517503D01*
X177401148Y-62490304D01*
X177415276Y-62489496D01*
X180214382Y-62489700D01*
X180276370Y-62506312D01*
X180328469Y-62536392D01*
X180455763Y-62570500D01*
X184105500Y-62570500D01*
X184172539Y-62590185D01*
X184218294Y-62642989D01*
X184229500Y-62694500D01*
X184229500Y-78955710D01*
X184209815Y-79022749D01*
X184157011Y-79068504D01*
X184105353Y-79079710D01*
X177377383Y-79071747D01*
X177310367Y-79051983D01*
X177267045Y-79004042D01*
X177258629Y-78987524D01*
X177210051Y-78892184D01*
X177209308Y-78891161D01*
X177085109Y-78720213D01*
X176934786Y-78569890D01*
X176762820Y-78444951D01*
X176573414Y-78348444D01*
X176573413Y-78348443D01*
X176573412Y-78348443D01*
X176371243Y-78282754D01*
X176371241Y-78282753D01*
X176371240Y-78282753D01*
X176209957Y-78257208D01*
X176161287Y-78249500D01*
X175948713Y-78249500D01*
X175900042Y-78257208D01*
X175738760Y-78282753D01*
X175536585Y-78348444D01*
X175347179Y-78444951D01*
X175175213Y-78569890D01*
X175024890Y-78720213D01*
X174899949Y-78892182D01*
X174844546Y-79000915D01*
X174796571Y-79051710D01*
X174733915Y-79068619D01*
X167573475Y-79060146D01*
X167506459Y-79040382D01*
X167460767Y-78987524D01*
X167449623Y-78936527D01*
X167437062Y-74813920D01*
X180399499Y-74813920D01*
X180428340Y-74958907D01*
X180428343Y-74958917D01*
X180484912Y-75095488D01*
X180484919Y-75095501D01*
X180567048Y-75218415D01*
X180567051Y-75218419D01*
X180671580Y-75322948D01*
X180671584Y-75322951D01*
X180794498Y-75405080D01*
X180794511Y-75405087D01*
X180931082Y-75461656D01*
X180931087Y-75461658D01*
X180931091Y-75461658D01*
X180931092Y-75461659D01*
X181076079Y-75490500D01*
X181076082Y-75490500D01*
X181223920Y-75490500D01*
X181321462Y-75471096D01*
X181368913Y-75461658D01*
X181505495Y-75405084D01*
X181628416Y-75322951D01*
X181732951Y-75218416D01*
X181815084Y-75095495D01*
X181871658Y-74958913D01*
X181891433Y-74859500D01*
X181900500Y-74813920D01*
X181900500Y-74666079D01*
X181871659Y-74521092D01*
X181871658Y-74521091D01*
X181871658Y-74521087D01*
X181852938Y-74475892D01*
X181815087Y-74384511D01*
X181815080Y-74384498D01*
X181732951Y-74261584D01*
X181732948Y-74261580D01*
X181628419Y-74157051D01*
X181628415Y-74157048D01*
X181505501Y-74074919D01*
X181505488Y-74074912D01*
X181368917Y-74018343D01*
X181368907Y-74018340D01*
X181223920Y-73989500D01*
X181223918Y-73989500D01*
X181076082Y-73989500D01*
X181076080Y-73989500D01*
X180931092Y-74018340D01*
X180931082Y-74018343D01*
X180794511Y-74074912D01*
X180794498Y-74074919D01*
X180671584Y-74157048D01*
X180671580Y-74157051D01*
X180567051Y-74261580D01*
X180567048Y-74261584D01*
X180484919Y-74384498D01*
X180484912Y-74384511D01*
X180428343Y-74521082D01*
X180428340Y-74521092D01*
X180399500Y-74666079D01*
X180399500Y-74666082D01*
X180399500Y-74813918D01*
X180399500Y-74813920D01*
X180399499Y-74813920D01*
X167437062Y-74813920D01*
X167422376Y-69993920D01*
X170389499Y-69993920D01*
X170418340Y-70138907D01*
X170418343Y-70138917D01*
X170474912Y-70275488D01*
X170474919Y-70275501D01*
X170557048Y-70398415D01*
X170557051Y-70398419D01*
X170661580Y-70502948D01*
X170661584Y-70502951D01*
X170784498Y-70585080D01*
X170784511Y-70585087D01*
X170921082Y-70641656D01*
X170921087Y-70641658D01*
X170921091Y-70641658D01*
X170921092Y-70641659D01*
X171066079Y-70670500D01*
X171066082Y-70670500D01*
X171213920Y-70670500D01*
X171311462Y-70651096D01*
X171358913Y-70641658D01*
X171495495Y-70585084D01*
X171618416Y-70502951D01*
X171722951Y-70398416D01*
X171805084Y-70275495D01*
X171861658Y-70138913D01*
X171874355Y-70075084D01*
X171890500Y-69993920D01*
X171890500Y-69846079D01*
X171861659Y-69701092D01*
X171861658Y-69701091D01*
X171861658Y-69701087D01*
X171861656Y-69701082D01*
X171805087Y-69564511D01*
X171805080Y-69564498D01*
X171751239Y-69483920D01*
X177099499Y-69483920D01*
X177128340Y-69628907D01*
X177128343Y-69628917D01*
X177184912Y-69765488D01*
X177184919Y-69765501D01*
X177267048Y-69888415D01*
X177267051Y-69888419D01*
X177371580Y-69992948D01*
X177371584Y-69992951D01*
X177494498Y-70075080D01*
X177494511Y-70075087D01*
X177631082Y-70131656D01*
X177631087Y-70131658D01*
X177631091Y-70131658D01*
X177631092Y-70131659D01*
X177776079Y-70160500D01*
X177776082Y-70160500D01*
X177923920Y-70160500D01*
X178032420Y-70138917D01*
X178068913Y-70131658D01*
X178205495Y-70075084D01*
X178328416Y-69992951D01*
X178432951Y-69888416D01*
X178515084Y-69765495D01*
X178571658Y-69628913D01*
X178584471Y-69564498D01*
X178600500Y-69483920D01*
X178600500Y-69353920D01*
X180419499Y-69353920D01*
X180448340Y-69498907D01*
X180448343Y-69498917D01*
X180504912Y-69635488D01*
X180504919Y-69635501D01*
X180587048Y-69758415D01*
X180587051Y-69758419D01*
X180691580Y-69862948D01*
X180691584Y-69862951D01*
X180814498Y-69945080D01*
X180814511Y-69945087D01*
X180951082Y-70001656D01*
X180951087Y-70001658D01*
X180951091Y-70001658D01*
X180951092Y-70001659D01*
X181096079Y-70030500D01*
X181096082Y-70030500D01*
X181243920Y-70030500D01*
X181341462Y-70011096D01*
X181388913Y-70001658D01*
X181525495Y-69945084D01*
X181648416Y-69862951D01*
X181752951Y-69758416D01*
X181835084Y-69635495D01*
X181891658Y-69498913D01*
X181920500Y-69353918D01*
X181920500Y-69206082D01*
X181920500Y-69206079D01*
X181891659Y-69061092D01*
X181891658Y-69061091D01*
X181891658Y-69061087D01*
X181867468Y-69002686D01*
X181835087Y-68924511D01*
X181835080Y-68924498D01*
X181752951Y-68801584D01*
X181752948Y-68801580D01*
X181648419Y-68697051D01*
X181648415Y-68697048D01*
X181525501Y-68614919D01*
X181525488Y-68614912D01*
X181388917Y-68558343D01*
X181388907Y-68558340D01*
X181243920Y-68529500D01*
X181243918Y-68529500D01*
X181096082Y-68529500D01*
X181096080Y-68529500D01*
X180951092Y-68558340D01*
X180951082Y-68558343D01*
X180814511Y-68614912D01*
X180814498Y-68614919D01*
X180691584Y-68697048D01*
X180691580Y-68697051D01*
X180587051Y-68801580D01*
X180587048Y-68801584D01*
X180504919Y-68924498D01*
X180504912Y-68924511D01*
X180448343Y-69061082D01*
X180448340Y-69061092D01*
X180419500Y-69206079D01*
X180419500Y-69206082D01*
X180419500Y-69353918D01*
X180419500Y-69353920D01*
X180419499Y-69353920D01*
X178600500Y-69353920D01*
X178600500Y-69336079D01*
X178600499Y-69336077D01*
X178578242Y-69224181D01*
X178571659Y-69191091D01*
X178571656Y-69191082D01*
X178515087Y-69054511D01*
X178515080Y-69054498D01*
X178432951Y-68931584D01*
X178432948Y-68931580D01*
X178328419Y-68827051D01*
X178328415Y-68827048D01*
X178205501Y-68744919D01*
X178205488Y-68744912D01*
X178068917Y-68688343D01*
X178068907Y-68688340D01*
X177923920Y-68659500D01*
X177923918Y-68659500D01*
X177776082Y-68659500D01*
X177776080Y-68659500D01*
X177631092Y-68688340D01*
X177631082Y-68688343D01*
X177494511Y-68744912D01*
X177494498Y-68744919D01*
X177371584Y-68827048D01*
X177371580Y-68827051D01*
X177267051Y-68931580D01*
X177267048Y-68931584D01*
X177184919Y-69054498D01*
X177184912Y-69054511D01*
X177128343Y-69191082D01*
X177128340Y-69191092D01*
X177099500Y-69336079D01*
X177099500Y-69336082D01*
X177099500Y-69483918D01*
X177099500Y-69483920D01*
X177099499Y-69483920D01*
X171751239Y-69483920D01*
X171722951Y-69441584D01*
X171722948Y-69441580D01*
X171618419Y-69337051D01*
X171618415Y-69337048D01*
X171495501Y-69254919D01*
X171495488Y-69254912D01*
X171358917Y-69198343D01*
X171358907Y-69198340D01*
X171213920Y-69169500D01*
X171213918Y-69169500D01*
X171066082Y-69169500D01*
X171066080Y-69169500D01*
X170921092Y-69198340D01*
X170921082Y-69198343D01*
X170784511Y-69254912D01*
X170784498Y-69254919D01*
X170661584Y-69337048D01*
X170661580Y-69337051D01*
X170557051Y-69441580D01*
X170557048Y-69441584D01*
X170474919Y-69564498D01*
X170474912Y-69564511D01*
X170418343Y-69701082D01*
X170418340Y-69701092D01*
X170389500Y-69846079D01*
X170389500Y-69846082D01*
X170389500Y-69993918D01*
X170389500Y-69993920D01*
X170389499Y-69993920D01*
X167422376Y-69993920D01*
X167401813Y-63245048D01*
X167400137Y-62694878D01*
X167419617Y-62627779D01*
X167472281Y-62581863D01*
X167524136Y-62570500D01*
X171584235Y-62570500D01*
X171584237Y-62570500D01*
X171711531Y-62536392D01*
X171711535Y-62536390D01*
X171721007Y-62530920D01*
X171764690Y-62505700D01*
X171826696Y-62489087D01*
X174654660Y-62489294D01*
G37*
%TD.AperFunction*%
%TD*%
M02*
